<?xml version="1.0" standalone="no"?>
<!DOCTYPE svg PUBLIC "-//W3C//DTD SVG 1.1//EN" "http://www.w3.org/Graphics/SVG/1.1/DTD/svg11.dtd" >
<svg>
<metadata>
Created by FontForge 20090914 at Mon Feb 22 11:48:59 2021
 By www-data
Copyright 2020 The Jost Project Authors (https://github.com/indestructible-type)
</metadata>
<defs>
<font id="Jost-Medium" horiz-adv-x="600" >
  <font-face 
    font-family="Jost Medium"
    font-weight="500"
    font-stretch="normal"
    units-per-em="1000"
    panose-1="0 0 0 0 0 0 0 0 0 0"
    ascent="800"
    descent="-200"
    x-height="460"
    cap-height="700"
    bbox="-132.004 -355.998 1609 1035"
    underline-thickness="50"
    underline-position="-125"
    unicode-range="U+000D-U+FF19"
  />
<missing-glyph horiz-adv-x="500" 
d="M50 -200h400v1000h-400v-1000zM100 -150v900h300v-900h-300z" />
    <glyph glyph-name=".notdef" horiz-adv-x="500" 
d="M50 -200h400v1000h-400v-1000zM100 -150v900h300v-900h-300z" />
    <glyph glyph-name="uni0000" horiz-adv-x="300" 
 />
    <glyph glyph-name="uni0000" horiz-adv-x="300" 
 />
    <glyph glyph-name="uni000D" unicode="&#xd;" horiz-adv-x="300" 
 />
    <glyph glyph-name="space" unicode=" " horiz-adv-x="300" 
 />
    <glyph glyph-name="exclam" unicode="!" horiz-adv-x="318" 
d="M91 700l25 -487h85l25 487h-135zM88 49c0 -18.667 6.83301 -34.667 20.5 -48s30.5 -20 50.5 -20s36.833 6.66699 50.5 20s20.5 29.333 20.5 48c0 19.333 -6.83301 35.333 -20.5 48s-30.5 19 -50.5 19s-36.833 -6.33301 -50.5 -19s-20.5 -28.667 -20.5 -48z" />
    <glyph glyph-name="quotedbl" unicode="&#x22;" horiz-adv-x="486" 
d="M120 700l-47 -307h72l96 307h-121zM313 700l-48 -307h73l96 307h-121z" />
    <glyph glyph-name="numbersign" unicode="#" horiz-adv-x="630" 
d="M75 429h138l19 2h197l20 -2h146v87h-520v-87zM35 189h520v87h-126l-24 -2h-212l-23 2h-135v-87zM463 700l-54 -218l-2 -22l-52 -212l-8 -21l-54 -227h97l170 700h-97zM240 700l-170 -700h98l55 226l2 21l52 215l8 23l53 215h-98z" />
    <glyph glyph-name="dollar" unicode="$" horiz-adv-x="597" 
d="M260 818l3 -162h89l2 162h-94zM263 54l-3 -166h94l-2 166h-89zM444 504l91.9971 56.9932c-11.333 24.667 -27.166 48.334 -47.499 71.001s-45.5 41.334 -75.5 56.001s-66.333 22 -109 22c-42 0 -79.667 -8 -113 -24s-59.5 -37.333 -78.5 -64s-28.5 -56.334 -28.5 -89.001
c0 -33.333 6 -61.666 18 -84.999s27.333 -43.166 46 -59.499s38.5 -29.666 59.5 -39.999s40.167 -18.5 57.5 -24.5c26.667 -10 51.834 -20.667 75.501 -32s43 -25.166 58 -41.499s22.5 -37.166 22.5 -62.499c0 -20 -3.83301 -37.167 -11.5 -51.5
s-19.334 -25.333 -35.001 -33s-35.5 -11.5 -59.5 -11.5c-26.667 0 -50.667 5.66699 -72 17s-40.5 27.833 -57.5 49.5s-33.167 47.5 -48.5 77.5l-91 -59c14.667 -36 35 -68 61 -96s56.5 -50.167 91.5 -66.5s72.167 -24.5 111.5 -24.5c50 0 92.5 8.16699 127.5 24.5
s61.667 39.833 80 70.5s27.5 66.667 27.5 108c0 31.333 -5.16699 58.5 -15.5 81.5s-24.333 42.667 -42 59s-37 30.166 -58 41.499s-41.5 20.666 -61.5 27.999c-28 10.667 -54.333 21.334 -79 32.001s-44.5 23.334 -59.5 38.001s-22.5 33.334 -22.5 56.001
c0 17.333 3.5 32.166 10.5 44.499s17.833 21.833 32.5 28.5s33.667 10 57 10c22.667 0 42.334 -5 59.001 -15s31.334 -23.167 44.001 -39.5s24 -34.166 34 -53.499z" />
    <glyph glyph-name="percent" unicode="%" horiz-adv-x="819" 
d="M30 544c0 -31.333 7.16699 -59.833 21.5 -85.5s34.5 -46.167 60.5 -61.5s55.333 -23 88 -23c34 0 63.833 7.66699 89.5 23s45.667 35.833 60 61.5s21.5 54.167 21.5 85.5s-7.16699 59.833 -21.5 85.5s-34.333 46.167 -60 61.5s-55.5 23 -89.5 23
c-32.667 0 -62 -7.66699 -88 -23s-46.167 -35.833 -60.5 -61.5s-21.5 -54.167 -21.5 -85.5zM123 544c0 15.333 3.16699 29.333 9.5 42s15.333 22.667 27 30s25.167 11 40.5 11c16.667 0 30.667 -3.66699 42 -11s20.333 -17.333 27 -30s10 -26.667 10 -42
c0 -14.667 -3.33301 -28.5 -10 -41.5s-15.667 -23.333 -27 -31s-25.333 -11.5 -42 -11.5c-15.333 0 -28.833 3.83301 -40.5 11.5s-20.667 18 -27 31s-9.5 26.833 -9.5 41.5zM448 157c0 -31.333 7.16699 -60 21.5 -86s34.5 -46.5 60.5 -61.5s55.333 -22.5 88 -22.5
c34 0 63.667 7.5 89 22.5s45.333 35.5 60 61.5s22 54.667 22 86s-7.33301 59.833 -22 85.5s-34.667 46.167 -60 61.5s-55 23 -89 23c-32.667 0 -62 -7.66699 -88 -23s-46.167 -35.833 -60.5 -61.5s-21.5 -54.167 -21.5 -85.5zM540 157c0 15.333 3.16699 29.1689 9.5 41.502
s15.333 22.333 27 30s25.5 11.5 41.5 11.5c16.667 0 30.667 -3.83301 42 -11.5s20.166 -17.834 26.499 -30.501s9.5 -26.334 9.5 -41.001s-3.16699 -28.5 -9.5 -41.5s-15.166 -23.333 -26.499 -31s-25.333 -11.5 -42 -11.5c-16 0 -29.833 3.83301 -41.5 11.5
s-20.667 18 -27 31s-9.5 26.833 -9.5 41.5zM598 700.003l-485 -700h108l485 700h-108z" />
    <glyph glyph-name="ampersand" unicode="&#x26;" horiz-adv-x="706" 
d="M223 379l337.003 -378.992h127l-370 415l-60.5 69.5c-17.667 20.333 -26.5 41.166 -26.5 62.499c0 22 6.83301 40.167 20.5 54.5s33.167 21.5 58.5 21.5c16.667 0 30.834 -3.5 42.501 -10.5s20.667 -16.167 27 -27.5s9.5 -24.333 9.5 -39
c0 -20.667 -10.5 -42.167 -31.5 -64.5s-50.167 -43.5 -87.5 -63.5c-13.333 -6.66699 -29.833 -14.334 -49.5 -23.001s-40 -18.834 -61 -30.501s-40.333 -25.667 -58 -42s-32.167 -35.833 -43.5 -58.5s-17 -49 -17 -79c0 -40 11 -74.833 33 -104.5s50.667 -52.334 86 -68.001
s73.333 -23.5 114 -23.5c46 0 88.667 8.33301 128 25s75.666 38.5 108.999 65.5s64.166 57.333 92.499 91s54.833 67.5 79.5 101.5l-78 54c-22 -32 -45.333 -62.5 -70 -91.5s-50.5 -54.667 -77.5 -77s-54.833 -40.166 -83.5 -53.499s-58.334 -20 -89.001 -20
c-25.333 0 -47.666 4.66699 -66.999 14s-34.5 22.166 -45.5 38.499s-16.5 35.166 -16.5 56.499c0 23.333 5.83301 43.166 17.5 59.499s26.667 30.5 45 42.5s37.833 23 58.5 33s40 20.667 58 32c25.333 15.333 47.666 30.333 66.999 45s35.666 29.667 48.999 45
s23.5 31.333 30.5 48s10.5 34.667 10.5 54c0 28 -7 54.167 -21 78.5s-34.5 44.333 -61.5 60s-59.833 23.5 -98.5 23.5c-38 0 -71.167 -7.16699 -99.5 -21.5s-50.333 -33.833 -66 -58.5s-23.5 -52.334 -23.5 -83.001c0 -24.667 5.83301 -47.334 17.5 -68.001
s25.5 -39.5 41.5 -56.5z" />
    <glyph glyph-name="quotesingle" unicode="'" horiz-adv-x="294" 
d="M120 700l-47 -307h72l96 307h-121z" />
    <glyph glyph-name="parenleft" unicode="(" horiz-adv-x="323" 
d="M199 780c-40 -74.667 -69.667 -153.667 -89 -237s-29 -167.666 -29 -252.999c0 -84.667 9.66699 -168.667 29 -252s49 -162.666 89 -237.999h100c-34.667 75.333 -60.667 154.666 -78 237.999s-26 167.333 -26 252c0 85.333 8.66699 169.666 26 252.999
s43.333 162.333 78 237h-100z" />
    <glyph glyph-name="parenright" unicode=")" horiz-adv-x="323" 
d="M124 -200c40 75.333 69.5 154.666 88.5 237.999s28.5 167.333 28.5 252c0 85.333 -9.5 169.666 -28.5 252.999s-48.5 162.333 -88.5 237h-100c35.333 -74.667 61.5 -153.667 78.5 -237s25.5 -167.666 25.5 -252.999c0 -84.667 -8.5 -168.667 -25.5 -252
s-43.167 -162.666 -78.5 -237.999h100z" />
    <glyph glyph-name="asterisk" unicode="*" horiz-adv-x="592" 
d="M482 601l-195 -83l19 -58l206 48zM460 347l-140 160l-48 -36l109 -181zM212 290l108 181l-48 36l-140 -160zM80 508l207 -48l19 58l-196 83zM247 700l19 -211h60l19 211h-98z" />
    <glyph glyph-name="plus" unicode="+" horiz-adv-x="639" 
d="M65 208h509v106h-509v-106zM263 516v-511h113v511h-113z" />
    <glyph glyph-name="comma" unicode="," horiz-adv-x="314" 
d="M137 110l-88 -259l80 -22l117 250z" />
    <glyph glyph-name="hyphen" unicode="-" horiz-adv-x="215" 
d="M5 189h205v97h-205v-97z" />
    <glyph glyph-name="period" unicode="." horiz-adv-x="309" 
d="M84 51c0 -18.667 6.83301 -35 20.5 -49s30.5 -21 50.5 -21s36.667 7 50 21s20 30.333 20 49c0 19.333 -6.66699 35.833 -20 49.5s-30 20.5 -50 20.5s-36.833 -6.83301 -50.5 -20.5s-20.5 -30.167 -20.5 -49.5z" />
    <glyph glyph-name="slash" unicode="/" horiz-adv-x="553" 
d="M431 700l-416 -850h109l414 850h-107z" />
    <glyph glyph-name="zero" unicode="0" horiz-adv-x="625" 
d="M156 350c0 37.333 3.66699 71.666 11 102.999s17.833 58.333 31.5 81s30.167 40.167 49.5 52.5s41 18.5 65 18.5s45.5 -6.16699 64.5 -18.5s35.333 -29.833 49 -52.5s24.167 -49.667 31.5 -81s11 -65.666 11 -102.999s-3.66699 -71.666 -11 -102.999
s-17.833 -58.333 -31.5 -81s-30 -40.167 -49 -52.5s-40.5 -18.5 -64.5 -18.5s-45.667 6.16699 -65 18.5s-35.833 29.833 -49.5 52.5s-24.167 49.667 -31.5 81s-11 65.666 -11 102.999zM40 350c0 -72.667 11.5 -136 34.5 -190s55 -96 96 -126s88.5 -45 142.5 -45
c54.667 0 102.334 15 143.001 45s72.334 72 95.001 126s34 117.333 34 190s-11.333 136 -34 190s-54.334 96 -95.001 126s-88.334 45 -143.001 45c-54 0 -101.5 -15 -142.5 -45s-73 -72 -96 -126s-34.5 -117.333 -34.5 -190z" />
    <glyph glyph-name="one" unicode="1" horiz-adv-x="474" 
d="M75 536l163 45v-581h116v711l-279 -63v-112z" />
    <glyph glyph-name="two" unicode="2" horiz-adv-x="604" 
d="M20 0l534.001 0.00195312v110h-303l198 195c28.667 26.667 52 57 70 91s27 69.333 27 106c0 23.333 -5 47.333 -15 72s-24.833 47.334 -44.5 68.001s-44.5 37.5 -74.5 50.5s-65.333 19.5 -106 19.5c-52.667 0 -97.667 -11.167 -135 -33.5s-65.5 -53 -84.5 -92
s-28.5 -83.5 -28.5 -133.5h117c0 30.667 5.16699 57.667 15.5 81s25.166 41.166 44.499 53.499s42.333 18.5 69 18.5c19.333 0 36.333 -3.16699 51 -9.5s27.167 -14.833 37.5 -25.5s18 -22.5 23 -35.5s7.5 -26.167 7.5 -39.5c0 -18.667 -3 -36.334 -9 -53.001
s-15 -33.334 -27 -50.001s-26.333 -34 -43 -52z" />
    <glyph glyph-name="three" unicode="3" horiz-adv-x="576" 
d="M262 343c49.333 0 93.1689 7.33398 131.502 22.001s68.5 35.667 90.5 63s33 58.666 33 93.999c0 34.667 -8.5 66.167 -25.5 94.5s-41.5 51.166 -73.5 68.499s-70.667 26 -116 26c-42.667 0 -80.334 -8.5 -113.001 -25.5s-58.167 -40.167 -76.5 -69.5
s-27.5 -63.333 -27.5 -102h111c0 28 10.333 51.167 31 69.5s46 27.5 76 27.5c21.333 0 39 -4 53 -12s24.5 -19.167 31.5 -33.5s10.5 -30.833 10.5 -49.5c0 -14.667 -3.16699 -28.667 -9.5 -42s-15.333 -25.166 -27 -35.499s-25.834 -18.333 -42.501 -24
s-35.667 -8.5 -57 -8.5v-63zM297.003 -11.999c48 0 90 8.33496 126 25.002s64 40 84 70s30 65 30 105c0 34.667 -7 64.5 -21 89.5s-33.5 45.5 -58.5 61.5s-54.167 27.667 -87.5 35s-69.333 11 -108 11v-67c24 0 45.5 -2.66699 64.5 -8s35.333 -13 49 -23
s24.167 -22.333 31.5 -37s11 -31.334 11 -50.001c0 -23.333 -4.83301 -43.166 -14.5 -59.499s-23.5 -28.833 -41.5 -37.5s-39 -13 -63 -13c-23.333 0 -44.5 4.5 -63.5 13.5s-34 21.833 -45 38.5s-16.5 36 -16.5 58h-119c0 -28.667 5.66699 -55.834 17 -81.501
s27.5 -48.334 48.5 -68.001s46.333 -35 76 -46s63.167 -16.5 100.5 -16.5z" />
    <glyph glyph-name="four" unicode="4" horiz-adv-x="629" 
d="M18 134h576v102h-143l-17 -8h-243l180 261v-302l-8 -11v-176h121v700h-71z" />
    <glyph glyph-name="five" unicode="5" horiz-adv-x="597" 
d="M557 228c0 47.333 -9.50293 88.332 -28.5029 122.999s-44.5 61.667 -76.5 81s-67.333 29 -106 29c-19.333 0 -38.333 -2 -57 -6s-36.667 -10.333 -54 -19l44 160h271v104h-360l-95 -385c24 14.667 46.167 26 66.5 34s40.333 13.5 60 16.5s39.834 4.5 60.501 4.5
c26.667 0 51.334 -5.33301 74.001 -16s40.667 -26 54 -46s20 -44.333 20 -73c0 -28 -5.83301 -52.167 -17.5 -72.5s-28.5 -36 -50.5 -47s-48.667 -16.5 -80 -16.5c-22 0 -44.167 4.5 -66.5 13.5s-42.833 21 -61.5 36s-35 31.833 -49 50.5l-70 -86c18 -22 39 -42.5 63 -61.5
s52.5 -34.167 85.5 -45.5s70.833 -17 113.5 -17c34 0 66.333 4.83301 97 14.5s58.334 24.334 83.001 44.001s44.167 44.5 58.5 74.5s21.5 65.333 21.5 106z" />
    <glyph glyph-name="six" unicode="6" horiz-adv-x="614" 
d="M166 236c0 28.667 6.16699 54.167 18.5 76.5s29.166 39.666 50.499 51.999s45.333 18.5 72 18.5s50.667 -6.16699 72 -18.5s38.166 -29.666 50.499 -51.999s18.5 -47.833 18.5 -76.5s-6.16699 -53.667 -18.5 -75s-29.166 -38.166 -50.499 -50.499
s-45.333 -18.5 -72 -18.5s-50.667 6.16699 -72 18.5s-38.166 29.166 -50.499 50.499s-18.5 46.333 -18.5 75zM331 699l-222.001 -297.999c-17.333 -22 -31.5 -46.833 -42.5 -74.5s-16.5 -57.834 -16.5 -90.501c0 -51.333 11.5 -95.666 34.5 -132.999
s53.833 -65.833 92.5 -85.5s82 -29.5 130 -29.5s91.333 9.83301 130 29.5s69.5 48.167 92.5 85.5s34.5 81.666 34.5 132.999c0 33.333 -5.83301 64 -17.5 92s-27.334 52.167 -47.001 72.5s-42.167 36 -67.5 47s-51.666 16.5 -78.999 16.5c-24 0 -44.667 -2.83301 -62 -8.5
s-33.666 -17.167 -48.999 -34.5l17 3l222 275h-150z" />
    <glyph glyph-name="seven" unicode="7" horiz-adv-x="556" 
d="M30 589h347l-287 -589h126l337 700h-523v-111z" />
    <glyph glyph-name="eight" unicode="8" horiz-adv-x="579" 
d="M79 531c0 -29.333 5.5 -55.166 16.5 -77.499s26.167 -41.166 45.5 -56.499s41.666 -27 66.999 -35s52.333 -12 81 -12s55.834 4 81.501 12s48.167 19.667 67.5 35s34.5 34.166 45.5 56.499s16.5 48.166 16.5 77.499c0 36 -9.5 67.5 -28.5 94.5s-44.333 48.333 -76 64
s-67.167 23.5 -106.5 23.5c-38.667 0 -74 -7.83301 -106 -23.5s-57.333 -37 -76 -64s-28 -58.5 -28 -94.5zM191 519c0 19.333 4.16699 36.666 12.5 51.999s20 27.166 35 35.499s31.833 12.5 50.5 12.5c20 0 37.167 -4.16699 51.5 -12.5s25.833 -20.166 34.5 -35.499
s13 -32.666 13 -51.999c0 -20 -4.5 -37.333 -13.5 -52s-21 -26.167 -36 -34.5s-31.5 -12.5 -49.5 -12.5c-17.333 0 -33.5 4.16699 -48.5 12.5s-27 19.833 -36 34.5s-13.5 32 -13.5 52zM54 190c0 -29.333 6.16699 -56.166 18.5 -80.499s29.333 -45.666 51 -63.999
s46.667 -32.5 75 -42.5s58.5 -15 90.5 -15c32.667 0 63.167 5 91.5 15s53.333 24.167 75 42.5s38.667 39.666 51 63.999s18.5 51.166 18.5 80.499c0 34 -6.66699 63.667 -20 89s-31.333 46.5 -54 63.5s-48.167 29.667 -76.5 38s-56.833 12.5 -85.5 12.5
s-57 -4.16699 -85 -12.5s-53.333 -21 -76 -38s-40.667 -38.167 -54 -63.5s-20 -55 -20 -89zM170 206c0 22 5.5 42 16.5 60s25.667 32.167 44 42.5s37.833 15.5 58.5 15.5c21.333 0 41 -5.16699 59 -15.5s32.667 -24.5 44 -42.5s17 -38 17 -60
c0 -25.333 -5.66699 -46.666 -17 -63.999s-26 -30.666 -44 -39.999s-37.667 -14 -59 -14c-20.667 0 -40.167 4.66699 -58.5 14s-33 22.666 -44 39.999s-16.5 38.666 -16.5 63.999z" />
    <glyph glyph-name="nine" unicode="9" horiz-adv-x="614" 
d="M448 464c0 -28.667 -6.16699 -54 -18.5 -76s-29.166 -39.333 -50.499 -52s-45.333 -19 -72 -19s-50.667 6.33301 -72 19s-38.166 30 -50.499 52s-18.5 47.333 -18.5 76s6.16699 53.834 18.5 75.501s29.166 38.667 50.499 51s45.333 18.5 72 18.5
s50.667 -6.16699 72 -18.5s38.166 -29.333 50.499 -51s18.5 -46.834 18.5 -75.501zM282 1l223 298.001c16.667 22.667 30.667 47.667 42 75s17 57.333 17 90c0 52 -11.5 96.5 -34.5 133.5s-53.833 65.5 -92.5 85.5s-82 30 -130 30s-91.333 -10 -130 -30
s-69.5 -48.5 -92.5 -85.5s-34.5 -81.5 -34.5 -133.5c0 -33.333 5.66699 -64 17 -92s27 -52.167 47 -72.5s42.5 -35.833 67.5 -46.5s51.5 -16 79.5 -16c23.333 0 43.833 2.66699 61.5 8s34.167 16.666 49.5 33.999l-18 -3l-222 -275h150z" />
    <glyph glyph-name="colon" unicode=":" horiz-adv-x="309" 
d="M84 51c0 -18.667 6.83301 -35 20.5 -49s30.5 -21 50.5 -21s36.667 7 50 21s20 30.333 20 49c0 19.333 -6.66699 35.833 -20 49.5s-30 20.5 -50 20.5s-36.833 -6.83301 -50.5 -20.5s-20.5 -30.167 -20.5 -49.5zM84 429c0 -18.667 6.83301 -35 20.5 -49s30.5 -21 50.5 -21
s36.667 7 50 21s20 30.333 20 49c0 19.333 -6.66699 35.833 -20 49.5s-30 20.5 -50 20.5s-36.833 -6.83301 -50.5 -20.5s-20.5 -30.167 -20.5 -49.5z" />
    <glyph glyph-name="semicolon" unicode=";" horiz-adv-x="355" 
d="M123 426c0 -18.667 6.83301 -35 20.5 -49s30.167 -21 49.5 -21c20.667 0 37.667 7 51 21s20 30.333 20 49c0 19.333 -6.66699 35.833 -20 49.5s-30.333 20.5 -51 20.5c-19.333 0 -35.833 -6.83301 -49.5 -20.5s-20.5 -30.167 -20.5 -49.5zM146 110l-88 -259l80 -22
l116 250z" />
    <glyph glyph-name="less" unicode="&#x3c;" horiz-adv-x="640" 
d="M231 264l344 140v107l-510 -217v-68l510 -217v107z" />
    <glyph glyph-name="equal" unicode="=" horiz-adv-x="620" 
d="M61 118h497v97h-497v-97zM61 290h497v98h-497v-98z" />
    <glyph glyph-name="greater" unicode="&#x3e;" horiz-adv-x="640" 
d="M410 256l-345 -140v-107l510 217v68l-510 217v-107z" />
    <glyph glyph-name="question" unicode="?" horiz-adv-x="585" 
d="M418 500c0 -22 -7.16504 -43.8369 -21.498 -65.5039s-35.333 -39.667 -63 -54s-61.5 -21.5 -101.5 -21.5h-28l20 -176h85l6 105c36.667 4 71.167 15.333 103.5 34s58.666 43.334 78.999 74.001s30.5 65.334 30.5 104.001c0 32 -6.16699 61 -18.5 87
s-29.333 48.5 -51 67.5s-46.334 33.667 -74.001 44s-57.5 15.5 -89.5 15.5c-39.333 0 -73.5 -5 -102.5 -15s-54.5 -24.167 -76.5 -42.5s-42.333 -39.833 -61 -64.5l80 -59c16.667 26.667 37.667 47.5 63 62.5s54.333 22.5 87 22.5c27.333 0 51 -4.66699 71 -14
s35.333 -22.666 46 -39.999s16 -38.666 16 -63.999zM197.002 47.9961c0 -18 6.83301 -33.667 20.5 -47s30.5 -20 50.5 -20s36.667 6.66699 50 20s20 29 20 47s-6.66699 33.5 -20 46.5s-30 19.5 -50 19.5s-36.833 -6.5 -50.5 -19.5s-20.5 -28.5 -20.5 -46.5z" />
    <glyph glyph-name="at" unicode="@" horiz-adv-x="770" 
d="M286 320c0 25.333 4.66699 47.668 14 67.001s21.333 34.5 36 45.5s30 16.5 46 16.5c14 0 26.333 -3.16699 37 -9.5s19 -15.5 25 -27.5s9 -26.667 9 -44c0 -30.667 -5.33301 -55.5 -16 -74.5s-23.667 -32.833 -39 -41.5s-30.333 -13 -45 -13
c-22 0 -38.667 7.16699 -50 21.5s-17 34.166 -17 59.499zM193 315.002c0 -32.667 5.99512 -60.8291 17.9951 -84.4961s28.333 -41.667 49 -54s43.334 -18.5 68.001 -18.5c30.667 0 58.334 8 83.001 24s44.667 39.833 60 71.5s23 70.5 23 116.5
c0 27.333 -4.66699 53.166 -14 77.499s-23.166 44.166 -41.499 59.499s-40.833 23 -67.5 23c-27.333 0 -54.666 -8.33301 -81.999 -25s-50.166 -40.834 -68.499 -72.501s-27.5 -70.834 -27.5 -117.501zM28.9951 320.007c0 -66 12.8359 -124.33 38.5029 -174.997
s63.5 -90.167 113.5 -118.5s111.333 -42.5 184 -42.5c54.667 0 100 5.16699 136 15.5s69 24.166 99 41.499l-35 71c-31.333 -18.667 -62.833 -31.5 -94.5 -38.5s-65.167 -10.5 -100.5 -10.5c-53.333 0 -99 10.5 -137 31.5s-67.167 50.667 -87.5 89s-30.5 83.833 -30.5 136.5
c0 45.333 7 87.166 21 125.499s34.167 71.666 60.5 99.999s58 50.5 95 66.5s78.167 24 123.5 24c40 0 75 -6.66699 105 -20s55 -31.5 75 -54.5s35 -49.167 45 -78.5s15 -60.333 15 -93c0 -41.333 -5.33301 -74 -16 -98s-22.834 -41 -36.501 -51s-24.834 -15 -33.501 -15
c-9.33301 0 -16.5 2 -21.5 6s-8.33301 9.33301 -10 16s-2.5 14 -2.5 22c0 4 0.166992 8.66699 0.5 14s0.833008 9.66602 1.5 12.999l35 223h-92l-31 -240l10 -12c-3.33301 -22 -1.16602 -42 6.50098 -60s19.667 -32.5 36 -43.5s34.833 -16.5 55.5 -16.5
s41.834 4.33301 63.501 13s41.667 22.5 60 41.5s33 44 44 75s16.5 68.5 16.5 112.5c0 40.667 -6.83301 80.334 -20.5 119.001s-34.334 73.5 -62.001 104.5s-61.834 55.667 -102.501 74s-87.667 27.5 -141 27.5c-56.667 0 -108.5 -10.167 -155.5 -30.5
s-87.833 -48.333 -122.5 -84s-61.334 -77.5 -80.001 -125.5s-28 -99.667 -28 -155z" />
    <glyph glyph-name="A" unicode="A" horiz-adv-x="690" 
d="M162 180h370l-22 100h-325zM345 502l112 -260l2 -29l95 -213h134l-343 739l-342 -739h133l97 219l2 26z" />
    <glyph glyph-name="B" unicode="B" horiz-adv-x="601" 
d="M168 361h120.998c44.667 0 83.667 6.33301 117 19s59.5 31.167 78.5 55.5s28.5 53.833 28.5 88.5c0 40 -9.5 73 -28.5 99s-45.167 45.333 -78.5 58s-72.333 19 -117 19h-211v-700h223c50 0 93.833 7.16699 131.5 21.5s67.167 36.5 88.5 66.5s32 68 32 114
c0 33.333 -6.66699 62 -20 86s-31.666 43.667 -54.999 59s-50.166 26.833 -80.499 34.5s-62.5 11.5 -96.5 11.5h-133v-66h126c20 0 38.333 -2.16699 55 -6.5s31.334 -11.333 44.001 -21s22.334 -21.5 29.001 -35.5s10 -30.667 10 -50c0 -26 -6 -47.5 -18 -64.5
s-28.333 -29.833 -49 -38.5s-44.334 -13 -71.001 -13h-98v505h85c33.333 0 60.166 -8 80.499 -24s30.5 -38.667 30.5 -68c0 -19.333 -4.66699 -35.833 -14 -49.5s-22.333 -24.167 -39 -31.5s-36 -11 -58 -11h-113v-58z" />
    <glyph glyph-name="C" unicode="C" horiz-adv-x="691" 
d="M166 350c0 50 11.167 93.4971 33.5 130.497s51.5 65.667 87.5 86s75.333 30.5 118 30.5c33.333 0 63.5 -4.33301 90.5 -13s51.167 -20.5 72.5 -35.5s40 -31.833 56 -50.5v140c-28.667 24.667 -60.167 43.334 -94.5 56.001s-77.166 19 -128.499 19
s-99.166 -8.83301 -143.499 -26.5s-82.833 -42.667 -115.5 -75s-58.167 -70.666 -76.5 -114.999s-27.5 -93.166 -27.5 -146.499c0 -52.667 9.16699 -101.167 27.5 -145.5s43.833 -82.833 76.5 -115.5s71.167 -57.667 115.5 -75s92.166 -26 143.499 -26
s94.166 6.33301 128.499 19s65.833 31 94.5 55v141c-16 -19.333 -34.667 -36.5 -56 -51.5s-45.5 -26.833 -72.5 -35.5s-57.167 -13 -90.5 -13c-42.667 0 -82 10.333 -118 31s-65.167 49.5 -87.5 86.5s-33.5 80.167 -33.5 129.5z" />
    <glyph glyph-name="D" unicode="D" horiz-adv-x="701" 
d="M78 700v-700h121v700h-121zM304 0c71.333 0 134 14.5 188 43.5s96.167 69.667 126.5 122s45.5 113.833 45.5 184.5s-15.167 132.167 -45.5 184.5s-72.5 93 -126.5 122s-116.667 43.5 -188 43.5h-153v-111h150c34.667 0 66.667 -5 96 -15s54.833 -25 76.5 -45
s38.667 -45 51 -75s18.5 -64.667 18.5 -104s-6.16699 -74 -18.5 -104s-29.333 -54.833 -51 -74.5s-47.167 -34.667 -76.5 -45s-61.333 -15.5 -96 -15.5h-150v-111h153z" />
    <glyph glyph-name="E" unicode="E" horiz-adv-x="571" 
d="M151 0h353v104h-353v-104zM151 596h353v104h-353v-104zM151 324h333v102h-333v-102zM78 700v-700h116v700h-116z" />
    <glyph glyph-name="F" unicode="F" horiz-adv-x="521" 
d="M151 594h313v106h-313v-106zM151 316h303v103h-303v-103zM78 700v-700h116v700h-116z" />
    <glyph glyph-name="G" unicode="G" horiz-adv-x="791" 
d="M411 266l215 0.00195312c-6 -23.333 -15 -45.333 -27 -66s-27 -39 -45 -55s-39.333 -28.333 -64 -37s-52.667 -13 -84 -13c-46 0 -87.333 10.667 -124 32s-65.667 51.166 -87 89.499s-32 82.833 -32 133.5c0 51.333 10.833 95.833 32.5 133.5s51 67 88 88
s77.833 31.5 122.5 31.5c48.667 0 90.167 -10 124.5 -30s61.166 -46.667 80.499 -80l96 64c-20.667 32.667 -45.667 60.5 -75 83.5s-62.833 40.833 -100.5 53.5s-79.5 19 -125.5 19c-52.667 0 -101.334 -8.83301 -146.001 -26.5s-83.667 -42.667 -117 -75
s-59.166 -70.666 -77.499 -114.999s-27.5 -93.166 -27.5 -146.499s9 -102.333 27 -147s43.5 -83.334 76.5 -116.001s71.833 -57.834 116.5 -75.501s93.334 -26.5 146.001 -26.5c56 0 105.667 10.167 149 30.5s79.666 48.166 108.999 83.499s51.333 75.833 66 121.5
s21.334 94.167 20.001 145.5h-337v-100z" />
    <glyph glyph-name="H" unicode="H" horiz-adv-x="744" 
d="M125 321h500v109h-500v-109zM548 700v-700h118v700h-118zM78 700v-700h118v700h-118z" />
    <glyph glyph-name="I" unicode="I" horiz-adv-x="275" 
d="M78 700v-700h120v700h-120z" />
    <glyph glyph-name="J" unicode="J" horiz-adv-x="276" 
d="M-69 -88l-63.0039 -87c8.66699 -7.33301 20.334 -15 35.001 -23s31.834 -14.833 51.501 -20.5s39.834 -8.5 60.501 -8.5c26 0 50.333 3.16699 73 9.5s42.334 16.5 59.001 30.5s29.5 31.667 38.5 53s13.5 47 13.5 77v757h-121v-736c0 -31.333 -7.33301 -53.5 -22 -66.5
s-29.667 -19.5 -45 -19.5c-16.667 0 -32 3.16699 -46 9.5s-25.333 14.5 -34 24.5z" />
    <glyph glyph-name="K" unicode="K" horiz-adv-x="619" 
d="M78 700v-700h121v700h-121zM459 700l-295 -331l307 -369h146l-311 372l296 328h-143z" />
    <glyph glyph-name="L" unicode="L" horiz-adv-x="481" 
d="M78 700v-700h396v106h-278v594h-118z" />
    <glyph glyph-name="M" unicode="M" horiz-adv-x="843" 
d="M208 426l213 -361l214 361l48 -426h122l-96 735l-288 -475l-287 475l-96 -735h122z" />
    <glyph glyph-name="N" unicode="N" horiz-adv-x="783" 
d="M589 700v-470l-511 505v-735h116v470l511 -505v735h-116z" />
    <glyph glyph-name="O" unicode="O" horiz-adv-x="803" 
d="M163 350c0 48 10.334 90.833 31.001 128.5s48.834 67.167 84.501 88.5s76.5 32 122.5 32c47.333 0 88.833 -10.667 124.5 -32s63.5 -50.833 83.5 -88.5s30 -80.5 30 -128.5s-10.167 -90.667 -30.5 -128s-48.333 -66.833 -84 -88.5s-76.834 -32.5 -123.501 -32.5
c-46 0 -86.833 10.833 -122.5 32.5s-63.834 51.167 -84.501 88.5s-31 80 -31 128zM38.001 350c0 -52 8.99902 -100.333 26.999 -145s43.333 -83.334 76 -116.001s71.167 -58.167 115.5 -76.5s92.5 -27.5 144.5 -27.5c53.333 0 102 9.16699 146 27.5s82.333 43.833 115 76.5
s58 71.334 76 116.001s27 93 27 145c0 52.667 -9 101 -27 145s-43.5 82.167 -76.5 114.5s-71.5 57.666 -115.5 75.999s-92.333 27.5 -145 27.5c-51.333 0 -99.166 -9.16699 -143.499 -27.5s-83 -43.666 -116 -75.999s-58.5 -70.5 -76.5 -114.5s-27 -92.333 -27 -145z" />
    <glyph glyph-name="P" unicode="P" horiz-adv-x="578" 
d="M78 700v-700h118v700h-118zM148 596l141 -0.00292969c40.667 0 73.334 -9.5 98.001 -28.5s37 -47.167 37 -84.5s-12.333 -65.666 -37 -84.999s-57.334 -29 -98.001 -29h-141v-104h141c51.333 0 95.666 8.83301 132.999 26.5s66.5 42.834 87.5 75.501
s31.5 71.334 31.5 116.001s-10.5 83.167 -31.5 115.5s-50.167 57.333 -87.5 75s-81.666 26.5 -132.999 26.5h-141v-104z" />
    <glyph glyph-name="Q" unicode="Q" horiz-adv-x="820" 
d="M163 350c0 48 10.3369 90.835 31.0039 128.502s49 67.167 85 88.5s77.333 32 124 32c48.667 0 91.167 -11.333 127.5 -34s64.833 -53.334 85.5 -92.001s31 -82 31 -130s-10.333 -90.667 -31 -128s-48.834 -66.5 -84.501 -87.5s-76.834 -31.5 -123.501 -31.5
s-88.334 10.833 -125.001 32.5s-65.834 51.667 -87.501 90s-32.5 82.166 -32.5 131.499zM38.0039 350.002c0 -52 8.99902 -100.333 26.999 -145s43.5 -83.334 76.5 -116.001s71.667 -58.167 116 -76.5s92.833 -27.5 145.5 -27.5s101 9.16699 145 27.5
s82.333 43.833 115 76.5s57.834 71.334 75.501 116.001s26.5 93 26.5 145c0 52.667 -9 101 -27 145s-43.333 82.167 -76 114.5s-71 57.666 -115 75.999s-92 27.5 -144 27.5s-100.167 -9.16699 -144.5 -27.5s-83 -43.666 -116 -75.999s-58.667 -70.5 -77 -114.5
s-27.5 -92.333 -27.5 -145zM370.003 300.002l313 -305h138l-315 305h-136z" />
    <glyph glyph-name="R" unicode="R" horiz-adv-x="595" 
d="M223 334l222 -334h143l-238 334h-127zM78 700v-700h118v700h-118zM148 598l141 -0.000976562c27.333 0 51 -4.66699 71 -14s35.667 -22.666 47 -39.999s17 -38.666 17 -63.999c0 -24.667 -5.66699 -45.834 -17 -63.501s-27 -31 -47 -40s-43.667 -13.5 -71 -13.5h-141v-98
h146c51.333 0 95.666 9 132.999 27s66.5 43.333 87.5 76s31.5 71 31.5 115s-10.5 82.167 -31.5 114.5s-50.167 57.5 -87.5 75.5s-81.666 27 -132.999 27h-146v-102z" />
    <glyph glyph-name="S" unicode="S" horiz-adv-x="579" 
d="M124 226l-87.9971 -62.0029c15.333 -32 36.166 -61.667 62.499 -89s57 -49.166 92 -65.499s72.833 -24.5 113.5 -24.5c30 0 58.833 4.83301 86.5 14.5s52.5 23.334 74.5 41.001s39.5 39.5 52.5 65.5s19.5 55.333 19.5 88c0 30.667 -5.33301 57.5 -16 80.5
s-24.5 42.833 -41.5 59.5s-36 30.667 -57 42s-42.167 20.666 -63.5 27.999c-37.333 13.333 -67.666 26.333 -90.999 39s-40.5 26.167 -51.5 40.5s-16.5 30.5 -16.5 48.5c0 20 7.66699 37.5 23 52.5s39.333 22.5 72 22.5c23.333 0 43.833 -4.5 61.5 -13.5
s33.167 -21 46.5 -36s24.666 -31.167 33.999 -48.5l95 54c-11.333 24.667 -27.666 48.334 -48.999 71.001s-47.333 41.5 -78 56.5s-66.667 22.5 -108 22.5c-42 0 -79.5 -8 -112.5 -24s-59.167 -38.167 -78.5 -66.5s-29 -61.166 -29 -98.499
c0 -32.667 6.33301 -60.5 19 -83.5s28.667 -42.333 48 -58s39.666 -28.667 60.999 -39s40.666 -18.5 57.999 -24.5c29.333 -10.667 55.333 -21.5 78 -32.5s40.167 -24.333 52.5 -40s18.5 -36.167 18.5 -61.5c0 -28 -10 -50.667 -30 -68s-46 -26 -78 -26
c-26 0 -49.833 5.66699 -71.5 17s-41.334 27 -59.001 47s-34.167 43.667 -49.5 71z" />
    <glyph glyph-name="T" unicode="T" horiz-adv-x="504" 
d="M8 591h185v-591h118v591h185v109h-488v-109z" />
    <glyph glyph-name="U" unicode="U" horiz-adv-x="656" 
d="M73 700l0.00195312 -470c0 -38.667 6.16699 -73.167 18.5 -103.5s29.833 -56.166 52.5 -77.499s49.667 -37.666 81 -48.999s65.666 -17 102.999 -17s71.666 5.66699 102.999 17s58.5 27.666 81.5 48.999s40.667 47.166 53 77.499s18.5 64.833 18.5 103.5v470h-119v-465
c0 -42.667 -11.5 -77.334 -34.5 -104.001s-57.167 -40 -102.5 -40c-44.667 0 -78.667 13.333 -102 40s-35 61.334 -35 104.001v465h-118z" />
    <glyph glyph-name="V" unicode="V" horiz-adv-x="690" 
d="M345 208l-206 492h-136l342 -739l343 739h-137z" />
    <glyph glyph-name="W" unicode="W" horiz-adv-x="1020" 
d="M712 232l-202 503l-198 -503l-167 468h-137l286 -737l216 495l216 -495l287 737h-138z" />
    <glyph glyph-name="X" unicode="X" horiz-adv-x="608" 
d="M441 700l-134 -236l-131 236h-143l208 -336l-233 -364h143l155 269l150 -269h144l-227 364l212 336h-144z" />
    <glyph glyph-name="Y" unicode="Y" horiz-adv-x="601" 
d="M463 700l-163 -299l-162 299h-135l238 -406v-294h120v295l237 405h-135z" />
    <glyph glyph-name="Z" unicode="Z" horiz-adv-x="575" 
d="M44 591h320l-351 -591h518v106h-326l353 594h-514v-109z" />
    <glyph glyph-name="bracketleft" unicode="[" horiz-adv-x="325" 
d="M204 683h101v97h-209v-1000h209v98h-101v805z" />
    <glyph glyph-name="backslash" unicode="\" horiz-adv-x="528" 
d="M15 700l388 -700h110l-388 700h-110z" />
    <glyph glyph-name="bracketright" unicode="]" horiz-adv-x="325" 
d="M121 -122h-101v-98h209v1000h-209v-97h101v-805z" />
    <glyph glyph-name="asciicircum" unicode="^" horiz-adv-x="510" 
d="M255 605l98 -150h102l-170 255h-60l-170 -255h103z" />
    <glyph glyph-name="underscore" unicode="_" horiz-adv-x="513" 
d="M0 -141h513v71h-513v-71z" />
    <glyph glyph-name="grave" unicode="`" horiz-adv-x="375" 
d="M66 658l180 -150l62 35l-150 160z" />
    <glyph glyph-name="a" unicode="a" horiz-adv-x="504" 
d="M137 143c0 14.667 3.49707 27.001 10.4971 37.001s17.5 17.833 31.5 23.5s32.333 8.5 55 8.5c26 0 50.667 -3.33301 74 -10s45.333 -17.334 66 -32.001v55c-6 7.33301 -16.333 15.5 -31 24.5s-33.167 16.833 -55.5 23.5s-48.833 10 -79.5 10
c-57.333 0 -101.666 -13.167 -132.999 -39.5s-47 -61.833 -47 -106.5c0 -31.333 7.33301 -58 22 -80s34.334 -38.667 59.001 -50s51.334 -17 80.001 -17c26.667 0 52.834 4.83301 78.501 14.5s47 24.5 64 44.5s25.5 44.667 25.5 74l-16 60
c0 -23.333 -5.33301 -43.333 -16 -60s-24.834 -29.5 -42.501 -38.5s-37.5 -13.5 -59.5 -13.5c-16.667 0 -31.5 2.66699 -44.5 8s-23.167 13.5 -30.5 24.5s-11 24.167 -11 39.5zM102.997 340.001c7.33301 4.66699 17.665 10.5 30.998 17.5s29.5 13 48.5 18
s39.167 7.5 60.5 7.5c14 0 27 -1.33301 39 -4s22.5 -7 31.5 -13s15.833 -13.667 20.5 -23s7 -21.333 7 -36v-307h106v328c0 30.667 -8.16699 56.667 -24.5 78s-39.166 37.5 -68.499 48.5s-62.666 16.5 -99.999 16.5c-43.333 0 -81.333 -6 -114 -18s-59.667 -24.333 -81 -37z
" />
    <glyph glyph-name="b" unicode="b" horiz-adv-x="589" 
d="M174 780h-109v-780h109v780zM555 230c0 50.667 -10.333 93.833 -31 129.5s-48 63 -82 82s-71 28.5 -111 28.5c-38 0 -71.667 -9.66699 -101 -29s-52.5 -46.833 -69.5 -82.5s-25.5 -78.5 -25.5 -128.5c0 -49.333 8.5 -92 25.5 -128s40.167 -63.667 69.5 -83
s63 -29 101 -29c40 0 77 9.5 111 28.5s61.333 46.5 82 82.5s31 79 31 129zM443 229.999c0 -30.667 -6.33301 -57 -19 -79s-29.334 -38.667 -50.001 -50s-43.667 -17 -69 -17c-21.333 0 -42 5.66699 -62 17s-36.5 27.833 -49.5 49.5s-19.5 48.167 -19.5 79.5
s6.5 57.833 19.5 79.5s29.5 38.167 49.5 49.5s40.667 17 62 17c25.333 0 48.333 -5.66699 69 -17s37.334 -28 50.001 -50s19 -48.333 19 -79z" />
    <glyph glyph-name="c" unicode="c" horiz-adv-x="484" 
d="M141 230c0 28.667 6.33301 54.002 19 76.002s29.834 39.333 51.501 52s45.834 19 72.501 19c21.333 0 42 -3.33301 62 -10s37.833 -15.834 53.5 -27.501s27.167 -25.167 34.5 -40.5v120c-16 15.333 -37.667 27.666 -65 36.999s-57.333 14 -90 14
c-46.667 0 -88.834 -10.167 -126.501 -30.5s-67.5 -48.5 -89.5 -84.5s-33 -77.667 -33 -125c0 -46.667 11 -88.167 33 -124.5s51.833 -64.666 89.5 -84.999s79.834 -30.5 126.501 -30.5c32.667 0 62.667 4.66699 90 14s49 22 65 38v119
c-7.33301 -14.667 -18.666 -27.834 -33.999 -39.501s-32.833 -21 -52.5 -28s-40.834 -10.5 -63.501 -10.5c-26.667 0 -50.834 6.33301 -72.501 19s-38.834 30 -51.501 52s-19 47.333 -19 76z" />
    <glyph glyph-name="d" unicode="d" horiz-adv-x="589" 
d="M415 780v-780h109v780h-109zM34 230c0 -50 10.333 -92.999 31 -128.999s48.167 -63.5 82.5 -82.5s71.166 -28.5 110.499 -28.5c38.667 0 72.5 9.66699 101.5 29s52 47 69 83s25.5 78.667 25.5 128c0 50 -8.5 92.833 -25.5 128.5s-40 63.167 -69 82.5
s-62.833 29 -101.5 29c-39.333 0 -76.166 -9.5 -110.499 -28.5s-61.833 -46.333 -82.5 -82s-31 -78.834 -31 -129.501zM146 230.001c0 30.667 6.33301 57 19 79s29.5 38.667 50.5 50s43.833 17 68.5 17c21.333 0 42 -5.66699 62 -17s36.5 -27.833 49.5 -49.5
s19.5 -48.167 19.5 -79.5s-6.5 -57.833 -19.5 -79.5s-29.5 -38.167 -49.5 -49.5s-40.667 -17 -62 -17c-24.667 0 -47.5 5.66699 -68.5 17s-37.833 28 -50.5 50s-19 48.333 -19 79z" />
    <glyph glyph-name="e" unicode="e" horiz-adv-x="539" 
d="M269 -10c53.333 0 98.9971 10.501 136.997 31.501s69.333 52.167 94 93.5l-94 37c-14 -24.667 -32 -43 -54 -55s-48 -18 -78 -18c-28 0 -51.667 6 -71 18s-34.166 29.667 -44.499 53s-15.166 51.333 -14.499 84c0 33.333 5.16699 61.333 15.5 84s25 40 44 52
s42.167 18 69.5 18c22.667 0 42.5 -5 59.5 -15s30.333 -24 40 -42s14.5 -39.333 14.5 -64c0 -4.66699 -1.16699 -10.334 -3.5 -17.001s-4.5 -12 -6.5 -16l33 46h-311v-75h404c0 2.66699 0.166992 7 0.5 13s0.5 11.667 0.5 17c0 49.333 -9 91.5 -27 126.5
s-44.167 61.833 -78.5 80.5s-75.833 28 -124.5 28s-91 -9.83301 -127 -29.5s-63.833 -47.5 -83.5 -83.5s-29.5 -78.333 -29.5 -127c0 -48 9.66699 -90 29 -126s46.833 -64 82.5 -84s76.834 -30 123.501 -30z" />
    <glyph glyph-name="f" unicode="f" horiz-adv-x="309" 
d="M31 460v-95h264v95h-264zM284 664l49.9971 84.001c-5.33301 6.66699 -12.666 13.5 -21.999 20.5s-20.666 12.833 -33.999 17.5s-29 7 -47 7c-32.667 0 -60 -6.33301 -82 -19s-38.833 -30.834 -50.5 -54.501s-17.5 -53.5 -17.5 -89.5v-630h107v609c0 19.333 2 35 6 47
s9.5 20.667 16.5 26s15.5 8 25.5 8c8 0 16.333 -1.66699 25 -5s16.334 -10.333 23.001 -21z" />
    <glyph glyph-name="g" unicode="g" horiz-adv-x="586" 
d="M43 -31c1.33301 -40 11.6699 -75.333 31.0029 -106s46.666 -54.5 81.999 -71.5s77.666 -25.5 126.999 -25.5c42 0 81 8.83301 117 26.5s65.167 44.5 87.5 80.5s33.5 81.667 33.5 137v450h-106v-450c0 -34.667 -6.5 -63 -19.5 -85s-29.833 -38.333 -50.5 -49
s-42 -16 -64 -16c-26 0 -48.667 4.83301 -68 14.5s-34.333 22.667 -45 39s-16.334 34.833 -17.001 55.5h-108zM34.0039 233c0 -50.667 10.333 -93.667 31 -129s48.167 -62.333 82.5 -81s71.166 -28 110.499 -28c38.667 0 72.5 9.5 101.5 28.5s52 46.333 69 82
s25.5 78.167 25.5 127.5c0 50 -8.5 92.5 -25.5 127.5s-40 62 -69 81s-62.833 28.5 -101.5 28.5c-39.333 0 -76.166 -9.33301 -110.499 -28s-61.833 -45.5 -82.5 -80.5s-31 -77.833 -31 -128.5zM146.004 233c0 30.667 6.33203 56.665 18.999 77.998s29.5 37.5 50.5 48.5
s43.833 16.5 68.5 16.5c16 0 31.667 -3 47 -9s29.333 -15.167 42 -27.5s22.834 -27.333 30.501 -45s11.5 -38.167 11.5 -61.5c0 -31.333 -6.5 -57.666 -19.5 -78.999s-29.5 -37.5 -49.5 -48.5s-40.667 -16.5 -62 -16.5c-24.667 0 -47.5 5.5 -68.5 16.5
s-37.833 27.333 -50.5 49s-19 47.834 -19 78.501z" />
    <glyph glyph-name="h" unicode="h" horiz-adv-x="543" 
d="M178 780h-109v-780h109v780zM365 280l0.000976562 -279.998h109v295c0 39.333 -6 72.166 -18 98.499s-29.667 46.166 -53 59.499s-52.333 20 -87 20s-64.167 -8.5 -88.5 -25.5s-43 -40 -56 -69s-19.5 -61.833 -19.5 -98.5h26c0 20.667 4.16699 38.667 12.5 54
s20.166 27.333 35.499 36s33.333 13 54 13c29.333 0 50.833 -8.66699 64.5 -26s20.5 -43 20.5 -77z" />
    <glyph glyph-name="i" unicode="i" horiz-adv-x="267" 
d="M65 643c0 -18 6.83301 -33.5 20.5 -46.5s29.5 -19.5 47.5 -19.5c19.333 0 35.666 6.5 48.999 19.5s20 28.5 20 46.5c0 18.667 -6.66699 34.334 -20 47.001s-29.666 19 -48.999 19c-18 0 -33.833 -6.33301 -47.5 -19s-20.5 -28.334 -20.5 -47.001zM80 460v-460h107v460
h-107z" />
    <glyph glyph-name="j" unicode="j" horiz-adv-x="259" 
d="M55 643c0 -18 6.66699 -33.333 20 -46s29.333 -19 48 -19s34.5 6.33301 47.5 19s19.5 28 19.5 46c0 18.667 -6.5 34.167 -19.5 46.5s-28.833 18.5 -47.5 18.5s-34.667 -6.16699 -48 -18.5s-20 -27.833 -20 -46.5zM-23 -99l-51 -83.999
c7.33301 -8 15.833 -15.5 25.5 -22.5s20.834 -12.333 33.501 -16s27.667 -5.5 45 -5.5c32 0 59.167 6.5 81.5 19.5s39.166 31.667 50.499 56s17 53.166 17 86.499v525h-106v-504c0 -18.667 -1.83301 -34 -5.5 -46s-9 -20.833 -16 -26.5s-15.833 -8.5 -26.5 -8.5
s-20 2.33301 -28 7s-14.667 11 -20 19z" />
    <glyph glyph-name="k" unicode="k" horiz-adv-x="495" 
d="M65 780v-780h106v780h-106zM340 460l-198 -190l219 -270h132l-219 270l199 190h-133z" />
    <glyph glyph-name="l" unicode="l" horiz-adv-x="246" 
d="M69 780v-780h109v780h-109z" />
    <glyph glyph-name="m" unicode="m" horiz-adv-x="796" 
d="M728 293c0 37.333 -5.50488 69.332 -16.5049 95.999s-27.167 46.834 -48.5 60.501s-48.666 20.5 -81.999 20.5c-30.667 0 -58.167 -6.83301 -82.5 -20.5s-44.833 -34.167 -61.5 -61.5c-10 26.667 -26.167 47 -48.5 61s-50.166 21 -83.499 21
c-30 0 -55.667 -6.5 -77 -19.5s-39 -32.167 -53 -57.5v67h-106v-460h106v280c0 22 3.83301 40.667 11.5 56s18.334 27 32.001 35s29.5 12 47.5 12c26.667 0 46.167 -8.5 58.5 -25.5s18.5 -42.833 18.5 -77.5v-280h108v280c0 22 3.83301 40.667 11.5 56s18.334 27 32.001 35
s29.834 12 48.501 12c26 0 45.167 -8.5 57.5 -25.5s18.5 -42.833 18.5 -77.5v-280h109v293z" />
    <glyph glyph-name="n" unicode="n" horiz-adv-x="545" 
d="M365 280l0.000976562 -280.003h111v293c0 54.667 -13.667 97.834 -41 129.501s-67 47.5 -119 47.5c-31.333 0 -58.5 -6.66699 -81.5 -20s-41.833 -33.666 -56.5 -60.999v71h-109v-460h109v280c0 20.667 4.16699 38.834 12.5 54.501s20.166 27.667 35.499 36
s33.333 12.5 54 12.5c28.667 0 50 -8.66699 64 -26s21 -43 21 -77z" />
    <glyph glyph-name="o" unicode="o" horiz-adv-x="564" 
d="M34 230c0 -46.667 10.833 -88.167 32.5 -124.5s51.334 -64.666 89.001 -84.999s79.834 -30.5 126.501 -30.5c47.333 0 89.666 10.167 126.999 30.5s66.833 48.666 88.5 84.999s32.5 77.833 32.5 124.5c0 47.333 -10.833 89 -32.5 125s-51.167 64.167 -88.5 84.5
s-79.666 30.5 -126.999 30.5c-46.667 0 -88.834 -10.167 -126.501 -30.5s-67.334 -48.5 -89.001 -84.5s-32.5 -77.667 -32.5 -125zM145 230c0 28.667 6 54 18 76s28.333 39 49 51s44 18 70 18s49.333 -6 70 -18s37 -29 49 -51s18 -47.333 18 -76s-6 -53.834 -18 -75.501
s-28.333 -38.667 -49 -51s-44 -18.5 -70 -18.5s-49.333 6.16699 -70 18.5s-37 29.333 -49 51s-18 46.834 -18 75.501z" />
    <glyph glyph-name="p" unicode="p" horiz-adv-x="589" 
d="M174 -220v680h-109v-680h109zM555 230c0 52 -10.333 95.832 -31 131.499s-48 63.167 -82 82.5s-71 29 -111 29c-38.667 0 -72.5 -10 -101.5 -30s-51.5 -48 -67.5 -84s-24 -79 -24 -129c0 -49.333 8 -92.166 24 -128.499s38.5 -64.333 67.5 -84s62.833 -29.5 101.5 -29.5
c40 0 77 9.5 111 28.5s61.333 46.667 82 83s31 79.833 31 130.5zM443 229.999c0 -30.667 -6.33301 -56.665 -19 -77.998s-29.334 -37.666 -50.001 -48.999s-43.667 -17 -69 -17c-21.333 0 -42 5.5 -62 16.5s-36.5 27.167 -49.5 48.5s-19.5 47.666 -19.5 78.999
s6.5 57.666 19.5 78.999s29.5 37.5 49.5 48.5s40.667 16.5 62 16.5c25.333 0 48.333 -5.5 69 -16.5s37.334 -27.333 50.001 -49s19 -47.834 19 -78.501z" />
    <glyph glyph-name="q" unicode="q" horiz-adv-x="589" 
d="M415 -220h109v680h-109v-680zM34 230c0 -50.667 10.333 -94.166 31 -130.499s48.167 -64 82.5 -83s71.166 -28.5 110.499 -28.5s73.333 9.83301 102 29.5s51 47.667 67 84s24 79.166 24 128.499c0 50 -8 93 -24 129s-38.333 64 -67 84s-62.667 30 -102 30
s-76.166 -9.66699 -110.499 -29s-61.833 -46.833 -82.5 -82.5s-31 -79.5 -31 -131.5zM146 230.001c0 30.667 6.33301 56.832 19 78.499s29.5 38 50.5 49s43.833 16.5 68.5 16.5c21.333 0 42 -5.5 62 -16.5s36.5 -27.167 49.5 -48.5s19.5 -47.666 19.5 -78.999
s-6.5 -57.666 -19.5 -78.999s-29.5 -37.5 -49.5 -48.5s-40.667 -16.5 -62 -16.5c-24.667 0 -47.5 5.66699 -68.5 17s-37.833 27.666 -50.5 48.999s-19 47.333 -19 78z" />
    <glyph glyph-name="r" unicode="r" horiz-adv-x="371" 
d="M176 460h-107v-460h107v460zM313 345l53.0029 91.001c-10.667 12.667 -23.334 21.667 -38.001 27s-30.334 8 -47.001 8c-23.333 0 -45.833 -8.5 -67.5 -25.5s-39.334 -39.667 -53.001 -68s-20.5 -60.833 -20.5 -97.5l36 -21c0 22 2.5 41.167 7.5 57.5
s13.167 29.166 24.5 38.499s26 14 44 14c13.333 0 24.5 -2 33.5 -6s18.167 -10 27.5 -18z" />
    <glyph glyph-name="s" unicode="s" horiz-adv-x="424" 
d="M90 152l-63.0029 -63.999c13.333 -17.333 30 -33.833 50 -49.5s43 -28.334 69 -38.001s55 -14.5 87 -14.5c50 0 89.833 13.167 119.5 39.5s44.5 61.166 44.5 104.499c0 28 -6.33301 50.667 -19 68s-29.667 32 -51 44s-45 23 -71 33
c-18.667 7.33301 -35.5 14.333 -50.5 21s-27 14.167 -36 22.5s-13.5 17.833 -13.5 28.5c0 12.667 5 22.334 15 29.001s23 10 39 10c22.667 0 44.667 -5.66699 66 -17s39.333 -26 54 -44l60 64c-12.667 15.333 -28 29 -46 41s-38.167 21.667 -60.5 29s-46.166 11 -71.499 11
c-28 0 -54.167 -4.5 -78.5 -13.5s-43.666 -22.833 -57.999 -41.5s-21.5 -42 -21.5 -70c0 -27.333 6.5 -50 19.5 -68s29.667 -32.5 50 -43.5s40.833 -20.5 61.5 -28.5c20.667 -7.33301 38.667 -14.5 54 -21.5s27.333 -15.333 36 -25s13 -21.167 13 -34.5
c0 -15.333 -5.5 -27.333 -16.5 -36s-26.167 -13 -45.5 -13c-15.333 0 -30.666 3 -45.999 9s-30.333 14.667 -45 26s-29.667 25.333 -45 42z" />
    <glyph glyph-name="t" unicode="t" horiz-adv-x="271" 
d="M5 460v-95h261v95h-261zM83 620v-620h106v620h-106z" />
    <glyph glyph-name="u" unicode="u" horiz-adv-x="545" 
d="M180 180v279.999h-111v-292c0 -54.667 13.833 -98 41.5 -130s67.167 -48 118.5 -48c32 0 59.5 6.83301 82.5 20.5s41.833 33.834 56.5 60.501v-71h108v460h-108v-280c0 -20.667 -4.33301 -38.667 -13 -54s-20.667 -27.333 -36 -36s-33 -13 -53 -13
c-29.333 0 -51 9 -65 27s-21 43.333 -21 76z" />
    <glyph glyph-name="v" unicode="v" horiz-adv-x="475" 
d="M-1 460l239 -502l238 502h-118l-120 -297l-120 297h-119z" />
    <glyph glyph-name="w" unicode="w" horiz-adv-x="713" 
d="M0 460l215 -492l138 310l145 -310l215 492h-118l-108 -275l-134 310l-128 -308l-107 273h-118z" />
    <glyph glyph-name="x" unicode="x" horiz-adv-x="465" 
d="M334 460l-100 -144l-100 144h-124l166 -223l-176 -237h124l110 158l110 -158h121l-175 237l165 223h-121z" />
    <glyph glyph-name="y" unicode="y" horiz-adv-x="473" 
d="M476 460h-116l-144 -361l51 -3l-147 364h-124l186 -406l-121 -274h115z" />
    <glyph glyph-name="z" unicode="z" horiz-adv-x="485" 
d="M283 360l-268 -360h430v100h-238l263 360h-420v-100h233z" />
    <glyph glyph-name="braceleft" unicode="{" horiz-adv-x="346" 
d="M213 640c0 13.333 4.33301 25.001 13 35.001s20.334 15 35.001 15h35v90h-72c-20 0 -39.667 -4.83301 -59 -14.5s-35.333 -24.667 -48 -45s-19 -47.166 -19 -80.499v-200c0 -38 -4.33301 -64.5 -13 -79.5s-22 -25.167 -40 -30.5v-80c18 -4.66699 31.333 -14.667 40 -30
s13 -42 13 -80v-200c0 -32.667 6.33301 -59.334 19 -80.001s28.667 -35.834 48 -45.501s39 -14.5 59 -14.5h72v90h-35c-14.667 0 -26.334 5.16699 -35.001 15.5s-13 21.833 -13 34.5v150c0 22 -1 45.333 -3 70s-6.83301 47.5 -14.5 68.5s-20 38.167 -37 51.5
s-40.5 20 -70.5 20v-20c30 0 53.5 6.66699 70.5 20s29.333 30.5 37 51.5s12.5 43.833 14.5 68.5s3 48 3 70v150z" />
    <glyph glyph-name="bar" unicode="|" horiz-adv-x="306" 
d="M100 785v-1000h106v1000h-106z" />
    <glyph glyph-name="braceright" unicode="}" horiz-adv-x="346" 
d="M140 -60c0 -12.667 -4.16699 -24.168 -12.5 -34.501s-20.166 -15.5 -35.499 -15.5h-35v-90h72c20 0 39.667 4.83301 59 14.5s35.333 24.834 48 45.501s19 47.334 19 80.001v200c0 38 4.5 64.667 13.5 80s22.167 25.333 39.5 30v80c-17.333 5.33301 -30.5 15.5 -39.5 30.5
s-13.5 41.5 -13.5 79.5v200c0 33.333 -6.33301 60.166 -19 80.499s-28.667 35.333 -48 45s-39 14.5 -59 14.5h-72v-90h35c15.333 0 27.166 -5 35.499 -15s12.5 -21.667 12.5 -35v-150c0 -22 0.833008 -45.333 2.5 -70s6.5 -47.5 14.5 -68.5s20.5 -38.167 37.5 -51.5
s40.5 -20 70.5 -20v20c-30 0 -53.5 -6.66699 -70.5 -20s-29.5 -30.5 -37.5 -51.5s-12.833 -43.833 -14.5 -68.5s-2.5 -48 -2.5 -70v-150z" />
    <glyph glyph-name="asciitilde" unicode="~" horiz-adv-x="575" 
d="M148 171c-1.33301 4 -2.5 7.99707 -3.5 11.9971s-1.5 8.33301 -1.5 13c0 14.667 4 26.834 12 36.501s20.667 14.5 38 14.5c8.66699 0 17.5 -1.33301 26.5 -4s18.5 -6.33398 28.5 -11.001s20 -11 30 -19c22.667 -16 43.667 -28 63 -36s38 -12 56 -12
c21.333 0 40.333 4 57 12s31.334 20.333 44.001 37c10 12.667 16.667 26.167 20 40.5s5 27.833 5 40.5c0 5.33301 -0.333008 10.333 -1 15s-1.66699 9 -3 13l-96 5c2 -4.66699 3.33301 -9.5 4 -14.5s1 -9.83301 1 -14.5c0 -14 -3 -25.167 -9 -33.5s-15.667 -12.5 -29 -12.5
c-8.66699 0 -19 2.83301 -31 8.5s-25.667 13.834 -41 24.501c-14.667 10.667 -28.834 19.667 -42.501 27s-27.167 12.833 -40.5 16.5s-27 5.5 -41 5.5c-25.333 0 -47.333 -4.83301 -66 -14.5s-34.667 -23.167 -48 -40.5c-10 -13.333 -17 -26.666 -21 -39.999
s-6 -26.666 -6 -39.999c0 -8.66699 1 -16.667 3 -24z" />
    <glyph glyph-name="uni00A0" unicode="&#xa0;" horiz-adv-x="300" 
 />
    <glyph glyph-name="exclamdown" unicode="&#xa1;" horiz-adv-x="318" 
d="M226 -239l-25 488h-85l-25 -488h135zM230 413c0 19.333 -6.83301 35.333 -20.5 48s-30.5 19 -50.5 19s-36.833 -6.33301 -50.5 -19s-20.5 -28.667 -20.5 -48s6.83301 -35.5 20.5 -48.5s30.5 -19.5 50.5 -19.5s36.833 6.5 50.5 19.5s20.5 29.167 20.5 48.5z" />
    <glyph glyph-name="cent" unicode="&#xa2;" horiz-adv-x="580" 
d="M263 38l-4 -150h90l-4 150h-82zM179 230c0 28.667 6.5 54.166 19.5 76.499s30.333 39.666 52 51.999s45.834 18.5 72.501 18.5c34.667 0 65.334 -7.66699 92.001 -23s46 -33.666 58 -54.999v120c-16 16 -38 28.5 -66 37.5s-57.667 13.5 -89 13.5
c-47.333 0 -89.833 -10.167 -127.5 -30.5s-67.334 -48.5 -89.001 -84.5s-32.5 -77.667 -32.5 -125c0 -46.667 10.833 -88.167 32.5 -124.5s51.334 -64.666 89.001 -84.999s80.167 -30.5 127.5 -30.5c31.333 0 61 4.5 89 13.5s50 21.833 66 38.5v120
c-12 -21.333 -31.333 -39.833 -58 -55.5s-57.334 -23.5 -92.001 -23.5c-26.667 0 -50.834 6.16699 -72.501 18.5s-39 29.5 -52 51.5s-19.5 47.667 -19.5 77zM259 577.999l4 -150h82l4 150h-90z" />
    <glyph glyph-name="sterling" unicode="&#xa3;" horiz-adv-x="593" 
d="M67 370v-85h368v85h-368zM444 474l97.002 37.998c-1.33301 20.667 -6.83301 42.5 -16.5 65.5s-23.5 44.5 -41.5 64.5s-40.333 36.333 -67 49s-57.334 19 -92.001 19c-41.333 0 -78.666 -7.5 -111.999 -22.5s-59.666 -36.833 -78.999 -65.5s-29 -63 -29 -103
c0 -25.333 3.33301 -47.5 10 -66.5s15.167 -36.167 25.5 -51.5s20.666 -29.833 30.999 -43.5s18.833 -28 25.5 -43s10 -31.833 10 -50.5c0 -30.667 -5.5 -59.667 -16.5 -87s-27.333 -55.166 -49 -83.499s-48.834 -59.5 -81.501 -93.5h467v104h-357l-22 -54
c18.667 5.33301 37.667 14.5 57 27.5s37.333 29.167 54 48.5s30 41 40 65s15 49.333 15 76c0 22.667 -3.16699 42.167 -9.5 58.5s-14 31.333 -23 45l-28 41c-9.66699 13.667 -17.667 28.334 -24 44.001s-9.5 33.834 -9.5 54.501c0 22.667 5.16699 41.167 15.5 55.5
s23.666 24.666 39.999 30.999s33.5 9.5 51.5 9.5c20 0 37.333 -3.66699 52 -11s26.667 -17.333 36 -30s16.5 -27 21.5 -43s7.83301 -32 8.5 -48z" />
    <glyph glyph-name="currency" unicode="&#xa4;" horiz-adv-x="579" 
d="M32 503l96 -95l54 54l-95 96zM87 42l95 97l-54 54l-96 -96zM451 408l96 95l-54 55l-97 -96zM396 139l97 -97l54 55l-96 96zM52 300c0 -46 10.5 -87.167 31.5 -123.5s49.5 -64.833 85.5 -85.5s76.333 -31 121 -31c45.333 0 85.833 10.333 121.5 31s64 49.167 85 85.5
s31.5 77.5 31.5 123.5c0 46.667 -10.5 88 -31.5 124s-49.333 64.333 -85 85s-76.167 31 -121.5 31c-44.667 0 -85 -10.333 -121 -31s-64.5 -49 -85.5 -85s-31.5 -77.333 -31.5 -124zM155 300c0 27.333 5.83301 51.666 17.5 72.999s27.667 37.833 48 49.5
s43.5 17.5 69.5 17.5c25.333 0 48.166 -5.83301 68.499 -17.5s36.333 -28.167 48 -49.5s17.5 -45.666 17.5 -72.999s-5.83301 -51.666 -17.5 -72.999s-27.667 -37.833 -48 -49.5s-43.166 -17.5 -68.499 -17.5c-26 0 -49.167 5.83301 -69.5 17.5s-36.333 28.167 -48 49.5
s-17.5 45.666 -17.5 72.999z" />
    <glyph glyph-name="yen" unicode="&#xa5;" horiz-adv-x="616" 
d="M45 280h521v85h-521v-85zM45 130h521v85h-521v-85zM471 700l-163 -299l-163 299h-135l238 -404v-296h121v299l236 401h-134z" />
    <glyph glyph-name="brokenbar" unicode="&#xa6;" horiz-adv-x="306" 
d="M100 695v-250h106v250h-106zM206 255h-106v-250h106v250z" />
    <glyph glyph-name="section" unicode="&#xa7;" horiz-adv-x="476" 
d="M346 567l67.002 63.998c-7.33301 16 -19.833 30.333 -37.5 43s-38.5 22.834 -62.5 30.501s-48.667 11.5 -74 11.5c-26.667 0 -52.5 -5.16699 -77.5 -15.5s-45.667 -25.166 -62 -44.499s-24.5 -43 -24.5 -71c0 -20 3.83301 -37.333 11.5 -52s17.667 -27.334 30 -38.001
s26 -19.834 41 -27.501s30.167 -14.5 45.5 -20.5c18 -6.66699 35.5 -13.834 52.5 -21.501s31 -17 42 -28s16.5 -24.833 16.5 -41.5c0 -13.333 -3.66699 -26.166 -11 -38.499s-17 -22.5 -29 -30.5s-25.667 -12.667 -41 -14v-37c26 0 50.167 2.33301 72.5 7
s42.166 12.5 59.499 23.5s30.666 25.333 39.999 43s14 38.834 14 63.501c0 24 -6 44.667 -18 62s-27.833 32.333 -47.5 45s-41.5 23 -65.5 31c-12.667 5.33301 -25.5 10.333 -38.5 15s-24.667 9.66699 -35 15s-18.5 11.5 -24.5 18.5s-9 14.167 -9 21.5
c0 8.66699 2.5 15.834 7.5 21.501s12.333 10 22 13s20.5 4.5 32.5 4.5s24.5 -2 37.5 -6s25.333 -9.83301 37 -17.5s21.167 -17.5 28.5 -29.5zM109.002 165.998l-69.001 -62.0039c9.33301 -22 23.666 -42.167 42.999 -60.5s42.5 -32.666 69.5 -42.999
s56.167 -15.5 87.5 -15.5c24.667 0 48 2.83301 70 8.5s41.333 14.334 58 26.001s29.667 26.667 39 45s14 40.166 14 65.499c0 24.667 -6 45.834 -18 63.501s-27.667 32.834 -47 45.501s-40 23.334 -62 32.001c-12.667 5.33301 -26 10.5 -40 15.5s-27 10.833 -39 17.5
s-21.833 15.167 -29.5 25.5s-11.5 23.5 -11.5 39.5c0 14 3.33301 25.833 10 35.5s16.334 18 29.001 25s27.667 13.5 45 19.5v31c-28.667 0 -54.5 -2.83301 -77.5 -8.5s-42.833 -14.167 -59.5 -25.5s-29.5 -25 -38.5 -41s-13.5 -34.667 -13.5 -56c0 -25.333 7 -47.333 21 -66
s31.667 -34 53 -46s43.333 -22 66 -30c18 -6 34.667 -12.333 50 -19s27.666 -14.667 36.999 -24s14 -21 14 -35c0 -11.333 -2.66699 -20.5 -8 -27.5s-13.166 -12.333 -23.499 -16s-23.166 -5.5 -38.499 -5.5c-16 0 -32.5 3.5 -49.5 10.5s-32.667 16.833 -47 29.5
s-25.833 28 -34.5 46z" />
    <glyph glyph-name="dieresis" unicode="&#xa8;" horiz-adv-x="487" 
d="M284 649c0 -18.667 6.66699 -34.334 20 -47.001s29.333 -19 48 -19c19.333 0 35.5 6.33301 48.5 19s19.5 28.334 19.5 47.001s-6.5 34.334 -19.5 47.001s-29.167 19 -48.5 19c-18.667 0 -34.667 -6.33301 -48 -19s-20 -28.334 -20 -47.001zM66 649
c0 -18.667 6.83301 -34.334 20.5 -47.001s29.834 -19 48.501 -19s34.667 6.33301 48 19s20 28.334 20 47.001s-6.66699 34.334 -20 47.001s-29.333 19 -48 19s-34.834 -6.33301 -48.501 -19s-20.5 -28.334 -20.5 -47.001z" />
    <glyph glyph-name="copyright" unicode="&#xa9;" horiz-adv-x="800" 
d="M259 350c0 30 6.33301 56.001 19 78.001s30 39.167 52 51.5s46.333 18.5 73 18.5c29.333 0 55 -5.5 77 -16.5s40 -25.167 54 -42.5v84c-17.333 14.667 -36.166 25.834 -56.499 33.501s-45.833 11.5 -76.5 11.5c-41.333 0 -78.5 -9.33301 -111.5 -28
s-59.167 -44.334 -78.5 -77.001s-29 -70.334 -29 -113.001c0 -42 9.66699 -79.5 29 -112.5s45.5 -58.667 78.5 -77s70.167 -27.5 111.5 -27.5c30.667 0 56.167 3.83301 76.5 11.5s39.166 18.5 56.499 32.5v84c-14 -16.667 -32 -30.667 -54 -42s-47.667 -17 -77 -17
c-26.667 0 -51 6.16699 -73 18.5s-39.333 29.5 -52 51.5s-19 48 -19 78zM95 350.001c0 44.667 7.66699 85.834 23 123.501s36.833 70.5 64.5 98.5s60 49.667 97 65s77.167 23 120.5 23s83.5 -7.66699 120.5 -23s69.333 -37 97 -65s49.167 -60.833 64.5 -98.5
s23 -78.834 23 -123.501s-7.66699 -85.834 -23 -123.501s-36.833 -70.5 -64.5 -98.5s-60 -49.667 -97 -65s-77.167 -23 -120.5 -23s-83.5 7.66699 -120.5 23s-69.333 37 -97 65s-49.167 60.833 -64.5 98.5s-23 78.834 -23 123.501zM40 350.001c0 -52 9.16699 -100 27.5 -144
s43.666 -82.167 75.999 -114.5s70.5 -57.333 114.5 -75s91.333 -26.5 142 -26.5c51.333 0 98.833 8.83301 142.5 26.5s81.667 42.667 114 75s57.666 70.5 75.999 114.5s27.5 92 27.5 144s-9.16699 100 -27.5 144s-43.666 82.167 -75.999 114.5s-70.333 57.333 -114 75
s-91.167 26.5 -142.5 26.5c-50.667 0 -98 -8.83301 -142 -26.5s-82.167 -42.667 -114.5 -75s-57.666 -70.5 -75.999 -114.5s-27.5 -92 -27.5 -144z" />
    <glyph glyph-name="ordfeminine" unicode="&#xaa;" horiz-adv-x="251" 
d="M74 531c0 12 4.66699 22.333 14 31s22 13 38 13c14 0 26.5 -1.83301 37.5 -5.5s21.167 -9.16699 30.5 -16.5v29c-4 4 -12.667 9.5 -26 16.5s-30 10.5 -50 10.5c-26 0 -49 -7.16699 -69 -21.5s-30 -33.5 -30 -57.5s8.16699 -42.5 24.5 -55.5s35.5 -19.5 57.5 -19.5
c24 0 44.167 6.16699 60.5 18.5s24.5 29.5 24.5 51.5l-8 26c0 -20 -6.33301 -34 -19 -42s-26.667 -12 -42 -12s-26.333 3.33301 -33 10s-10 14.667 -10 24zM62 638c5.33301 3.33301 14.3311 7.83398 26.998 13.501s27.334 8.5 44.001 8.5c12.667 0 23.334 -3 32.001 -9
s13 -14.667 13 -26v-165h53v173c0 23.333 -8.83301 41.166 -26.5 53.499s-40.5 18.5 -68.5 18.5c-20.667 0 -39.167 -3 -55.5 -9s-29.5 -12 -39.5 -18z" />
    <glyph glyph-name="guillemotleft" unicode="&#xab;" horiz-adv-x="523" 
d="M315 259l150 186l-67 53l-185 -243l185 -242l67 52zM138 259l150 186l-68 53l-185 -243l185 -242l68 52z" />
    <glyph glyph-name="logicalnot" unicode="&#xac;" horiz-adv-x="632" 
d="M65 289h415v-114h87v211h-502v-97z" />
    <glyph glyph-name="uni00AD" unicode="&#xad;" horiz-adv-x="210" 
d="M5 200h200v75h-200v-75z" />
    <glyph glyph-name="registered" unicode="&#xae;" horiz-adv-x="800" 
d="M360 345l124 -195h85l-137 195h-72zM266 570v-420h71v420h-71zM308 509l85 0.000976562c24.667 0 44.334 -5.83301 59.001 -17.5s22 -28.834 22 -51.501s-7.33301 -40 -22 -52s-34.334 -18 -59.001 -18h-85v-58h88c45.333 0 81.833 11.833 109.5 35.5
s41.5 55.167 41.5 94.5c0 38 -13.833 68.833 -41.5 92.5s-64.167 35.5 -109.5 35.5h-88v-61zM95 350.001c0 44.667 7.66699 85.834 23 123.501s36.833 70.5 64.5 98.5s60 49.667 97 65s77.167 23 120.5 23s83.5 -7.66699 120.5 -23s69.333 -37 97 -65
s49.167 -60.833 64.5 -98.5s23 -78.834 23 -123.501s-7.66699 -85.834 -23 -123.501s-36.833 -70.5 -64.5 -98.5s-60 -49.667 -97 -65s-77.167 -23 -120.5 -23s-83.5 7.66699 -120.5 23s-69.333 37 -97 65s-49.167 60.833 -64.5 98.5s-23 78.834 -23 123.501zM40 350.001
c0 -52 9.16699 -100 27.5 -144s43.666 -82.167 75.999 -114.5s70.5 -57.333 114.5 -75s91.333 -26.5 142 -26.5c51.333 0 98.833 8.83301 142.5 26.5s81.667 42.667 114 75s57.666 70.5 75.999 114.5s27.5 92 27.5 144s-9.16699 100 -27.5 144s-43.666 82.167 -75.999 114.5
s-70.333 57.333 -114 75s-91.167 26.5 -142.5 26.5c-50.667 0 -98 -8.83301 -142 -26.5s-82.167 -42.667 -114.5 -75s-57.666 -70.5 -75.999 -114.5s-27.5 -92 -27.5 -144z" />
    <glyph glyph-name="macron" unicode="&#xaf;" horiz-adv-x="519" 
d="M80 589h359v97h-359v-97z" />
    <glyph glyph-name="degree" unicode="&#xb0;" horiz-adv-x="286" 
d="M19 599c0 -35.333 11.667 -64.333 35 -87s53 -34 89 -34c35.333 0 64.833 11.333 88.5 34s35.5 51.667 35.5 87c0 36 -11.833 65.167 -35.5 87.5s-53.167 33.5 -88.5 33.5c-36 0 -65.667 -11.167 -89 -33.5s-35 -51.5 -35 -87.5zM73 599c0 21.333 6.5 38.833 19.5 52.5
s29.833 20.5 50.5 20.5c20 0 36.667 -6.83301 50 -20.5s20 -31.167 20 -52.5s-6.66699 -38.833 -20 -52.5s-30.333 -20.5 -51 -20.5c-20 0 -36.5 6.83301 -49.5 20.5s-19.5 31.167 -19.5 52.5z" />
    <glyph glyph-name="plusminus" unicode="&#xb1;" horiz-adv-x="623" 
d="M65 3h493v100h-493v-100zM65 340h493v103h-493v-103zM255 620v-457h113v457h-113z" />
    <glyph glyph-name="uni00B2" unicode="&#xb2;" horiz-adv-x="371" 
d="M25 282l319.999 0.00195312v66h-182l119 117c17.333 16.667 31.333 34.5 42 53.5s16 39.167 16 60.5c0 20 -5 40.167 -15 60.5s-25.167 37.166 -45.5 50.499s-46.833 20 -79.5 20c-31.333 0 -58.5 -6.83301 -81.5 -20.5s-40.5 -32.167 -52.5 -55.5s-18 -50 -18 -80h70
c0 28 7.5 50.333 22.5 67s34.5 25 58.5 25c15.333 0 28 -3.16699 38 -9.5s17.5 -14.5 22.5 -24.5s7.5 -20.667 7.5 -32c0 -16.667 -4.16699 -32.334 -12.5 -47.001s-20.166 -30 -35.499 -46z" />
    <glyph glyph-name="uni00B3" unicode="&#xb3;" horiz-adv-x="333" 
d="M146 486c30 0 56.5 4.49805 79.5 13.498s41.167 21.5 54.5 37.5s20 34.667 20 56c0 30.667 -11.333 57.334 -34 80.001s-54.334 34 -95.001 34c-38.667 0 -70.167 -11.167 -94.5 -33.5s-36.5 -50.5 -36.5 -84.5h67c0 16.667 6.16699 30.5 18.5 41.5s27.5 16.5 45.5 16.5
c19.333 0 33.666 -5.16699 42.999 -15.5s14 -24.166 14 -41.499c0 -12 -3.16699 -23 -9.5 -33s-15.666 -18 -27.999 -24s-27.166 -9 -44.499 -9v-38zM167 272.998c43.333 0 78.332 11.001 104.999 33.001s40 51 40 87c0 28 -7.33301 50.667 -22 68s-34.5 30 -59.5 38
s-53.167 12 -84.5 12v-40c19.333 0 36 -2.83301 50 -8.5s24.833 -13.667 32.5 -24s11.5 -23.166 11.5 -38.499c0 -20.667 -6.5 -36.834 -19.5 -48.501s-30.167 -17.5 -51.5 -17.5s-39.166 6 -53.499 18s-21.5 28 -21.5 48h-72c0 -22.667 5.83301 -43.834 17.5 -63.501
s28.5 -35.167 50.5 -46.5s47.667 -17 77 -17z" />
    <glyph glyph-name="acute" unicode="&#xb4;" horiz-adv-x="375" 
d="M308 658l-92 45l-150 -160l62 -35z" />
    <glyph glyph-name="mu" unicode="&#xb5;" horiz-adv-x="545" 
d="M180 460l-110.999 0.00195312v-780h106v331c12 -6.66699 24 -11.334 36 -14.001s24.333 -4 37 -4c25.333 0 48.166 5.83301 68.499 17.5s37.5 27.5 51.5 47.5v-58h108v460h-108v-270c0 -20 -4.33301 -37.833 -13 -53.5s-20.667 -27.834 -36 -36.501s-33 -13 -53 -13
c-30 0 -51.833 8.83301 -65.5 26.5s-20.5 43.167 -20.5 76.5v270z" />
    <glyph glyph-name="paragraph" unicode="&#xb6;" horiz-adv-x="616" 
d="M288 270v-489.998h95v844h78v-844h95v920h-268c-41.333 0 -79.333 -8.33301 -114 -25s-62.334 -40.834 -83.001 -72.501s-31 -70.834 -31 -117.501c0 -46 10.333 -85 31 -117s48.334 -56.333 83.001 -73s72.667 -25 114 -25z" />
    <glyph glyph-name="periodcentered" unicode="&#xb7;" horiz-adv-x="309" 
d="M84 251c0 -18.667 6.83301 -35 20.5 -49s30.5 -21 50.5 -21s36.667 7 50 21s20 30.333 20 49c0 19.333 -6.66699 35.833 -20 49.5s-30 20.5 -50 20.5s-36.833 -6.83301 -50.5 -20.5s-20.5 -30.167 -20.5 -49.5z" />
    <glyph glyph-name="cedilla" unicode="&#xb8;" horiz-adv-x="368" 
d="M191 65l-86.001 -178.999c13.333 7.33301 26.666 12 39.999 14s22.333 3 27 3c16.667 0 29.834 -2.66699 39.501 -8s14.5 -14 14.5 -26s-4.16699 -21.333 -12.5 -28s-21.166 -10 -38.499 -10c-12 0 -23.167 1.83301 -33.5 5.5s-20.833 9.83398 -31.5 18.501l-38 -51
c17.333 -14.667 34.5 -24.834 51.5 -30.501s36.833 -8.5 59.5 -8.5c19.333 0 37.833 3.83301 55.5 11.5s32.167 19 43.5 34s17 33.167 17 54.5c0 18.667 -4.16699 34.167 -12.5 46.5s-18.666 21.666 -30.999 27.999s-24.5 9.5 -36.5 9.5
c-3.33301 0 -6.83301 -0.166992 -10.5 -0.5s-6.83398 -0.833008 -9.50098 -1.5l73 116z" />
    <glyph glyph-name="uni00B9" unicode="&#xb9;" horiz-adv-x="475" 
d="M145 596l97 27v-349h70v427l-167 -38v-67z" />
    <glyph glyph-name="ordmasculine" unicode="&#xba;" horiz-adv-x="278" 
d="M20 580c0 -35.333 11.667 -64.166 35 -86.499s52.666 -33.5 87.999 -33.5c36 0 65.833 11.167 89.5 33.5s35.5 51.166 35.5 86.499c0 36 -11.833 65 -35.5 87s-53.5 33 -89.5 33c-35.333 0 -64.666 -11 -87.999 -33s-35 -51 -35 -87zM75 580
c0 21.333 6.5 38.666 19.5 51.999s29.167 20 48.5 20c20 0 36.5 -6.66699 49.5 -20s19.5 -30.666 19.5 -51.999s-6.5 -38.666 -19.5 -51.999s-29.5 -20 -49.5 -20c-19.333 0 -35.5 6.66699 -48.5 20s-19.5 30.666 -19.5 51.999z" />
    <glyph glyph-name="guillemotright" unicode="&#xbb;" horiz-adv-x="523" 
d="M208 251l-150 -186l67 -52l185 242l-185 243l-67 -53zM385 251l-150 -186l68 -52l185 242l-185 243l-68 -53z" />
    <glyph glyph-name="onequarter" unicode="&#xbc;" horiz-adv-x="782" 
d="M623 700l-520 -700h78l520 700h-78zM28 596l97 27v-349h70v427l-167 -38v-67zM402 80h346v62h-94l-10 -5h-184zM475 92l139 202v-186l-5 -6v-102h73v420h-43l-237 -340z" />
    <glyph glyph-name="onehalf" unicode="&#xbd;" horiz-adv-x="849" 
d="M623 700l-520 -700h78l520 700h-78zM28 596l97 27v-349h70v427l-167 -38v-67zM498 2l319.999 0.00195312v66h-182l119 117c17.333 16.667 31.333 34.5 42 53.5s16 39.167 16 60.5c0 20 -5 40.167 -15 60.5s-25.167 37.166 -45.5 50.499s-46.833 20 -79.5 20
c-31.333 0 -58.5 -6.83301 -81.5 -20.5s-40.5 -32.167 -52.5 -55.5s-18 -50 -18 -80h70c0 28 7.5 50.333 22.5 67s34.5 25 58.5 25c15.333 0 28 -3.16699 38 -9.5s17.5 -14.5 22.5 -24.5s7.5 -20.667 7.5 -32c0 -16.667 -4.16699 -32.334 -12.5 -47.001
s-20.166 -30 -35.499 -46z" />
    <glyph glyph-name="threequarters" unicode="&#xbe;" horiz-adv-x="844" 
d="M689 700l-520 -700h77l520 700h-77zM153 486c29.333 0 55.501 4.49805 78.501 13.498s41.167 21.5 54.5 37.5s20 34.667 20 56c0 30.667 -11.333 57.334 -34 80.001s-54.334 34 -95.001 34c-38.667 0 -70.167 -11.167 -94.5 -33.5s-36.5 -50.5 -36.5 -84.5h67
c0 16.667 6.16699 30.5 18.5 41.5s27.5 16.5 45.5 16.5c19.333 0 33.833 -5.16699 43.5 -15.5s14.5 -24.166 14.5 -41.499c0 -12 -3.33301 -23 -10 -33s-16.167 -18 -28.5 -24s-26.833 -9 -43.5 -9v-38zM174.001 272.998c42.667 0 77.332 11.001 103.999 33.001s40 51 40 87
c0 28 -7.33301 50.667 -22 68s-34.334 30 -59.001 38s-52.667 12 -84 12v-40c18.667 0 35 -2.83301 49 -8.5s25 -13.667 33 -24s12 -23.166 12 -38.499c0 -20.667 -6.66699 -36.834 -20 -48.501s-30.666 -17.5 -51.999 -17.5s-39.166 6 -53.499 18s-21.5 28 -21.5 48h-72
c0 -22.667 6 -43.834 18 -63.501s28.833 -35.167 50.5 -46.5s47.5 -17 77.5 -17zM464.999 79.999h346v62h-94l-10 -5h-184zM537.999 91.999l139 202v-186l-5 -6v-102h73v420h-43l-237 -340z" />
    <glyph glyph-name="questiondown" unicode="&#xbf;" horiz-adv-x="585" 
d="M167 200c0 22 7.16406 43.832 21.4971 65.499s35.333 39.667 63 54s61.5 21.5 101.5 21.5h29l-20 177h-85l-6 -106c-36.667 -3.33301 -71.167 -14.5 -103.5 -33.5s-58.666 -43.667 -78.999 -74s-30.5 -65.166 -30.5 -104.499c0 -32 6 -61 18 -87s28.833 -48.5 50.5 -67.5
s46.5 -33.667 74.5 -44s58 -15.5 90 -15.5c40 0 74.333 5 103 15s53.834 24.167 75.501 42.5s41.834 40.166 60.501 65.499l-80 58c-16.667 -26 -37.667 -46.5 -63 -61.5s-54 -22.5 -86 -22.5c-28 0 -51.833 4.5 -71.5 13.5s-35 22.333 -46 40s-16.5 38.834 -16.5 63.501z
M387.997 652.999c0 18 -6.66699 33.5 -20 46.5s-30 19.5 -50 19.5s-36.833 -6.5 -50.5 -19.5s-20.5 -28.5 -20.5 -46.5s6.83301 -33.667 20.5 -47s30.5 -20 50.5 -20s36.667 6.66699 50 20s20 29 20 47z" />
    <glyph glyph-name="Agrave" unicode="&#xc0;" horiz-adv-x="690" 
d="M162 180h370l-22 100h-325zM345 502l112 -260l2 -29l95 -213h134l-343 739l-342 -739h133l97 219l2 26zM203 949l180 -150l61 35l-150 160z" />
    <glyph glyph-name="Aacute" unicode="&#xc1;" horiz-adv-x="690" 
d="M162 180h370l-22 100h-325zM345 502l112 -260l2 -29l95 -213h134l-343 739l-342 -739h133l97 219l2 26zM486 949l-91 45l-150 -160l61 -35z" />
    <glyph glyph-name="Acircumflex" unicode="&#xc2;" horiz-adv-x="690" 
d="M162 180h370l-22 100h-325zM345 502l112 -260l2 -29l95 -213h134l-343 739l-342 -739h133l97 219l2 26zM345 860l103 -91l72 52l-175 140l-175 -140l73 -52z" />
    <glyph glyph-name="Atilde" unicode="&#xc3;" horiz-adv-x="690" 
d="M162 180h370l-22 100h-325zM345 502l112 -260l2 -29l95 -213h134l-343 739l-342 -739h133l97 219l2 26zM168 832l60 -47.001c0 5.33301 1.33301 12 4 20s7.5 15.167 14.5 21.5s17.167 9.5 30.5 9.5c16 0 30 -4 42 -12l38.5 -24.5c13.667 -8.33301 29.5 -12.5 47.5 -12.5
c18.667 0 35.834 3.83301 51.501 11.5s29.334 17.667 41.001 30s20.167 24.5 25.5 36.5l-56 55c-10 -16 -19.833 -28.333 -29.5 -37s-19.834 -13 -30.501 -13c-14 0 -25.5 2.5 -34.5 7.5s-17.667 10.833 -26 17.5s-17.833 12.334 -28.5 17.001s-24 7 -40 7
c-17.333 0 -33.833 -3.83301 -49.5 -11.5s-28.834 -18 -39.501 -31s-17.667 -27.833 -21 -44.5z" />
    <glyph glyph-name="Adieresis" unicode="&#xc4;" horiz-adv-x="690" 
d="M162 180h370l-22 100h-325zM345 502l112 -260l2 -29l95 -213h134l-343 739l-342 -739h133l97 219l2 26zM393 842c0 -18 6.83301 -33.5 20.5 -46.5s29.5 -19.5 47.5 -19.5c19.333 0 35.666 6.5 48.999 19.5s20 28.5 20 46.5c0 18.667 -6.66699 34.334 -20 47.001
s-29.666 19 -48.999 19c-18 0 -33.833 -6.33301 -47.5 -19s-20.5 -28.334 -20.5 -47.001zM158 845c0 -18.667 6.83301 -34.334 20.5 -47.001s29.5 -19 47.5 -19c19.333 0 35.666 6.33301 48.999 19s20 28.334 20 47.001s-6.66699 34.167 -20 46.5s-29.666 18.5 -48.999 18.5
c-18 0 -33.833 -6.16699 -47.5 -18.5s-20.5 -27.833 -20.5 -46.5z" />
    <glyph glyph-name="Aring" unicode="&#xc5;" horiz-adv-x="690" 
d="M162 180h370l-22 100h-325zM345 502l112 -260l2 -29l95 -213h134l-343 739l-342 -739h133l97 219l2 26zM234 799c0 -31.333 11.167 -56.833 33.5 -76.5s48.166 -29.5 77.499 -29.5s55.166 9.83301 77.499 29.5s33.5 45.167 33.5 76.5c0 32 -11.167 57.667 -33.5 77
s-48.166 29 -77.499 29s-55.166 -9.66699 -77.499 -29s-33.5 -45 -33.5 -77zM296 799c0 16 5 28.5 15 37.5s21.333 13.5 34 13.5s24 -4.5 34 -13.5s15 -21.5 15 -37.5s-5 -28.5 -15 -37.5s-21.333 -13.5 -34 -13.5s-24 4.5 -34 13.5s-15 21.5 -15 37.5z" />
    <glyph glyph-name="AE" unicode="&#xc6;" horiz-adv-x="1010" 
d="M238 186h303v110h-300zM436 700l-427 -700h142l392 660zM575 0h365v104h-365v-104zM583 596h357v104h-504zM575 324h345v102h-345v-102zM514 700v-700h124v700h-124z" />
    <glyph glyph-name="Ccedilla" unicode="&#xc7;" horiz-adv-x="691" 
d="M166 350c0 50 11.167 93.4971 33.5 130.497s51.5 65.667 87.5 86s75.333 30.5 118 30.5c33.333 0 63.5 -4.33301 90.5 -13s51.167 -20.5 72.5 -35.5s40 -31.833 56 -50.5v140c-28.667 24.667 -60.167 43.334 -94.5 56.001s-77.166 19 -128.499 19
s-99.166 -8.83301 -143.499 -26.5s-82.833 -42.667 -115.5 -75s-58.167 -70.666 -76.5 -114.999s-27.5 -93.166 -27.5 -146.499c0 -52.667 9.16699 -101.167 27.5 -145.5s43.833 -82.833 76.5 -115.5s71.167 -57.667 115.5 -75s92.166 -26 143.499 -26
s94.166 6.33301 128.499 19s65.833 31 94.5 55v141c-16 -19.333 -34.667 -36.5 -56 -51.5s-45.5 -26.833 -72.5 -35.5s-57.167 -13 -90.5 -13c-42.667 0 -82 10.333 -118 31s-65.167 49.5 -87.5 86.5s-33.5 80.167 -33.5 129.5zM371 54.9971l-86.001 -178.999
c13.333 7.33301 26.666 12 39.999 14s22.333 3 27 3c16.667 0 30 -2.5 40 -7.5s15 -13.833 15 -26.5c0 -12 -4.33301 -21.333 -13 -28s-21.667 -10 -39 -10c-11.333 0 -22.333 2 -33 6s-21.334 10 -32.001 18l-39 -51c18 -14.667 35.5 -24.834 52.5 -30.501
s36.833 -8.5 59.5 -8.5c19.333 0 37.833 3.83301 55.5 11.5s32.167 19 43.5 34s17 33.167 17 54.5c0 19.333 -4.16699 35 -12.5 47s-18.666 21.167 -30.999 27.5s-24.5 9.5 -36.5 9.5c-3.33301 0 -6.66602 -0.166992 -9.99902 -0.5s-6.66602 -0.833008 -9.99902 -1.5l72 116
z" />
    <glyph glyph-name="Egrave" unicode="&#xc8;" horiz-adv-x="571" 
d="M151 0h353v104h-353v-104zM151 596h353v104h-353v-104zM151 324h333v102h-333v-102zM78 700v-700h116v700h-116zM148 925l180 -150l61 35l-150 160z" />
    <glyph glyph-name="Eacute" unicode="&#xc9;" horiz-adv-x="571" 
d="M151 0h353v104h-353v-104zM151 596h353v104h-353v-104zM151 324h333v102h-333v-102zM78 700v-700h116v700h-116zM432 925l-91 45l-150 -160l61 -35z" />
    <glyph glyph-name="Ecircumflex" unicode="&#xca;" horiz-adv-x="571" 
d="M151 0h353v104h-353v-104zM151 596h353v104h-353v-104zM151 324h333v102h-333v-102zM78 700v-700h116v700h-116zM298 864l103 -91l72 52l-175 140l-175 -140l73 -52z" />
    <glyph glyph-name="Edieresis" unicode="&#xcb;" horiz-adv-x="571" 
d="M151 0h353v104h-353v-104zM151 596h353v104h-353v-104zM151 324h333v102h-333v-102zM78 700v-700h116v700h-116zM339 853c0 -18 6.66699 -33.333 20 -46s29.333 -19 48 -19c19.333 0 35.5 6.33301 48.5 19s19.5 28 19.5 46c0 19.333 -6.5 35.166 -19.5 47.499
s-29.167 18.5 -48.5 18.5c-18.667 0 -34.667 -6.16699 -48 -18.5s-20 -28.166 -20 -47.499zM121 853c0 -18 6.83301 -33.333 20.5 -46s29.834 -19 48.501 -19s34.667 6.33301 48 19s20 28 20 46c0 19.333 -6.66699 35.166 -20 47.499s-29.333 18.5 -48 18.5
s-34.834 -6.16699 -48.501 -18.5s-20.5 -28.166 -20.5 -47.499z" />
    <glyph glyph-name="Igrave" unicode="&#xcc;" horiz-adv-x="275" 
d="M78 700v-700h120v700h-120zM-8 925l180 -150l62 35l-150 160z" />
    <glyph glyph-name="Iacute" unicode="&#xcd;" horiz-adv-x="275" 
d="M78 700v-700h120v700h-120zM276 925l-90 45l-150 -160l60 -35z" />
    <glyph glyph-name="Icircumflex" unicode="&#xce;" horiz-adv-x="275" 
d="M78 700v-700h120v700h-120zM137 864l103 -91l72 52l-175 140l-175 -140l73 -52z" />
    <glyph glyph-name="Idieresis" unicode="&#xcf;" horiz-adv-x="275" 
d="M78 700v-700h120v700h-120zM179 838c0 -18 6.5 -33.333 19.5 -46s28.833 -19 47.5 -19c19.333 0 35.666 6.33301 48.999 19s20 28 20 46c0 19.333 -6.66699 35.166 -20 47.499s-29.666 18.5 -48.999 18.5c-18.667 0 -34.5 -6.16699 -47.5 -18.5
s-19.5 -28.166 -19.5 -47.499zM-39 838c0 -18 6.66699 -33.333 20 -46s29.333 -19 48 -19s34.834 6.33301 48.501 19s20.5 28 20.5 46c0 19.333 -6.83301 35.166 -20.5 47.499s-29.834 18.5 -48.501 18.5s-34.667 -6.16699 -48 -18.5s-20 -28.166 -20 -47.499z" />
    <glyph glyph-name="Eth" unicode="&#xd0;" horiz-adv-x="701" 
d="M5 307h320v85h-320v-85zM78 700v-700h121v700h-121zM304 0c71.333 0 134 14.5 188 43.5s96.167 69.667 126.5 122s45.5 113.833 45.5 184.5s-15.167 132.167 -45.5 184.5s-72.5 93 -126.5 122s-116.667 43.5 -188 43.5h-153v-111h150c34.667 0 66.667 -5 96 -15
s54.833 -25 76.5 -45s38.667 -45 51 -75s18.5 -64.667 18.5 -104s-6.16699 -74 -18.5 -104s-29.333 -54.833 -51 -74.5s-47.167 -34.667 -76.5 -45s-61.333 -15.5 -96 -15.5h-150v-111h153z" />
    <glyph glyph-name="Ntilde" unicode="&#xd1;" horiz-adv-x="783" 
d="M589 700v-470l-511 505v-735h116v470l511 -505v735h-116zM198 809l60 -47.001c0 5.33301 1.33301 12 4 20s7.5 15.167 14.5 21.5s17.167 9.5 30.5 9.5c16 0 30 -4.16699 42 -12.5s24.833 -16.666 38.5 -24.999s29.5 -12.5 47.5 -12.5c18.667 0 35.834 4 51.501 12
s29.334 18 41.001 30s20.167 24 25.5 36l-56 56c-10 -16 -19.833 -28.333 -29.5 -37s-19.834 -13 -30.501 -13c-14 0 -25.5 2.33301 -34.5 7s-17.667 10.334 -26 17.001s-17.833 12.5 -28.5 17.5s-24 7.5 -40 7.5c-17.333 0 -33.833 -4 -49.5 -12
s-28.834 -18.333 -39.501 -31s-17.667 -27.334 -21 -44.001z" />
    <glyph glyph-name="Ograve" unicode="&#xd2;" horiz-adv-x="803" 
d="M163 350c0 48 10.334 90.833 31.001 128.5s48.834 67.167 84.501 88.5s76.5 32 122.5 32c47.333 0 88.833 -10.667 124.5 -32s63.5 -50.833 83.5 -88.5s30 -80.5 30 -128.5s-10.167 -90.667 -30.5 -128s-48.333 -66.833 -84 -88.5s-76.834 -32.5 -123.501 -32.5
c-46 0 -86.833 10.833 -122.5 32.5s-63.834 51.167 -84.501 88.5s-31 80 -31 128zM38.001 350c0 -52 8.99902 -100.333 26.999 -145s43.333 -83.334 76 -116.001s71.167 -58.167 115.5 -76.5s92.5 -27.5 144.5 -27.5c53.333 0 102 9.16699 146 27.5s82.333 43.833 115 76.5
s58 71.334 76 116.001s27 93 27 145c0 52.667 -9 101 -27 145s-43.5 82.167 -76.5 114.5s-71.5 57.666 -115.5 75.999s-92.333 27.5 -145 27.5c-51.333 0 -99.166 -9.16699 -143.499 -27.5s-83 -43.666 -116 -75.999s-58.5 -70.5 -76.5 -114.5s-27 -92.333 -27 -145z
M270 925l180 -150l61 35l-150 160z" />
    <glyph glyph-name="Oacute" unicode="&#xd3;" horiz-adv-x="803" 
d="M163 350c0 48 10.334 90.833 31.001 128.5s48.834 67.167 84.501 88.5s76.5 32 122.5 32c47.333 0 88.833 -10.667 124.5 -32s63.5 -50.833 83.5 -88.5s30 -80.5 30 -128.5s-10.167 -90.667 -30.5 -128s-48.333 -66.833 -84 -88.5s-76.834 -32.5 -123.501 -32.5
c-46 0 -86.833 10.833 -122.5 32.5s-63.834 51.167 -84.501 88.5s-31 80 -31 128zM38.001 350c0 -52 8.99902 -100.333 26.999 -145s43.333 -83.334 76 -116.001s71.167 -58.167 115.5 -76.5s92.5 -27.5 144.5 -27.5c53.333 0 102 9.16699 146 27.5s82.333 43.833 115 76.5
s58 71.334 76 116.001s27 93 27 145c0 52.667 -9 101 -27 145s-43.5 82.167 -76.5 114.5s-71.5 57.666 -115.5 75.999s-92.333 27.5 -145 27.5c-51.333 0 -99.166 -9.16699 -143.499 -27.5s-83 -43.666 -116 -75.999s-58.5 -70.5 -76.5 -114.5s-27 -92.333 -27 -145z
M539 925l-91 45l-150 -160l61 -35z" />
    <glyph glyph-name="Ocircumflex" unicode="&#xd4;" horiz-adv-x="803" 
d="M163 350c0 48 10.334 90.833 31.001 128.5s48.834 67.167 84.501 88.5s76.5 32 122.5 32c47.333 0 88.833 -10.667 124.5 -32s63.5 -50.833 83.5 -88.5s30 -80.5 30 -128.5s-10.167 -90.667 -30.5 -128s-48.333 -66.833 -84 -88.5s-76.834 -32.5 -123.501 -32.5
c-46 0 -86.833 10.833 -122.5 32.5s-63.834 51.167 -84.501 88.5s-31 80 -31 128zM38.001 350c0 -52 8.99902 -100.333 26.999 -145s43.333 -83.334 76 -116.001s71.167 -58.167 115.5 -76.5s92.5 -27.5 144.5 -27.5c53.333 0 102 9.16699 146 27.5s82.333 43.833 115 76.5
s58 71.334 76 116.001s27 93 27 145c0 52.667 -9 101 -27 145s-43.5 82.167 -76.5 114.5s-71.5 57.666 -115.5 75.999s-92.333 27.5 -145 27.5c-51.333 0 -99.166 -9.16699 -143.499 -27.5s-83 -43.666 -116 -75.999s-58.5 -70.5 -76.5 -114.5s-27 -92.333 -27 -145z
M405 864l103 -91l72 52l-175 140l-175 -140l73 -52z" />
    <glyph glyph-name="Otilde" unicode="&#xd5;" horiz-adv-x="803" 
d="M163 350c0 48 10.334 90.833 31.001 128.5s48.834 67.167 84.501 88.5s76.5 32 122.5 32c47.333 0 88.833 -10.667 124.5 -32s63.5 -50.833 83.5 -88.5s30 -80.5 30 -128.5s-10.167 -90.667 -30.5 -128s-48.333 -66.833 -84 -88.5s-76.834 -32.5 -123.501 -32.5
c-46 0 -86.833 10.833 -122.5 32.5s-63.834 51.167 -84.501 88.5s-31 80 -31 128zM38.001 350c0 -52 8.99902 -100.333 26.999 -145s43.333 -83.334 76 -116.001s71.167 -58.167 115.5 -76.5s92.5 -27.5 144.5 -27.5c53.333 0 102 9.16699 146 27.5s82.333 43.833 115 76.5
s58 71.334 76 116.001s27 93 27 145c0 52.667 -9 101 -27 145s-43.5 82.167 -76.5 114.5s-71.5 57.666 -115.5 75.999s-92.333 27.5 -145 27.5c-51.333 0 -99.166 -9.16699 -143.499 -27.5s-83 -43.666 -116 -75.999s-58.5 -70.5 -76.5 -114.5s-27 -92.333 -27 -145z
M226 820l61.001 -47c0 5.33301 1.33301 12 4 20s7.5 15.167 14.5 21.5s17.167 9.5 30.5 9.5c15.333 0 29.166 -4.16699 41.499 -12.5s25.333 -16.666 39 -24.999s29.5 -12.5 47.5 -12.5c18.667 0 35.834 4 51.501 12s29.167 18 40.5 30s19.666 24 24.999 36l-56 56
c-10 -16 -19.667 -28.333 -29 -37s-19.333 -13 -30 -13c-14 0 -25.5 2.5 -34.5 7.5s-17.667 10.667 -26 17s-17.833 12 -28.5 17s-24 7.5 -40 7.5c-17.333 0 -34 -4 -50 -12s-29.333 -18.333 -40 -31s-17.667 -27.334 -21 -44.001z" />
    <glyph glyph-name="Odieresis" unicode="&#xd6;" horiz-adv-x="803" 
d="M163 350c0 48 10.334 90.833 31.001 128.5s48.834 67.167 84.501 88.5s76.5 32 122.5 32c47.333 0 88.833 -10.667 124.5 -32s63.5 -50.833 83.5 -88.5s30 -80.5 30 -128.5s-10.167 -90.667 -30.5 -128s-48.333 -66.833 -84 -88.5s-76.834 -32.5 -123.501 -32.5
c-46 0 -86.833 10.833 -122.5 32.5s-63.834 51.167 -84.501 88.5s-31 80 -31 128zM38.001 350c0 -52 8.99902 -100.333 26.999 -145s43.333 -83.334 76 -116.001s71.167 -58.167 115.5 -76.5s92.5 -27.5 144.5 -27.5c53.333 0 102 9.16699 146 27.5s82.333 43.833 115 76.5
s58 71.334 76 116.001s27 93 27 145c0 52.667 -9 101 -27 145s-43.5 82.167 -76.5 114.5s-71.5 57.666 -115.5 75.999s-92.333 27.5 -145 27.5c-51.333 0 -99.166 -9.16699 -143.499 -27.5s-83 -43.666 -116 -75.999s-58.5 -70.5 -76.5 -114.5s-27 -92.333 -27 -145z
M442 838c0 -18 6.66699 -33.333 20 -46s29.333 -19 48 -19c19.333 0 35.5 6.33301 48.5 19s19.5 28 19.5 46c0 19.333 -6.5 35.166 -19.5 47.499s-29.167 18.5 -48.5 18.5c-18.667 0 -34.667 -6.16699 -48 -18.5s-20 -28.166 -20 -47.499zM224 838
c0 -18 6.83301 -33.333 20.5 -46s29.834 -19 48.501 -19s34.667 6.33301 48 19s20 28 20 46c0 19.333 -6.66699 35.166 -20 47.499s-29.333 18.5 -48 18.5s-34.834 -6.16699 -48.501 -18.5s-20.5 -28.166 -20.5 -47.499z" />
    <glyph glyph-name="multiply" unicode="&#xd7;" horiz-adv-x="596" 
d="M129 15l169 174l170 -174l71 71l-175 169l175 170l-71 71l-170 -175l-169 175l-71 -71l174 -170l-174 -169z" />
    <glyph glyph-name="Oslash" unicode="&#xd8;" horiz-adv-x="790" 
d="M163 350c0 48.667 10.333 91.667 31 129s48.834 66.666 84.501 87.999s76.5 32 122.5 32c46.667 0 87.834 -10.667 123.501 -32s63.667 -50.666 84 -87.999s30.5 -80.333 30.5 -129s-10.167 -91.667 -30.5 -129s-48.333 -66.666 -84 -87.999s-76.834 -32 -123.501 -32
c-46 0 -86.833 10.667 -122.5 32s-63.834 50.666 -84.501 87.999s-31 80.333 -31 129zM38 350c0 -52 9 -100.333 27 -145s43.333 -83.334 76 -116.001s71.167 -58.167 115.5 -76.5s92.5 -27.5 144.5 -27.5c52.667 0 101 9.16699 145 27.5s82.5 43.833 115.5 76.5
s58.5 71.334 76.5 116.001s27 93 27 145c0 52.667 -9 101 -27 145s-43.5 82.167 -76.5 114.5s-71.5 57.666 -115.5 75.999s-92.333 27.5 -145 27.5c-52 0 -100.167 -9.16699 -144.5 -27.5s-82.833 -43.666 -115.5 -75.999s-58 -70.5 -76 -114.5s-27 -92.333 -27 -145z
M692 753l-648 -760l63 -45l649 760z" />
    <glyph glyph-name="Ugrave" unicode="&#xd9;" horiz-adv-x="656" 
d="M73 700l0.00195312 -470c0 -38.667 6.16699 -73.167 18.5 -103.5s29.833 -56.166 52.5 -77.499s49.667 -37.666 81 -48.999s65.666 -17 102.999 -17s71.666 5.66699 102.999 17s58.5 27.666 81.5 48.999s40.667 47.166 53 77.499s18.5 64.833 18.5 103.5v470h-119v-465
c0 -42.667 -11.5 -77.334 -34.5 -104.001s-57.167 -40 -102.5 -40c-44.667 0 -78.667 13.333 -102 40s-35 61.334 -35 104.001v465h-118zM186.002 923l180 -150l61 35l-150 160z" />
    <glyph glyph-name="Uacute" unicode="&#xda;" horiz-adv-x="656" 
d="M73 700l0.00195312 -470c0 -38.667 6.16699 -73.167 18.5 -103.5s29.833 -56.166 52.5 -77.499s49.667 -37.666 81 -48.999s65.666 -17 102.999 -17s71.666 5.66699 102.999 17s58.5 27.666 81.5 48.999s40.667 47.166 53 77.499s18.5 64.833 18.5 103.5v470h-119v-465
c0 -42.667 -11.5 -77.334 -34.5 -104.001s-57.167 -40 -102.5 -40c-44.667 0 -78.667 13.333 -102 40s-35 61.334 -35 104.001v465h-118zM471.002 923l-92 45l-150 -160l62 -35z" />
    <glyph glyph-name="Ucircumflex" unicode="&#xdb;" horiz-adv-x="656" 
d="M73 700l0.00195312 -470c0 -38.667 6.16699 -73.167 18.5 -103.5s29.833 -56.166 52.5 -77.499s49.667 -37.666 81 -48.999s65.666 -17 102.999 -17s71.666 5.66699 102.999 17s58.5 27.666 81.5 48.999s40.667 47.166 53 77.499s18.5 64.833 18.5 103.5v470h-119v-465
c0 -42.667 -11.5 -77.334 -34.5 -104.001s-57.167 -40 -102.5 -40c-44.667 0 -78.667 13.333 -102 40s-35 61.334 -35 104.001v465h-118zM328.002 864l103 -91l72 52l-175 140l-175 -140l73 -52z" />
    <glyph glyph-name="Udieresis" unicode="&#xdc;" horiz-adv-x="656" 
d="M73 700l0.00195312 -470c0 -38.667 6.16699 -73.167 18.5 -103.5s29.833 -56.166 52.5 -77.499s49.667 -37.666 81 -48.999s65.666 -17 102.999 -17s71.666 5.66699 102.999 17s58.5 27.666 81.5 48.999s40.667 47.166 53 77.499s18.5 64.833 18.5 103.5v470h-119v-465
c0 -42.667 -11.5 -77.334 -34.5 -104.001s-57.167 -40 -102.5 -40c-44.667 0 -78.667 13.333 -102 40s-35 61.334 -35 104.001v465h-118zM376.002 838c0 -18 6.83301 -33.333 20.5 -46s29.5 -19 47.5 -19c19.333 0 35.666 6.33301 48.999 19s20 28 20 46
c0 19.333 -6.66699 35.166 -20 47.499s-29.666 18.5 -48.999 18.5c-18 0 -33.833 -6.16699 -47.5 -18.5s-20.5 -28.166 -20.5 -47.499zM144.002 838c0 -18 6.66699 -33.333 20 -46s29.333 -19 48 -19s34.667 6.33301 48 19s20 28 20 46c0 19.333 -6.66699 35.166 -20 47.499
s-29.333 18.5 -48 18.5s-34.667 -6.16699 -48 -18.5s-20 -28.166 -20 -47.499z" />
    <glyph glyph-name="Yacute" unicode="&#xdd;" horiz-adv-x="601" 
d="M443 923l-91 45l-150 -160l61 -35zM463 700l-163 -299l-162 299h-135l238 -406v-294h120v295l237 405h-135z" />
    <glyph glyph-name="Thorn" unicode="&#xde;" horiz-adv-x="575" 
d="M80 700v-700h110v700h-110zM146 466l140 0.00195312c28.667 0 53.5 -4 74.5 -12s37.333 -20.5 49 -37.5s17.5 -38.833 17.5 -65.5c0 -26 -5.83301 -47.5 -17.5 -64.5s-28 -29.667 -49 -38s-45.833 -12.5 -74.5 -12.5h-140v-101h140c51.333 0 95.833 8.66699 133.5 26
s66.834 42.333 87.501 75s31 71 31 115c0 45.333 -10.333 84.166 -31 116.499s-49.834 57.166 -87.501 74.499s-82.167 26 -133.5 26h-140v-102z" />
    <glyph glyph-name="germandbls" unicode="&#xdf;" horiz-adv-x="580" 
d="M355 -12c28 0 54.499 5.16602 79.499 15.499s47.167 24.5 66.5 42.5s34.5 39.167 45.5 63.5s16.5 50.166 16.5 77.499c0 24 -3.83301 44.333 -11.5 61s-17.5 31 -29.5 43s-24.833 22.5 -38.5 31.5l-38.5 25c-12 7.66699 -21.833 15.834 -29.5 24.501
s-11.5 18.667 -11.5 30c0 14.667 3.33301 27.834 10 39.501s15 23.334 25 35.001s20 24.334 30 38.001s18.5 29.667 25.5 48s10.5 40.833 10.5 67.5c0 37.333 -9 68.166 -27 92.499s-42.667 42.5 -74 54.5s-66.666 18 -105.999 18c-48.667 0 -90.667 -8.5 -126 -25.5
s-62.5 -41.167 -81.5 -72.5s-28.5 -68.333 -28.5 -111v-588h109l-1 575c0 29.333 5 53.166 15 71.499s23.833 31.666 41.5 39.999s38.167 12.5 61.5 12.5c18.667 0 35.834 -2.66699 51.501 -8s28.167 -14 37.5 -26s14 -28.333 14 -49c0 -19.333 -3.5 -36.666 -10.5 -51.999
s-15.667 -29.5 -26 -42.5l-31 -38c-10.333 -12.333 -19 -25.5 -26 -39.5s-10.5 -29.333 -10.5 -46c0 -17.333 4 -32.5 12 -45.5s18 -24.5 30 -34.5s25 -19.5 39 -28.5s27.167 -18.333 39.5 -28s22.5 -21 30.5 -34s12 -28.167 12 -45.5c0 -18 -4.16699 -34.333 -12.5 -49
s-19.833 -26.334 -34.5 -35.001s-31.334 -13 -50.001 -13c-12 0 -24 1.83301 -36 5.5s-23.5 8.83398 -34.5 15.501s-21.167 14.334 -30.5 23.001l-42 -82c12 -11.333 25.5 -21.333 40.5 -30s31.167 -15.334 48.5 -20.001s36 -7 56 -7z" />
    <glyph glyph-name="agrave" unicode="&#xe0;" horiz-adv-x="509" 
d="M137 136c0 16 4.00293 29.8311 12.0029 41.498s19.667 20.667 35 27s34.333 9.5 57 9.5c28 0 52.667 -3.5 74 -10.5s42.333 -18.167 63 -33.5v57c-5.33301 6.66699 -15 14.334 -29 23.001s-31.5 16.334 -52.5 23.001s-44.833 10 -71.5 10c-37.333 0 -71 -6 -101 -18
s-53.5 -29.5 -70.5 -52.5s-25.5 -51.833 -25.5 -86.5c0 -28 6.66699 -52.167 20 -72.5s32.166 -36 56.499 -47s52.5 -16.5 84.5 -16.5s61 5.5 87 16.5s46.667 27 62 48s23 46.167 23 75.5l-16 53c0 -27.333 -5.33301 -49 -16 -65s-25.334 -27.667 -44.001 -35
s-39.667 -11 -63 -11c-18 0 -33.333 2.5 -46 7.5s-22.334 12.167 -29.001 21.5s-10 21 -10 35zM114.003 338.998c7.33301 4.66699 17.833 10.5 31.5 17.5s29.667 13.167 48 18.5s38.5 8 60.5 8c25.333 0 46.833 -5.83301 64.5 -17.5s26.5 -28.167 26.5 -49.5v-316h106v328
c0 30.667 -8.16699 56.667 -24.5 78s-38.833 37.5 -67.5 48.5s-62 16.5 -100 16.5c-41.333 0 -78 -6 -110 -18s-58.333 -24.333 -79 -37zM94.0029 680.998l180 -150l62 35l-150 160z" />
    <glyph glyph-name="aacute" unicode="&#xe1;" horiz-adv-x="509" 
d="M137 136c0 16 4.00293 29.8311 12.0029 41.498s19.667 20.667 35 27s34.333 9.5 57 9.5c28 0 52.667 -3.5 74 -10.5s42.333 -18.167 63 -33.5v57c-5.33301 6.66699 -15 14.334 -29 23.001s-31.5 16.334 -52.5 23.001s-44.833 10 -71.5 10c-37.333 0 -71 -6 -101 -18
s-53.5 -29.5 -70.5 -52.5s-25.5 -51.833 -25.5 -86.5c0 -28 6.66699 -52.167 20 -72.5s32.166 -36 56.499 -47s52.5 -16.5 84.5 -16.5s61 5.5 87 16.5s46.667 27 62 48s23 46.167 23 75.5l-16 53c0 -27.333 -5.33301 -49 -16 -65s-25.334 -27.667 -44.001 -35
s-39.667 -11 -63 -11c-18 0 -33.333 2.5 -46 7.5s-22.334 12.167 -29.001 21.5s-10 21 -10 35zM114.003 338.998c7.33301 4.66699 17.833 10.5 31.5 17.5s29.667 13.167 48 18.5s38.5 8 60.5 8c25.333 0 46.833 -5.83301 64.5 -17.5s26.5 -28.167 26.5 -49.5v-316h106v328
c0 30.667 -8.16699 56.667 -24.5 78s-38.833 37.5 -67.5 48.5s-62 16.5 -100 16.5c-41.333 0 -78 -6 -110 -18s-58.333 -24.333 -79 -37zM424.003 680.998l-91 45l-150 -160l61 -35z" />
    <glyph glyph-name="acircumflex" unicode="&#xe2;" horiz-adv-x="509" 
d="M137 136c0 16 4.00293 29.8311 12.0029 41.498s19.667 20.667 35 27s34.333 9.5 57 9.5c28 0 52.667 -3.5 74 -10.5s42.333 -18.167 63 -33.5v57c-5.33301 6.66699 -15 14.334 -29 23.001s-31.5 16.334 -52.5 23.001s-44.833 10 -71.5 10c-37.333 0 -71 -6 -101 -18
s-53.5 -29.5 -70.5 -52.5s-25.5 -51.833 -25.5 -86.5c0 -28 6.66699 -52.167 20 -72.5s32.166 -36 56.499 -47s52.5 -16.5 84.5 -16.5s61 5.5 87 16.5s46.667 27 62 48s23 46.167 23 75.5l-16 53c0 -27.333 -5.33301 -49 -16 -65s-25.334 -27.667 -44.001 -35
s-39.667 -11 -63 -11c-18 0 -33.333 2.5 -46 7.5s-22.334 12.167 -29.001 21.5s-10 21 -10 35zM114.003 338.998c7.33301 4.66699 17.833 10.5 31.5 17.5s29.667 13.167 48 18.5s38.5 8 60.5 8c25.333 0 46.833 -5.83301 64.5 -17.5s26.5 -28.167 26.5 -49.5v-316h106v328
c0 30.667 -8.16699 56.667 -24.5 78s-38.833 37.5 -67.5 48.5s-62 16.5 -100 16.5c-41.333 0 -78 -6 -110 -18s-58.333 -24.333 -79 -37zM259.003 622.998l103 -92l72 53l-175 140l-175 -140l73 -53z" />
    <glyph glyph-name="atilde" unicode="&#xe3;" horiz-adv-x="509" 
d="M137 136c0 16 4.00293 29.8311 12.0029 41.498s19.667 20.667 35 27s34.333 9.5 57 9.5c28 0 52.667 -3.5 74 -10.5s42.333 -18.167 63 -33.5v57c-5.33301 6.66699 -15 14.334 -29 23.001s-31.5 16.334 -52.5 23.001s-44.833 10 -71.5 10c-37.333 0 -71 -6 -101 -18
s-53.5 -29.5 -70.5 -52.5s-25.5 -51.833 -25.5 -86.5c0 -28 6.66699 -52.167 20 -72.5s32.166 -36 56.499 -47s52.5 -16.5 84.5 -16.5s61 5.5 87 16.5s46.667 27 62 48s23 46.167 23 75.5l-16 53c0 -27.333 -5.33301 -49 -16 -65s-25.334 -27.667 -44.001 -35
s-39.667 -11 -63 -11c-18 0 -33.333 2.5 -46 7.5s-22.334 12.167 -29.001 21.5s-10 21 -10 35zM114.003 338.998c7.33301 4.66699 17.833 10.5 31.5 17.5s29.667 13.167 48 18.5s38.5 8 60.5 8c25.333 0 46.833 -5.83301 64.5 -17.5s26.5 -28.167 26.5 -49.5v-316h106v328
c0 30.667 -8.16699 56.667 -24.5 78s-38.833 37.5 -67.5 48.5s-62 16.5 -100 16.5c-41.333 0 -78 -6 -110 -18s-58.333 -24.333 -79 -37zM82.0029 579.998l60 -47c0 5.33301 1.33301 12 4 20s7.66699 15.167 15 21.5s17.333 9.5 30 9.5c16 0 30.167 -4.16699 42.5 -12.5
s25.333 -16.666 39 -24.999s29.5 -12.5 47.5 -12.5s34.833 4 50.5 12s29.334 18 41.001 30s20.167 24 25.5 36l-56 56c-10 -16 -19.833 -28.333 -29.5 -37s-19.834 -13 -30.501 -13c-13.333 0 -24.666 2.5 -33.999 7.5s-18 10.667 -26 17s-17.5 12 -28.5 17
s-24.5 7.5 -40.5 7.5c-17.333 0 -33.833 -4 -49.5 -12s-28.834 -18.333 -39.501 -31s-17.667 -27.334 -21 -44.001z" />
    <glyph glyph-name="adieresis" unicode="&#xe4;" horiz-adv-x="509" 
d="M137 136c0 16 4.00293 29.8311 12.0029 41.498s19.667 20.667 35 27s34.333 9.5 57 9.5c28 0 52.667 -3.5 74 -10.5s42.333 -18.167 63 -33.5v57c-5.33301 6.66699 -15 14.334 -29 23.001s-31.5 16.334 -52.5 23.001s-44.833 10 -71.5 10c-37.333 0 -71 -6 -101 -18
s-53.5 -29.5 -70.5 -52.5s-25.5 -51.833 -25.5 -86.5c0 -28 6.66699 -52.167 20 -72.5s32.166 -36 56.499 -47s52.5 -16.5 84.5 -16.5s61 5.5 87 16.5s46.667 27 62 48s23 46.167 23 75.5l-16 53c0 -27.333 -5.33301 -49 -16 -65s-25.334 -27.667 -44.001 -35
s-39.667 -11 -63 -11c-18 0 -33.333 2.5 -46 7.5s-22.334 12.167 -29.001 21.5s-10 21 -10 35zM114.003 338.998c7.33301 4.66699 17.833 10.5 31.5 17.5s29.667 13.167 48 18.5s38.5 8 60.5 8c25.333 0 46.833 -5.83301 64.5 -17.5s26.5 -28.167 26.5 -49.5v-316h106v328
c0 30.667 -8.16699 56.667 -24.5 78s-38.833 37.5 -67.5 48.5s-62 16.5 -100 16.5c-41.333 0 -78 -6 -110 -18s-58.333 -24.333 -79 -37zM300.003 596.998c0 -18 6.66699 -33.5 20 -46.5s29.333 -19.5 48 -19.5c19.333 0 35.5 6.5 48.5 19.5s19.5 28.5 19.5 46.5
c0 18.667 -6.5 34.334 -19.5 47.001s-29.167 19 -48.5 19c-18.667 0 -34.667 -6.33301 -48 -19s-20 -28.334 -20 -47.001zM82.0029 596.998c0 -18 6.83301 -33.5 20.5 -46.5s29.834 -19.5 48.501 -19.5s34.667 6.5 48 19.5s20 28.5 20 46.5
c0 18.667 -6.66699 34.334 -20 47.001s-29.333 19 -48 19s-34.834 -6.33301 -48.501 -19s-20.5 -28.334 -20.5 -47.001z" />
    <glyph glyph-name="aring" unicode="&#xe5;" horiz-adv-x="509" 
d="M137 136c0 16 4.00293 29.8311 12.0029 41.498s19.667 20.667 35 27s34.333 9.5 57 9.5c28 0 52.667 -3.5 74 -10.5s42.333 -18.167 63 -33.5v57c-5.33301 6.66699 -15 14.334 -29 23.001s-31.5 16.334 -52.5 23.001s-44.833 10 -71.5 10c-37.333 0 -71 -6 -101 -18
s-53.5 -29.5 -70.5 -52.5s-25.5 -51.833 -25.5 -86.5c0 -28 6.66699 -52.167 20 -72.5s32.166 -36 56.499 -47s52.5 -16.5 84.5 -16.5s61 5.5 87 16.5s46.667 27 62 48s23 46.167 23 75.5l-16 53c0 -27.333 -5.33301 -49 -16 -65s-25.334 -27.667 -44.001 -35
s-39.667 -11 -63 -11c-18 0 -33.333 2.5 -46 7.5s-22.334 12.167 -29.001 21.5s-10 21 -10 35zM114.003 338.998c7.33301 4.66699 17.833 10.5 31.5 17.5s29.667 13.167 48 18.5s38.5 8 60.5 8c25.333 0 46.833 -5.83301 64.5 -17.5s26.5 -28.167 26.5 -49.5v-316h106v328
c0 30.667 -8.16699 56.667 -24.5 78s-38.833 37.5 -67.5 48.5s-62 16.5 -100 16.5c-41.333 0 -78 -6 -110 -18s-58.333 -24.333 -79 -37zM148.003 637.998c0 -32 11.167 -57.833 33.5 -77.5s48.166 -29.5 77.499 -29.5s55.333 9.83301 78 29.5s34 45.5 34 77.5
c0 31.333 -11.333 56.833 -34 76.5s-48.667 29.5 -78 29.5s-55.166 -9.83301 -77.499 -29.5s-33.5 -45.167 -33.5 -76.5zM210.003 637.998c0 16 5 28.5 15 37.5s21.333 13.5 34 13.5s24 -4.5 34 -13.5s15 -21.5 15 -37.5s-5 -28.5 -15 -37.5s-21.333 -13.5 -34 -13.5
s-24 4.5 -34 13.5s-15 21.5 -15 37.5z" />
    <glyph glyph-name="ae" unicode="&#xe6;" horiz-adv-x="854" 
d="M212 -10c52 0 94.998 10.499 128.998 31.499s55 49.5 63 85.5h-11c18.667 -40.667 43.334 -70.334 74.001 -89.001s69.667 -28 117 -28c52 0 97.167 10.333 135.5 31s70.166 52 95.499 94l-94 37c-14 -24 -32.167 -42.167 -54.5 -54.5s-48.166 -18.5 -77.499 -18.5
c-26.667 0 -49.667 5.66699 -69 17s-34.166 27.833 -44.499 49.5s-15.833 47.834 -16.5 78.501l-21 -19h379c0.666992 2.66699 1.16699 6.83398 1.5 12.501s0.5 11.5 0.5 17.5c0 48 -8.83301 89.5 -26.5 124.5s-42.667 62.167 -75 81.5s-70.166 29 -113.499 29
c-28.667 0 -55.667 -4.33301 -81 -13s-47.833 -21.334 -67.5 -38.001s-35.834 -37 -48.501 -61h10c-4.66699 37.333 -20.334 65.5 -47.001 84.5s-63.667 28.5 -111 28.5c-32.667 0 -64.834 -4.66699 -96.501 -14s-62.5 -23 -92.5 -41l44 -77c12.667 8.66699 27 16.5 43 23.5
s32.5 12.167 49.5 15.5s32.833 5 47.5 5c30 0 52.667 -7.66699 68 -23s23 -37.666 23 -66.999v-65h54c-37.333 20.667 -68.666 35 -93.999 43s-52 12 -80 12c-39.333 0 -73.666 -6.5 -102.999 -19.5s-52.333 -31.333 -69 -55s-25 -51.167 -25 -82.5
c0 -41.333 16.333 -74.333 49 -99s77.667 -37 135 -37zM221.998 71.999c-29.333 0 -50.8311 5.33301 -64.498 16s-20.5 26.667 -20.5 48c0 25.333 8.83301 44.666 26.5 57.999s43.5 20 77.5 20c22 0 42.833 -2.66699 62.5 -8s38.167 -12.666 55.5 -21.999l-14 27l5 -88l2 67
c-4.66699 -40 -17.334 -69.667 -38.001 -89s-51.334 -29 -92.001 -29zM459 237.999c0 30.667 5.16699 57.168 15.5 79.501s25 39.666 44 51.999s41.833 18.5 68.5 18.5c24 0 44.5 -5 61.5 -15s30.333 -24 40 -42s14.5 -39.667 14.5 -65v-8.5
c0 -2.33301 -0.666992 -4.83301 -2 -7.5l24 30h-287z" />
    <glyph glyph-name="ccedilla" unicode="&#xe7;" horiz-adv-x="484" 
d="M141 230c0 28.667 6.33301 54.002 19 76.002s29.834 39.333 51.501 52s45.834 19 72.501 19c21.333 0 42 -3.33301 62 -10s37.833 -15.834 53.5 -27.501s27.167 -25.167 34.5 -40.5v120c-16 15.333 -37.667 27.666 -65 36.999s-57.333 14 -90 14
c-46.667 0 -88.834 -10.167 -126.501 -30.5s-67.5 -48.5 -89.5 -84.5s-33 -77.667 -33 -125c0 -46.667 11 -88.167 33 -124.5s51.833 -64.666 89.5 -84.999s79.834 -30.5 126.501 -30.5c32.667 0 62.667 4.66699 90 14s49 22 65 38v119
c-7.33301 -14.667 -18.666 -27.834 -33.999 -39.501s-32.833 -21 -52.5 -28s-40.834 -10.5 -63.501 -10.5c-26.667 0 -50.834 6.33301 -72.501 19s-38.834 30 -51.501 52s-19 47.333 -19 76zM250 60.002l-87 -178.999c13.333 7.33301 26.833 12 40.5 14s22.834 3 27.501 3
c16.667 0 29.834 -2.5 39.501 -7.5s14.5 -13.833 14.5 -26.5c0 -12 -4.33301 -21.333 -13 -28s-21.667 -10 -39 -10c-11.333 0 -22.333 2 -33 6s-21.334 10 -32.001 18l-38 -51c17.333 -14.667 34.666 -24.834 51.999 -30.501s37 -8.5 59 -8.5
c20 0 38.833 3.83301 56.5 11.5s32 19 43 34s16.5 33.167 16.5 54.5c0 19.333 -4 35 -12 47s-18.167 21.167 -30.5 27.5s-24.5 9.5 -36.5 9.5c-4 0 -7.66699 -0.166992 -11 -0.5s-6.33301 -0.833008 -9 -1.5l72 116z" />
    <glyph glyph-name="egrave" unicode="&#xe8;" horiz-adv-x="539" 
d="M99 205l403.996 -0.00195312c0.666992 6 1 11.5 1 16.5v13.5c0 48.667 -9.16699 90.5 -27.5 125.5s-44.666 62 -78.999 81s-75.5 28.5 -123.5 28.5c-43.333 0 -81.666 -8 -114.999 -24s-60.166 -38.333 -80.499 -67s-33.833 -62 -40.5 -100
c-1.33301 -8 -2.33301 -16 -3 -24s-1 -16.333 -1 -25c0 -46 9.66699 -87.167 29 -123.5s46.833 -64.833 82.5 -85.5s76.834 -31 123.501 -31c42 0 77.167 5.16699 105.5 15.5s52.5 24.833 72.5 43.5s37.667 40.667 53 66l-94 37
c-8.66699 -14.667 -19.334 -27.5 -32.001 -38.5s-27.167 -19.5 -43.5 -25.5s-35.166 -9 -56.499 -9c-25.333 0 -47.833 5.5 -67.5 16.5s-35 27.833 -46 50.5s-16.5 50.667 -16.5 84l2 28c0 26.667 5.5 49.834 16.5 69.501s26.167 34.667 45.5 45s41 15.5 65 15.5
c23.333 0 43 -4.5 59 -13.5s28.5 -21.667 37.5 -38s14.833 -35.166 17.5 -56.499h-288v-75zM123.996 687.998l180 -150l62 35l-150 160z" />
    <glyph glyph-name="eacute" unicode="&#xe9;" horiz-adv-x="539" 
d="M99 205l403.996 -0.00195312c0.666992 6 1 11.5 1 16.5v13.5c0 48.667 -9.16699 90.5 -27.5 125.5s-44.666 62 -78.999 81s-75.5 28.5 -123.5 28.5c-43.333 0 -81.666 -8 -114.999 -24s-60.166 -38.333 -80.499 -67s-33.833 -62 -40.5 -100
c-1.33301 -8 -2.33301 -16 -3 -24s-1 -16.333 -1 -25c0 -46 9.66699 -87.167 29 -123.5s46.833 -64.833 82.5 -85.5s76.834 -31 123.501 -31c42 0 77.167 5.16699 105.5 15.5s52.5 24.833 72.5 43.5s37.667 40.667 53 66l-94 37
c-8.66699 -14.667 -19.334 -27.5 -32.001 -38.5s-27.167 -19.5 -43.5 -25.5s-35.166 -9 -56.499 -9c-25.333 0 -47.833 5.5 -67.5 16.5s-35 27.833 -46 50.5s-16.5 50.667 -16.5 84l2 28c0 26.667 5.5 49.834 16.5 69.501s26.167 34.667 45.5 45s41 15.5 65 15.5
c23.333 0 43 -4.5 59 -13.5s28.5 -21.667 37.5 -38s14.833 -35.166 17.5 -56.499h-288v-75zM438.996 687.998l-91 45l-150 -160l61 -35z" />
    <glyph glyph-name="ecircumflex" unicode="&#xea;" horiz-adv-x="539" 
d="M99 205l403.996 -0.00195312c0.666992 6 1 11.5 1 16.5v13.5c0 48.667 -9.16699 90.5 -27.5 125.5s-44.666 62 -78.999 81s-75.5 28.5 -123.5 28.5c-43.333 0 -81.666 -8 -114.999 -24s-60.166 -38.333 -80.499 -67s-33.833 -62 -40.5 -100
c-1.33301 -8 -2.33301 -16 -3 -24s-1 -16.333 -1 -25c0 -46 9.66699 -87.167 29 -123.5s46.833 -64.833 82.5 -85.5s76.834 -31 123.501 -31c42 0 77.167 5.16699 105.5 15.5s52.5 24.833 72.5 43.5s37.667 40.667 53 66l-94 37
c-8.66699 -14.667 -19.334 -27.5 -32.001 -38.5s-27.167 -19.5 -43.5 -25.5s-35.166 -9 -56.499 -9c-25.333 0 -47.833 5.5 -67.5 16.5s-35 27.833 -46 50.5s-16.5 50.667 -16.5 84l2 28c0 26.667 5.5 49.834 16.5 69.501s26.167 34.667 45.5 45s41 15.5 65 15.5
c23.333 0 43 -4.5 59 -13.5s28.5 -21.667 37.5 -38s14.833 -35.166 17.5 -56.499h-288v-75zM273.996 621.998l103 -92l72 53l-175 140l-175 -140l73 -53z" />
    <glyph glyph-name="edieresis" unicode="&#xeb;" horiz-adv-x="539" 
d="M99 205l403.996 -0.00195312c0.666992 6 1 11.5 1 16.5v13.5c0 48.667 -9.16699 90.5 -27.5 125.5s-44.666 62 -78.999 81s-75.5 28.5 -123.5 28.5c-43.333 0 -81.666 -8 -114.999 -24s-60.166 -38.333 -80.499 -67s-33.833 -62 -40.5 -100
c-1.33301 -8 -2.33301 -16 -3 -24s-1 -16.333 -1 -25c0 -46 9.66699 -87.167 29 -123.5s46.833 -64.833 82.5 -85.5s76.834 -31 123.501 -31c42 0 77.167 5.16699 105.5 15.5s52.5 24.833 72.5 43.5s37.667 40.667 53 66l-94 37
c-8.66699 -14.667 -19.334 -27.5 -32.001 -38.5s-27.167 -19.5 -43.5 -25.5s-35.166 -9 -56.499 -9c-25.333 0 -47.833 5.5 -67.5 16.5s-35 27.833 -46 50.5s-16.5 50.667 -16.5 84l2 28c0 26.667 5.5 49.834 16.5 69.501s26.167 34.667 45.5 45s41 15.5 65 15.5
c23.333 0 43 -4.5 59 -13.5s28.5 -21.667 37.5 -38s14.833 -35.166 17.5 -56.499h-288v-75zM314.996 595.998c0 -18 6.66699 -33.5 20 -46.5s29.333 -19.5 48 -19.5c19.333 0 35.5 6.5 48.5 19.5s19.5 28.5 19.5 46.5c0 18.667 -6.5 34.334 -19.5 47.001
s-29.167 19 -48.5 19c-18.667 0 -34.667 -6.33301 -48 -19s-20 -28.334 -20 -47.001zM96.9961 595.998c0 -18 6.83301 -33.5 20.5 -46.5s29.834 -19.5 48.501 -19.5s34.667 6.5 48 19.5s20 28.5 20 46.5c0 18.667 -6.66699 34.334 -20 47.001s-29.333 19 -48 19
s-34.834 -6.33301 -48.501 -19s-20.5 -28.334 -20.5 -47.001z" />
    <glyph glyph-name="igrave" unicode="&#xec;" horiz-adv-x="267" 
d="M80 460v-460h107v460h-107zM-35 695l180 -150l61 35l-150 160z" />
    <glyph glyph-name="iacute" unicode="&#xed;" horiz-adv-x="267" 
d="M80 460v-460h107v460h-107zM298 695l-91 45l-150 -160l61 -35z" />
    <glyph glyph-name="icircumflex" unicode="&#xee;" horiz-adv-x="267" 
d="M80 460v-460h107v460h-107zM133 629l103 -91l72 52l-175 140l-175 -140l73 -52z" />
    <glyph glyph-name="idieresis" unicode="&#xef;" horiz-adv-x="267" 
d="M80 460v-460h107v460h-107zM174 619c0 -18.667 6.66699 -34.334 20 -47.001s29.333 -19 48 -19c19.333 0 35.5 6.33301 48.5 19s19.5 28.334 19.5 47.001s-6.5 34.167 -19.5 46.5s-29.167 18.5 -48.5 18.5c-18.667 0 -34.667 -6.16699 -48 -18.5s-20 -27.833 -20 -46.5z
M-44 619c0 -18.667 6.83301 -34.334 20.5 -47.001s29.834 -19 48.501 -19s34.667 6.33301 48 19s20 28.334 20 47.001s-6.66699 34.167 -20 46.5s-29.333 18.5 -48 18.5s-34.834 -6.16699 -48.501 -18.5s-20.5 -27.833 -20.5 -46.5z" />
    <glyph glyph-name="eth" unicode="&#xf0;" horiz-adv-x="596" 
d="M297 -12c48.667 0 91.6689 10.6689 129.002 32.002s66.833 50.666 88.5 87.999s32.5 80 32.5 128c0 28 -4 56.833 -12 86.5s-20.167 60.167 -36.5 91.5s-37 64.166 -62 98.499s-54.5 70.5 -88.5 108.5s-72.333 77.333 -115 118l-74 -63
c31.333 -26 59.833 -51.5 85.5 -76.5s49.167 -50 70.5 -75s40.666 -50.333 57.999 -76s32.666 -51.834 45.999 -78.501l45 -1c-66 63.333 -134.333 95 -205 95c-40.667 0 -76.667 -9.83301 -108 -29.5s-56 -46.5 -74 -80.5s-27 -73.333 -27 -118
c0 -48 10.5 -90.667 31.5 -128s50.167 -66.666 87.5 -87.999s80 -32 128 -32zM298.002 87.002c-26.667 0 -50.3301 6.16699 -70.9971 18.5s-36.834 29.333 -48.501 51s-17.5 46.167 -17.5 73.5c0 28 6 53 18 75s28.333 39.167 49 51.5s44 18.5 70 18.5
c26.667 0 50.167 -6.16699 70.5 -18.5s36.5 -29.5 48.5 -51.5s18 -47 18 -75c0 -27.333 -5.83301 -51.833 -17.5 -73.5s-27.834 -38.667 -48.501 -51s-44.334 -18.5 -71.001 -18.5zM173.006 505.002l308 109l-18 50l-307 -109z" />
    <glyph glyph-name="ntilde" unicode="&#xf1;" horiz-adv-x="545" 
d="M178 460h-109v-460h109v460zM365 280l0.00195312 -279.999h111v293c0 58 -13.833 102 -41.5 132s-67.167 45 -118.5 45c-34.667 0 -64.834 -8.5 -90.501 -25.5s-45.667 -39.833 -60 -68.5s-21.5 -61.334 -21.5 -98.001l34 2c0 20.667 4.16699 38.667 12.5 54
s20.166 27.333 35.499 36s33.333 13 54 13c29.333 0 50.833 -8.66699 64.5 -26s20.5 -43 20.5 -77zM96.002 579.001l60 -47c0 5.33301 1.33301 12 4 20s7.5 15.167 14.5 21.5s17.167 9.5 30.5 9.5c16 0 30 -4.16699 42 -12.5s24.833 -16.666 38.5 -24.999
s29.5 -12.5 47.5 -12.5c18.667 0 35.834 4 51.501 12s29.334 18 41.001 30s20.167 24 25.5 36l-56 56c-10 -16 -19.833 -28.333 -29.5 -37s-19.834 -13 -30.501 -13c-14 0 -25.5 2.5 -34.5 7.5s-17.667 10.667 -26 17s-17.833 12 -28.5 17s-24 7.5 -40 7.5
c-17.333 0 -33.833 -4 -49.5 -12s-28.834 -18.333 -39.501 -31s-17.667 -27.334 -21 -44.001z" />
    <glyph glyph-name="ograve" unicode="&#xf2;" horiz-adv-x="564" 
d="M34 230c0 -46.667 10.833 -88.167 32.5 -124.5s51.334 -64.666 89.001 -84.999s79.834 -30.5 126.501 -30.5c47.333 0 89.666 10.167 126.999 30.5s66.833 48.666 88.5 84.999s32.5 77.833 32.5 124.5c0 47.333 -10.833 89 -32.5 125s-51.167 64.167 -88.5 84.5
s-79.666 30.5 -126.999 30.5c-46.667 0 -88.834 -10.167 -126.501 -30.5s-67.334 -48.5 -89.001 -84.5s-32.5 -77.667 -32.5 -125zM145 230c0 28.667 6 54 18 76s28.333 39 49 51s44 18 70 18s49.333 -6 70 -18s37 -29 49 -51s18 -47.333 18 -76s-6 -53.834 -18 -75.501
s-28.333 -38.667 -49 -51s-44 -18.5 -70 -18.5s-49.333 6.16699 -70 18.5s-37 29.333 -49 51s-18 46.834 -18 75.501zM122 695l180 -150l61 35l-150 160z" />
    <glyph glyph-name="oacute" unicode="&#xf3;" horiz-adv-x="564" 
d="M34 230c0 -46.667 10.833 -88.167 32.5 -124.5s51.334 -64.666 89.001 -84.999s79.834 -30.5 126.501 -30.5c47.333 0 89.666 10.167 126.999 30.5s66.833 48.666 88.5 84.999s32.5 77.833 32.5 124.5c0 47.333 -10.833 89 -32.5 125s-51.167 64.167 -88.5 84.5
s-79.666 30.5 -126.999 30.5c-46.667 0 -88.834 -10.167 -126.501 -30.5s-67.334 -48.5 -89.001 -84.5s-32.5 -77.667 -32.5 -125zM145 230c0 28.667 6 54 18 76s28.333 39 49 51s44 18 70 18s49.333 -6 70 -18s37 -29 49 -51s18 -47.333 18 -76s-6 -53.834 -18 -75.501
s-28.333 -38.667 -49 -51s-44 -18.5 -70 -18.5s-49.333 6.16699 -70 18.5s-37 29.333 -49 51s-18 46.834 -18 75.501zM442 695l-91 45l-150 -160l61 -35z" />
    <glyph glyph-name="ocircumflex" unicode="&#xf4;" horiz-adv-x="564" 
d="M34 230c0 -46.667 10.833 -88.167 32.5 -124.5s51.334 -64.666 89.001 -84.999s79.834 -30.5 126.501 -30.5c47.333 0 89.666 10.167 126.999 30.5s66.833 48.666 88.5 84.999s32.5 77.833 32.5 124.5c0 47.333 -10.833 89 -32.5 125s-51.167 64.167 -88.5 84.5
s-79.666 30.5 -126.999 30.5c-46.667 0 -88.834 -10.167 -126.501 -30.5s-67.334 -48.5 -89.001 -84.5s-32.5 -77.667 -32.5 -125zM145 230c0 28.667 6 54 18 76s28.333 39 49 51s44 18 70 18s49.333 -6 70 -18s37 -29 49 -51s18 -47.333 18 -76s-6 -53.834 -18 -75.501
s-28.333 -38.667 -49 -51s-44 -18.5 -70 -18.5s-49.333 6.16699 -70 18.5s-37 29.333 -49 51s-18 46.834 -18 75.501zM282 637l102 -92l73 53l-175 140l-175 -140l72 -53z" />
    <glyph glyph-name="otilde" unicode="&#xf5;" horiz-adv-x="564" 
d="M34 230c0 -46.667 10.833 -88.167 32.5 -124.5s51.334 -64.666 89.001 -84.999s79.834 -30.5 126.501 -30.5c47.333 0 89.666 10.167 126.999 30.5s66.833 48.666 88.5 84.999s32.5 77.833 32.5 124.5c0 47.333 -10.833 89 -32.5 125s-51.167 64.167 -88.5 84.5
s-79.666 30.5 -126.999 30.5c-46.667 0 -88.834 -10.167 -126.501 -30.5s-67.334 -48.5 -89.001 -84.5s-32.5 -77.667 -32.5 -125zM145 230c0 28.667 6 54 18 76s28.333 39 49 51s44 18 70 18s49.333 -6 70 -18s37 -29 49 -51s18 -47.333 18 -76s-6 -53.834 -18 -75.501
s-28.333 -38.667 -49 -51s-44 -18.5 -70 -18.5s-49.333 6.16699 -70 18.5s-37 29.333 -49 51s-18 46.834 -18 75.501zM104 579l61.001 -47c0 5.33301 1.33301 12 4 20s7.5 15.167 14.5 21.5s17.167 9.5 30.5 9.5c15.333 0 29.166 -4.16699 41.499 -12.5
s25.333 -16.666 39 -24.999s29.5 -12.5 47.5 -12.5c18.667 0 35.834 4 51.501 12s29.167 18 40.5 30s19.666 24 24.999 36l-56 56c-10 -16 -19.667 -28.333 -29 -37s-19.333 -13 -30 -13c-14 0 -25.5 2.5 -34.5 7.5s-17.667 10.667 -26 17s-17.833 12 -28.5 17
s-24 7.5 -40 7.5c-17.333 0 -34 -4 -50 -12s-29.333 -18.333 -40 -31s-17.667 -27.334 -21 -44.001z" />
    <glyph glyph-name="odieresis" unicode="&#xf6;" horiz-adv-x="564" 
d="M34 230c0 -46.667 10.833 -88.167 32.5 -124.5s51.334 -64.666 89.001 -84.999s79.834 -30.5 126.501 -30.5c47.333 0 89.666 10.167 126.999 30.5s66.833 48.666 88.5 84.999s32.5 77.833 32.5 124.5c0 47.333 -10.833 89 -32.5 125s-51.167 64.167 -88.5 84.5
s-79.666 30.5 -126.999 30.5c-46.667 0 -88.834 -10.167 -126.501 -30.5s-67.334 -48.5 -89.001 -84.5s-32.5 -77.667 -32.5 -125zM145 230c0 28.667 6 54 18 76s28.333 39 49 51s44 18 70 18s49.333 -6 70 -18s37 -29 49 -51s18 -47.333 18 -76s-6 -53.834 -18 -75.501
s-28.333 -38.667 -49 -51s-44 -18.5 -70 -18.5s-49.333 6.16699 -70 18.5s-37 29.333 -49 51s-18 46.834 -18 75.501zM322 619c0 -18.667 6.83301 -34.334 20.5 -47.001s29.834 -19 48.501 -19s34.667 6.33301 48 19s20 28.334 20 47.001s-6.66699 34.167 -20 46.5
s-29.333 18.5 -48 18.5s-34.834 -6.16699 -48.501 -18.5s-20.5 -27.833 -20.5 -46.5zM105 619c0 -18.667 6.66699 -34.334 20 -47.001s29.333 -19 48 -19c19.333 0 35.5 6.33301 48.5 19s19.5 28.334 19.5 47.001s-6.5 34.167 -19.5 46.5s-29.167 18.5 -48.5 18.5
c-18.667 0 -34.667 -6.16699 -48 -18.5s-20 -27.833 -20 -46.5z" />
    <glyph glyph-name="divide" unicode="&#xf7;" horiz-adv-x="630" 
d="M243 491c0 -18.667 6.83301 -35 20.5 -49s30.5 -21 50.5 -21s36.833 7 50.5 21s20.5 30.333 20.5 49c0 19.333 -6.83301 35.833 -20.5 49.5s-30.5 20.5 -50.5 20.5s-36.833 -6.83301 -50.5 -20.5s-20.5 -30.167 -20.5 -49.5zM243 81c0 -18.667 6.83301 -35 20.5 -49
s30.5 -21 50.5 -21s36.833 7 50.5 21s20.5 30.333 20.5 49c0 19.333 -6.83301 35.833 -20.5 49.5s-30.5 20.5 -50.5 20.5s-36.833 -6.83301 -50.5 -20.5s-20.5 -30.167 -20.5 -49.5zM46 239h535v102h-535v-102z" />
    <glyph glyph-name="oslash" unicode="&#xf8;" horiz-adv-x="546" 
d="M34 230c0 -47.333 11 -89.166 33 -125.499s51.667 -64.5 89 -84.5s79.333 -30 126 -30s88.667 10 126 30s67 48.167 89 84.5s33 78.166 33 125.499c0 48.667 -11 90.834 -33 126.501s-51.667 63.5 -89 83.5s-79.333 30 -126 30s-88.667 -10 -126 -30
s-67 -47.833 -89 -83.5s-33 -77.834 -33 -126.501zM140 230c0 28.667 6.33301 54.167 19 76.5s29.667 39.833 51 52.5s45.333 19 72 19s50.667 -6.33301 72 -19s38.333 -30.167 51 -52.5s19 -47.833 19 -76.5c0 -29.333 -6.33301 -55 -19 -77s-29.667 -39.167 -51 -51.5
s-45.333 -18.5 -72 -18.5s-50.667 6.16699 -72 18.5s-38.333 29.5 -51 51.5s-19 47.667 -19 77zM446 503l-390 -524l50 -25l390 524z" />
    <glyph glyph-name="ugrave" unicode="&#xf9;" horiz-adv-x="545" 
d="M368 0h108v460h-108v-460zM180 180l-0.000976562 280.001h-111v-292c0 -58.667 14 -103 42 -133s67.333 -45 118 -45c34.667 0 64.834 8.5 90.501 25.5s45.667 40 60 69s21.5 61.833 21.5 98.5l-33 -3c0 -20 -4.33301 -37.833 -13 -53.5s-20.667 -27.834 -36 -36.501
s-33 -13 -53 -13c-30 0 -51.833 8.83301 -65.5 26.5s-20.5 43.167 -20.5 76.5zM141.999 695.001l180 -150l62 35l-150 160z" />
    <glyph glyph-name="uacute" unicode="&#xfa;" horiz-adv-x="545" 
d="M368 0h108v460h-108v-460zM180 180l-0.000976562 280.001h-111v-292c0 -58.667 14 -103 42 -133s67.333 -45 118 -45c34.667 0 64.834 8.5 90.501 25.5s45.667 40 60 69s21.5 61.833 21.5 98.5l-33 -3c0 -20 -4.33301 -37.833 -13 -53.5s-20.667 -27.834 -36 -36.501
s-33 -13 -53 -13c-30 0 -51.833 8.83301 -65.5 26.5s-20.5 43.167 -20.5 76.5zM401.999 695.001l-90 45l-150 -160l60 -35z" />
    <glyph glyph-name="ucircumflex" unicode="&#xfb;" horiz-adv-x="545" 
d="M368 0h108v460h-108v-460zM180 180l-0.000976562 280.001h-111v-292c0 -58.667 14 -103 42 -133s67.333 -45 118 -45c34.667 0 64.834 8.5 90.501 25.5s45.667 40 60 69s21.5 61.833 21.5 98.5l-33 -3c0 -20 -4.33301 -37.833 -13 -53.5s-20.667 -27.834 -36 -36.501
s-33 -13 -53 -13c-30 0 -51.833 8.83301 -65.5 26.5s-20.5 43.167 -20.5 76.5zM271.999 637.001l103 -92l72 53l-175 140l-175 -140l73 -53z" />
    <glyph glyph-name="udieresis" unicode="&#xfc;" horiz-adv-x="545" 
d="M368 0h108v460h-108v-460zM180 180l-0.000976562 280.001h-111v-292c0 -58.667 14 -103 42 -133s67.333 -45 118 -45c34.667 0 64.834 8.5 90.501 25.5s45.667 40 60 69s21.5 61.833 21.5 98.5l-33 -3c0 -20 -4.33301 -37.833 -13 -53.5s-20.667 -27.834 -36 -36.501
s-33 -13 -53 -13c-30 0 -51.833 8.83301 -65.5 26.5s-20.5 43.167 -20.5 76.5zM313.999 611.001c0 -18 6.5 -33.5 19.5 -46.5s28.833 -19.5 47.5 -19.5c19.333 0 35.666 6.5 48.999 19.5s20 28.5 20 46.5c0 18.667 -6.66699 34.334 -20 47.001s-29.666 19 -48.999 19
c-18.667 0 -34.5 -6.33301 -47.5 -19s-19.5 -28.334 -19.5 -47.001zM95.999 611.001c0 -18 6.66699 -33.5 20 -46.5s29.333 -19.5 48 -19.5s34.834 6.5 48.501 19.5s20.5 28.5 20.5 46.5c0 18.667 -6.83301 34.334 -20.5 47.001s-29.834 19 -48.501 19
s-34.667 -6.33301 -48 -19s-20 -28.334 -20 -47.001z" />
    <glyph glyph-name="yacute" unicode="&#xfd;" horiz-adv-x="473" 
d="M476 460h-116l-144 -361l51 -3l-147 364h-124l186 -406l-121 -274h115zM379 695l-91 45l-150 -160l61 -35z" />
    <glyph glyph-name="thorn" unicode="&#xfe;" horiz-adv-x="589" 
d="M174 -220v1000h-109v-1000h109zM555 230c0 50.667 -10.333 93.833 -31 129.5s-48 63 -82 82s-71 28.5 -111 28.5c-38 0 -71.667 -9.66699 -101 -29s-52.5 -46.833 -69.5 -82.5s-25.5 -78.5 -25.5 -128.5c0 -49.333 8.5 -92 25.5 -128s40.167 -63.667 69.5 -83
s63 -29 101 -29c40 0 77 9.5 111 28.5s61.333 46.5 82 82.5s31 79 31 129zM443 229.999c0 -30.667 -6.33301 -57 -19 -79s-29.334 -38.667 -50.001 -50s-43.667 -17 -69 -17c-21.333 0 -42 5.66699 -62 17s-36.5 27.833 -49.5 49.5s-19.5 48.167 -19.5 79.5
s6.5 57.833 19.5 79.5s29.5 38.167 49.5 49.5s40.667 17 62 17c25.333 0 48.333 -5.66699 69 -17s37.334 -28 50.001 -50s19 -48.333 19 -79z" />
    <glyph glyph-name="ydieresis" unicode="&#xff;" horiz-adv-x="473" 
d="M476 460h-116l-144 -361l51 -3l-147 364h-124l186 -406l-121 -274h115zM277 596c0 -18 6.66699 -33.5 20 -46.5s29.333 -19.5 48 -19.5c19.333 0 35.5 6.5 48.5 19.5s19.5 28.5 19.5 46.5c0 18.667 -6.5 34.334 -19.5 47.001s-29.167 19 -48.5 19
c-18.667 0 -34.667 -6.33301 -48 -19s-20 -28.334 -20 -47.001zM59 596c0 -18 6.83301 -33.5 20.5 -46.5s29.834 -19.5 48.501 -19.5s34.667 6.5 48 19.5s20 28.5 20 46.5c0 18.667 -6.66699 34.334 -20 47.001s-29.333 19 -48 19s-34.834 -6.33301 -48.501 -19
s-20.5 -28.334 -20.5 -47.001z" />
    <glyph glyph-name="Amacron" unicode="&#x100;" horiz-adv-x="690" 
d="M162 180h370l-22 100h-325zM345 502l112 -260l2 -29l95 -213h134l-343 739l-342 -739h133l97 219l2 26zM166 799h358v97h-358v-97z" />
    <glyph glyph-name="amacron" unicode="&#x101;" horiz-adv-x="509" 
d="M137 136c0 16 4.00293 29.8311 12.0029 41.498s19.667 20.667 35 27s34.333 9.5 57 9.5c28 0 52.667 -3.5 74 -10.5s42.333 -18.167 63 -33.5v57c-5.33301 6.66699 -15 14.334 -29 23.001s-31.5 16.334 -52.5 23.001s-44.833 10 -71.5 10c-37.333 0 -71 -6 -101 -18
s-53.5 -29.5 -70.5 -52.5s-25.5 -51.833 -25.5 -86.5c0 -28 6.66699 -52.167 20 -72.5s32.166 -36 56.499 -47s52.5 -16.5 84.5 -16.5s61 5.5 87 16.5s46.667 27 62 48s23 46.167 23 75.5l-16 53c0 -27.333 -5.33301 -49 -16 -65s-25.334 -27.667 -44.001 -35
s-39.667 -11 -63 -11c-18 0 -33.333 2.5 -46 7.5s-22.334 12.167 -29.001 21.5s-10 21 -10 35zM114.003 338.998c7.33301 4.66699 17.833 10.5 31.5 17.5s29.667 13.167 48 18.5s38.5 8 60.5 8c25.333 0 46.833 -5.83301 64.5 -17.5s26.5 -28.167 26.5 -49.5v-316h106v328
c0 30.667 -8.16699 56.667 -24.5 78s-38.833 37.5 -67.5 48.5s-62 16.5 -100 16.5c-41.333 0 -78 -6 -110 -18s-58.333 -24.333 -79 -37zM80.0029 545.998h359v98h-359v-98z" />
    <glyph glyph-name="Abreve" unicode="&#x102;" horiz-adv-x="690" 
d="M162 180h370l-22 100h-325zM345 502l112 -260l2 -29l95 -213h134l-343 739l-342 -739h133l97 219l2 26zM185 941c0 -24 5.99805 -47 17.998 -69s30 -39.667 54 -53s53.333 -20 88 -20c35.333 0 64.833 6.66699 88.5 20s41.667 31 54 53s18.5 45 18.5 69h-83
c0 -9.33301 -2.5 -19.333 -7.5 -30s-13.167 -19.667 -24.5 -27s-26.666 -11 -45.999 -11s-34.666 3.66699 -45.999 11s-19.5 16.333 -24.5 27s-7.5 20.667 -7.5 30h-82z" />
    <glyph glyph-name="abreve" unicode="&#x103;" horiz-adv-x="509" 
d="M137 136c0 16 4.00293 29.8311 12.0029 41.498s19.667 20.667 35 27s34.333 9.5 57 9.5c28 0 52.667 -3.5 74 -10.5s42.333 -18.167 63 -33.5v57c-5.33301 6.66699 -15 14.334 -29 23.001s-31.5 16.334 -52.5 23.001s-44.833 10 -71.5 10c-37.333 0 -71 -6 -101 -18
s-53.5 -29.5 -70.5 -52.5s-25.5 -51.833 -25.5 -86.5c0 -28 6.66699 -52.167 20 -72.5s32.166 -36 56.499 -47s52.5 -16.5 84.5 -16.5s61 5.5 87 16.5s46.667 27 62 48s23 46.167 23 75.5l-16 53c0 -27.333 -5.33301 -49 -16 -65s-25.334 -27.667 -44.001 -35
s-39.667 -11 -63 -11c-18 0 -33.333 2.5 -46 7.5s-22.334 12.167 -29.001 21.5s-10 21 -10 35zM114.003 338.998c7.33301 4.66699 17.833 10.5 31.5 17.5s29.667 13.167 48 18.5s38.5 8 60.5 8c25.333 0 46.833 -5.83301 64.5 -17.5s26.5 -28.167 26.5 -49.5v-316h106v328
c0 30.667 -8.16699 56.667 -24.5 78s-38.833 37.5 -67.5 48.5s-62 16.5 -100 16.5c-41.333 0 -78 -6 -110 -18s-58.333 -24.333 -79 -37zM99.0029 673.998c0 -24.667 6.00098 -47.834 18.001 -69.501s30 -39.334 54 -53.001s53.333 -20.5 88 -20.5
c35.333 0 65 6.83301 89 20.5s42 31.334 54 53.001s18 44.834 18 69.501h-82c0 -10 -2.5 -20.333 -7.5 -31s-13.333 -19.667 -25 -27s-27.167 -11 -46.5 -11c-18.667 0 -33.834 3.66699 -45.501 11s-20 16.333 -25 27s-7.5 21 -7.5 31h-82z" />
    <glyph glyph-name="Aogonek" unicode="&#x104;" horiz-adv-x="690" 
d="M162 180h370l-22 100h-325zM345 502l112 -260l2 -29l95 -213h134l-343 739l-342 -739h133l97 219l2 26zM673 -122c-6.66699 -6.66699 -13.665 -11.667 -20.998 -15s-17 -5 -29 -5c-14 0 -24.667 3.5 -32 10.5s-11 18.5 -11 34.5c0 11.333 3.66699 22.833 11 34.5
s17.666 23 30.999 34s28.666 20.5 45.999 28.5l-41 25c-23.333 -12 -45.333 -25.333 -66 -40s-37.334 -30.667 -50.001 -48s-19 -36.333 -19 -57c0 -20 4.83301 -37.667 14.5 -53s23.334 -27 41.001 -35s39.5 -12 65.5 -12c23.333 0 42.833 4.16699 58.5 12.5
s27.167 17.5 34.5 27.5z" />
    <glyph glyph-name="aogonek" unicode="&#x105;" horiz-adv-x="509" 
d="M137 136c0 16 4.00195 29.8311 12.002 41.498s19.667 20.667 35 27s34.333 9.5 57 9.5c28 0 52.667 -3.5 74 -10.5s42.333 -18.167 63 -33.5v57c-5.33301 6.66699 -15 14.334 -29 23.001s-31.5 16.334 -52.5 23.001s-44.833 10 -71.5 10c-40 0 -74.833 -6 -104.5 -18
s-52.5 -29.333 -68.5 -52s-24 -49.667 -24 -81s7.16699 -57.5 21.5 -78.5s33.666 -36.833 57.999 -47.5s51.5 -16 81.5 -16c32 0 61 5.5 87 16.5s46.667 27 62 48s23 46.167 23 75.5l-16 53c0 -27.333 -5.33301 -49 -16 -65s-25.334 -27.667 -44.001 -35
s-39.667 -11 -63 -11c-15.333 0 -29.5 2.5 -42.5 7.5s-23.333 12.167 -31 21.5s-11.5 21 -11.5 35zM114.002 338.998c7.33301 4.66699 17.833 10.5 31.5 17.5s29.667 13.167 48 18.5s38.5 8 60.5 8c25.333 0 46.833 -5.83301 64.5 -17.5s26.5 -28.167 26.5 -49.5v-316h106
v328c0 30.667 -8.16699 56.667 -24.5 78s-38.833 37.5 -67.5 48.5s-62 16.5 -100 16.5c-41.333 0 -78 -6 -110 -18s-58.333 -24.333 -79 -37zM444.002 -122.002c-6.66699 -6.66699 -13.665 -11.667 -20.998 -15s-17 -5 -29 -5c-13.333 0 -23.833 3.5 -31.5 10.5
s-11.5 18.5 -11.5 34.5c0 11.333 3.66699 22.833 11 34.5s17.666 23 30.999 34s28.666 20.5 45.999 28.5l-41 25c-23.333 -12 -45.166 -25.333 -65.499 -40s-37 -30.667 -50 -48s-19.5 -36.333 -19.5 -57c0 -20 4.83301 -37.667 14.5 -53s23.5 -27 41.5 -35
s39.667 -12 65 -12c24 0 43.667 4.16699 59 12.5s26.666 17.5 33.999 27.5z" />
    <glyph glyph-name="Cacute" unicode="&#x106;" horiz-adv-x="691" 
d="M166 350c0 50 11.167 93.4971 33.5 130.497s51.5 65.667 87.5 86s75.333 30.5 118 30.5c33.333 0 63.5 -4.33301 90.5 -13s51.167 -20.5 72.5 -35.5s40 -31.833 56 -50.5v140c-28.667 24.667 -60.167 43.334 -94.5 56.001s-77.166 19 -128.499 19
s-99.166 -8.83301 -143.499 -26.5s-82.833 -42.667 -115.5 -75s-58.167 -70.666 -76.5 -114.999s-27.5 -93.166 -27.5 -146.499c0 -52.667 9.16699 -101.167 27.5 -145.5s43.833 -82.833 76.5 -115.5s71.167 -57.667 115.5 -75s92.166 -26 143.499 -26
s94.166 6.33301 128.499 19s65.833 31 94.5 55v141c-16 -19.333 -34.667 -36.5 -56 -51.5s-45.5 -26.833 -72.5 -35.5s-57.167 -13 -90.5 -13c-42.667 0 -82 10.333 -118 31s-65.167 49.5 -87.5 86.5s-33.5 80.167 -33.5 129.5zM531 922.997l-91 45l-150 -160l61 -35z" />
    <glyph glyph-name="cacute" unicode="&#x107;" horiz-adv-x="484" 
d="M141 230c0 28.667 6.33301 54.002 19 76.002s29.834 39.333 51.501 52s45.834 19 72.501 19c21.333 0 42 -3.33301 62 -10s37.833 -15.834 53.5 -27.501s27.167 -25.167 34.5 -40.5v120c-16 15.333 -37.667 27.666 -65 36.999s-57.333 14 -90 14
c-46.667 0 -88.834 -10.167 -126.501 -30.5s-67.5 -48.5 -89.5 -84.5s-33 -77.667 -33 -125c0 -46.667 11 -88.167 33 -124.5s51.833 -64.666 89.5 -84.999s79.834 -30.5 126.501 -30.5c32.667 0 62.667 4.66699 90 14s49 22 65 38v119
c-7.33301 -14.667 -18.666 -27.834 -33.999 -39.501s-32.833 -21 -52.5 -28s-40.834 -10.5 -63.501 -10.5c-26.667 0 -50.834 6.33301 -72.501 19s-38.834 30 -51.501 52s-19 47.333 -19 76zM409 680.002l-91 45l-150 -160l61 -35z" />
    <glyph glyph-name="Ccircumflex" unicode="&#x108;" horiz-adv-x="691" 
d="M166 350c0 50 11.167 93.4971 33.5 130.497s51.5 65.667 87.5 86s75.333 30.5 118 30.5c33.333 0 63.5 -4.33301 90.5 -13s51.167 -20.5 72.5 -35.5s40 -31.833 56 -50.5v140c-28.667 24.667 -60.167 43.334 -94.5 56.001s-77.166 19 -128.499 19
s-99.166 -8.83301 -143.499 -26.5s-82.833 -42.667 -115.5 -75s-58.167 -70.666 -76.5 -114.999s-27.5 -93.166 -27.5 -146.499c0 -52.667 9.16699 -101.167 27.5 -145.5s43.833 -82.833 76.5 -115.5s71.167 -57.667 115.5 -75s92.166 -26 143.499 -26
s94.166 6.33301 128.499 19s65.833 31 94.5 55v141c-16 -19.333 -34.667 -36.5 -56 -51.5s-45.5 -26.833 -72.5 -35.5s-57.167 -13 -90.5 -13c-42.667 0 -82 10.333 -118 31s-65.167 49.5 -87.5 86.5s-33.5 80.167 -33.5 129.5zM401 863.997l103 -91l72 52l-175 140
l-175 -140l73 -52z" />
    <glyph glyph-name="ccircumflex" unicode="&#x109;" horiz-adv-x="484" 
d="M141 230c0 28.667 6.33301 54.002 19 76.002s29.834 39.333 51.501 52s45.834 19 72.501 19c21.333 0 42 -3.33301 62 -10s37.833 -15.834 53.5 -27.501s27.167 -25.167 34.5 -40.5v120c-16 15.333 -37.667 27.666 -65 36.999s-57.333 14 -90 14
c-46.667 0 -88.834 -10.167 -126.501 -30.5s-67.5 -48.5 -89.5 -84.5s-33 -77.667 -33 -125c0 -46.667 11 -88.167 33 -124.5s51.833 -64.666 89.5 -84.999s79.834 -30.5 126.501 -30.5c32.667 0 62.667 4.66699 90 14s49 22 65 38v119
c-7.33301 -14.667 -18.666 -27.834 -33.999 -39.501s-32.833 -21 -52.5 -28s-40.834 -10.5 -63.501 -10.5c-26.667 0 -50.834 6.33301 -72.501 19s-38.834 30 -51.501 52s-19 47.333 -19 76zM267 622.002l102 -92l73 53l-175 140l-175 -140l72 -53z" />
    <glyph glyph-name="Cdotaccent" unicode="&#x10a;" horiz-adv-x="691" 
d="M166 350c0 50 11.167 93.4971 33.5 130.497s51.5 65.667 87.5 86s75.333 30.5 118 30.5c33.333 0 63.5 -4.33301 90.5 -13s51.167 -20.5 72.5 -35.5s40 -31.833 56 -50.5v140c-28.667 24.667 -60.167 43.334 -94.5 56.001s-77.166 19 -128.499 19
s-99.166 -8.83301 -143.499 -26.5s-82.833 -42.667 -115.5 -75s-58.167 -70.666 -76.5 -114.999s-27.5 -93.166 -27.5 -146.499c0 -52.667 9.16699 -101.167 27.5 -145.5s43.833 -82.833 76.5 -115.5s71.167 -57.667 115.5 -75s92.166 -26 143.499 -26
s94.166 6.33301 128.499 19s65.833 31 94.5 55v141c-16 -19.333 -34.667 -36.5 -56 -51.5s-45.5 -26.833 -72.5 -35.5s-57.167 -13 -90.5 -13c-42.667 0 -82 10.333 -118 31s-65.167 49.5 -87.5 86.5s-33.5 80.167 -33.5 129.5zM323 837.997c0 -18 6.83301 -33.333 20.5 -46
s29.5 -19 47.5 -19c19.333 0 35.666 6.33301 48.999 19s20 28 20 46c0 19.333 -6.66699 35.166 -20 47.499s-29.666 18.5 -48.999 18.5c-18 0 -33.833 -6.16699 -47.5 -18.5s-20.5 -28.166 -20.5 -47.499z" />
    <glyph glyph-name="cdotaccent" unicode="&#x10b;" horiz-adv-x="484" 
d="M141 230c0 28.667 6.33301 54.002 19 76.002s29.834 39.333 51.501 52s45.834 19 72.501 19c21.333 0 42 -3.33301 62 -10s37.833 -15.834 53.5 -27.501s27.167 -25.167 34.5 -40.5v120c-16 15.333 -37.667 27.666 -65 36.999s-57.333 14 -90 14
c-46.667 0 -88.834 -10.167 -126.501 -30.5s-67.5 -48.5 -89.5 -84.5s-33 -77.667 -33 -125c0 -46.667 11 -88.167 33 -124.5s51.833 -64.666 89.5 -84.999s79.834 -30.5 126.501 -30.5c32.667 0 62.667 4.66699 90 14s49 22 65 38v119
c-7.33301 -14.667 -18.666 -27.834 -33.999 -39.501s-32.833 -21 -52.5 -28s-40.834 -10.5 -63.501 -10.5c-26.667 0 -50.834 6.33301 -72.501 19s-38.834 30 -51.501 52s-19 47.333 -19 76zM201 599.002c0 -18.667 6.83301 -34.334 20.5 -47.001s29.5 -19 47.5 -19
c19.333 0 35.666 6.33301 48.999 19s20 28.334 20 47.001s-6.66699 34.167 -20 46.5s-29.666 18.5 -48.999 18.5c-18 0 -33.833 -6.16699 -47.5 -18.5s-20.5 -27.833 -20.5 -46.5z" />
    <glyph glyph-name="Ccaron" unicode="&#x10c;" horiz-adv-x="691" 
d="M166 350c0 50 11.167 93.4971 33.5 130.497s51.5 65.667 87.5 86s75.333 30.5 118 30.5c33.333 0 63.5 -4.33301 90.5 -13s51.167 -20.5 72.5 -35.5s40 -31.833 56 -50.5v140c-28.667 24.667 -60.167 43.334 -94.5 56.001s-77.166 19 -128.499 19
s-99.166 -8.83301 -143.499 -26.5s-82.833 -42.667 -115.5 -75s-58.167 -70.666 -76.5 -114.999s-27.5 -93.166 -27.5 -146.499c0 -52.667 9.16699 -101.167 27.5 -145.5s43.833 -82.833 76.5 -115.5s71.167 -57.667 115.5 -75s92.166 -26 143.499 -26
s94.166 6.33301 128.499 19s65.833 31 94.5 55v141c-16 -19.333 -34.667 -36.5 -56 -51.5s-45.5 -26.833 -72.5 -35.5s-57.167 -13 -90.5 -13c-42.667 0 -82 10.333 -118 31s-65.167 49.5 -87.5 86.5s-33.5 80.167 -33.5 129.5zM401 873.997l-102 91l-73 -52l175 -140
l175 140l-72 52z" />
    <glyph glyph-name="ccaron" unicode="&#x10d;" horiz-adv-x="484" 
d="M141 230c0 28.667 6.33301 54.002 19 76.002s29.834 39.333 51.501 52s45.834 19 72.501 19c21.333 0 42 -3.33301 62 -10s37.833 -15.834 53.5 -27.501s27.167 -25.167 34.5 -40.5v120c-16 15.333 -37.667 27.666 -65 36.999s-57.333 14 -90 14
c-46.667 0 -88.834 -10.167 -126.501 -30.5s-67.5 -48.5 -89.5 -84.5s-33 -77.667 -33 -125c0 -46.667 11 -88.167 33 -124.5s51.833 -64.666 89.5 -84.999s79.834 -30.5 126.501 -30.5c32.667 0 62.667 4.66699 90 14s49 22 65 38v119
c-7.33301 -14.667 -18.666 -27.834 -33.999 -39.501s-32.833 -21 -52.5 -28s-40.834 -10.5 -63.501 -10.5c-26.667 0 -50.834 6.33301 -72.501 19s-38.834 30 -51.501 52s-19 47.333 -19 76zM267 632.002l-103 91l-72 -53l175 -140l175 140l-73 53z" />
    <glyph glyph-name="Dcaron" unicode="&#x10e;" horiz-adv-x="701" 
d="M78 700v-700h121v700h-121zM304 0c71.333 0 134 14.5 188 43.5s96.167 69.667 126.5 122s45.5 113.833 45.5 184.5s-15.167 132.167 -45.5 184.5s-72.5 93 -126.5 122s-116.667 43.5 -188 43.5h-153v-111h150c34.667 0 66.667 -5 96 -15s54.833 -25 76.5 -45
s38.667 -45 51 -75s18.5 -64.667 18.5 -104s-6.16699 -74 -18.5 -104s-29.333 -54.833 -51 -74.5s-47.167 -34.667 -76.5 -45s-61.333 -15.5 -96 -15.5h-150v-111h153zM348 874l-102 91l-73 -52l175 -140l175 140l-72 52z" />
    <glyph glyph-name="dcaron" unicode="&#x10f;" horiz-adv-x="589" 
d="M415 780v-780h109v780h-109zM34 230c0 -50 10.333 -92.999 31 -128.999s48.167 -63.5 82.5 -82.5s71.166 -28.5 110.499 -28.5c38.667 0 72.5 9.66699 101.5 29s52 47 69 83s25.5 78.667 25.5 128c0 50 -8.5 92.833 -25.5 128.5s-40 63.167 -69 82.5
s-62.833 29 -101.5 29c-39.333 0 -76.166 -9.5 -110.499 -28.5s-61.833 -46.333 -82.5 -82s-31 -78.834 -31 -129.501zM146 230.001c0 30.667 6.33301 57 19 79s29.5 38.667 50.5 50s43.833 17 68.5 17c21.333 0 42 -5.66699 62 -17s36.5 -27.833 49.5 -49.5
s19.5 -48.167 19.5 -79.5s-6.5 -57.833 -19.5 -79.5s-29.5 -38.167 -49.5 -49.5s-40.667 -17 -62 -17c-24.667 0 -47.5 5.66699 -68.5 17s-37.833 28 -50.5 50s-19 48.333 -19 79zM642 780.001l-88 -259l80 -22l117 250z" />
    <glyph glyph-name="Dcroat" unicode="&#x110;" horiz-adv-x="701" 
d="M5 305h318v85h-318v-85zM78 700v-700h121v700h-121zM304 0c71.333 0 134 14.5 188 43.5s96.167 69.667 126.5 122s45.5 113.833 45.5 184.5s-15.167 132.167 -45.5 184.5s-72.5 93 -126.5 122s-116.667 43.5 -188 43.5h-153v-111h150c34.667 0 66.667 -5 96 -15
s54.833 -25 76.5 -45s38.667 -45 51 -75s18.5 -64.667 18.5 -104s-6.16699 -74 -18.5 -104s-29.333 -54.833 -51 -74.5s-47.167 -34.667 -76.5 -45s-61.333 -15.5 -96 -15.5h-150v-111h153z" />
    <glyph glyph-name="dcroat" unicode="&#x111;" horiz-adv-x="589" 
d="M295 580h323v85h-323v-85zM415 780v-780h109v780h-109zM34 230c0 -50 10.333 -92.999 31 -128.999s48.167 -63.5 82.5 -82.5s71.166 -28.5 110.499 -28.5c38.667 0 72.5 9.66699 101.5 29s52 47 69 83s25.5 78.667 25.5 128c0 50 -8.5 92.833 -25.5 128.5
s-40 63.167 -69 82.5s-62.833 29 -101.5 29c-39.333 0 -76.166 -9.5 -110.499 -28.5s-61.833 -46.333 -82.5 -82s-31 -78.834 -31 -129.501zM146 230.001c0 30.667 6.33301 57 19 79s29.5 38.667 50.5 50s43.833 17 68.5 17c16 0 31.667 -3.16699 47 -9.5
s29.333 -15.833 42 -28.5s22.834 -28 30.501 -46s11.5 -38.667 11.5 -62s-3.83301 -44 -11.5 -62s-17.834 -33.333 -30.501 -46s-26.667 -22.167 -42 -28.5s-31 -9.5 -47 -9.5c-24.667 0 -47.5 5.66699 -68.5 17s-37.833 28 -50.5 50s-19 48.333 -19 79z" />
    <glyph glyph-name="Emacron" unicode="&#x112;" horiz-adv-x="571" 
d="M151 0h353v104h-353v-104zM151 596h353v104h-353v-104zM151 324h333v102h-333v-102zM78 700v-700h116v700h-116zM111 773h359v97h-359v-97z" />
    <glyph glyph-name="emacron" unicode="&#x113;" horiz-adv-x="539" 
d="M99 205l403.996 -0.00195312c0.666992 6 1 11.5 1 16.5v13.5c0 48.667 -9.16699 90.5 -27.5 125.5s-44.666 62 -78.999 81s-75.5 28.5 -123.5 28.5c-43.333 0 -81.666 -8 -114.999 -24s-60.166 -38.333 -80.499 -67s-33.833 -62 -40.5 -100
c-1.33301 -8 -2.33301 -16 -3 -24s-1 -16.333 -1 -25c0 -46 9.66699 -87.167 29 -123.5s46.833 -64.833 82.5 -85.5s76.834 -31 123.501 -31c42 0 77.167 5.16699 105.5 15.5s52.5 24.833 72.5 43.5s37.667 40.667 53 66l-94 37
c-8.66699 -14.667 -19.334 -27.5 -32.001 -38.5s-27.167 -19.5 -43.5 -25.5s-35.166 -9 -56.499 -9c-25.333 0 -47.833 5.5 -67.5 16.5s-35 27.833 -46 50.5s-16.5 50.667 -16.5 84l2 28c0 26.667 5.5 49.834 16.5 69.501s26.167 34.667 45.5 45s41 15.5 65 15.5
c23.333 0 43 -4.5 59 -13.5s28.5 -21.667 37.5 -38s14.833 -35.166 17.5 -56.499h-288v-75zM94.9961 529.998h359v98h-359v-98z" />
    <glyph glyph-name="Ebreve" unicode="&#x114;" horiz-adv-x="571" 
d="M151 0h353v104h-353v-104zM151 596h353v104h-353v-104zM151 324h333v102h-333v-102zM78 700v-700h116v700h-116zM130 915c0 -24 6.00098 -47 18.001 -69s30.167 -39.667 54.5 -53s53.833 -20 88.5 -20c35.333 0 64.833 6.66699 88.5 20s41.5 31 53.5 53s18 45 18 69h-82
c0 -10 -2.5 -20.167 -7.5 -30.5s-13.333 -19.333 -25 -27s-26.834 -11.5 -45.501 -11.5c-19.333 0 -34.833 3.83301 -46.5 11.5s-20 16.667 -25 27s-7.5 20.5 -7.5 30.5h-82z" />
    <glyph glyph-name="ebreve" unicode="&#x115;" horiz-adv-x="539" 
d="M99 205l403.996 -0.00195312c0.666992 6 1 11.5 1 16.5v13.5c0 48.667 -9.16699 90.5 -27.5 125.5s-44.666 62 -78.999 81s-75.5 28.5 -123.5 28.5c-43.333 0 -81.666 -8 -114.999 -24s-60.166 -38.333 -80.499 -67s-33.833 -62 -40.5 -100
c-1.33301 -8 -2.33301 -16 -3 -24s-1 -16.333 -1 -25c0 -46 9.66699 -87.167 29 -123.5s46.833 -64.833 82.5 -85.5s76.834 -31 123.501 -31c42 0 77.167 5.16699 105.5 15.5s52.5 24.833 72.5 43.5s37.667 40.667 53 66l-94 37
c-8.66699 -14.667 -19.334 -27.5 -32.001 -38.5s-27.167 -19.5 -43.5 -25.5s-35.166 -9 -56.499 -9c-25.333 0 -47.833 5.5 -67.5 16.5s-35 27.833 -46 50.5s-16.5 50.667 -16.5 84l2 28c0 26.667 5.5 49.834 16.5 69.501s26.167 34.667 45.5 45s41 15.5 65 15.5
c23.333 0 43 -4.5 59 -13.5s28.5 -21.667 37.5 -38s14.833 -35.166 17.5 -56.499h-288v-75zM113.996 672.998c0 -24.667 6.00098 -47.834 18.001 -69.501s30 -39.334 54 -53.001s53.333 -20.5 88 -20.5c35.333 0 65 6.83301 89 20.5s42 31.334 54 53.001
s18 44.834 18 69.501h-82c0 -10 -2.5 -20.333 -7.5 -31s-13.333 -19.667 -25 -27s-27.167 -11 -46.5 -11c-18.667 0 -33.834 3.66699 -45.501 11s-20 16.333 -25 27s-7.5 21 -7.5 31h-82z" />
    <glyph glyph-name="Edotaccent" unicode="&#x116;" horiz-adv-x="571" 
d="M151 0h353v104h-353v-104zM151 596h353v104h-353v-104zM151 324h333v102h-333v-102zM78 700v-700h116v700h-116zM222 838c0 -18 6.83301 -33.333 20.5 -46s29.834 -19 48.501 -19s34.667 6.33301 48 19s20 28 20 46c0 19.333 -6.66699 35.166 -20 47.499
s-29.333 18.5 -48 18.5s-34.834 -6.16699 -48.501 -18.5s-20.5 -28.166 -20.5 -47.499z" />
    <glyph glyph-name="edotaccent" unicode="&#x117;" horiz-adv-x="539" 
d="M99 205l403.996 -0.00195312c0.666992 6 1 11.5 1 16.5v13.5c0 48.667 -9.16699 90.5 -27.5 125.5s-44.666 62 -78.999 81s-75.5 28.5 -123.5 28.5c-43.333 0 -81.666 -8 -114.999 -24s-60.166 -38.333 -80.499 -67s-33.833 -62 -40.5 -100
c-1.33301 -8 -2.33301 -16 -3 -24s-1 -16.333 -1 -25c0 -46 9.66699 -87.167 29 -123.5s46.833 -64.833 82.5 -85.5s76.834 -31 123.501 -31c42 0 77.167 5.16699 105.5 15.5s52.5 24.833 72.5 43.5s37.667 40.667 53 66l-94 37
c-8.66699 -14.667 -19.334 -27.5 -32.001 -38.5s-27.167 -19.5 -43.5 -25.5s-35.166 -9 -56.499 -9c-25.333 0 -47.833 5.5 -67.5 16.5s-35 27.833 -46 50.5s-16.5 50.667 -16.5 84l2 28c0 26.667 5.5 49.834 16.5 69.501s26.167 34.667 45.5 45s41 15.5 65 15.5
c23.333 0 43 -4.5 59 -13.5s28.5 -21.667 37.5 -38s14.833 -35.166 17.5 -56.499h-288v-75zM205.996 595.998c0 -18 6.83301 -33.5 20.5 -46.5s29.5 -19.5 47.5 -19.5c19.333 0 35.666 6.5 48.999 19.5s20 28.5 20 46.5c0 18.667 -6.66699 34.334 -20 47.001
s-29.666 19 -48.999 19c-18 0 -33.833 -6.33301 -47.5 -19s-20.5 -28.334 -20.5 -47.001z" />
    <glyph glyph-name="Eogonek" unicode="&#x118;" horiz-adv-x="571" 
d="M151 0h353v104h-353v-104zM151 596h353v104h-353v-104zM151 324h333v102h-333v-102zM78 700v-700h116v700h-116zM379 -122c-6.66699 -6.66699 -13.665 -11.667 -20.998 -15s-17 -5 -29 -5c-13.333 0 -23.833 3.5 -31.5 10.5s-11.5 18.5 -11.5 34.5
c0 11.333 3.66699 22.833 11 34.5s17.666 23 30.999 34s28.666 20.5 45.999 28.5l-41 25c-23.333 -12 -45.166 -25.333 -65.499 -40s-37 -30.667 -50 -48s-19.5 -36.333 -19.5 -57c0 -20 4.83301 -37.667 14.5 -53s23.5 -27 41.5 -35s39.667 -12 65 -12
c24 0 43.667 4.16699 59 12.5s26.666 17.5 33.999 27.5z" />
    <glyph glyph-name="eogonek" unicode="&#x119;" horiz-adv-x="539" 
d="M99 205l403.996 -0.00195312c0.666992 6 1 11.5 1 16.5v13.5c0 48.667 -9.16699 90.5 -27.5 125.5s-44.666 62 -78.999 81s-75.5 28.5 -123.5 28.5c-43.333 0 -81.666 -8 -114.999 -24s-60.166 -38.333 -80.499 -67s-33.833 -62 -40.5 -100
c-1.33301 -8 -2.33301 -16 -3 -24s-1 -16.333 -1 -25c0 -46 9.66699 -87.167 29 -123.5s46.833 -64.833 82.5 -85.5s76.834 -31 123.501 -31c42 0 77.167 5.16699 105.5 15.5s52.5 24.833 72.5 43.5s37.667 40.667 53 66l-94 37
c-8.66699 -14.667 -19.334 -27.5 -32.001 -38.5s-27.167 -19.5 -43.5 -25.5s-35.166 -9 -56.499 -9c-25.333 0 -47.833 5.5 -67.5 16.5s-35 27.833 -46 50.5s-16.5 50.667 -16.5 84l2 28c0 26.667 5.5 49.834 16.5 69.501s26.167 34.667 45.5 45s41 15.5 65 15.5
c23.333 0 43 -4.5 59 -13.5s28.5 -21.667 37.5 -38s14.833 -35.166 17.5 -56.499h-288v-75zM309.996 -120.002c-6.66699 -6.66699 -13.668 -11.668 -21.001 -15.001s-17 -5 -29 -5c-13.333 0 -23.833 3.66699 -31.5 11s-11.5 18.666 -11.5 33.999
c0 12 3.83301 23.833 11.5 35.5s18 22.834 31 33.501s28.167 20.334 45.5 29.001l-41 25c-23.333 -12 -45.166 -25.333 -65.499 -40s-36.833 -30.667 -49.5 -48s-19 -36.333 -19 -57s4.83301 -38.5 14.5 -53.5s23.334 -26.5 41.001 -34.5s39.167 -12 64.5 -12
c24 0 43.667 4.16699 59 12.5s26.666 17.5 33.999 27.5z" />
    <glyph glyph-name="Ecaron" unicode="&#x11a;" horiz-adv-x="571" 
d="M151 0h353v104h-353v-104zM151 596h353v104h-353v-104zM151 324h333v102h-333v-102zM78 700v-700h116v700h-116zM291 874l-103 91l-72 -52l175 -140l175 140l-73 52z" />
    <glyph glyph-name="ecaron" unicode="&#x11b;" horiz-adv-x="539" 
d="M99 205l403.996 -0.00195312c0.666992 6 1 11.5 1 16.5v13.5c0 48.667 -9.16699 90.5 -27.5 125.5s-44.666 62 -78.999 81s-75.5 28.5 -123.5 28.5c-43.333 0 -81.666 -8 -114.999 -24s-60.166 -38.333 -80.499 -67s-33.833 -62 -40.5 -100
c-1.33301 -8 -2.33301 -16 -3 -24s-1 -16.333 -1 -25c0 -46 9.66699 -87.167 29 -123.5s46.833 -64.833 82.5 -85.5s76.834 -31 123.501 -31c42 0 77.167 5.16699 105.5 15.5s52.5 24.833 72.5 43.5s37.667 40.667 53 66l-94 37
c-8.66699 -14.667 -19.334 -27.5 -32.001 -38.5s-27.167 -19.5 -43.5 -25.5s-35.166 -9 -56.499 -9c-25.333 0 -47.833 5.5 -67.5 16.5s-35 27.833 -46 50.5s-16.5 50.667 -16.5 84l2 28c0 26.667 5.5 49.834 16.5 69.501s26.167 34.667 45.5 45s41 15.5 65 15.5
c23.333 0 43 -4.5 59 -13.5s28.5 -21.667 37.5 -38s14.833 -35.166 17.5 -56.499h-288v-75zM273.996 631.998l-102 91l-73 -53l175 -140l175 140l-72 53z" />
    <glyph glyph-name="Gcircumflex" unicode="&#x11c;" horiz-adv-x="791" 
d="M411 266l215 0.00195312c-6 -23.333 -15 -45.333 -27 -66s-27 -39 -45 -55s-39.333 -28.333 -64 -37s-52.667 -13 -84 -13c-46 0 -87.333 10.667 -124 32s-65.667 51.166 -87 89.499s-32 82.833 -32 133.5c0 51.333 10.833 95.833 32.5 133.5s51 67 88 88
s77.833 31.5 122.5 31.5c48.667 0 90.167 -10 124.5 -30s61.166 -46.667 80.499 -80l96 64c-20.667 32.667 -45.667 60.5 -75 83.5s-62.833 40.833 -100.5 53.5s-79.5 19 -125.5 19c-52.667 0 -101.334 -8.83301 -146.001 -26.5s-83.667 -42.667 -117 -75
s-59.166 -70.666 -77.499 -114.999s-27.5 -93.166 -27.5 -146.499s9 -102.333 27 -147s43.5 -83.334 76.5 -116.001s71.833 -57.834 116.5 -75.501s93.334 -26.5 146.001 -26.5c56 0 105.667 10.167 149 30.5s79.666 48.166 108.999 83.499s51.333 75.833 66 121.5
s21.334 94.167 20.001 145.5h-337v-100zM406 864.002l103 -91l72 52l-175 140l-175 -140l73 -52z" />
    <glyph glyph-name="gcircumflex" unicode="&#x11d;" horiz-adv-x="586" 
d="M43 -31c1.33301 -40 11.6699 -75.333 31.0029 -106s46.666 -54.5 81.999 -71.5s77.666 -25.5 126.999 -25.5c42 0 81 8.83301 117 26.5s65.167 44.5 87.5 80.5s33.5 81.667 33.5 137v450h-106v-450c0 -34.667 -6.5 -63 -19.5 -85s-29.833 -38.333 -50.5 -49
s-42 -16 -64 -16c-26 0 -48.667 4.83301 -68 14.5s-34.333 22.667 -45 39s-16.334 34.833 -17.001 55.5h-108zM34.0039 233c0 -50.667 10.333 -93.667 31 -129s48.167 -62.333 82.5 -81s71.166 -28 110.499 -28c38.667 0 72.5 9.5 101.5 28.5s52 46.333 69 82
s25.5 78.167 25.5 127.5c0 50 -8.5 92.5 -25.5 127.5s-40 62 -69 81s-62.833 28.5 -101.5 28.5c-39.333 0 -76.166 -9.33301 -110.499 -28s-61.833 -45.5 -82.5 -80.5s-31 -77.833 -31 -128.5zM146.004 233c0 30.667 6.33203 56.665 18.999 77.998s29.5 37.5 50.5 48.5
s43.833 16.5 68.5 16.5c16 0 31.667 -3 47 -9s29.333 -15.167 42 -27.5s22.834 -27.333 30.501 -45s11.5 -38.167 11.5 -61.5c0 -31.333 -6.5 -57.666 -19.5 -78.999s-29.5 -37.5 -49.5 -48.5s-40.667 -16.5 -62 -16.5c-24.667 0 -47.5 5.5 -68.5 16.5
s-37.833 27.333 -50.5 49s-19 47.834 -19 78.501zM286.003 621.998l102 -92l73 53l-175 140l-175 -140l72 -53z" />
    <glyph glyph-name="Gbreve" unicode="&#x11e;" horiz-adv-x="791" 
d="M411 266l215 0.00195312c-6 -23.333 -15 -45.333 -27 -66s-27 -39 -45 -55s-39.333 -28.333 -64 -37s-52.667 -13 -84 -13c-46 0 -87.333 10.667 -124 32s-65.667 51.166 -87 89.499s-32 82.833 -32 133.5c0 51.333 10.833 95.833 32.5 133.5s51 67 88 88
s77.833 31.5 122.5 31.5c48.667 0 90.167 -10 124.5 -30s61.166 -46.667 80.499 -80l96 64c-20.667 32.667 -45.667 60.5 -75 83.5s-62.833 40.833 -100.5 53.5s-79.5 19 -125.5 19c-52.667 0 -101.334 -8.83301 -146.001 -26.5s-83.667 -42.667 -117 -75
s-59.166 -70.666 -77.499 -114.999s-27.5 -93.166 -27.5 -146.499s9 -102.333 27 -147s43.5 -83.334 76.5 -116.001s71.833 -57.834 116.5 -75.501s93.334 -26.5 146.001 -26.5c56 0 105.667 10.167 149 30.5s79.666 48.166 108.999 83.499s51.333 75.833 66 121.5
s21.334 94.167 20.001 145.5h-337v-100zM246 915.002c0 -24 6.00098 -47 18.001 -69s30 -39.667 54 -53s53.333 -20 88 -20c35.333 0 65 6.66699 89 20s42 31 54 53s18 45 18 69h-82c0 -10 -2.5 -20.167 -7.5 -30.5s-13.333 -19.333 -25 -27s-27.167 -11.5 -46.5 -11.5
c-18.667 0 -33.834 3.83301 -45.501 11.5s-20 16.667 -25 27s-7.5 20.5 -7.5 30.5h-82z" />
    <glyph glyph-name="gbreve" unicode="&#x11f;" horiz-adv-x="586" 
d="M43 -31c1.33301 -40 11.6699 -75.333 31.0029 -106s46.666 -54.5 81.999 -71.5s77.666 -25.5 126.999 -25.5c42 0 81 8.83301 117 26.5s65.167 44.5 87.5 80.5s33.5 81.667 33.5 137v450h-106v-450c0 -34.667 -6.5 -63 -19.5 -85s-29.833 -38.333 -50.5 -49
s-42 -16 -64 -16c-26 0 -48.667 4.83301 -68 14.5s-34.333 22.667 -45 39s-16.334 34.833 -17.001 55.5h-108zM34.0039 233c0 -50.667 10.333 -93.667 31 -129s48.167 -62.333 82.5 -81s71.166 -28 110.499 -28c38.667 0 72.5 9.5 101.5 28.5s52 46.333 69 82
s25.5 78.167 25.5 127.5c0 50 -8.5 92.5 -25.5 127.5s-40 62 -69 81s-62.833 28.5 -101.5 28.5c-39.333 0 -76.166 -9.33301 -110.499 -28s-61.833 -45.5 -82.5 -80.5s-31 -77.833 -31 -128.5zM146.004 233c0 30.667 6.33203 56.665 18.999 77.998s29.5 37.5 50.5 48.5
s43.833 16.5 68.5 16.5c16 0 31.667 -3 47 -9s29.333 -15.167 42 -27.5s22.834 -27.333 30.501 -45s11.5 -38.167 11.5 -61.5c0 -31.333 -6.5 -57.666 -19.5 -78.999s-29.5 -37.5 -49.5 -48.5s-40.667 -16.5 -62 -16.5c-24.667 0 -47.5 5.5 -68.5 16.5
s-37.833 27.333 -50.5 49s-19 47.834 -19 78.501zM125.003 672.998c0 -24.667 6.00098 -47.834 18.001 -69.501s30.167 -39.334 54.5 -53.001s53.833 -20.5 88.5 -20.5c35.333 0 64.833 6.83301 88.5 20.5s41.5 31.334 53.5 53.001s18 44.834 18 69.501h-82
c0 -10 -2.5 -20.333 -7.5 -31s-13.333 -19.667 -25 -27s-26.834 -11 -45.501 -11c-19.333 0 -34.833 3.66699 -46.5 11s-20 16.333 -25 27s-7.5 21 -7.5 31h-82z" />
    <glyph glyph-name="Gdotaccent" unicode="&#x120;" horiz-adv-x="791" 
d="M411 266l215 0.00195312c-6 -23.333 -15 -45.333 -27 -66s-27 -39 -45 -55s-39.333 -28.333 -64 -37s-52.667 -13 -84 -13c-46 0 -87.333 10.667 -124 32s-65.667 51.166 -87 89.499s-32 82.833 -32 133.5c0 51.333 10.833 95.833 32.5 133.5s51 67 88 88
s77.833 31.5 122.5 31.5c48.667 0 90.167 -10 124.5 -30s61.166 -46.667 80.499 -80l96 64c-20.667 32.667 -45.667 60.5 -75 83.5s-62.833 40.833 -100.5 53.5s-79.5 19 -125.5 19c-52.667 0 -101.334 -8.83301 -146.001 -26.5s-83.667 -42.667 -117 -75
s-59.166 -70.666 -77.499 -114.999s-27.5 -93.166 -27.5 -146.499s9 -102.333 27 -147s43.5 -83.334 76.5 -116.001s71.833 -57.834 116.5 -75.501s93.334 -26.5 146.001 -26.5c56 0 105.667 10.167 149 30.5s79.666 48.166 108.999 83.499s51.333 75.833 66 121.5
s21.334 94.167 20.001 145.5h-337v-100zM338 838.002c0 -18 6.83301 -33.333 20.5 -46s29.5 -19 47.5 -19c19.333 0 35.666 6.33301 48.999 19s20 28 20 46c0 19.333 -6.66699 35.166 -20 47.499s-29.666 18.5 -48.999 18.5c-18 0 -33.833 -6.16699 -47.5 -18.5
s-20.5 -28.166 -20.5 -47.499z" />
    <glyph glyph-name="gdotaccent" unicode="&#x121;" horiz-adv-x="586" 
d="M43 -31c1.33301 -40 11.6699 -75.333 31.0029 -106s46.666 -54.5 81.999 -71.5s77.666 -25.5 126.999 -25.5c42 0 81 8.83301 117 26.5s65.167 44.5 87.5 80.5s33.5 81.667 33.5 137v450h-106v-450c0 -34.667 -6.5 -63 -19.5 -85s-29.833 -38.333 -50.5 -49
s-42 -16 -64 -16c-26 0 -48.667 4.83301 -68 14.5s-34.333 22.667 -45 39s-16.334 34.833 -17.001 55.5h-108zM34.0039 233c0 -50.667 10.333 -93.667 31 -129s48.167 -62.333 82.5 -81s71.166 -28 110.499 -28c38.667 0 72.5 9.5 101.5 28.5s52 46.333 69 82
s25.5 78.167 25.5 127.5c0 50 -8.5 92.5 -25.5 127.5s-40 62 -69 81s-62.833 28.5 -101.5 28.5c-39.333 0 -76.166 -9.33301 -110.499 -28s-61.833 -45.5 -82.5 -80.5s-31 -77.833 -31 -128.5zM146.004 233c0 30.667 6.33203 56.665 18.999 77.998s29.5 37.5 50.5 48.5
s43.833 16.5 68.5 16.5c16 0 31.667 -3 47 -9s29.333 -15.167 42 -27.5s22.834 -27.333 30.501 -45s11.5 -38.167 11.5 -61.5c0 -31.333 -6.5 -57.666 -19.5 -78.999s-29.5 -37.5 -49.5 -48.5s-40.667 -16.5 -62 -16.5c-24.667 0 -47.5 5.5 -68.5 16.5
s-37.833 27.333 -50.5 49s-19 47.834 -19 78.501zM225.003 625.998c0 -18 6.66699 -33.5 20 -46.5s29.333 -19.5 48 -19.5c19.333 0 35.5 6.5 48.5 19.5s19.5 28.5 19.5 46.5c0 18.667 -6.5 34.334 -19.5 47.001s-29.167 19 -48.5 19c-18.667 0 -34.667 -6.33301 -48 -19
s-20 -28.334 -20 -47.001z" />
    <glyph glyph-name="uni0122" unicode="&#x122;" horiz-adv-x="791" 
d="M411 266l215 0.00195312c-6 -23.333 -15 -45.333 -27 -66s-27 -39 -45 -55s-39.333 -28.333 -64 -37s-52.667 -13 -84 -13c-46 0 -87.333 10.667 -124 32s-65.667 51.166 -87 89.499s-32 82.833 -32 133.5c0 51.333 10.833 95.833 32.5 133.5s51 67 88 88
s77.833 31.5 122.5 31.5c48.667 0 90.167 -10 124.5 -30s61.166 -46.667 80.499 -80l96 64c-20.667 32.667 -45.667 60.5 -75 83.5s-62.833 40.833 -100.5 53.5s-79.5 19 -125.5 19c-52.667 0 -101.334 -8.83301 -146.001 -26.5s-83.667 -42.667 -117 -75
s-59.166 -70.666 -77.499 -114.999s-27.5 -93.166 -27.5 -146.499s9 -102.333 27 -147s43.5 -83.334 76.5 -116.001s71.833 -57.834 116.5 -75.501s93.334 -26.5 146.001 -26.5c56 0 105.667 10.167 149 30.5s79.666 48.166 108.999 83.499s51.333 75.833 66 121.5
s21.334 94.167 20.001 145.5h-337v-100zM381 -74.998l-88 -259l81 -22l116 250z" />
    <glyph glyph-name="uni0123" unicode="&#x123;" horiz-adv-x="570" 
d="M43 -31c1.33301 -40 11.6699 -75.333 31.0029 -106s46.666 -54.5 81.999 -71.5s77.666 -25.5 126.999 -25.5c42 0 81 8.83301 117 26.5s65.167 44.5 87.5 80.5s33.5 81.667 33.5 137v450h-106v-450c0 -34.667 -6.5 -63 -19.5 -85s-29.833 -38.333 -50.5 -49
s-42 -16 -64 -16c-26 0 -48.667 4.83301 -68 14.5s-34.333 22.667 -45 39s-16.334 34.833 -17.001 55.5h-108zM34.0039 233c0 -50.667 10.333 -93.667 31 -129s48.167 -62.333 82.5 -81s71.166 -28 110.499 -28c38.667 0 72.5 9.5 101.5 28.5s52 46.333 69 82
s25.5 78.167 25.5 127.5c0 50 -8.5 92.5 -25.5 127.5s-40 62 -69 81s-62.833 28.5 -101.5 28.5c-39.333 0 -76.166 -9.33301 -110.499 -28s-61.833 -45.5 -82.5 -80.5s-31 -77.833 -31 -128.5zM146.004 233c0 30.667 6.33203 56.665 18.999 77.998s29.5 37.5 50.5 48.5
s43.833 16.5 68.5 16.5c16 0 31.667 -3 47 -9s29.333 -15.167 42 -27.5s22.834 -27.333 30.501 -45s11.5 -38.167 11.5 -61.5c0 -31.333 -6.5 -57.666 -19.5 -78.999s-29.5 -37.5 -49.5 -48.5s-40.667 -16.5 -62 -16.5c-24.667 0 -47.5 5.5 -68.5 16.5
s-37.833 27.333 -50.5 49s-19 47.834 -19 78.501zM293.003 543.998l127 242l-76 35l-153 -229z" />
    <glyph glyph-name="Hcircumflex" unicode="&#x124;" horiz-adv-x="744" 
d="M125 321h500v109h-500v-109zM548 700v-700h118v700h-118zM78 700v-700h118v700h-118zM372 864l103 -91l72 52l-175 140l-175 -140l73 -52z" />
    <glyph glyph-name="hcircumflex" unicode="&#x125;" horiz-adv-x="543" 
d="M178 780h-109v-780h109v780zM365 280l0.00195312 -279.998h109v295c0 39.333 -6 72.166 -18 98.499s-29.667 46.166 -53 59.499s-52.333 20 -87 20s-64.834 -8.5 -90.501 -25.5s-45.667 -40 -60 -69s-21.5 -61.833 -21.5 -98.5h34c0 20.667 4.16699 38.667 12.5 54
s20.166 27.333 35.499 36s33.333 13 54 13c29.333 0 50.833 -8.66699 64.5 -26s20.5 -43 20.5 -77zM129.002 931.002l102 -91l73 53l-175 140l-175 -140l72 -53z" />
    <glyph glyph-name="Hbar" unicode="&#x126;" horiz-adv-x="744" 
d="M125 321h500v109h-500v-109zM548 700v-700h118v700h-118zM78 700v-700h118v700h-118zM5 539h734v87h-734v-87z" />
    <glyph glyph-name="hbar" unicode="&#x127;" horiz-adv-x="543" 
d="M178 780h-109v-780h109v780zM365 280l0.000976562 -279.998h109v295c0 39.333 -6 72.166 -18 98.499s-29.667 46.166 -53 59.499s-52.333 20 -87 20s-64.167 -8.5 -88.5 -25.5s-43 -40 -56 -69s-19.5 -61.833 -19.5 -98.5h26c0 20.667 4.16699 38.667 12.5 54
s20.166 27.333 35.499 36s33.333 13 54 13c29.333 0 50.833 -8.66699 64.5 -26s20.5 -43 20.5 -77zM5.00098 614.002h320v97h-320v-97z" />
    <glyph glyph-name="Itilde" unicode="&#x128;" horiz-adv-x="275" 
d="M78 700v-700h120v700h-120zM-39 821l60 -47c0 5.33301 1.33301 12 4 20s7.5 15.167 14.5 21.5s17.167 9.5 30.5 9.5c16 0 30 -4 42 -12l38.5 -24.5c13.667 -8.33301 29.5 -12.5 47.5 -12.5c18.667 0 35.834 3.83301 51.501 11.5s29.334 17.667 41.001 30
s20.167 24.5 25.5 36.5l-56 55c-10 -16 -19.833 -28.333 -29.5 -37s-19.834 -13 -30.501 -13c-14 0 -25.5 2.5 -34.5 7.5s-17.667 10.667 -26 17s-17.833 12 -28.5 17s-24 7.5 -40 7.5c-17.333 0 -33.833 -3.83301 -49.5 -11.5s-28.834 -18 -39.501 -31
s-17.667 -27.833 -21 -44.5z" />
    <glyph glyph-name="itilde" unicode="&#x129;" horiz-adv-x="267" 
d="M80 460v-460h107v460h-107zM-44 579l60 -46.999c0 5.33301 1.33301 12 4 20s7.66699 15.167 15 21.5s17.333 9.5 30 9.5c16 0 30.167 -4.16699 42.5 -12.5l38.5 -25c13.333 -8.33301 29 -12.5 47 -12.5c18.667 0 35.834 4 51.501 12s29.334 18 41.001 30
s20.167 24 25.5 36l-56 56c-10 -16 -19.833 -28.333 -29.5 -37s-19.834 -13 -30.501 -13c-14 0 -25.5 2.5 -34.5 7.5s-17.667 10.667 -26 17s-17.833 12 -28.5 17s-24 7.5 -40 7.5c-17.333 0 -33.833 -4 -49.5 -12s-28.834 -18.333 -39.501 -31s-17.667 -27.334 -21 -44.001
z" />
    <glyph glyph-name="Imacron" unicode="&#x12a;" horiz-adv-x="275" 
d="M78 700v-700h120v700h-120zM-41 773h358v97h-358v-97z" />
    <glyph glyph-name="imacron" unicode="&#x12b;" horiz-adv-x="267" 
d="M80 460v-460h107v460h-107zM-46 530h359v98h-359v-98z" />
    <glyph glyph-name="Ibreve" unicode="&#x12c;" horiz-adv-x="275" 
d="M78 700v-700h120v700h-120zM-23 915c0 -24 6.16504 -47 18.498 -69s30.5 -39.667 54.5 -53s53.333 -20 88 -20c35.333 0 64.833 6.66699 88.5 20s41.5 31 53.5 53s18 45 18 69h-82c0 -10 -2.5 -20.167 -7.5 -30.5s-13.167 -19.333 -24.5 -27s-26.666 -11.5 -45.999 -11.5
s-34.666 3.83301 -45.999 11.5s-19.5 16.667 -24.5 27s-7.5 20.5 -7.5 30.5h-83z" />
    <glyph glyph-name="ibreve" unicode="&#x12d;" horiz-adv-x="267" 
d="M80 460v-460h107v460h-107zM-27 673c0 -24.667 5.99805 -47.834 17.998 -69.501s30 -39.334 54 -53.001s53.333 -20.5 88 -20.5c35.333 0 64.833 6.83301 88.5 20.5s41.667 31.334 54 53.001s18.5 44.834 18.5 69.501h-83c0 -10 -2.5 -20.333 -7.5 -31
s-13.167 -19.667 -24.5 -27s-26.666 -11 -45.999 -11s-34.666 3.66699 -45.999 11s-19.5 16.333 -24.5 27s-7.5 21 -7.5 31h-82z" />
    <glyph glyph-name="Iogonek" unicode="&#x12e;" horiz-adv-x="275" 
d="M78 700v-700h120v700h-120zM192 -122c-6.66699 -6.66699 -13.668 -11.666 -21.001 -14.999s-17 -5 -29 -5c-13.333 0 -23.833 3.66699 -31.5 11s-11.5 18.666 -11.5 33.999c0 12 3.83301 23.833 11.5 35.5s18 23 31 34s28.167 20.5 45.5 28.5l-41 25
c-23.333 -12 -45.166 -25.333 -65.499 -40s-36.833 -30.667 -49.5 -48s-19 -36.333 -19 -57c0 -20 4.83301 -37.667 14.5 -53s23.334 -27 41.001 -35s39.167 -12 64.5 -12c24 0 43.667 4.16699 59 12.5s26.666 17.5 33.999 27.5z" />
    <glyph glyph-name="iogonek" unicode="&#x12f;" horiz-adv-x="267" 
d="M65 643c0 -18 6.83301 -33.5 20.5 -46.5s29.5 -19.5 47.5 -19.5c19.333 0 35.666 6.5 48.999 19.5s20 28.5 20 46.5c0 18.667 -6.66699 34.334 -20 47.001s-29.666 19 -48.999 19c-18 0 -33.833 -6.33301 -47.5 -19s-20.5 -28.334 -20.5 -47.001zM80 460v-460h107v460
h-107zM182 -122c-6.66699 -6.66699 -13.665 -11.667 -20.998 -15s-17 -5 -29 -5c-14 0 -24.667 3.5 -32 10.5s-11 18.5 -11 34.5c0 11.333 3.66699 22.833 11 34.5s17.666 23 30.999 34s28.666 20.5 45.999 28.5l-41 25c-23.333 -12 -45.333 -25.333 -66 -40
s-37.334 -30.667 -50.001 -48s-19 -36.333 -19 -57c0 -20 4.83301 -37.667 14.5 -53s23.334 -27 41.001 -35s39.5 -12 65.5 -12c23.333 0 42.833 4.16699 58.5 12.5s27.167 17.5 34.5 27.5z" />
    <glyph glyph-name="Idotaccent" unicode="&#x130;" horiz-adv-x="275" 
d="M78 700v-700h120v700h-120zM69 838c0 -18 6.66699 -33.333 20 -46s29.333 -19 48 -19c19.333 0 35.5 6.33301 48.5 19s19.5 28 19.5 46c0 19.333 -6.5 35.166 -19.5 47.499s-29.167 18.5 -48.5 18.5c-18.667 0 -34.667 -6.16699 -48 -18.5s-20 -28.166 -20 -47.499z" />
    <glyph glyph-name="dotlessi" unicode="&#x131;" horiz-adv-x="267" 
d="M80 460v-460h107v460h-107z" />
    <glyph glyph-name="IJ" unicode="&#x132;" horiz-adv-x="544" 
d="M199 -88l-64.001 -87c8.66699 -7.33301 20.5 -15 35.5 -23s32.167 -14.833 51.5 -20.5s39.333 -8.5 60 -8.5c26.667 0 51.334 3.16699 74.001 9.5s42.167 16.5 58.5 30.5s29 31.667 38 53s13.5 47 13.5 77v757h-121v-736c0 -31.333 -7.33301 -53.5 -22 -66.5
s-29.667 -19.5 -45 -19.5c-16.667 0 -32 3.16699 -46 9.5s-25 14.5 -33 24.5zM77.999 700v-700h120v700h-120z" />
    <glyph glyph-name="ij" unicode="&#x133;" horiz-adv-x="524" 
d="M323 643c0 -18 6.66699 -33.5 20 -46.5s29.333 -19.5 48 -19.5s34.667 6.5 48 19.5s20 28.5 20 46.5c0 18.667 -6.66699 34.334 -20 47.001s-29.333 19 -48 19s-34.667 -6.33301 -48 -19s-20 -28.334 -20 -47.001zM242 -99l-51 -83.9971
c6 -6.66699 13.667 -13.334 23 -20.001s20.833 -12.334 34.5 -17.001s29.167 -7 46.5 -7c32 0 59 6.16699 81 18.5s38.833 30.5 50.5 54.5s17.5 53.667 17.5 89v525h-106v-504c0 -19.333 -1.83301 -34.833 -5.5 -46.5s-9.16699 -20.334 -16.5 -26.001s-16 -8.5 -26 -8.5
c-8.66699 0 -17.167 1.66699 -25.5 5s-15.833 10.333 -22.5 21zM65 643.003c0 -18 6.83301 -33.5 20.5 -46.5s29.5 -19.5 47.5 -19.5c19.333 0 35.666 6.5 48.999 19.5s20 28.5 20 46.5c0 18.667 -6.66699 34.334 -20 47.001s-29.666 19 -48.999 19
c-18 0 -33.833 -6.33301 -47.5 -19s-20.5 -28.334 -20.5 -47.001zM80 460.003v-460h107v460h-107z" />
    <glyph glyph-name="Jcircumflex" unicode="&#x134;" horiz-adv-x="276" 
d="M-69 -88l-63.0039 -87c8.66699 -7.33301 20.334 -15 35.001 -23s31.834 -14.833 51.501 -20.5s39.834 -8.5 60.501 -8.5c26 0 50.333 3.16699 73 9.5s42.334 16.5 59.001 30.5s29.5 31.667 38.5 53s13.5 47 13.5 77v757h-121v-736c0 -31.333 -7.33301 -53.5 -22 -66.5
s-29.667 -19.5 -45 -19.5c-16.667 0 -32 3.16699 -46 9.5s-25.333 14.5 -34 24.5zM137.996 864l103 -91l72 52l-175 140l-175 -140l73 -52z" />
    <glyph glyph-name="jcircumflex" unicode="&#x135;" horiz-adv-x="259" 
d="M-23 -99l-50.999 -83.9971c6 -6.66699 13.667 -13.334 23 -20.001s20.833 -12.334 34.5 -17.001s29.167 -7 46.5 -7c32 0 59.167 6.16699 81.5 18.5s39.166 30.5 50.499 54.5s17 53.667 17 89v525h-106v-504c0 -19.333 -1.83301 -34.833 -5.5 -46.5
s-9.16699 -20.334 -16.5 -26.001s-16 -8.5 -26 -8.5c-8.66699 0 -17.167 1.66699 -25.5 5s-15.833 10.333 -22.5 21zM126.001 622.003l102 -92l73 53l-175 140l-175 -140l72 -53z" />
    <glyph glyph-name="uni0136" unicode="&#x136;" horiz-adv-x="619" 
d="M78 700v-700h121v700h-121zM459 700l-295 -331l307 -369h146l-311 372l296 328h-143zM327 -60l-88 -259l80 -22l117 250z" />
    <glyph glyph-name="uni0137" unicode="&#x137;" horiz-adv-x="495" 
d="M65 780v-780h106v780h-106zM340 460l-198 -190l219 -270h132l-219 270l199 190h-133zM258 -60l-88 -259l81 -22l116 250z" />
    <glyph glyph-name="kgreenlandic" unicode="&#x138;" horiz-adv-x="495" 
d="M65 460v-460h106v460h-106zM340 460l-198 -190l219 -270h132l-219 270l199 190h-133z" />
    <glyph glyph-name="Lacute" unicode="&#x139;" horiz-adv-x="481" 
d="M78 700v-700h396v106h-278v594h-118zM418 923l-91 45l-150 -160l61 -35z" />
    <glyph glyph-name="lacute" unicode="&#x13a;" horiz-adv-x="246" 
d="M69 780v-780h109v780h-109zM266 990l-91 45l-150 -160l61 -35z" />
    <glyph glyph-name="uni013B" unicode="&#x13b;" horiz-adv-x="481" 
d="M78 700v-700h396v106h-278v594h-118zM265 -60l-88 -259l81 -22l116 250z" />
    <glyph glyph-name="uni013C" unicode="&#x13c;" horiz-adv-x="246" 
d="M69 780v-780h109v780h-109zM113 -60l-88 -259l80 -22l117 250z" />
    <glyph glyph-name="Lcaron" unicode="&#x13d;" horiz-adv-x="481" 
d="M78 700v-700h396v106h-278v594h-118zM362 713l-88 -259l80 -22l117 250z" />
    <glyph glyph-name="lcaron" unicode="&#x13e;" horiz-adv-x="246" 
d="M69 780v-780h109v780h-109zM316 780l-88 -259l80 -22l116 250z" />
    <glyph glyph-name="Ldot" unicode="&#x13f;" horiz-adv-x="481" 
d="M78 700v-700h396v106h-278v594h-118zM283 421c0 -18.667 6.83301 -35 20.5 -49s30.167 -21 49.5 -21c20.667 0 37.667 7 51 21s20 30.333 20 49c0 19.333 -6.66699 35.833 -20 49.5s-30.333 20.5 -51 20.5c-19.333 0 -35.833 -6.83301 -49.5 -20.5
s-20.5 -30.167 -20.5 -49.5z" />
    <glyph glyph-name="ldot" unicode="&#x140;" horiz-adv-x="413" 
d="M69 780v-780h109v780h-109zM230 413c0 -19.333 6.83301 -35.833 20.5 -49.5s30.5 -20.5 50.5 -20.5s36.833 6.83301 50.5 20.5s20.5 30.167 20.5 49.5s-6.83301 35.833 -20.5 49.5s-30.5 20.5 -50.5 20.5s-36.833 -6.83301 -50.5 -20.5s-20.5 -30.167 -20.5 -49.5z" />
    <glyph glyph-name="Lslash" unicode="&#x141;" horiz-adv-x="484" 
d="M5 328l308 200l-28 62l-307 -200zM78 700v-700h396v106h-278v594h-118z" />
    <glyph glyph-name="lslash" unicode="&#x142;" horiz-adv-x="246" 
d="M0 328l283 177l-28 63l-282 -178zM69 780v-780h109v780h-109z" />
    <glyph glyph-name="Nacute" unicode="&#x143;" horiz-adv-x="783" 
d="M589 700v-470l-511 505v-735h116v470l511 -505v735h-116zM555 908l-91 45l-150 -160l61 -35z" />
    <glyph glyph-name="nacute" unicode="&#x144;" horiz-adv-x="545" 
d="M178 460h-109v-460h109v460zM365 280l0.000976562 -279.999h111v293c0 58 -13.833 102 -41.5 132s-67.167 45 -118.5 45c-34.667 0 -64.167 -8.5 -88.5 -25.5s-43 -39.833 -56 -68.5s-19.5 -61.334 -19.5 -98.001l26 2c0 20.667 4.16699 38.667 12.5 54
s20.166 27.333 35.499 36s33.333 13 54 13c29.333 0 50.833 -8.66699 64.5 -26s20.5 -43 20.5 -77zM422.001 680.001l-90 45l-150 -160l60 -35z" />
    <glyph glyph-name="uni0145" unicode="&#x145;" horiz-adv-x="783" 
d="M385 -42l-88 -259l80 -22l116 250zM589 700v-470l-511 505v-735h116v470l511 -505v735h-116z" />
    <glyph glyph-name="uni0146" unicode="&#x146;" horiz-adv-x="545" 
d="M178 460h-109v-460h109v460zM365 280l0.00195312 -279.999h111v293c0 58 -13.833 102 -41.5 132s-67.167 45 -118.5 45c-34.667 0 -64.834 -8.5 -90.501 -25.5s-45.667 -39.833 -60 -68.5s-21.5 -61.334 -21.5 -98.001l34 2c0 20.667 4.16699 38.667 12.5 54
s20.166 27.333 35.499 36s33.333 13 54 13c29.333 0 50.833 -8.66699 64.5 -26s20.5 -43 20.5 -77zM262.002 -59.999l-88 -259l80 -22l117 250z" />
    <glyph glyph-name="Ncaron" unicode="&#x147;" horiz-adv-x="783" 
d="M390 889l-102 91l-73 -52l175 -140l175 140l-72 52zM589 700v-470l-511 505v-735h116v470l511 -505v735h-116z" />
    <glyph glyph-name="ncaron" unicode="&#x148;" horiz-adv-x="545" 
d="M178 460h-109v-460h109v460zM365 280l0.00195312 -279.999h111v293c0 58 -13.833 102 -41.5 132s-67.167 45 -118.5 45c-34.667 0 -64.834 -8.5 -90.501 -25.5s-45.667 -39.833 -60 -68.5s-21.5 -61.334 -21.5 -98.001l34 2c0 20.667 4.16699 38.667 12.5 54
s20.166 27.333 35.499 36s33.333 13 54 13c29.333 0 50.833 -8.66699 64.5 -26s20.5 -43 20.5 -77zM272.002 632.001l-102 91l-73 -53l175 -140l175 140l-72 53z" />
    <glyph glyph-name="napostrophe" unicode="&#x149;" horiz-adv-x="680" 
d="M313 460h-109v-460h109v460zM500 280l0.000976562 -279.999h111v293c0 58 -13.833 102 -41.5 132s-67.167 45 -118.5 45c-34 0 -64 -8.5 -90 -25.5s-46.167 -39.833 -60.5 -68.5s-21.5 -61.334 -21.5 -98.001l34 2c0 20.667 4.16699 38.667 12.5 54
s20.166 27.333 35.499 36s33.333 13 54 13c29.333 0 50.833 -8.66699 64.5 -26s20.5 -43 20.5 -77zM123.001 700.001l-58 -240h76l102 240h-120z" />
    <glyph glyph-name="Eng" unicode="&#x14a;" horiz-adv-x="783" 
d="M556 -218c31.333 0 58.167 6.49902 80.5 19.499s39.333 31.667 51 56s17.5 53.5 17.5 87.5v755h-116v-470l-511 505v-735h116v470l405 -406v-98c0 -18.667 -1.83301 -34.167 -5.5 -46.5s-9 -21.166 -16 -26.499s-15.833 -8 -26.5 -8c-10 0 -19 2.16699 -27 6.5
s-15 10.5 -21 18.5l-51 -84c14 -14.667 29.333 -25.667 46 -33s36 -11 58 -11z" />
    <glyph glyph-name="eng" unicode="&#x14b;" horiz-adv-x="545" 
d="M322 -227c50 0 88.168 13.8301 114.501 41.4971s39.5 67.834 39.5 120.501v358c0 57.333 -13.667 101.166 -41 131.499s-67 45.5 -119 45.5c-30 0 -56.833 -7 -80.5 -21s-42.834 -33.667 -57.501 -59v70h-109v-460h109v279c0 20.667 4.16699 38.834 12.5 54.501
s20.166 27.834 35.499 36.501s33.333 13 54 13c28.667 0 50 -8.5 64 -25.5s21 -42.833 21 -77.5v-324c0 -27.333 -4 -47.666 -12 -60.999s-20 -20 -36 -20c-20 0 -36 8.66699 -48 26l-51 -84c13.333 -14.667 28.833 -25.667 46.5 -33s36.834 -11 57.501 -11z" />
    <glyph glyph-name="Omacron" unicode="&#x14c;" horiz-adv-x="803" 
d="M163 350c0 48 10.334 90.833 31.001 128.5s48.834 67.167 84.501 88.5s76.5 32 122.5 32c47.333 0 88.833 -10.667 124.5 -32s63.5 -50.833 83.5 -88.5s30 -80.5 30 -128.5s-10.167 -90.667 -30.5 -128s-48.333 -66.833 -84 -88.5s-76.834 -32.5 -123.501 -32.5
c-46 0 -86.833 10.833 -122.5 32.5s-63.834 51.167 -84.501 88.5s-31 80 -31 128zM38.001 350c0 -52 8.99902 -100.333 26.999 -145s43.333 -83.334 76 -116.001s71.167 -58.167 115.5 -76.5s92.5 -27.5 144.5 -27.5c53.333 0 102 9.16699 146 27.5s82.333 43.833 115 76.5
s58 71.334 76 116.001s27 93 27 145c0 52.667 -9 101 -27 145s-43.5 82.167 -76.5 114.5s-71.5 57.666 -115.5 75.999s-92.333 27.5 -145 27.5c-51.333 0 -99.166 -9.16699 -143.499 -27.5s-83 -43.666 -116 -75.999s-58.5 -70.5 -76.5 -114.5s-27 -92.333 -27 -145z
M222 773h359v97h-359v-97z" />
    <glyph glyph-name="omacron" unicode="&#x14d;" horiz-adv-x="564" 
d="M34 230c0 -46.667 10.833 -88.167 32.5 -124.5s51.334 -64.666 89.001 -84.999s79.834 -30.5 126.501 -30.5c47.333 0 89.666 10.167 126.999 30.5s66.833 48.666 88.5 84.999s32.5 77.833 32.5 124.5c0 47.333 -10.833 89 -32.5 125s-51.167 64.167 -88.5 84.5
s-79.666 30.5 -126.999 30.5c-46.667 0 -88.834 -10.167 -126.501 -30.5s-67.334 -48.5 -89.001 -84.5s-32.5 -77.667 -32.5 -125zM145 230c0 28.667 6 54 18 76s28.333 39 49 51s44 18 70 18s49.333 -6 70 -18s37 -29 49 -51s18 -47.333 18 -76s-6 -53.834 -18 -75.501
s-28.333 -38.667 -49 -51s-44 -18.5 -70 -18.5s-49.333 6.16699 -70 18.5s-37 29.333 -49 51s-18 46.834 -18 75.501zM103 530h358v98h-358v-98z" />
    <glyph glyph-name="Obreve" unicode="&#x14e;" horiz-adv-x="803" 
d="M163 350c0 48 10.334 90.833 31.001 128.5s48.834 67.167 84.501 88.5s76.5 32 122.5 32c47.333 0 88.833 -10.667 124.5 -32s63.5 -50.833 83.5 -88.5s30 -80.5 30 -128.5s-10.167 -90.667 -30.5 -128s-48.333 -66.833 -84 -88.5s-76.834 -32.5 -123.501 -32.5
c-46 0 -86.833 10.833 -122.5 32.5s-63.834 51.167 -84.501 88.5s-31 80 -31 128zM38.001 350c0 -52 8.99902 -100.333 26.999 -145s43.333 -83.334 76 -116.001s71.167 -58.167 115.5 -76.5s92.5 -27.5 144.5 -27.5c53.333 0 102 9.16699 146 27.5s82.333 43.833 115 76.5
s58 71.334 76 116.001s27 93 27 145c0 52.667 -9 101 -27 145s-43.5 82.167 -76.5 114.5s-71.5 57.666 -115.5 75.999s-92.333 27.5 -145 27.5c-51.333 0 -99.166 -9.16699 -143.499 -27.5s-83 -43.666 -116 -75.999s-58.5 -70.5 -76.5 -114.5s-27 -92.333 -27 -145z
M241 915c0 -24 6.00098 -47 18.001 -69s30 -39.667 54 -53s53.333 -20 88 -20c35.333 0 65 6.66699 89 20s42 31 54 53s18 45 18 69h-82c0 -10 -2.5 -20.167 -7.5 -30.5s-13.333 -19.333 -25 -27s-27.167 -11.5 -46.5 -11.5c-18.667 0 -33.834 3.83301 -45.501 11.5
s-20 16.667 -25 27s-7.5 20.5 -7.5 30.5h-82z" />
    <glyph glyph-name="obreve" unicode="&#x14f;" horiz-adv-x="564" 
d="M34 230c0 -46.667 10.833 -88.167 32.5 -124.5s51.334 -64.666 89.001 -84.999s79.834 -30.5 126.501 -30.5c47.333 0 89.666 10.167 126.999 30.5s66.833 48.666 88.5 84.999s32.5 77.833 32.5 124.5c0 47.333 -10.833 89 -32.5 125s-51.167 64.167 -88.5 84.5
s-79.666 30.5 -126.999 30.5c-46.667 0 -88.834 -10.167 -126.501 -30.5s-67.334 -48.5 -89.001 -84.5s-32.5 -77.667 -32.5 -125zM145 230c0 28.667 6 54 18 76s28.333 39 49 51s44 18 70 18s49.333 -6 70 -18s37 -29 49 -51s18 -47.333 18 -76s-6 -53.834 -18 -75.501
s-28.333 -38.667 -49 -51s-44 -18.5 -70 -18.5s-49.333 6.16699 -70 18.5s-37 29.333 -49 51s-18 46.834 -18 75.501zM121 673c0 -24.667 6.16504 -47.834 18.498 -69.501s30.5 -39.334 54.5 -53.001s53.333 -20.5 88 -20.5c35.333 0 64.833 6.83301 88.5 20.5
s41.5 31.334 53.5 53.001s18 44.834 18 69.501h-82c0 -10 -2.5 -20.333 -7.5 -31s-13.167 -19.667 -24.5 -27s-26.666 -11 -45.999 -11s-34.666 3.66699 -45.999 11s-19.5 16.333 -24.5 27s-7.5 21 -7.5 31h-83z" />
    <glyph glyph-name="Ohungarumlaut" unicode="&#x150;" horiz-adv-x="803" 
d="M315 773l139 188l-99 24l-108 -192zM488 773l140 188l-100 24l-107 -192zM163 350c0 48 10.334 90.833 31.001 128.5s48.834 67.167 84.501 88.5s76.5 32 122.5 32c47.333 0 88.833 -10.667 124.5 -32s63.5 -50.833 83.5 -88.5s30 -80.5 30 -128.5
s-10.167 -90.667 -30.5 -128s-48.333 -66.833 -84 -88.5s-76.834 -32.5 -123.501 -32.5c-46 0 -86.833 10.833 -122.5 32.5s-63.834 51.167 -84.501 88.5s-31 80 -31 128zM38.001 350c0 -52 8.99902 -100.333 26.999 -145s43.333 -83.334 76 -116.001
s71.167 -58.167 115.5 -76.5s92.5 -27.5 144.5 -27.5c53.333 0 102 9.16699 146 27.5s82.333 43.833 115 76.5s58 71.334 76 116.001s27 93 27 145c0 52.667 -9 101 -27 145s-43.5 82.167 -76.5 114.5s-71.5 57.666 -115.5 75.999s-92.333 27.5 -145 27.5
c-51.333 0 -99.166 -9.16699 -143.499 -27.5s-83 -43.666 -116 -75.999s-58.5 -70.5 -76.5 -114.5s-27 -92.333 -27 -145z" />
    <glyph glyph-name="ohungarumlaut" unicode="&#x151;" horiz-adv-x="564" 
d="M195 531l139 188l-99 24l-108 -192zM368 531l140 188l-100 24l-107 -192zM34 230c0 -46.667 10.833 -88.167 32.5 -124.5s51.334 -64.666 89.001 -84.999s79.834 -30.5 126.501 -30.5c47.333 0 89.666 10.167 126.999 30.5s66.833 48.666 88.5 84.999
s32.5 77.833 32.5 124.5c0 47.333 -10.833 89 -32.5 125s-51.167 64.167 -88.5 84.5s-79.666 30.5 -126.999 30.5c-46.667 0 -88.834 -10.167 -126.501 -30.5s-67.334 -48.5 -89.001 -84.5s-32.5 -77.667 -32.5 -125zM145 230c0 28.667 6 54 18 76s28.333 39 49 51
s44 18 70 18s49.333 -6 70 -18s37 -29 49 -51s18 -47.333 18 -76s-6 -53.834 -18 -75.501s-28.333 -38.667 -49 -51s-44 -18.5 -70 -18.5s-49.333 6.16699 -70 18.5s-37 29.333 -49 51s-18 46.834 -18 75.501z" />
    <glyph glyph-name="OE" unicode="&#x152;" horiz-adv-x="985" 
d="M562 324h347v102h-347v-102zM503 670v-640h116v640h-116zM930 104l-358.003 0.000976562l-24 4h-145c-38 0 -71.833 5.5 -101.5 16.5s-55.167 27 -76.5 48s-37.666 46.5 -48.999 76.5s-17 63.667 -17 101s5.5 71.166 16.5 101.499s27.167 56 48.5 77s47 37 77 48
s64 16.5 102 16.5h148l17 3h361v104h-539c-50.667 0 -97.667 -8.33301 -141 -25s-80.666 -40.5 -111.999 -71.5s-55.666 -68 -72.999 -111s-26 -90.5 -26 -142.5s8.66699 -99.5 26 -142.5s41.833 -80 73.5 -111s69 -54.833 112 -71.5s89.833 -25 140.5 -25h540v104z" />
    <glyph glyph-name="oe" unicode="&#x153;" horiz-adv-x="900" 
d="M750 250v-20.002l114 -25c0.666992 4 1 8.83301 1 14.5v14.5c0 48.667 -9.66699 90.5 -29 125.5s-44.666 62.167 -75.999 81.5s-65.333 29 -102 29c-39.333 0 -74.833 -8 -106.5 -24s-57.5 -38.333 -77.5 -67s-33.333 -62 -40 -100c-1.33301 -8 -2.33301 -16 -3 -24
s-1 -16.333 -1 -25c0 -46 9.33301 -87.167 28 -123.5s44.334 -64.833 77.001 -85.5s69.667 -31 111 -31c33.333 0 63.5 5.33301 90.5 16s50.833 25.334 71.5 44.001s38.334 40.334 53.001 65.001l-93 38c-14.667 -22.667 -32.5 -40.834 -53.5 -54.501
s-46.833 -20.5 -77.5 -20.5c-26.667 0 -49.834 5.83301 -69.501 17.5s-34.834 28.834 -45.501 51.501s-16 50.334 -16 83.001l2 30c0 27.333 5.83301 50.5 17.5 69.5s27.167 33.5 46.5 43.5s40.666 15 63.999 15c25.333 0 46.5 -5.83301 63.5 -17.5
s29.667 -27.834 38 -48.501s12.5 -44.667 12.5 -72zM481 204.998h383l-20 74h-363v-74zM35 229.998c0 -49.333 10.333 -92 31 -128s48.334 -63.667 83.001 -83s72.667 -29 114 -29c42 0 78.167 9.66699 108.5 29s53.666 47 69.999 83s24.5 78.667 24.5 128
c0 50 -8.16699 92.833 -24.5 128.5s-39.666 63.167 -69.999 82.5s-66.5 29 -108.5 29c-41.333 0 -79.333 -9.66699 -114 -29s-62.334 -46.833 -83.001 -82.5s-31 -78.5 -31 -128.5zM144 229.998c0 31.333 6.16699 57.833 18.5 79.5s29 38 50 49s43.833 16.5 68.5 16.5
c21.333 0 41.333 -5.5 60 -16.5s33.667 -27.333 45 -49s17 -48.167 17 -79.5s-5.66699 -57.833 -17 -79.5s-26.333 -38 -45 -49s-38.667 -16.5 -60 -16.5c-24.667 0 -47.5 5.5 -68.5 16.5s-37.667 27.333 -50 49s-18.5 48.167 -18.5 79.5z" />
    <glyph glyph-name="Racute" unicode="&#x154;" horiz-adv-x="595" 
d="M223 334l222 -334h143l-238 334h-127zM78 700v-700h118v700h-118zM148 598l141 -0.000976562c27.333 0 51 -4.66699 71 -14s35.667 -22.666 47 -39.999s17 -38.666 17 -63.999c0 -24.667 -5.66699 -45.834 -17 -63.501s-27 -31 -47 -40s-43.667 -13.5 -71 -13.5h-141v-98
h146c51.333 0 95.666 9 132.999 27s66.5 43.333 87.5 76s31.5 71 31.5 115s-10.5 82.167 -31.5 114.5s-50.167 57.5 -87.5 75.5s-81.666 27 -132.999 27h-146v-102zM431 922.999l-91 45l-150 -160l61 -35z" />
    <glyph glyph-name="racute" unicode="&#x155;" horiz-adv-x="371" 
d="M176 460h-107v-460h107v460zM313 345l53.0029 91.001c-10.667 12.667 -23.334 21.667 -38.001 27s-30.334 8 -47.001 8c-23.333 0 -45.833 -8.5 -67.5 -25.5s-39.334 -39.667 -53.001 -68s-20.5 -60.833 -20.5 -97.5l36 -21c0 22 2.5 41.167 7.5 57.5
s13.167 29.166 24.5 38.499s26 14 44 14c13.333 0 24.5 -2 33.5 -6s18.167 -10 27.5 -18zM359.003 681.001l-90 45l-150 -160l60 -35z" />
    <glyph glyph-name="uni0156" unicode="&#x156;" horiz-adv-x="595" 
d="M223 334l222 -334h143l-238 334h-127zM78 700v-700h118v700h-118zM148 598l141 -0.000976562c27.333 0 51 -4.66699 71 -14s35.667 -22.666 47 -39.999s17 -38.666 17 -63.999c0 -24.667 -5.66699 -45.834 -17 -63.501s-27 -31 -47 -40s-43.667 -13.5 -71 -13.5h-141v-98
h146c51.333 0 95.666 9 132.999 27s66.5 43.333 87.5 76s31.5 71 31.5 115s-10.5 82.167 -31.5 114.5s-50.167 57.5 -87.5 75.5s-81.666 27 -132.999 27h-146v-102zM322 -60.001l-88 -259l81 -22l116 250z" />
    <glyph glyph-name="uni0157" unicode="&#x157;" horiz-adv-x="371" 
d="M176 460h-107v-460h107v460zM313 345l53.0029 91.001c-10.667 12.667 -23.334 21.667 -38.001 27s-30.334 8 -47.001 8c-23.333 0 -45.833 -8.5 -67.5 -25.5s-39.334 -39.667 -53.001 -68s-20.5 -60.833 -20.5 -97.5l36 -21c0 22 2.5 41.167 7.5 57.5
s13.167 29.166 24.5 38.499s26 14 44 14c13.333 0 24.5 -2 33.5 -6s18.167 -10 27.5 -18zM112.003 -59.999l-88 -259l81 -22l116 250z" />
    <glyph glyph-name="Rcaron" unicode="&#x158;" horiz-adv-x="595" 
d="M223 334l222 -334h143l-238 334h-127zM78 700v-700h118v700h-118zM148 598l141 -0.000976562c27.333 0 51 -4.66699 71 -14s35.667 -22.666 47 -39.999s17 -38.666 17 -63.999c0 -24.667 -5.66699 -45.834 -17 -63.501s-27 -31 -47 -40s-43.667 -13.5 -71 -13.5h-141v-98
h146c51.333 0 95.666 9 132.999 27s66.5 43.333 87.5 76s31.5 71 31.5 115s-10.5 82.167 -31.5 114.5s-50.167 57.5 -87.5 75.5s-81.666 27 -132.999 27h-146v-102zM278 873.999l-102 91l-73 -52l175 -140l175 140l-72 52z" />
    <glyph glyph-name="rcaron" unicode="&#x159;" horiz-adv-x="371" 
d="M176 460h-107v-460h107v460zM313 345l53.0029 91.001c-10.667 12.667 -23.334 21.667 -38.001 27s-30.334 8 -47.001 8c-23.333 0 -45.833 -8.5 -67.5 -25.5s-39.334 -39.667 -53.001 -68s-20.5 -60.833 -20.5 -97.5l36 -21c0 22 2.5 41.167 7.5 57.5
s13.167 29.166 24.5 38.499s26 14 44 14c13.333 0 24.5 -2 33.5 -6s18.167 -10 27.5 -18zM217.003 632.001l-103 91l-72 -52l175 -140l175 140l-73 52z" />
    <glyph glyph-name="Sacute" unicode="&#x15a;" horiz-adv-x="579" 
d="M129 236l-91.0029 -58.9951c14.667 -38.667 35 -72.334 61 -101.001s56.333 -51 91 -67s72 -24 112 -24c50 0 92.333 8.33301 127 25s61.334 40.667 80.001 72s28 68.333 28 111c0 31.333 -5.33301 58.5 -16 81.5s-24.667 42.667 -42 59s-36.5 30.166 -57.5 41.499
s-41.833 20.666 -62.5 27.999c-28 10.667 -54.167 21.334 -78.5 32.001s-44.166 23 -59.499 37s-23 31 -23 51c0 17.333 4 32.166 12 44.499s19.667 22 35 29s33.333 10.5 54 10.5c22.667 0 42.334 -4.66699 59.001 -14s31.167 -21.833 43.5 -37.5
s23.5 -32.834 33.5 -51.501l92 57c-9.33301 24 -24 47.667 -44 71s-45.5 42.666 -76.5 57.999s-68.167 23 -111.5 23c-42 0 -79.667 -7.66699 -113 -23s-59.5 -36.833 -78.5 -64.5s-28.5 -59.834 -28.5 -96.501c0 -32 6.16699 -59.5 18.5 -82.5s27.833 -42.333 46.5 -58
s38.5 -28.834 59.5 -39.501s39.833 -19 56.5 -25c26.667 -10 51.834 -20.667 75.501 -32s43 -25.166 58 -41.499s22.5 -37.5 22.5 -63.5c0 -20 -4 -37.167 -12 -51.5s-19.833 -25.166 -35.5 -32.499s-35.167 -11 -58.5 -11c-20.667 0 -39.334 3.33301 -56.001 10
s-32.167 16 -46.5 28s-27.5 27 -39.5 45s-23.667 38.333 -35 61zM474.997 923.005l-91 45l-150 -160l61 -35z" />
    <glyph glyph-name="sacute" unicode="&#x15b;" horiz-adv-x="424" 
d="M88 167l-64.9961 -63.001c10 -22 25.167 -42 45.5 -60s44.166 -32.167 71.499 -42.5s55.666 -15.5 84.999 -15.5c52 0 93.667 11.333 125 34s47 59.334 47 110.001c0 24.667 -6 45.5 -18 62.5s-27.667 31.5 -47 43.5s-40 22.333 -62 31l-53.5 21.5
c-17.667 7 -32.334 14.5 -44.001 22.5s-17.5 17.333 -17.5 28c0 14.667 5.66699 25.167 17 31.5s26.333 9.5 45 9.5c12.667 0 26 -2.33301 40 -7s27.5 -11 40.5 -19s23.833 -17.667 32.5 -29l60 64c-10 15.333 -24.167 29 -42.5 41s-39.166 21.667 -62.499 29
s-47.666 11 -72.999 11c-28 0 -54.333 -4.83301 -79 -14.5s-44.834 -23.834 -60.501 -42.501s-23.5 -41.667 -23.5 -69c0 -26 6.16699 -47.5 18.5 -64.5s28.166 -31 47.499 -42s39.333 -20.833 60 -29.5l52.5 -22c17 -7.33301 31 -15.666 42 -24.999s16.5 -21.333 16.5 -36
c0 -16.667 -5.83301 -28.667 -17.5 -36s-27.834 -11 -48.501 -11c-15.333 0 -31 3.5 -47 10.5s-31.333 17 -46 30s-27.667 29.167 -39 48.5zM392.004 679.999l-91 45l-150 -160l61 -35z" />
    <glyph glyph-name="Scircumflex" unicode="&#x15c;" horiz-adv-x="579" 
d="M129 236l-91.0029 -58.9951c14.667 -38.667 35 -72.334 61 -101.001s56.333 -51 91 -67s72 -24 112 -24c50 0 92.333 8.33301 127 25s61.334 40.667 80.001 72s28 68.333 28 111c0 31.333 -5.33301 58.5 -16 81.5s-24.667 42.667 -42 59s-36.5 30.166 -57.5 41.499
s-41.833 20.666 -62.5 27.999c-28 10.667 -54.167 21.334 -78.5 32.001s-44.166 23 -59.499 37s-23 31 -23 51c0 17.333 4 32.166 12 44.499s19.667 22 35 29s33.333 10.5 54 10.5c22.667 0 42.334 -4.66699 59.001 -14s31.167 -21.833 43.5 -37.5
s23.5 -32.834 33.5 -51.501l92 57c-9.33301 24 -24 47.667 -44 71s-45.5 42.666 -76.5 57.999s-68.167 23 -111.5 23c-42 0 -79.667 -7.66699 -113 -23s-59.5 -36.833 -78.5 -64.5s-28.5 -59.834 -28.5 -96.501c0 -32 6.16699 -59.5 18.5 -82.5s27.833 -42.333 46.5 -58
s38.5 -28.834 59.5 -39.501s39.833 -19 56.5 -25c26.667 -10 51.834 -20.667 75.501 -32s43 -25.166 58 -41.499s22.5 -37.5 22.5 -63.5c0 -20 -4 -37.167 -12 -51.5s-19.833 -25.166 -35.5 -32.499s-35.167 -11 -58.5 -11c-20.667 0 -39.334 3.33301 -56.001 10
s-32.167 16 -46.5 28s-27.5 27 -39.5 45s-23.667 38.333 -35 61zM294.997 864.005l103 -91l72 52l-175 140l-175 -140l73 -52z" />
    <glyph glyph-name="scircumflex" unicode="&#x15d;" horiz-adv-x="424" 
d="M88 167l-64.9961 -63.001c10 -22 25.167 -42 45.5 -60s44.166 -32.167 71.499 -42.5s55.666 -15.5 84.999 -15.5c52 0 93.667 11.333 125 34s47 59.334 47 110.001c0 24.667 -6 45.5 -18 62.5s-27.667 31.5 -47 43.5s-40 22.333 -62 31l-53.5 21.5
c-17.667 7 -32.334 14.5 -44.001 22.5s-17.5 17.333 -17.5 28c0 14.667 5.66699 25.167 17 31.5s26.333 9.5 45 9.5c12.667 0 26 -2.33301 40 -7s27.5 -11 40.5 -19s23.833 -17.667 32.5 -29l60 64c-10 15.333 -24.167 29 -42.5 41s-39.166 21.667 -62.499 29
s-47.666 11 -72.999 11c-28 0 -54.333 -4.83301 -79 -14.5s-44.834 -23.834 -60.501 -42.501s-23.5 -41.667 -23.5 -69c0 -26 6.16699 -47.5 18.5 -64.5s28.166 -31 47.499 -42s39.333 -20.833 60 -29.5l52.5 -22c17 -7.33301 31 -15.666 42 -24.999s16.5 -21.333 16.5 -36
c0 -16.667 -5.83301 -28.667 -17.5 -36s-27.834 -11 -48.501 -11c-15.333 0 -31 3.5 -47 10.5s-31.333 17 -46 30s-27.667 29.167 -39 48.5zM217.004 621.999l102 -92l73 53l-175 140l-175 -140l72 -53z" />
    <glyph glyph-name="Scedilla" unicode="&#x15e;" horiz-adv-x="579" 
d="M129 236l-91.002 -58.9971c14.667 -38.667 35 -72.334 61 -101.001s56.333 -51 91 -67s72 -24 112 -24c47.333 0 88.5 8.33301 123.5 25s62.333 40.667 82 72s29.5 68.333 29.5 111c0 31.333 -5.33301 58.5 -16 81.5s-24.667 42.667 -42 59s-36.5 30.166 -57.5 41.499
s-41.833 20.666 -62.5 27.999c-28 10.667 -54.167 21.334 -78.5 32.001s-44.166 23 -59.499 37s-23 31 -23 51c0 17.333 3.5 32.166 10.5 44.499s17.5 22 31.5 29s31 10.5 51 10.5c23.333 0 43.833 -4.66699 61.5 -14s33.334 -21.833 47.001 -37.5
s25.5 -32.834 35.5 -51.501l92 57c-11.333 26.667 -27 51.5 -47 74.5s-45 41.667 -75 56s-66.667 21.5 -110 21.5c-44.667 0 -83.5 -8 -116.5 -24s-58.5 -38 -76.5 -66s-27 -60.667 -27 -98c0 -33.333 6.16699 -61.5 18.5 -84.5s27.833 -41.833 46.5 -56.5
s38.5 -26.834 59.5 -36.501s39.833 -17.5 56.5 -23.5c26.667 -10 51.834 -20.667 75.501 -32s43 -25.166 58 -41.499s22.5 -37.5 22.5 -63.5c0 -20 -4 -37.167 -12 -51.5s-19.833 -25.166 -35.5 -32.499s-35.167 -11 -58.5 -11c-20.667 0 -39.334 3.33301 -56.001 10
s-32.167 16 -46.5 28s-27.5 27 -39.5 45s-23.667 38.333 -35 61zM296.998 60.0029l-87.002 -178.999c13.333 7.33301 26.833 12 40.5 14s22.834 3 27.501 3c16.667 0 29.834 -2.5 39.501 -7.5s14.5 -13.833 14.5 -26.5c0 -12 -4.33301 -21.333 -13 -28s-21.667 -10 -39 -10
c-11.333 0 -22.333 2 -33 6s-21.334 10 -32.001 18l-39 -51c18 -14.667 35.667 -24.834 53 -30.501s37 -8.5 59 -8.5c20 0 38.667 3.83301 56 11.5s31.666 19 42.999 34s17 33.167 17 54.5c0 19.333 -4.16699 35 -12.5 47s-18.5 21.167 -30.5 27.5s-24.333 9.5 -37 9.5
c-3.33301 0 -6.66602 -0.166992 -9.99902 -0.5s-6.66602 -0.833008 -9.99902 -1.5l73 116z" />
    <glyph glyph-name="scedilla" unicode="&#x15f;" horiz-adv-x="424" 
d="M86 168l-62.999 -63.002c15.333 -22.667 33.666 -42.834 54.999 -60.501s45 -31.667 71 -42s54 -15.5 84 -15.5c48 0 87.333 11.333 118 34s46 59.334 46 110.001c0 26.667 -6 48.667 -18 66s-27.667 31.833 -47 43.5s-40 21.834 -62 30.501
c-18 7.33301 -35.667 14 -53 20s-31.833 13 -43.5 21s-17.5 18.667 -17.5 32c0 14.667 6 25.167 18 31.5s27 9.5 45 9.5c18.667 0 38.5 -5.83301 59.5 -17.5s38.167 -25.5 51.5 -41.5l60 64c-18.667 22.667 -43.5 41.834 -74.5 57.501s-65.5 23.5 -103.5 23.5
c-28 0 -54 -4.66699 -78 -14s-43.333 -23.333 -58 -42s-22 -42.334 -22 -71.001c0 -29.333 6.5 -52.666 19.5 -69.999s29.5 -31 49.5 -41s40.667 -19 62 -27c18 -6.66699 34.5 -13.5 49.5 -20.5s27.333 -15.333 37 -25s14.5 -21.5 14.5 -35.5c0 -16 -5.83301 -28 -17.5 -36
s-26.5 -12 -44.5 -12c-12.667 0 -26.5 3.5 -41.5 10.5s-30.833 17.167 -47.5 30.5s-33 30 -49 50zM224.001 61.998l-85.001 -178.999c13.333 7.33301 26.5 12 39.5 14s21.833 3 26.5 3c16.667 0 30 -2.5 40 -7.5s15 -13.833 15 -26.5c0 -12 -4.33301 -21.333 -13 -28
s-21.667 -10 -39 -10c-11.333 0 -22.333 2 -33 6s-21.334 10 -32.001 18l-37 -51c17.333 -14.667 34.333 -24.834 51 -30.501s36.334 -8.5 59.001 -8.5c19.333 0 38 3.83301 56 11.5s32.667 19 44 34s17 33.167 17 54.5c0 19.333 -4.16699 35 -12.5 47
s-18.833 21.167 -31.5 27.5s-25 9.5 -37 9.5c-3.33301 0 -6.66602 -0.166992 -9.99902 -0.5s-6.33301 -0.833008 -9 -1.5l73 116z" />
    <glyph glyph-name="Scaron" unicode="&#x160;" horiz-adv-x="579" 
d="M129 236l-91.0029 -58.9951c14.667 -38.667 35 -72.334 61 -101.001s56.333 -51 91 -67s72 -24 112 -24c50 0 92.333 8.33301 127 25s61.334 40.667 80.001 72s28 68.333 28 111c0 31.333 -5.33301 58.5 -16 81.5s-24.667 42.667 -42 59s-36.5 30.166 -57.5 41.499
s-41.833 20.666 -62.5 27.999c-28 10.667 -54.167 21.334 -78.5 32.001s-44.166 23 -59.499 37s-23 31 -23 51c0 17.333 4 32.166 12 44.499s19.667 22 35 29s33.333 10.5 54 10.5c22.667 0 42.334 -4.66699 59.001 -14s31.167 -21.833 43.5 -37.5
s23.5 -32.834 33.5 -51.501l92 57c-9.33301 24 -24 47.667 -44 71s-45.5 42.666 -76.5 57.999s-68.167 23 -111.5 23c-42 0 -79.667 -7.66699 -113 -23s-59.5 -36.833 -78.5 -64.5s-28.5 -59.834 -28.5 -96.501c0 -32 6.16699 -59.5 18.5 -82.5s27.833 -42.333 46.5 -58
s38.5 -28.834 59.5 -39.501s39.833 -19 56.5 -25c26.667 -10 51.834 -20.667 75.501 -32s43 -25.166 58 -41.499s22.5 -37.5 22.5 -63.5c0 -20 -4 -37.167 -12 -51.5s-19.833 -25.166 -35.5 -32.499s-35.167 -11 -58.5 -11c-20.667 0 -39.334 3.33301 -56.001 10
s-32.167 16 -46.5 28s-27.5 27 -39.5 45s-23.667 38.333 -35 61zM294.997 874.005l-102 91l-73 -52l175 -140l175 140l-72 52z" />
    <glyph glyph-name="scaron" unicode="&#x161;" horiz-adv-x="424" 
d="M88 167l-64.9961 -63.001c10 -22 25.167 -42 45.5 -60s44.166 -32.167 71.499 -42.5s55.666 -15.5 84.999 -15.5c52 0 93.667 11.333 125 34s47 59.334 47 110.001c0 24.667 -6 45.5 -18 62.5s-27.667 31.5 -47 43.5s-40 22.333 -62 31l-53.5 21.5
c-17.667 7 -32.334 14.5 -44.001 22.5s-17.5 17.333 -17.5 28c0 14.667 5.66699 25.167 17 31.5s26.333 9.5 45 9.5c12.667 0 26 -2.33301 40 -7s27.5 -11 40.5 -19s23.833 -17.667 32.5 -29l60 64c-10 15.333 -24.167 29 -42.5 41s-39.166 21.667 -62.499 29
s-47.666 11 -72.999 11c-28 0 -54.333 -4.83301 -79 -14.5s-44.834 -23.834 -60.501 -42.501s-23.5 -41.667 -23.5 -69c0 -26 6.16699 -47.5 18.5 -64.5s28.166 -31 47.499 -42s39.333 -20.833 60 -29.5l52.5 -22c17 -7.33301 31 -15.666 42 -24.999s16.5 -21.333 16.5 -36
c0 -16.667 -5.83301 -28.667 -17.5 -36s-27.834 -11 -48.501 -11c-15.333 0 -31 3.5 -47 10.5s-31.333 17 -46 30s-27.667 29.167 -39 48.5zM212.004 626.999l-103 91l-72 -53l175 -140l175 140l-73 53z" />
    <glyph glyph-name="uni0162" unicode="&#x162;" horiz-adv-x="504" 
d="M212 10l-86.001 -178.999c13.333 7.33301 26.666 12 39.999 14s22.333 3 27 3c16.667 0 29.834 -2.66699 39.501 -8s14.5 -14 14.5 -26s-4.16699 -21.333 -12.5 -28s-21.166 -10 -38.499 -10c-12 0 -23.167 1.83301 -33.5 5.5s-20.833 9.83398 -31.5 18.501l-38 -51
c17.333 -14.667 34.5 -24.834 51.5 -30.501s36.833 -8.5 59.5 -8.5c19.333 0 37.833 3.83301 55.5 11.5s32.167 19 43.5 34s17 33.167 17 54.5c0 18.667 -4.16699 34.167 -12.5 46.5s-18.666 21.666 -30.999 27.999s-24.5 9.5 -36.5 9.5
c-3.33301 0 -6.83301 -0.166992 -10.5 -0.5s-6.83398 -0.833008 -9.50098 -1.5l73 116zM7.99902 591.001h185v-591h118v591h185v109h-488v-109z" />
    <glyph glyph-name="uni0163" unicode="&#x163;" horiz-adv-x="271" 
d="M96 10l-86.001 -178.999c13.333 7.33301 26.666 12 39.999 14s22.333 3 27 3c16.667 0 29.834 -2.66699 39.501 -8s14.5 -14 14.5 -26s-4.16699 -21.333 -12.5 -28s-21.166 -10 -38.499 -10c-12 0 -23.167 1.83301 -33.5 5.5s-20.833 9.83398 -31.5 18.501l-38 -51
c17.333 -14.667 34.5 -24.834 51.5 -30.501s36.833 -8.5 59.5 -8.5c19.333 0 37.833 3.83301 55.5 11.5s32.167 19 43.5 34s17 33.167 17 54.5c0 18.667 -4.16699 34.167 -12.5 46.5s-18.666 21.666 -30.999 27.999s-24.5 9.5 -36.5 9.5
c-3.33301 0 -6.83301 -0.166992 -10.5 -0.5s-6.83398 -0.833008 -9.50098 -1.5l73 116zM4.99902 460.001v-95h261v95h-261zM82.999 620.001v-620h106v620h-106z" />
    <glyph glyph-name="Tcaron" unicode="&#x164;" horiz-adv-x="504" 
d="M8 591h185v-591h118v591h185v109h-488v-109zM252 874l-102 91l-73 -52l175 -140l175 140l-72 52z" />
    <glyph glyph-name="tcaron" unicode="&#x165;" horiz-adv-x="404" 
d="M5 460v-95h261v95h-261zM83 620v-620h106v620h-106zM329 801l-88 -259l81 -22l116 250z" />
    <glyph glyph-name="Tbar" unicode="&#x166;" horiz-adv-x="504" 
d="M82.875 349h322.878v97h-322.878v-97zM8 591h185v-591h118v591h185v109h-488v-109z" />
    <glyph glyph-name="tbar" unicode="&#x167;" horiz-adv-x="271" 
d="M20 177h205v97h-205v-97zM5 460v-95h261v95h-261zM83 620v-620h106v620h-106z" />
    <glyph glyph-name="Utilde" unicode="&#x168;" horiz-adv-x="656" 
d="M73 700l0.00195312 -470c0 -38.667 6.16699 -73.167 18.5 -103.5s29.833 -56.166 52.5 -77.499s49.667 -37.666 81 -48.999s65.666 -17 102.999 -17s71.666 5.66699 102.999 17s58.5 27.666 81.5 48.999s40.667 47.166 53 77.499s18.5 64.833 18.5 103.5v470h-119v-465
c0 -42.667 -11.5 -77.334 -34.5 -104.001s-57.167 -40 -102.5 -40c-44.667 0 -78.667 13.333 -102 40s-35 61.334 -35 104.001v465h-118zM151.002 821l60 -47c0 5.33301 1.33301 12 4 20s7.5 15.167 14.5 21.5s17.167 9.5 30.5 9.5c16 0 30 -4 42 -12l38.5 -24.5
c13.667 -8.33301 29.5 -12.5 47.5 -12.5c18.667 0 35.834 3.83301 51.501 11.5s29.334 17.667 41.001 30s20.167 24.5 25.5 36.5l-56 55c-10 -16 -19.833 -28.333 -29.5 -37s-19.834 -13 -30.501 -13c-14 0 -25.5 2.5 -34.5 7.5s-17.667 10.667 -26 17s-17.833 12 -28.5 17
s-24 7.5 -40 7.5c-17.333 0 -33.833 -3.83301 -49.5 -11.5s-28.834 -18 -39.501 -31s-17.667 -27.833 -21 -44.5z" />
    <glyph glyph-name="utilde" unicode="&#x169;" horiz-adv-x="545" 
d="M368 0h108v460h-108v-460zM180 180l0.000976562 280.001h-111v-292c0 -58.667 14 -103 42 -133s67.333 -45 118 -45c34.667 0 64.167 8.5 88.5 25.5s43.166 40 56.499 69s20 61.833 20 98.5l-26 -3c0 -20 -4.33301 -37.833 -13 -53.5s-20.667 -27.834 -36 -36.501
s-33 -13 -53 -13c-30 0 -51.833 8.83301 -65.5 26.5s-20.5 43.167 -20.5 76.5zM96.001 579.001l60.001 -46.999c0 5.33301 1.16699 12 3.5 20s7.16602 15.167 14.499 21.5s17.666 9.5 30.999 9.5c15.333 0 29.166 -4.16699 41.499 -12.5l38.5 -25
c13.333 -8.33301 29.333 -12.5 48 -12.5s35.834 4 51.501 12s29.167 18 40.5 30s20 24 26 36l-56 56c-10 -16 -19.833 -28.333 -29.5 -37s-19.834 -13 -30.501 -13c-14 0 -25.667 2.5 -35 7.5s-18.166 10.667 -26.499 17s-17.666 12 -27.999 17s-23.5 7.5 -39.5 7.5
c-18 0 -34.667 -4 -50 -12s-28.333 -18.333 -39 -31s-17.667 -27.334 -21 -44.001z" />
    <glyph glyph-name="Umacron" unicode="&#x16a;" horiz-adv-x="656" 
d="M73 700l0.00195312 -470c0 -38.667 6.16699 -73.167 18.5 -103.5s29.833 -56.166 52.5 -77.499s49.667 -37.666 81 -48.999s65.666 -17 102.999 -17s71.666 5.66699 102.999 17s58.5 27.666 81.5 48.999s40.667 47.166 53 77.499s18.5 64.833 18.5 103.5v470h-119v-465
c0 -42.667 -11.5 -77.334 -34.5 -104.001s-57.167 -40 -102.5 -40c-44.667 0 -78.667 13.333 -102 40s-35 61.334 -35 104.001v465h-118zM149.002 773h359v97h-359v-97z" />
    <glyph glyph-name="umacron" unicode="&#x16b;" horiz-adv-x="545" 
d="M368 0h108v460h-108v-460zM180 180l0.000976562 280.001h-111v-292c0 -58.667 14 -103 42 -133s67.333 -45 118 -45c34.667 0 64.167 8.5 88.5 25.5s43.166 40 56.499 69s20 61.833 20 98.5l-26 -3c0 -20 -4.33301 -37.833 -13 -53.5s-20.667 -27.834 -36 -36.501
s-33 -13 -53 -13c-30 0 -51.833 8.83301 -65.5 26.5s-20.5 43.167 -20.5 76.5zM94.001 530.001h358v98h-358v-98z" />
    <glyph glyph-name="Ubreve" unicode="&#x16c;" horiz-adv-x="656" 
d="M73 700l0.00195312 -470c0 -38.667 6.16699 -73.167 18.5 -103.5s29.833 -56.166 52.5 -77.499s49.667 -37.666 81 -48.999s65.666 -17 102.999 -17s71.666 5.66699 102.999 17s58.5 27.666 81.5 48.999s40.667 47.166 53 77.499s18.5 64.833 18.5 103.5v470h-119v-465
c0 -42.667 -11.5 -77.334 -34.5 -104.001s-57.167 -40 -102.5 -40c-44.667 0 -78.667 13.333 -102 40s-35 61.334 -35 104.001v465h-118zM168.002 915c0 -24 5.99805 -47 17.998 -69s30 -39.667 54 -53s53.333 -20 88 -20c35.333 0 64.833 6.66699 88.5 20s41.667 31 54 53
s18.5 45 18.5 69h-83c0 -10 -2.5 -20.167 -7.5 -30.5s-13.167 -19.333 -24.5 -27s-26.666 -11.5 -45.999 -11.5s-34.666 3.83301 -45.999 11.5s-19.5 16.667 -24.5 27s-7.5 20.5 -7.5 30.5h-82z" />
    <glyph glyph-name="ubreve" unicode="&#x16d;" horiz-adv-x="545" 
d="M368 0h108v460h-108v-460zM180 180l0.000976562 280.001h-111v-292c0 -58.667 14 -103 42 -133s67.333 -45 118 -45c34.667 0 64.167 8.5 88.5 25.5s43.166 40 56.499 69s20 61.833 20 98.5l-26 -3c0 -20 -4.33301 -37.833 -13 -53.5s-20.667 -27.834 -36 -36.501
s-33 -13 -53 -13c-30 0 -51.833 8.83301 -65.5 26.5s-20.5 43.167 -20.5 76.5zM113.001 673.001c0 -24.667 5.99609 -47.834 17.9961 -69.501s29.833 -39.334 53.5 -53.001s53.167 -20.5 88.5 -20.5c34.667 0 63.834 6.83301 87.501 20.5s41.834 31.334 54.501 53.001
s19 44.834 19 69.501h-83c0 -10 -2.5 -20.333 -7.5 -31s-13.167 -19.667 -24.5 -27s-26.666 -11 -45.999 -11s-34.666 3.66699 -45.999 11s-19.5 16.333 -24.5 27s-7.5 21 -7.5 31h-82z" />
    <glyph glyph-name="Uring" unicode="&#x16e;" horiz-adv-x="656" 
d="M73 700l0.00195312 -470c0 -38.667 6.16699 -73.167 18.5 -103.5s29.833 -56.166 52.5 -77.499s49.667 -37.666 81 -48.999s65.666 -17 102.999 -17s71.666 5.66699 102.999 17s58.5 27.666 81.5 48.999s40.667 47.166 53 77.499s18.5 64.833 18.5 103.5v470h-119v-465
c0 -42.667 -11.5 -77.334 -34.5 -104.001s-57.167 -40 -102.5 -40c-44.667 0 -78.667 13.333 -102 40s-35 61.334 -35 104.001v465h-118zM217.002 879c0 -32 11.167 -57.667 33.5 -77s48.166 -29 77.499 -29s55.166 9.66699 77.499 29s33.5 45 33.5 77
s-11.167 57.667 -33.5 77s-48.166 29 -77.499 29s-55.166 -9.66699 -77.499 -29s-33.5 -45 -33.5 -77zM279.002 879c0 16 5 28.5 15 37.5s21.333 13.5 34 13.5s24 -4.5 34 -13.5s15 -21.5 15 -37.5s-5 -28.5 -15 -37.5s-21.333 -13.5 -34 -13.5s-24 4.5 -34 13.5
s-15 21.5 -15 37.5z" />
    <glyph glyph-name="uring" unicode="&#x16f;" horiz-adv-x="545" 
d="M368 0h108v460h-108v-460zM180 180l0.000976562 280.001h-111v-292c0 -58.667 14 -103 42 -133s67.333 -45 118 -45c34.667 0 64.167 8.5 88.5 25.5s43.166 40 56.499 69s20 61.833 20 98.5l-26 -3c0 -20 -4.33301 -37.833 -13 -53.5s-20.667 -27.834 -36 -36.501
s-33 -13 -53 -13c-30 0 -51.833 8.83301 -65.5 26.5s-20.5 43.167 -20.5 76.5zM162.001 637.001c0 -32 11.167 -57.833 33.5 -77.5s48.166 -29.5 77.499 -29.5s55.166 9.83301 77.499 29.5s33.5 45.5 33.5 77.5c0 31.333 -11.167 56.833 -33.5 76.5
s-48.166 29.5 -77.499 29.5s-55.166 -9.83301 -77.499 -29.5s-33.5 -45.167 -33.5 -76.5zM224.001 637.001c0 16 5 28.5 15 37.5s21.333 13.5 34 13.5c12 0 23.167 -4.5 33.5 -13.5s15.5 -21.5 15.5 -37.5s-5.16699 -28.5 -15.5 -37.5s-21.5 -13.5 -33.5 -13.5
c-12.667 0 -24 4.5 -34 13.5s-15 21.5 -15 37.5z" />
    <glyph glyph-name="Uhungarumlaut" unicode="&#x170;" horiz-adv-x="656" 
d="M241 773l139 188l-99 24l-108 -192zM414 773l140 188l-100 24l-107 -192zM73 700l0.00195312 -470c0 -38.667 6.16699 -73.167 18.5 -103.5s29.833 -56.166 52.5 -77.499s49.667 -37.666 81 -48.999s65.666 -17 102.999 -17s71.666 5.66699 102.999 17
s58.5 27.666 81.5 48.999s40.667 47.166 53 77.499s18.5 64.833 18.5 103.5v470h-119v-465c0 -42.667 -11.5 -77.334 -34.5 -104.001s-57.167 -40 -102.5 -40c-44.667 0 -78.667 13.333 -102 40s-35 61.334 -35 104.001v465h-118z" />
    <glyph glyph-name="uhungarumlaut" unicode="&#x171;" horiz-adv-x="545" 
d="M186 531l139 188l-99 24l-108 -192zM359 531l140 188l-100 24l-107 -192zM180 180v279.999h-111v-292c0 -54.667 13.833 -98 41.5 -130s67.167 -48 118.5 -48c32 0 59.5 6.83301 82.5 20.5s41.833 33.834 56.5 60.501v-71h108v460h-108v-280
c0 -20.667 -4.33301 -38.667 -13 -54s-20.667 -27.333 -36 -36s-33 -13 -53 -13c-29.333 0 -51 9 -65 27s-21 43.333 -21 76z" />
    <glyph glyph-name="Uogonek" unicode="&#x172;" horiz-adv-x="656" 
d="M373 -131c-6.66699 -6.66699 -13.667 -11.667 -21 -15s-17 -5 -29 -5c-13.333 0 -23.833 3.5 -31.5 10.5s-11.5 18.5 -11.5 34.5c0 11.333 3.83301 22.833 11.5 34.5s18 23 31 34s28.167 20.5 45.5 28.5l-41 25c-23.333 -12 -45.166 -25.333 -65.499 -40
s-36.833 -30.667 -49.5 -48s-19 -36.333 -19 -57c0 -20 4.66699 -37.667 14 -53s23 -27 41 -35s39.667 -12 65 -12c24 0 43.667 4.16699 59 12.5s26.666 17.5 33.999 27.5zM73 700l0.00195312 -470c0 -38.667 6.16699 -73.167 18.5 -103.5s29.833 -56.166 52.5 -77.499
s49.667 -37.666 81 -48.999s65.666 -17 102.999 -17s71.666 5.66699 102.999 17s58.5 27.666 81.5 48.999s40.667 47.166 53 77.499s18.5 64.833 18.5 103.5v470h-119v-465c0 -42.667 -11.5 -77.334 -34.5 -104.001s-57.167 -40 -102.5 -40
c-44.667 0 -78.667 13.333 -102 40s-35 61.334 -35 104.001v465h-118z" />
    <glyph glyph-name="uogonek" unicode="&#x173;" horiz-adv-x="545" 
d="M278 -118c-6.66699 -6.66699 -13.667 -11.667 -21 -15s-17 -5 -29 -5c-13.333 0 -23.833 3.5 -31.5 10.5s-11.5 18.5 -11.5 34.5c0 11.333 3.83301 22.833 11.5 34.5s18 23 31 34s28.167 20.5 45.5 28.5l-41 25c-23.333 -12 -45.166 -25.333 -65.499 -40
s-36.833 -30.667 -49.5 -48s-19 -36.333 -19 -57c0 -20 4.66699 -37.667 14 -53s23 -27 41 -35s39.667 -12 65 -12c24 0 43.667 4.16699 59 12.5s26.666 17.5 33.999 27.5zM180 180v279.999h-111v-292c0 -54.667 13.833 -98 41.5 -130s67.167 -48 118.5 -48
c32 0 59.5 6.83301 82.5 20.5s41.833 33.834 56.5 60.501v-71h108v460h-108v-280c0 -20.667 -4.33301 -38.667 -13 -54s-20.667 -27.333 -36 -36s-33 -13 -53 -13c-29.333 0 -51 9 -65 27s-21 43.333 -21 76z" />
    <glyph glyph-name="Wcircumflex" unicode="&#x174;" horiz-adv-x="1020" 
d="M712 219l-202 516l-202 -516l-163 481h-137l286 -737l216 495l216 -495l287 737h-138zM510 886l103 -91l72 53l-175 140l-175 -140l73 -53z" />
    <glyph glyph-name="wcircumflex" unicode="&#x175;" horiz-adv-x="713" 
d="M0 460l215 -492l138 310l145 -310l215 492h-118l-108 -275l-134 310l-128 -308l-107 273h-118zM353 646l102 -91l73 53l-175 140l-175 -140l72 -53z" />
    <glyph glyph-name="Ycircumflex" unicode="&#x176;" horiz-adv-x="601" 
d="M463 700l-163 -299l-162 299h-135l238 -406v-294h120v295l237 405h-135zM301 864l102 -91l73 52l-175 140l-175 -140l72 -52z" />
    <glyph glyph-name="ycircumflex" unicode="&#x177;" horiz-adv-x="473" 
d="M476 460h-116l-144 -361l51 -3l-147 364h-124l186 -406l-121 -274h115zM236 622l103 -92l72 53l-175 140l-175 -140l73 -53z" />
    <glyph glyph-name="Ydieresis" unicode="&#x178;" horiz-adv-x="601" 
d="M116 843c0 -18.667 6.66699 -34.334 20 -47.001s29.333 -19 48 -19s34.834 6.33301 48.501 19s20.5 28.334 20.5 47.001s-6.83301 34.167 -20.5 46.5s-29.834 18.5 -48.501 18.5s-34.667 -6.16699 -48 -18.5s-20 -27.833 -20 -46.5zM349 843
c0 -18.667 6.66699 -34.334 20 -47.001s29 -19 47 -19c19.333 0 35.666 6.33301 48.999 19s20 28.334 20 47.001s-6.66699 34.167 -20 46.5s-29.666 18.5 -48.999 18.5c-18 0 -33.667 -6.16699 -47 -18.5s-20 -27.833 -20 -46.5zM463 700l-163 -299l-162 299h-135l238 -406
v-294h120v295l237 405h-135z" />
    <glyph glyph-name="Zacute" unicode="&#x179;" horiz-adv-x="575" 
d="M44 591h320l-351 -591h518v106h-326l353 594h-514v-109zM466 923l-92 45l-150 -160l62 -35z" />
    <glyph glyph-name="zacute" unicode="&#x17a;" horiz-adv-x="485" 
d="M283 360l-268 -360h430v100h-238l263 360h-420v-100h233zM425 695l-91 45l-150 -160l61 -35z" />
    <glyph glyph-name="Zdotaccent" unicode="&#x17b;" horiz-adv-x="575" 
d="M44 591h320l-351 -591h518v106h-326l353 594h-514v-109zM232 838c0 -18 6.83301 -33.333 20.5 -46s29.834 -19 48.501 -19s34.667 6.33301 48 19s20 28 20 46c0 19.333 -6.66699 35.166 -20 47.499s-29.333 18.5 -48 18.5s-34.834 -6.16699 -48.501 -18.5
s-20.5 -28.166 -20.5 -47.499z" />
    <glyph glyph-name="zdotaccent" unicode="&#x17c;" horiz-adv-x="485" 
d="M283 360l-268 -360h430v100h-238l263 360h-420v-100h233zM192 619c0 -18.667 6.66699 -34.334 20 -47.001s29.333 -19 48 -19c19.333 0 35.5 6.33301 48.5 19s19.5 28.334 19.5 47.001s-6.5 34.167 -19.5 46.5s-29.167 18.5 -48.5 18.5
c-18.667 0 -34.667 -6.16699 -48 -18.5s-20 -27.833 -20 -46.5z" />
    <glyph glyph-name="Zcaron" unicode="&#x17d;" horiz-adv-x="575" 
d="M44 591h320l-351 -591h518v106h-326l353 594h-514v-109zM301 874l-103 91l-72 -52l175 -140l175 140l-73 52z" />
    <glyph glyph-name="zcaron" unicode="&#x17e;" horiz-adv-x="483" 
d="M260 632l-102 91l-73 -53l175 -140l175 140l-72 53zM283 360l-268 -360h430v100h-238l263 360h-420v-100h233z" />
    <glyph glyph-name="florin" unicode="&#x192;" 
d="M200 -200c27.333 -0.666992 51.666 5.66504 72.999 18.998s38.333 32.333 51 57s20 54 22 88l21 401h83l6 95h-84l10 149c1.33301 26 6.33301 46.167 15 60.5s20.334 21.5 35.001 21.5c6 0 12.333 -1.83301 19 -5.5s15 -10.5 25 -20.5l49 80
c-19.333 17.333 -37 29.333 -53 36s-33 10.334 -51 11.001c-41.333 0.666992 -75.166 -13.833 -101.499 -43.5s-41.166 -70.167 -44.499 -121.5l-9 -167h-62l-7 -95h64l-22 -383c-1.33301 -25.333 -6.33301 -45.166 -15 -59.499s-20.334 -21.5 -35.001 -21.5
c-6.66699 0 -13.167 1.83301 -19.5 5.5s-14.833 10.167 -25.5 19.5l-49 -80c20 -16 38.167 -27.5 54.5 -34.5s33.166 -10.833 50.499 -11.5z" />
    <glyph glyph-name="uni0212" unicode="&#x212;" horiz-adv-x="595" 
d="M223 334l222 -334h143l-238 334h-127zM78 700v-700h118v700h-118zM148 598l141 -0.000976562c27.333 0 51 -4.66699 71 -14s35.667 -22.666 47 -39.999s17 -38.666 17 -63.999c0 -24.667 -5.66699 -45.834 -17 -63.501s-27 -31 -47 -40s-43.667 -13.5 -71 -13.5h-141v-98
h146c51.333 0 95.666 9 132.999 27s66.5 43.333 87.5 76s31.5 71 31.5 115s-10.5 82.167 -31.5 114.5s-50.167 57.5 -87.5 75.5s-81.666 27 -132.999 27h-146v-102zM135 772.999c0 24.667 6.16504 47.834 18.498 69.501s30.5 39.167 54.5 52.5s53.333 20 88 20
c35.333 0 64.833 -6.66699 88.5 -20s41.5 -30.833 53.5 -52.5s18 -44.834 18 -69.501h-82c0 10 -2.5 20.167 -7.5 30.5s-13.167 19.166 -24.5 26.499s-26.666 11 -45.999 11s-34.666 -3.66699 -45.999 -11s-19.5 -16.166 -24.5 -26.499s-7.5 -20.5 -7.5 -30.5h-83z" />
    <glyph glyph-name="uni0213" unicode="&#x213;" horiz-adv-x="371" 
d="M176 460h-107v-460h107v460zM313 345l53.0029 91.001c-10.667 12.667 -23.334 21.667 -38.001 27s-30.334 8 -47.001 8c-23.333 0 -45.833 -8.5 -67.5 -25.5s-39.334 -39.667 -53.001 -68s-20.5 -60.833 -20.5 -97.5l36 -21c0 22 2.5 41.167 7.5 57.5
s13.167 29.166 24.5 38.499s26 14 44 14c13.333 0 24.5 -2 33.5 -6s18.167 -10 27.5 -18zM57.0029 531.001c0 24.667 6.00098 47.834 18.001 69.501s30.167 39.167 54.5 52.5s53.833 20 88.5 20c35.333 0 64.833 -6.66699 88.5 -20s41.5 -30.833 53.5 -52.5
s18 -44.834 18 -69.501h-82c0 10 -2.5 20.167 -7.5 30.5s-13.333 19.166 -25 26.499s-26.834 11 -45.501 11c-19.333 0 -34.833 -3.66699 -46.5 -11s-20 -16.166 -25 -26.499s-7.5 -20.5 -7.5 -30.5h-82z" />
    <glyph glyph-name="uni0218" unicode="&#x218;" horiz-adv-x="579" 
d="M129 236l-91.0029 -58.9951c14.667 -38.667 35 -72.334 61 -101.001s56.333 -51 91 -67s72 -24 112 -24c50 0 92.333 8.33301 127 25s61.334 40.667 80.001 72s28 68.333 28 111c0 31.333 -5.33301 58.5 -16 81.5s-24.667 42.667 -42 59s-36.5 30.166 -57.5 41.499
s-41.833 20.666 -62.5 27.999c-28 10.667 -54.167 21.334 -78.5 32.001s-44.166 23 -59.499 37s-23 31 -23 51c0 17.333 4 32.166 12 44.499s19.667 22 35 29s33.333 10.5 54 10.5c22.667 0 42.334 -4.66699 59.001 -14s31.167 -21.833 43.5 -37.5
s23.5 -32.834 33.5 -51.501l92 57c-9.33301 24 -24 47.667 -44 71s-45.5 42.666 -76.5 57.999s-68.167 23 -111.5 23c-42 0 -79.667 -7.66699 -113 -23s-59.5 -36.833 -78.5 -64.5s-28.5 -59.834 -28.5 -96.501c0 -32 6.16699 -59.5 18.5 -82.5s27.833 -42.333 46.5 -58
s38.5 -28.834 59.5 -39.501s39.833 -19 56.5 -25c26.667 -10 51.834 -20.667 75.501 -32s43 -25.166 58 -41.499s22.5 -37.5 22.5 -63.5c0 -20 -4 -37.167 -12 -51.5s-19.833 -25.166 -35.5 -32.499s-35.167 -11 -58.5 -11c-20.667 0 -39.334 3.33301 -56.001 10
s-32.167 16 -46.5 28s-27.5 27 -39.5 45s-23.667 38.333 -35 61zM280.997 -69.9951l-88 -259l81 -22l116 250z" />
    <glyph glyph-name="uni0219" unicode="&#x219;" horiz-adv-x="424" 
d="M88 167l-64.9961 -63.001c10 -22 25.167 -42 45.5 -60s44.166 -32.167 71.499 -42.5s55.666 -15.5 84.999 -15.5c52 0 93.667 11.333 125 34s47 59.334 47 110.001c0 24.667 -6 45.5 -18 62.5s-27.667 31.5 -47 43.5s-40 22.333 -62 31l-53.5 21.5
c-17.667 7 -32.334 14.5 -44.001 22.5s-17.5 17.333 -17.5 28c0 14.667 5.66699 25.167 17 31.5s26.333 9.5 45 9.5c12.667 0 26 -2.33301 40 -7s27.5 -11 40.5 -19s23.833 -17.667 32.5 -29l60 64c-10 15.333 -24.167 29 -42.5 41s-39.166 21.667 -62.499 29
s-47.666 11 -72.999 11c-28 0 -54.333 -4.83301 -79 -14.5s-44.834 -23.834 -60.501 -42.501s-23.5 -41.667 -23.5 -69c0 -26 6.16699 -47.5 18.5 -64.5s28.166 -31 47.499 -42s39.333 -20.833 60 -29.5l52.5 -22c17 -7.33301 31 -15.666 42 -24.999s16.5 -21.333 16.5 -36
c0 -16.667 -5.83301 -28.667 -17.5 -36s-27.834 -11 -48.501 -11c-15.333 0 -31 3.5 -47 10.5s-31.333 17 -46 30s-27.667 29.167 -39 48.5zM205.004 -69.001l-88 -259l80 -22l116 250z" />
    <glyph glyph-name="uni021A" unicode="&#x21a;" horiz-adv-x="504" 
d="M8 591h185v-591h118v591h185v109h-488v-109zM242 -60l-88 -259l81 -22l116 250z" />
    <glyph glyph-name="uni021B" unicode="&#x21b;" horiz-adv-x="271" 
d="M5 460v-95h261v95h-261zM83 620v-620h106v620h-106zM125 -60l-88 -259l81 -22l116 250z" />
    <glyph glyph-name="uni0237" unicode="&#x237;" horiz-adv-x="259" 
d="M-23 -99l-50.999 -83.9971c6 -6.66699 13.667 -13.334 23 -20.001s20.833 -12.334 34.5 -17.001s29.167 -7 46.5 -7c32 0 59.167 6.16699 81.5 18.5s39.166 30.5 50.499 54.5s17 53.667 17 89v525h-106v-504c0 -19.333 -1.83301 -34.833 -5.5 -46.5
s-9.16699 -20.334 -16.5 -26.001s-16 -8.5 -26 -8.5c-8.66699 0 -17.167 1.66699 -25.5 5s-15.833 10.333 -22.5 21z" />
    <glyph glyph-name="circumflex" unicode="&#x2c6;" horiz-adv-x="480" 
d="M240 639l103 -91l72 52l-175 140l-175 -140l73 -52z" />
    <glyph glyph-name="caron" unicode="&#x2c7;" horiz-adv-x="480" 
d="M240 664l-102 91l-73 -53l175 -140l175 140l-72 53z" />
    <glyph glyph-name="breve" unicode="&#x2d8;" horiz-adv-x="546" 
d="M113 850c0 -24 5.99805 -47 17.998 -69s30 -39.667 54 -53s53.333 -20 88 -20c35.333 0 64.833 6.66699 88.5 20s41.667 31 54 53s18.5 45 18.5 69h-83c0 -10 -2.5 -20.167 -7.5 -30.5s-13.167 -19.333 -24.5 -27s-26.666 -11.5 -45.999 -11.5
s-34.666 3.83301 -45.999 11.5s-19.5 16.667 -24.5 27s-7.5 20.5 -7.5 30.5h-82z" />
    <glyph glyph-name="dotaccent" unicode="&#x2d9;" horiz-adv-x="300" 
d="M82 799c0 -18 6.66699 -33.333 20 -46s29.333 -19 48 -19c19.333 0 35.5 6.33301 48.5 19s19.5 28 19.5 46c0 19.333 -6.5 35.166 -19.5 47.499s-29.167 18.5 -48.5 18.5c-18.667 0 -34.667 -6.16699 -48 -18.5s-20 -28.166 -20 -47.499z" />
    <glyph glyph-name="ring" unicode="&#x2da;" horiz-adv-x="298" 
d="M38 779c0 -32 11.167 -57.667 33.5 -77s48.166 -29 77.499 -29s55.166 9.66699 77.499 29s33.5 45 33.5 77s-11.167 57.667 -33.5 77s-48.166 29 -77.499 29s-55.166 -9.66699 -77.499 -29s-33.5 -45 -33.5 -77zM100 779c0 16 5 28.5 15 37.5s21.333 13.5 34 13.5
s24 -4.5 34 -13.5s15 -21.5 15 -37.5s-5 -28.5 -15 -37.5s-21.333 -13.5 -34 -13.5s-24 4.5 -34 13.5s-15 21.5 -15 37.5z" />
    <glyph glyph-name="ogonek" unicode="&#x2db;" horiz-adv-x="260" 
d="M194 -122c-6.66699 -6.66699 -13.667 -11.667 -21 -15s-17 -5 -29 -5c-13.333 0 -23.833 3.5 -31.5 10.5s-11.5 18.5 -11.5 34.5c0 11.333 3.83301 22.833 11.5 34.5s18 23 31 34s28.167 20.5 45.5 28.5l-41 25c-23.333 -12 -45.166 -25.333 -65.499 -40
s-36.833 -30.667 -49.5 -48s-19 -36.333 -19 -57c0 -20 4.66699 -37.667 14 -53s23 -27 41 -35s39.667 -12 65 -12c24 0 43.667 4.16699 59 12.5s26.666 17.5 33.999 27.5z" />
    <glyph glyph-name="tilde" unicode="&#x2dc;" horiz-adv-x="530" 
d="M90 630l61.0029 -47c0 5.33301 1.16699 12 3.5 20s7.16602 15.167 14.499 21.5s17.333 9.5 30 9.5c16 0 30.167 -4 42.5 -12l39 -24.5c13.667 -8.33301 29.5 -12.5 47.5 -12.5s35 3.83301 51 11.5s29.667 17.667 41 30s19.666 24.5 24.999 36.5l-56 55
c-10 -16 -19.833 -28.333 -29.5 -37s-19.834 -13 -30.501 -13c-13.333 0 -24.666 2.5 -33.999 7.5s-18 10.667 -26 17s-17.333 12 -28 17s-24.334 7.5 -41.001 7.5s-33 -3.83301 -49 -11.5s-29.333 -18 -40 -31s-17.667 -27.833 -21 -44.5z" />
    <glyph glyph-name="hungarumlaut" unicode="&#x2dd;" horiz-adv-x="0" 
d="M68 516l139 188l-99 24l-108 -192zM241 516l140 188l-100 24l-107 -192z" />
    <glyph glyph-name="gravecomb" unicode="&#x300;" horiz-adv-x="0" 
d="M180 541l61 35l-150 160l-91 -45z" />
    <glyph glyph-name="acutecomb" unicode="&#x301;" horiz-adv-x="0" 
d="M76 543l180 150l-91 45l-150 -160z" />
    <glyph glyph-name="uni0302" unicode="&#x302;" horiz-adv-x="0" 
d="M51 548l126 106h-35l125 -106l51 63l-159 128l-159 -128z" />
    <glyph glyph-name="tildecomb" unicode="&#x303;" horiz-adv-x="0" 
d="M61 583c0 6.66699 1.49902 13.833 4.49902 21.5s8.33301 14.5 16 20.5s17.834 9 30.501 9c15.333 0 28.666 -4 39.999 -12s23.5 -16.167 36.5 -24.5s28.5 -12.5 46.5 -12.5s35 3.83301 51 11.5s30.167 17.667 42.5 30s21.166 24.5 26.499 36.5l-56 55
c-10 -16 -20 -28.333 -30 -37s-20.667 -13 -32 -13c-13.333 0 -24.333 2.5 -33 7.5s-16.667 10.667 -24 17s-16.333 12 -27 17s-24 7.5 -40 7.5c-16.667 0 -33.167 -3.83301 -49.5 -11.5s-30.166 -18 -41.499 -31s-18.666 -27.833 -21.999 -44.5z" />
    <glyph glyph-name="uni0304" unicode="&#x304;" horiz-adv-x="0" 
d="M0 586h359v89h-359v-89z" />
    <glyph glyph-name="uni0306" unicode="&#x306;" horiz-adv-x="0" 
d="M161 543c31.333 0 59 6.00195 83 18.002s42.833 28.833 56.5 50.5s20.5 46.167 20.5 73.5h-89c0 -12.667 -3.16699 -24.334 -9.5 -35.001s-14.833 -19 -25.5 -25s-22.667 -9 -36 -9c-14 0 -26.333 3.16699 -37 9.5s-19.167 14.666 -25.5 24.999s-9.5 21.833 -9.5 34.5
h-89c-0 -27.333 6.83301 -51.833 20.5 -73.5s32.5 -38.5 56.5 -50.5s52 -18 84 -18z" />
    <glyph glyph-name="uni0307" unicode="&#x307;" horiz-adv-x="0" 
d="M68 555c19.333 0 35.666 6.5 48.999 19.5s20 28.5 20 46.5s-6.66699 33.333 -20 46s-29.666 19 -48.999 19c-18.667 0 -34.667 -6.33301 -48 -19s-20 -28 -20 -46s6.66699 -33.5 20 -46.5s29.333 -19.5 48 -19.5z" />
    <glyph glyph-name="uni0308" unicode="&#x308;" horiz-adv-x="0" 
d="M68 583c20.667 0 37.334 6 50.001 18s19 28 19 48s-6.33301 36 -19 48s-29.334 18 -50.001 18s-37.167 -6 -49.5 -18s-18.5 -28 -18.5 -48s6.16699 -36 18.5 -48s28.833 -18 49.5 -18zM286 583c20.667 0 37.167 6 49.5 18s18.5 28 18.5 48s-6.16699 36 -18.5 48
s-28.833 18 -49.5 18s-37.167 -6 -49.5 -18s-18.5 -28 -18.5 -48s6.16699 -36 18.5 -48s28.833 -18 49.5 -18z" />
    <glyph glyph-name="uni030A" unicode="&#x30a;" horiz-adv-x="0" 
d="M119 520c22 0 42 5.16699 60 15.5s32.333 24 43 41s16 36.167 16 57.5s-5.33301 40.5 -16 57.5s-25 30.667 -43 41s-38 15.5 -60 15.5c-33.333 0 -61.5 -11 -84.5 -33s-34.5 -49 -34.5 -81s11.5 -59 34.5 -81s51.167 -33 84.5 -33zM119 579
c-14.667 0 -27.167 5.33301 -37.5 16s-15.5 23.667 -15.5 39s5.16699 28.333 15.5 39s22.833 16 37.5 16s27.167 -5.33301 37.5 -16s15.5 -23.667 15.5 -39s-5.16699 -28.333 -15.5 -39s-22.833 -16 -37.5 -16z" />
    <glyph glyph-name="uni030B" unicode="&#x30b;" horiz-adv-x="0" 
d="M68 516l139 188l-99 24l-108 -192zM241 516l140 188l-100 24l-107 -192z" />
    <glyph glyph-name="uni030C" unicode="&#x30c;" horiz-adv-x="0" 
d="M159 548l159 129l-51 62l-125 -106h35l-126 106l-51 -62z" />
    <glyph glyph-name="uni0312" unicode="&#x312;" horiz-adv-x="0" 
d="M109 499l88 259l-81 22l-116 -250z" />
    <glyph glyph-name="uni0326" unicode="&#x326;" horiz-adv-x="0" 
d="M57 -214l117 160l-77 36l-97 -171z" />
    <glyph glyph-name="uni0327" unicode="&#x327;" horiz-adv-x="0" 
d="M104 -218c32 0 58.499 9.33105 79.499 27.998s31.5 42 31.5 70c0 20.667 -7 39.167 -21 55.5s-31.667 24.5 -53 24.5c-14 0 -25.667 -1.66699 -35 -5s-18 -8.66602 -26 -15.999l36 -5l69 129l-71 2l-75 -153c8 1.33301 17.333 2 28 2h28
c16.667 0 28.834 -2.66699 36.501 -8s11.5 -13.666 11.5 -24.999c0 -12 -4 -21.333 -12 -28s-19.333 -10 -34 -10c-12.667 0 -24.5 1.33301 -35.5 4s-23.167 7.66699 -36.5 15l-25 -52c15.333 -9.33301 31.5 -16.333 48.5 -21s35.5 -7 55.5 -7z" />
    <glyph glyph-name="uni0328" unicode="&#x328;" horiz-adv-x="0" 
d="M121 -220c23.333 0 42.835 4.16699 58.502 12.5s27.167 17.5 34.5 27.5l-33 58c-6.66699 -6.66699 -13.667 -11.667 -21 -15s-17 -5 -29 -5c-14 0 -24.667 3.5 -32 10.5s-11 18.5 -11 34.5c0 11.333 3.66699 22.833 11 34.5s17.666 23 30.999 34s28.666 20.5 45.999 28.5
l-41 25c-23.333 -12 -45.333 -25.333 -66 -40s-37.334 -30.667 -50.001 -48s-19 -36.333 -19 -57c0 -20 4.83301 -37.667 14.5 -53s23.334 -27 41.001 -35s39.5 -12 65.5 -12z" />
    <glyph glyph-name="uni0394" unicode="&#x394;" 
d="M18 0l282 800l281 -800h-563zM158 92h284l-142 451z" />
    <glyph glyph-name="uni03A9" unicode="&#x3a9;" 
d="M66 0l0.000976562 93l87 -5c-18 22.667 -33.333 46.667 -46 72s-22.167 51.333 -28.5 78s-9.5 53 -9.5 79c0 46 10.167 87.167 30.5 123.5s47.833 65.166 82.5 86.499s74 32 118 32s83.333 -10.667 118 -32s62 -50.166 82 -86.499s30 -77.5 30 -123.5
c0 -26 -3.16699 -52.333 -9.5 -79s-15.833 -52.667 -28.5 -78s-28 -49.333 -46 -72l87 5v-93h-199v88c18 14.667 33.833 33.334 47.5 56.001s24.5 47.167 32.5 73.5s12 52.166 12 77.499c0 30.667 -5 56.667 -15 78s-24.333 37.666 -43 48.999s-41.334 17 -68.001 17
s-49.5 -5.66699 -68.5 -17s-33.5 -27.666 -43.5 -48.999s-15 -47.333 -15 -78c0 -25.333 4 -51.166 12 -77.499s19 -50.833 33 -73.5s29.667 -41.334 47 -56.001v-88h-199z" />
    <glyph glyph-name="uni03BC" unicode="&#x3bc;" horiz-adv-x="543" 
d="M180 460l-110.999 0.00195312v-780h106v331c12 -6.66699 24 -11.334 36 -14.001s24.333 -4 37 -4c25.333 0 48.166 5.83301 68.499 17.5s37.5 27.5 51.5 47.5v-58h108v460h-108v-270c0 -20 -4.33301 -37.833 -13 -53.5s-20.667 -27.834 -36 -36.501s-33 -13 -53 -13
c-30 0 -51.833 8.83301 -65.5 26.5s-20.5 43.167 -20.5 76.5v270z" />
    <glyph glyph-name="pi" unicode="&#x3c0;" horiz-adv-x="565" 
d="M90 430v-430h105v430h-105zM30 460v-95h495v95h-495zM340 430l0.000976562 -309.001c0 -37.333 6.16699 -65.333 18.5 -84s30.166 -31 53.499 -37s52 -9 86 -9v95c-10 0 -19 1.33301 -27 4s-14.333 8.83398 -19 18.501s-7 25.5 -7 47.5v274h-105z" />
    <glyph glyph-name="uni0400" unicode="&#x400;" horiz-adv-x="571" 
d="M151 0h353v104h-353v-104zM151 596h353v104h-353v-104zM151 324h333v102h-333v-102zM78 700v-700h116v700h-116zM111 923l180 -150l61 35l-150 160z" />
    <glyph glyph-name="uni0401" unicode="&#x401;" horiz-adv-x="571" 
d="M151 0h353v104h-353v-104zM151 596h353v104h-353v-104zM151 324h333v102h-333v-102zM78 700v-700h116v700h-116zM331 838c0 -18 6.83301 -33.333 20.5 -46s29.834 -19 48.501 -19s34.667 6.33301 48 19s20 28 20 46c0 19.333 -6.66699 35.166 -20 47.499
s-29.333 18.5 -48 18.5s-34.834 -6.16699 -48.501 -18.5s-20.5 -28.166 -20.5 -47.499zM114 838c0 -18 6.66699 -33.333 20 -46s29.333 -19 48 -19c19.333 0 35.5 6.33301 48.5 19s19.5 28 19.5 46c0 19.333 -6.5 35.166 -19.5 47.499s-29.167 18.5 -48.5 18.5
c-18.667 0 -34.667 -6.16699 -48 -18.5s-20 -28.166 -20 -47.499z" />
    <glyph glyph-name="uni0403" unicode="&#x403;" horiz-adv-x="464" 
d="M80 700v-700h119v591h255v109h-374zM447 923l-91 45l-150 -160l61 -35z" />
    <glyph glyph-name="uni040C" unicode="&#x40c;" horiz-adv-x="619" 
d="M78 700v-700h121v700h-121zM459 700l-295 -331l307 -369h146l-311 372l296 328h-143zM520 923l-91 45l-150 -160l61 -35z" />
    <glyph glyph-name="uni040D" unicode="&#x40d;" horiz-adv-x="783" 
d="M700 573l5 162l-622 -607l-5 -163zM194 700h-116v-735l116 133v602zM705 735l-116 -135v-600h116v735zM253 900l180 -150l61 35l-150 160z" />
    <glyph glyph-name="uni040E" unicode="&#x40e;" horiz-adv-x="581" 
d="M585 700h-125l-201 -446l61 -3l-187 449h-137l228 -490l-92 -210h124zM132 915c0 -24 6.00098 -47 18.001 -69s30.167 -39.667 54.5 -53s53.833 -20 88.5 -20c35.333 0 64.833 6.66699 88.5 20s41.5 31 53.5 53s18 45 18 69h-82c0 -10 -2.5 -20.167 -7.5 -30.5
s-13.333 -19.333 -25 -27s-26.834 -11.5 -45.501 -11.5c-19.333 0 -34.833 3.83301 -46.5 11.5s-20 16.667 -25 27s-7.5 20.5 -7.5 30.5h-82z" />
    <glyph glyph-name="uni0410" unicode="&#x410;" horiz-adv-x="690" 
d="M162 180h370l-22 100h-325zM345 502l112 -260l2 -29l95 -213h134l-343 739l-342 -739h133l97 219l2 26z" />
    <glyph glyph-name="uni0411" unicode="&#x411;" horiz-adv-x="598" 
d="M127 324h178c26.667 0 50 -4 70 -12s35.5 -20.167 46.5 -36.5s16.5 -36.833 16.5 -61.5s-5.5 -45.167 -16.5 -61.5s-26.5 -28.5 -46.5 -36.5s-43.333 -12 -70 -12h-178v-104h193c45.333 -0 85.833 8.83301 121.5 26.5s64 42.667 85 75s31.5 69.833 31.5 112.5
c0 43.333 -10.5 80.833 -31.5 112.5s-49.333 56.167 -85 73.5s-76.167 26 -121.5 26h-193v-102zM80 700v-700h120v596h305v104h-425z" />
    <glyph glyph-name="uni0412" unicode="&#x412;" horiz-adv-x="601" 
d="M168 361h120.998c44.667 0 83.667 6.33301 117 19s59.5 31.167 78.5 55.5s28.5 53.833 28.5 88.5c0 40 -9.5 73 -28.5 99s-45.167 45.333 -78.5 58s-72.333 19 -117 19h-211v-700h223c50 0 93.833 7.16699 131.5 21.5s67.167 36.5 88.5 66.5s32 68 32 114
c0 33.333 -6.66699 62 -20 86s-31.666 43.667 -54.999 59s-50.166 26.833 -80.499 34.5s-62.5 11.5 -96.5 11.5h-133v-66h126c20 0 38.333 -2.16699 55 -6.5s31.334 -11.333 44.001 -21s22.334 -21.5 29.001 -35.5s10 -30.667 10 -50c0 -26 -6 -47.5 -18 -64.5
s-28.333 -29.833 -49 -38.5s-44.334 -13 -71.001 -13h-98v505h85c33.333 0 60.166 -8 80.499 -24s30.5 -38.667 30.5 -68c0 -19.333 -4.66699 -35.833 -14 -49.5s-22.333 -24.167 -39 -31.5s-36 -11 -58 -11h-113v-58z" />
    <glyph glyph-name="uni0413" unicode="&#x413;" horiz-adv-x="464" 
d="M80 700v-700h119v591h255v109h-374z" />
    <glyph glyph-name="uni0414" unicode="&#x414;" horiz-adv-x="830" 
d="M413 497l175 -467h132l-307 705l-308 -705h133zM673 0v-110h112v216h-745v-216h113v110h520z" />
    <glyph glyph-name="uni0415" unicode="&#x415;" horiz-adv-x="571" 
d="M151 0h353v104h-353v-104zM151 596h353v104h-353v-104zM151 324h333v102h-333v-102zM78 700v-700h116v700h-116z" />
    <glyph glyph-name="uni0416" unicode="&#x416;" horiz-adv-x="971" 
d="M160 700h-142l298 -328l-313 -372h142l311 370zM429 700v-700h121v700h-121zM809 700l-286 -330l301 -370h145l-313 372l298 328h-145z" />
    <glyph glyph-name="uni0417" unicode="&#x417;" horiz-adv-x="631" 
d="M292 343c40.667 0 78.002 4.16699 112.002 12.5s63.667 20.5 89 36.5s44.833 35 58.5 57s20.5 46.333 20.5 73c0 34.667 -9.5 66.167 -28.5 94.5s-46.5 51.166 -82.5 68.499s-79.667 26 -131 26c-50 0 -93.5 -8.5 -130.5 -25.5s-65.333 -40.167 -85 -69.5
s-29.5 -63.333 -29.5 -102h111c0 18.667 5.66699 35.334 17 50.001s27.166 26.167 47.499 34.5s43.5 12.5 69.5 12.5c27.333 0 50.166 -4 68.499 -12s32 -19.5 41 -34.5s13.5 -31.833 13.5 -50.5c0 -20 -6.16699 -38.167 -18.5 -54.5s-30.5 -29.333 -54.5 -39
s-53.333 -14.5 -88 -14.5v-63zM329.002 -12c56.667 0 104.666 8.33105 143.999 24.998s69 40 89 70s30 65 30 105c0 46.667 -13.167 84.334 -39.5 113.001s-62.166 49.834 -107.499 63.501s-96.333 20.5 -153 20.5v-67c37.333 0 69.5 -4.66699 96.5 -14
s47.833 -22.666 62.5 -39.999s22 -38.666 22 -63.999c0 -34.667 -12.333 -61.667 -37 -81s-61 -29 -109 -29c-32 0 -59 4.5 -81 13.5s-39 21.833 -51 38.5s-19 36 -21 58h-119c0 -28.667 5.66699 -55.834 17 -81.501s28.5 -48.334 51.5 -68.001s51.5 -35 85.5 -46
s74 -16.5 120 -16.5z" />
    <glyph glyph-name="uni0418" unicode="&#x418;" horiz-adv-x="783" 
d="M700 573l5 162l-622 -607l-5 -163zM194 700h-116v-735l116 133v602zM705 735l-116 -135v-600h116v735z" />
    <glyph glyph-name="uni0419" unicode="&#x419;" horiz-adv-x="783" 
d="M700 573l5 162l-622 -607l-5 -163zM194 700h-116v-735l116 133v602zM705 735l-116 -135v-600h116v735zM257 910c0 -24 6.00098 -47 18.001 -69s30.167 -39.667 54.5 -53s53.833 -20 88.5 -20c35.333 0 64.833 6.66699 88.5 20s41.5 31 53.5 53s18 45 18 69h-82
c0 -10 -2.5 -20.167 -7.5 -30.5s-13.333 -19.333 -25 -27s-26.834 -11.5 -45.501 -11.5c-19.333 0 -34.833 3.83301 -46.5 11.5s-20 16.667 -25 27s-7.5 20.5 -7.5 30.5h-82z" />
    <glyph glyph-name="uni041A" unicode="&#x41a;" horiz-adv-x="619" 
d="M78 700v-700h121v700h-121zM459 700l-295 -331l307 -369h146l-311 372l296 328h-143z" />
    <glyph glyph-name="uni041B" unicode="&#x41b;" horiz-adv-x="703" 
d="M623 700h-515.002v-429c0 -24.667 -2.16699 -47.334 -6.5 -68.001s-10.666 -38.667 -18.999 -54s-18.5 -27.166 -30.5 -35.499s-26 -12.5 -42 -12.5v-101c48.667 0 88.834 11 120.501 33s55.167 52.833 70.5 92.5s23 85.5 23 137.5v328h279v-591h120v700z" />
    <glyph glyph-name="uni041C" unicode="&#x41c;" horiz-adv-x="843" 
d="M208 426l213 -361l214 361l48 -426h122l-96 735l-288 -475l-287 475l-96 -735h122z" />
    <glyph glyph-name="uni041D" unicode="&#x41d;" horiz-adv-x="744" 
d="M125 321h500v109h-500v-109zM548 700v-700h118v700h-118zM78 700v-700h118v700h-118z" />
    <glyph glyph-name="uni041E" unicode="&#x41e;" horiz-adv-x="803" 
d="M163 350c0 48 10.334 90.833 31.001 128.5s48.834 67.167 84.501 88.5s76.5 32 122.5 32c47.333 0 88.833 -10.667 124.5 -32s63.5 -50.833 83.5 -88.5s30 -80.5 30 -128.5s-10.167 -90.667 -30.5 -128s-48.333 -66.833 -84 -88.5s-76.834 -32.5 -123.501 -32.5
c-46 0 -86.833 10.833 -122.5 32.5s-63.834 51.167 -84.501 88.5s-31 80 -31 128zM38.001 350c0 -52 8.99902 -100.333 26.999 -145s43.333 -83.334 76 -116.001s71.167 -58.167 115.5 -76.5s92.5 -27.5 144.5 -27.5c53.333 0 102 9.16699 146 27.5s82.333 43.833 115 76.5
s58 71.334 76 116.001s27 93 27 145c0 52.667 -9 101 -27 145s-43.5 82.167 -76.5 114.5s-71.5 57.666 -115.5 75.999s-92.333 27.5 -145 27.5c-51.333 0 -99.166 -9.16699 -143.499 -27.5s-83 -43.666 -116 -75.999s-58.5 -70.5 -76.5 -114.5s-27 -92.333 -27 -145z" />
    <glyph glyph-name="uni041F" unicode="&#x41f;" horiz-adv-x="738" 
d="M538 591v-591h120v700h-578v-700h120v591h338z" />
    <glyph glyph-name="uni0420" unicode="&#x420;" horiz-adv-x="578" 
d="M78 700v-700h118v700h-118zM148 596l141 -0.00292969c40.667 0 73.334 -9.5 98.001 -28.5s37 -47.167 37 -84.5s-12.333 -65.666 -37 -84.999s-57.334 -29 -98.001 -29h-141v-104h141c51.333 0 95.666 8.83301 132.999 26.5s66.5 42.834 87.5 75.501
s31.5 71.334 31.5 116.001s-10.5 83.167 -31.5 115.5s-50.167 57.333 -87.5 75s-81.666 26.5 -132.999 26.5h-141v-104z" />
    </font>
</defs>
</svg>
