<?xml version="1.0" standalone="no"?>
<!DOCTYPE svg PUBLIC "-//W3C//DTD SVG 1.1//EN" "http://www.w3.org/Graphics/SVG/1.1/DTD/svg11.dtd" >
<svg>
<metadata>
Created by FontForge 20090914 at Mon Feb 22 11:36:31 2021
 By www-data
Copyright 2020 The Jost Project Authors (https://github.com/indestructible-type)
</metadata>
<defs>
<font id="Jost-Light" horiz-adv-x="505" >
  <font-face 
    font-family="Jost Light"
    font-weight="300"
    font-stretch="normal"
    units-per-em="1000"
    panose-1="0 0 0 0 0 0 0 0 0 0"
    ascent="800"
    descent="-200"
    x-height="460"
    cap-height="700"
    bbox="-120 -339.997 1448 1020"
    underline-thickness="50"
    underline-position="-125"
    unicode-range="U+000D-U+FF19"
  />
<missing-glyph horiz-adv-x="500" 
d="M50 -200h400v1000h-400v-1000zM100 -150v900h300v-900h-300z" />
    <glyph glyph-name=".notdef" horiz-adv-x="500" 
d="M50 -200h400v1000h-400v-1000zM100 -150v900h300v-900h-300z" />
    <glyph glyph-name="uni0000" horiz-adv-x="300" 
 />
    <glyph glyph-name="uni0000" horiz-adv-x="300" 
 />
    <glyph glyph-name="uni000D" unicode="&#xd;" horiz-adv-x="300" 
 />
    <glyph glyph-name="space" unicode=" " horiz-adv-x="300" 
 />
    <glyph glyph-name="exclam" unicode="!" horiz-adv-x="285" 
d="M110 700l13 -500h39l13 500h-65zM105 24c0 -10 3.83301 -18.667 11.5 -26s16.5 -11 26.5 -11s18.667 3.66699 26 11s11 16 11 26c0 10.667 -3.66699 19.667 -11 27s-16 11 -26 11s-18.833 -3.66699 -26.5 -11s-11.5 -16.333 -11.5 -27z" />
    <glyph glyph-name="quotedbl" unicode="&#x22;" horiz-adv-x="440" 
d="M134 700l-50 -292h36l76 292h-62zM314 700l-50 -292h36l76 292h-62z" />
    <glyph glyph-name="numbersign" unicode="#" horiz-adv-x="591" 
d="M75 446h133h10h198h10h130v43h-481v-43zM35 216h481v43h-127h-15h-201h-11h-127v-43zM461 700l-56 -228l-2 -12l-52 -214l-3 -12l-57 -234h49l170 700h-49zM251 700l-170 -700h49l57 233l2 11l54 219l2 11l55 226h-49z" />
    <glyph glyph-name="dollar" unicode="$" horiz-adv-x="580" 
d="M255 818v-137h48v137h-48zM255 28v-140h49v140h-49zM436 528l44.9971 28.0039c-8 24 -20.833 47.833 -38.5 71.5s-40.167 43.167 -67.5 58.5s-60 23 -98 23c-35.333 0 -67.5 -7 -96.5 -21s-52 -33.5 -69 -58.5s-25.5 -53.5 -25.5 -85.5c0 -30 5.83301 -55.833 17.5 -77.5
s26.667 -40.334 45 -56.001s38 -28.667 59 -39s40.5 -18.833 58.5 -25.5c26.667 -9.33301 52.5 -20.833 77.5 -34.5s45.833 -31 62.5 -52s25 -47.5 25 -79.5c0 -27.333 -5 -51.333 -15 -72s-25.5 -36.667 -46.5 -48s-48.167 -17 -81.5 -17s-62 7.66699 -86 23
s-44.667 36 -62 62s-32 54.667 -44 86l-47 -27c12.667 -36 29.834 -68.833 51.501 -98.5s48 -53.334 79 -71.001s66.167 -26.5 105.5 -26.5c46.667 0 84.834 8.33301 114.501 25s51.834 39.667 66.501 69s22 62.333 22 99c0 30 -5.33301 56 -16 78s-24.667 40.833 -42 56.5
s-36.166 28.834 -56.499 39.501s-40.166 19.667 -59.499 27c-28 10.667 -55 22.5 -81 35.5s-47.333 29.167 -64 48.5s-25 43 -25 71c0 24 5.33301 44.667 16 62s26 30.666 46 39.999s44 14 72 14c29.333 0 54.166 -6.33301 74.499 -19s37.166 -28.834 50.499 -48.501
s24.333 -39.834 33 -60.501z" />
    <glyph glyph-name="percent" unicode="%" horiz-adv-x="731" 
d="M35 554c0 -28.667 6.33301 -54.834 19 -78.501s30.667 -42.5 54 -56.5s50.333 -21 81 -21c31.333 0 58.5 7 81.5 21s40.833 32.833 53.5 56.5s19 49.834 19 78.501c0 29.333 -6.33301 55.666 -19 78.999s-30.5 42 -53.5 56s-50.167 21 -81.5 21
c-30.667 0 -57.667 -7 -81 -21s-41.333 -32.667 -54 -56s-19 -49.666 -19 -78.999zM82 554c0 20.667 4.33301 39.5 13 56.5s21 30.667 37 41s35 15.5 57 15.5c22.667 0 41.834 -5.16699 57.501 -15.5s27.834 -24 36.501 -41s13 -35.833 13 -56.5
c0 -20 -4.33301 -38.667 -13 -56s-20.834 -31.166 -36.501 -41.499s-34.834 -15.5 -57.501 -15.5c-22 0 -41 5.16699 -57 15.5s-28.333 24.166 -37 41.499s-13 36 -13 56zM388 146c0 -28.667 6.33301 -54.834 19 -78.501s30.667 -42.5 54 -56.5s50.333 -21 81 -21
c31.333 0 58.5 7 81.5 21s40.833 32.833 53.5 56.5s19 49.834 19 78.501c0 29.333 -6.33301 55.666 -19 78.999s-30.5 42 -53.5 56s-50.167 21 -81.5 21c-30.667 0 -57.667 -7 -81 -21s-41.333 -32.667 -54 -56s-19 -49.666 -19 -78.999zM435 146
c0 20.667 4.33301 39.5 13 56.5s21 30.667 37 41s35 15.5 57 15.5c22.667 0 41.834 -5.16699 57.501 -15.5s27.834 -24 36.501 -41s13 -35.833 13 -56.5c0 -20 -4.33301 -38.667 -13 -56s-20.834 -31.166 -36.501 -41.499s-34.834 -15.5 -57.501 -15.5
c-22 0 -41 5.16699 -57 15.5s-28.333 24.166 -37 41.499s-13 36 -13 56zM567 700l-453 -700h50l453 700h-50z" />
    <glyph glyph-name="ampersand" unicode="&#x26;" horiz-adv-x="675" 
d="M207 401l351.997 -401.002h62l-374 429c-18 20.667 -35.167 41.5 -51.5 62.5s-24.5 45.167 -24.5 72.5c0 28.667 9.33301 52.5 28 71.5s45.667 28.5 81 28.5c23.333 0 42.5 -4.83301 57.5 -14.5s26.333 -22.167 34 -37.5s11.5 -32 11.5 -50
c0 -26 -11.5 -51.5 -34.5 -76.5s-54.5 -49.167 -94.5 -72.5c-13.333 -7.33301 -29.333 -15.5 -48 -24.5s-37.667 -19.5 -57 -31.5s-37.166 -26.333 -53.499 -43s-29.666 -36 -39.999 -58s-15.5 -47.667 -15.5 -77c0 -39.333 10.167 -73.166 30.5 -101.499s47 -50 80 -65
s68.5 -22.5 106.5 -22.5c44.667 0 85 9 121 27s69.167 41.667 99.5 71s58.833 61.833 85.5 97.5l80 105.5l-41 25l-74 -100c-25.333 -32.667 -51.666 -62.334 -78.999 -89.001s-56.666 -48.167 -87.999 -64.5s-65 -24.5 -101 -24.5c-30.667 0 -58.5 5.66699 -83.5 17
s-44.833 27.833 -59.5 49.5s-22 47.5 -22 77.5c0 29.333 6.66699 54.166 20 74.499s30.166 37.833 50.499 52.5s41.666 27.834 63.999 39.501s42.5 22.834 60.5 33.501c23.333 14 44 28 62 42s33.167 28.5 45.5 43.5s21.833 30.333 28.5 46s10 31.834 10 48.501
c0 25.333 -6 49.333 -18 72s-29.5 41.167 -52.5 55.5s-51.5 21.5 -85.5 21.5c-33.333 0 -62.166 -6.33301 -86.499 -19s-43.166 -30 -56.499 -52s-20 -47.333 -20 -76c0 -24.667 5.16699 -47 15.5 -67s22.666 -37.833 36.999 -53.5z" />
    <glyph glyph-name="quotesingle" unicode="'" horiz-adv-x="260" 
d="M134 700l-50 -292h36l76 292h-62z" />
    <glyph glyph-name="parenleft" unicode="(" horiz-adv-x="282" 
d="M205 780c-40 -74.667 -69.167 -153.667 -87.5 -237s-27.5 -167.666 -27.5 -252.999c0 -84.667 9.16699 -168.667 27.5 -252s47.5 -162.666 87.5 -237.999h47c-36 77.333 -62.333 157.166 -79 239.499s-25 165.833 -25 250.5c0 85.333 8.33301 169.166 25 251.499
s43 161.833 79 238.5h-47z" />
    <glyph glyph-name="parenright" unicode=")" horiz-adv-x="282" 
d="M77 -200c40 75.333 69.167 154.666 87.5 237.999s27.5 167.333 27.5 252c0 85.333 -9.16699 169.666 -27.5 252.999s-47.5 162.333 -87.5 237h-47c36 -76.667 62.333 -156.167 79 -238.5s25 -166.166 25 -251.499c0 -84.667 -8.33301 -168.167 -25 -250.5
s-43 -162.166 -79 -239.499h47z" />
    <glyph glyph-name="asterisk" unicode="*" horiz-adv-x="592" 
d="M467 593l-177 -64l11 -32l180 51zM425 376l-116 147l-26 -20l104 -155zM205 348l104 155l-26 20l-116 -147zM111 548l180 -51l11 32l-177 64zM273 700l7 -187h32l7 187h-46z" />
    <glyph glyph-name="plus" unicode="+" horiz-adv-x="589" 
d="M65 229h455v52h-455v-52zM265 492v-474h55v474h-55z" />
    <glyph glyph-name="comma" unicode="," horiz-adv-x="295" 
d="M159 104l-95 -257l37 -13l110 250z" />
    <glyph glyph-name="hyphen" unicode="-" horiz-adv-x="210" 
d="M5 226h200v49h-200v-49z" />
    <glyph glyph-name="period" unicode="." horiz-adv-x="284" 
d="M105 24c0 -10 3.66699 -18.667 11 -26s16 -11 26 -11c10.667 0 19.5 3.66699 26.5 11s10.5 16 10.5 26c0 10.667 -3.5 19.667 -10.5 27s-15.833 11 -26.5 11c-10 0 -18.667 -3.66699 -26 -11s-11 -16.333 -11 -27z" />
    <glyph glyph-name="slash" unicode="/" horiz-adv-x="499" 
d="M431 700l-416 -850h53l416 850h-53z" />
    <glyph glyph-name="zero" unicode="0" horiz-adv-x="580" 
d="M101 350c0 43.333 4.33301 83.666 13 120.999s21.167 70 37.5 98s36.166 49.833 59.499 65.5s49.666 23.5 78.999 23.5c30 0 56.5 -7.83301 79.5 -23.5s42.667 -37.5 59 -65.5s28.833 -60.667 37.5 -98s13 -77.666 13 -120.999s-4.33301 -83.666 -13 -120.999
s-21.167 -70 -37.5 -98s-36 -49.833 -59 -65.5s-49.5 -23.5 -79.5 -23.5c-29.333 0 -55.666 7.83301 -78.999 23.5s-43.166 37.5 -59.499 65.5s-28.833 60.667 -37.5 98s-13 77.666 -13 120.999zM46 350c0 -68.667 10 -130 30 -184s48.333 -96.833 85 -128.5
s79.667 -47.5 129 -47.5s92.333 15.833 129 47.5s65 74.5 85 128.5s30 115.333 30 184s-10 130 -30 184s-48.333 96.833 -85 128.5s-79.667 47.5 -129 47.5s-92.333 -15.833 -129 -47.5s-65 -74.5 -85 -128.5s-30 -115.333 -30 -184z" />
    <glyph glyph-name="one" unicode="1" horiz-adv-x="434" 
d="M86 599l161 42v-641h55v708l-216 -52v-57z" />
    <glyph glyph-name="two" unicode="2" horiz-adv-x="547" 
d="M22 0l477.999 -0.00195312v52h-363l255 263c26.667 27.333 49.167 57.666 67.5 90.999s27.5 69 27.5 107c0 21.333 -4 43.5 -12 66.5s-20.5 44.333 -37.5 64s-38.667 35.834 -65 48.501s-57.833 19 -94.5 19c-45.333 0 -84.5 -10.5 -117.5 -31.5s-58.333 -50.333 -76 -88
s-26.5 -81.5 -26.5 -131.5h55c0 40 6.66699 75 20 105s32.333 53.167 57 69.5s54 24.5 88 24.5c26 0 48.5 -4.5 67.5 -13.5s34.833 -20.667 47.5 -35s22 -30.166 28 -47.499s9 -34.666 9 -51.999c0 -22 -3.5 -42.5 -10.5 -61.5s-16.667 -36.833 -29 -53.5
s-26.166 -33.667 -41.499 -51z" />
    <glyph glyph-name="three" unicode="3" horiz-adv-x="548" 
d="M251 352c41.333 0 78.832 7.5 112.499 22.5s60.667 35.833 81 62.5s30.5 57 30.5 91c0 32 -7.5 61.667 -22.5 89s-36.667 49.666 -65 66.999s-62.5 26 -102.5 26c-38 0 -71.5 -7.83301 -100.5 -23.5s-51.667 -37.167 -68 -64.5s-24.5 -59.333 -24.5 -96h53
c0 38.667 13 70.667 39 96s60 38 102 38c28.667 0 52.834 -6.16699 72.501 -18.5s34.667 -28.666 45 -48.999s15.5 -42.5 15.5 -66.5c0 -20.667 -4.5 -39.5 -13.5 -56.5s-21.333 -31.5 -37 -43.5s-33.5 -21.333 -53.5 -28s-41.333 -10 -64 -10v-36zM280.999 -10
c42 0 79 8 111 24s57.167 38.333 75.5 67s27.5 62 27.5 100c0 33.333 -6.83301 62.333 -20.5 87s-32.167 44.834 -55.5 60.501s-49.5 27.334 -78.5 35.001s-58.833 11.5 -89.5 11.5v-36c22.667 0 45 -3.16699 67 -9.5s42.167 -15.833 60.5 -28.5s33 -28.5 44 -47.5
s16.5 -41.167 16.5 -66.5c0 -28.667 -6.5 -53.834 -19.5 -75.501s-31.333 -38.667 -55 -51s-51.5 -18.5 -83.5 -18.5c-33.333 0 -62.333 6.16699 -87 18.5s-43.5 29.333 -56.5 51s-19.5 46.167 -19.5 73.5h-56c0 -27.333 5 -52.833 15 -76.5s24.5 -44.334 43.5 -62.001
s42 -31.5 69 -41.5s57.5 -15 91.5 -15z" />
    <glyph glyph-name="four" unicode="4" horiz-adv-x="571" 
d="M22 140h517v49h-131h-11h-283l260 384v-402v-9v-162h55v700h-21z" />
    <glyph glyph-name="five" unicode="5" horiz-adv-x="561" 
d="M510 230c0 45.333 -9.00195 85.001 -27.002 119.001s-42.5 60.667 -73.5 80s-65.833 29 -104.5 29c-28 0 -53.833 -4.83301 -77.5 -14.5s-43.5 -21.5 -59.5 -35.5l60 243h288v49h-330l-92 -373c21.333 19.333 41.666 35 60.999 47s39.333 20.667 60 26s43.334 8 68.001 8
c32.667 0 61.667 -7.5 87 -22.5s45.5 -35.833 60.5 -62.5s22.5 -57.667 22.5 -93c0 -39.333 -7.5 -73 -22.5 -101s-36 -49.5 -63 -64.5s-58.5 -22.5 -94.5 -22.5c-29.333 0 -56 5.5 -80 16.5s-44.833 26.167 -62.5 45.5s-32.167 40.666 -43.5 63.999l-47 -31
c14 -28 31.5 -53.167 52.5 -75.5s46.333 -39.833 76 -52.5s64.5 -19 104.5 -19c32.667 0 63.334 5 92.001 15s53.834 25 75.501 45s38.667 45 51 75s18.5 65 18.5 105z" />
    <glyph glyph-name="six" unicode="6" horiz-adv-x="560" 
d="M103 226c0 33.333 7.50195 63.835 22.502 91.502s36 49.667 63 66s58.833 24.5 95.5 24.5c32.667 0 62 -7.83301 88 -23.5s46.667 -37.334 62 -65.001s23 -58.834 23 -93.501c0 -36 -7.5 -67.833 -22.5 -95.5s-35.833 -49.667 -62.5 -66s-57.334 -24.5 -92.001 -24.5
s-65.334 8.16699 -92.001 24.5s-47.5 38.333 -62.5 66s-22.5 59.5 -22.5 95.5zM330.002 700.002l-230.999 -322.997c-13.333 -18.667 -24.833 -41.334 -34.5 -68.001s-14.5 -54.334 -14.5 -83.001c0 -46.667 9.83301 -87.667 29.5 -123s46.834 -63 81.501 -83
s74.334 -30 119.001 -30c45.333 0 85.166 10 119.499 30s61.333 47.667 81 83s29.5 76.333 29.5 123c0 31.333 -5.33301 60.5 -16 87.5s-25.5 50.667 -44.5 71s-41 36.166 -66 47.499s-51.833 17 -80.5 17s-54.334 -4.5 -77.001 -13.5s-42.334 -23.5 -59.001 -43.5l4 -3
l228 311h-69z" />
    <glyph glyph-name="seven" unicode="7" horiz-adv-x="521" 
d="M32 648h399l-324 -648h58l349 700h-482v-52z" />
    <glyph glyph-name="eight" unicode="8" horiz-adv-x="534" 
d="M82 535c0 -26 4.83105 -49.833 14.498 -71.5s22.834 -40.167 39.501 -55.5s36.167 -27.166 58.5 -35.499s46.5 -12.5 72.5 -12.5s50.167 4.16699 72.5 12.5s41.833 20.166 58.5 35.499s29.834 33.833 39.501 55.5s14.5 45.5 14.5 71.5c0 32 -8.16699 61.167 -24.5 87.5
s-38.333 47.5 -66 63.5s-59.167 24 -94.5 24s-66.833 -8 -94.5 -24s-49.667 -37.167 -66 -63.5s-24.5 -55.5 -24.5 -87.5zM134.998 529c0 24.667 5.66504 47 16.998 67s27 35.833 47 47.5s42.667 17.5 68 17.5c26 0 48.833 -5.83301 68.5 -17.5s35.167 -27.5 46.5 -47.5
s17 -42.333 17 -67c0 -26 -6.5 -49 -19.5 -69s-29.667 -35.667 -50 -47s-41.166 -17 -62.499 -17s-42.166 5.66699 -62.499 17s-37 27 -50 47s-19.5 43 -19.5 69zM58.9961 188c0 -27.333 5.00195 -53 15.002 -77s24.167 -45 42.5 -63s40.166 -32.167 65.499 -42.5
s53.666 -15.5 84.999 -15.5s59.666 5.16699 84.999 15.5s47.166 24.5 65.499 42.5s32.5 39 42.5 63s15 49.667 15 77c0 30 -5.66699 57 -17 81s-26.666 44.5 -45.999 61.5s-41.5 30 -66.5 39s-51.167 13.5 -78.5 13.5s-53.5 -4.5 -78.5 -13.5s-47.167 -22 -66.5 -39
s-34.666 -37.5 -45.999 -61.5s-17 -51 -17 -81zM111.998 194c0 29.333 7.49805 55.5 22.498 78.5s34.333 41.167 58 54.5s48.5 20 74.5 20s50.833 -6.66699 74.5 -20s43 -31.5 58 -54.5s22.5 -49.167 22.5 -78.5c0 -31.333 -6.83301 -58.666 -20.5 -81.999
s-32.167 -41.333 -55.5 -54s-49.666 -19 -78.999 -19s-55.666 6.33301 -78.999 19s-41.833 30.667 -55.5 54s-20.5 50.666 -20.5 81.999z" />
    <glyph glyph-name="nine" unicode="9" horiz-adv-x="560" 
d="M457 474c0 -33.333 -7.50293 -63.667 -22.5029 -91s-36 -49.333 -63 -66s-58.833 -25 -95.5 -25c-32 0 -61.167 8 -87.5 24s-47.166 37.667 -62.499 65s-23 58.333 -23 93c0 36 7.5 68 22.5 96s35.833 50 62.5 66s57.334 24 92.001 24s65.334 -8 92.001 -24
s47.5 -38 62.5 -66s22.5 -60 22.5 -96zM229.997 -0.000976562l230.999 322.997c13.333 18.667 24.833 41.334 34.5 68.001s14.5 54.334 14.5 83.001c0 46.667 -9.83301 87.667 -29.5 123s-46.667 63 -81 83s-74.166 30 -119.499 30c-44.667 0 -84.334 -10 -119.001 -30
s-61.834 -47.667 -81.501 -83s-29.5 -76.333 -29.5 -123c0 -31.333 5.33301 -60.5 16 -87.5s25.5 -50.667 44.5 -71s41 -36.166 66 -47.499s51.833 -17 80.5 -17s54.334 4.5 77.001 13.5s42.334 23.5 59.001 43.5l-4 3l-228 -311h69z" />
    <glyph glyph-name="colon" unicode=":" horiz-adv-x="300" 
d="M105 24c0 -10 3.66699 -18.667 11 -26s16 -11 26 -11c10.667 0 19.5 3.66699 26.5 11s10.5 16 10.5 26c0 10.667 -3.5 19.667 -10.5 27s-15.833 11 -26.5 11c-10 0 -18.667 -3.66699 -26 -11s-11 -16.333 -11 -27zM105 392c0 -10.667 3.66699 -19.667 11 -27
s16 -11 26 -11c10.667 0 19.5 3.66699 26.5 11s10.5 16.333 10.5 27c0 10 -3.5 18.667 -10.5 26s-15.833 11 -26.5 11c-10 0 -18.667 -3.66699 -26 -11s-11 -16 -11 -26z" />
    <glyph glyph-name="semicolon" unicode=";" horiz-adv-x="308" 
d="M135 392c0 -10.667 3.66699 -19.667 11 -27s16 -11 26 -11c10.667 0 19.5 3.66699 26.5 11s10.5 16.333 10.5 27c0 10 -3.5 18.667 -10.5 26s-15.833 11 -26.5 11c-10 0 -18.667 -3.66699 -26 -11s-11 -16 -11 -26zM159 104l-95 -257l37 -13l110 250z" />
    <glyph glyph-name="less" unicode="&#x3c;" horiz-adv-x="640" 
d="M151 260l424 176v52l-510 -216v-29l510 -216v52z" />
    <glyph glyph-name="equal" unicode="=" horiz-adv-x="615" 
d="M65 158h485v49h-485v-49zM65 298h485v49h-485v-49z" />
    <glyph glyph-name="greater" unicode="&#x3e;" horiz-adv-x="640" 
d="M489 255l-424 -176v-52l510 216v29l-510 216v-52z" />
    <glyph glyph-name="question" unicode="?" horiz-adv-x="551" 
d="M430 508c0 -28 -8.50293 -54.498 -25.5029 -79.498s-41 -45.167 -72 -60.5s-67.167 -23 -108.5 -23h-16l14 -175h39l4 139c39.333 1.33301 75.5 11.166 108.5 29.499s59.5 42.166 79.5 71.499s30 62 30 98c0 28.667 -5.16699 55.334 -15.5 80.001
s-24.666 46.167 -42.999 64.5s-40.333 32.5 -66 42.5s-54.167 15 -85.5 15c-36.667 0 -68 -4.83301 -94 -14.5s-48.167 -23.334 -66.5 -41.001s-35.166 -38.167 -50.499 -61.5l43 -27c18 29.333 39.833 52.5 65.5 69.5s57.834 25.5 96.501 25.5
c34 0 63.167 -6.33301 87.5 -19s43 -30.5 56 -53.5s19.5 -49.833 19.5 -80.5zM202.997 24.002c0 -10 3.66699 -18.667 11 -26s16 -11 26 -11c10.667 0 19.5 3.66699 26.5 11s10.5 16 10.5 26c0 10.667 -3.5 19.667 -10.5 27s-15.833 11 -26.5 11
c-10 0 -18.667 -3.66699 -26 -11s-11 -16.333 -11 -27z" />
    <glyph glyph-name="at" unicode="@" horiz-adv-x="770" 
d="M246 320c0 34.667 6.50293 64.167 19.5029 88.5s29.667 42.833 50 55.5s41.166 19 62.499 19c19.333 0 36.166 -5 50.499 -15s25.666 -23.5 33.999 -40.5s12.5 -36.167 12.5 -57.5c0 -35.333 -6.5 -65 -19.5 -89s-29.5 -42.167 -49.5 -54.5s-40.667 -18.5 -62 -18.5
c-30 0 -53.833 10.167 -71.5 30.5s-26.5 47.5 -26.5 81.5zM196.003 318c0 -32.667 6.33105 -60.833 18.998 -84.5s29.334 -41.667 50.001 -54s43.334 -18.5 68.001 -18.5c30.667 0 58.5 8.5 83.5 25.5s45.333 41.167 61 72.5s23.5 68 23.5 110
c0 28 -4.66699 54.167 -14 78.5s-23 44 -41 59s-40.667 22.5 -68 22.5c-28 0 -56 -8 -84 -24s-51.333 -39.5 -70 -70.5s-28 -69.833 -28 -116.5zM35.001 320.001c0 -66 12.6689 -123.834 38.002 -173.501s62.166 -88 110.499 -115s107.5 -40.5 177.5 -40.5
c57.333 0 104.333 5.66699 141 17s70 25.333 100 42l-24 39c-30 -18.667 -62.833 -32.5 -98.5 -41.5s-75.167 -13.5 -118.5 -13.5c-58 0 -107.833 11.667 -149.5 35s-73.834 56.5 -96.501 99.5s-34 93.5 -34 151.5c0 49.333 8 95 24 137s38.667 78.5 68 109.5
s64.5 55.333 105.5 73s86.5 26.5 136.5 26.5c44.667 0 84.167 -7.66699 118.5 -23s63 -36.166 86 -62.499s40.333 -55.833 52 -88.5s17.5 -66.667 17.5 -102c0 -44.667 -7.33301 -81.5 -22 -110.5s-31.834 -50.333 -51.501 -64s-37.5 -20.5 -53.5 -20.5
c-14 0 -24.667 3.33301 -32 10s-12.166 15 -14.499 25s-3.5 19.667 -3.5 29c0 4 0.166992 9.16699 0.5 15.5s0.833008 11.166 1.5 14.499l41 231h-50l-38 -242h5c-3.33301 -24.667 -2.16602 -46.5 3.50098 -65.5s15.5 -34 29.5 -45s31 -16.5 51 -16.5
c18.667 0 38.334 4.5 59.001 13.5s40.167 23 58.5 42s33.166 43.667 44.499 74s17 66.833 17 109.5c0 40 -6.83301 79 -20.5 117s-34 72.167 -61 102.5s-60.333 54.5 -100 72.5s-85.834 27 -138.501 27c-56 0 -107.167 -9.83301 -153.5 -29.5s-86.5 -47.167 -120.5 -82.5
s-60.167 -76.666 -78.5 -123.999s-27.5 -98.333 -27.5 -153z" />
    <glyph glyph-name="A" unicode="A" horiz-adv-x="636" 
d="M140 235h359l-18 52h-323zM318 600l138 -334l5 -13l104 -253h62l-309 727l-309 -727h62l105 257l6 12z" />
    <glyph glyph-name="B" unicode="B" horiz-adv-x="533" 
d="M127 376l113.001 0.00195312c39.333 0 74 5.83301 104 17.5s53.5 29 70.5 52s25.5 51.5 25.5 85.5c0 37.333 -8.33301 68.5 -25 93.5s-40.167 43.833 -70.5 56.5s-66.5 19 -108.5 19h-152v-700h162c45.333 0 85.5 7.33301 120.5 22s62.5 37 82.5 67s30 68 30 114
c0 32 -6.5 59.833 -19.5 83.5s-30.333 43.167 -52 58.5s-46.167 26.833 -73.5 34.5s-55.333 11.5 -84 11.5h-123v-32h119c24 0 46.5 -3.33301 67.5 -10s39.833 -16.5 56.5 -29.5s29.667 -29 39 -48s14 -40.833 14 -65.5c0 -34.667 -7.33301 -63.5 -22 -86.5
s-35.334 -40.5 -62.001 -52.5s-57.667 -18 -93 -18h-107v602h97c45.333 0 81.5 -10.833 108.5 -32.5s40.5 -51.834 40.5 -90.501c0 -27.333 -6.66699 -49.833 -20 -67.5s-31.333 -30.834 -54 -39.501s-47.667 -13 -75 -13h-109v-32z" />
    <glyph glyph-name="C" unicode="C" horiz-adv-x="685" 
d="M103 350c0 60 12.6641 112.667 37.9971 158s59.333 80.833 102 106.5s90.334 38.5 143.001 38.5c32.667 0 62.667 -3.66699 90 -11s52.333 -18.166 75 -32.499s42.667 -31.5 60 -51.5v73c-29.333 26 -61.333 45.5 -96 58.5s-77.667 19.5 -129 19.5
c-48.667 0 -93.834 -8.83301 -135.501 -26.5s-77.834 -42.5 -108.501 -74.5s-54.667 -70 -72 -114s-26 -92 -26 -144s8.66699 -100 26 -144s41.333 -82 72 -114s66.834 -56.833 108.501 -74.5s86.834 -26.5 135.501 -26.5c51.333 0 94.333 6.5 129 19.5s66.667 32.5 96 58.5
v74c-17.333 -20 -37.166 -37.333 -59.499 -52s-47.166 -25.667 -74.499 -33s-57.666 -11 -90.999 -11c-52.667 0 -100.334 13 -143.001 39s-76.667 61.667 -102 107s-38 97.666 -38 156.999z" />
    <glyph glyph-name="D" unicode="D" horiz-adv-x="662" 
d="M84 700v-700h55v700h-55zM274 0c68 0 127.833 14.6689 179.5 44.002s92 70.166 121 122.499s43.5 113.5 43.5 183.5s-14.5 131.167 -43.5 183.5s-69.333 93.166 -121 122.499s-111.5 44 -179.5 44h-160v-55h160c43.333 0 82.833 -7 118.5 -21s66.167 -33.833 91.5 -59.5
s44.833 -56.667 58.5 -93s20.5 -76.833 20.5 -121.5s-6.83301 -85.167 -20.5 -121.5s-33.167 -67.333 -58.5 -93s-55.833 -45.5 -91.5 -59.5s-75.167 -21 -118.5 -21h-160v-55h160z" />
    <glyph glyph-name="E" unicode="E" horiz-adv-x="534" 
d="M113 0h347v52h-347v-52zM113 648h347v52h-347v-52zM113 358h327v52h-327v-52zM84 700v-700h55v700h-55z" />
    <glyph glyph-name="F" unicode="F" horiz-adv-x="480" 
d="M113 648h307v52h-307v-52zM113 353h297v52h-297v-52zM84 700v-700h55v700h-55z" />
    <glyph glyph-name="G" unicode="G" horiz-adv-x="771" 
d="M411 297l250.998 0.000976562c-3.33301 -34 -12 -66 -26 -96s-32.5 -56.667 -55.5 -80s-50.167 -41.666 -81.5 -54.999s-66.666 -20 -105.999 -20c-55.333 0 -104.833 13 -148.5 39s-78.334 61.833 -104.001 107.5s-38.5 98.167 -38.5 157.5
c0 60 12.833 112.667 38.5 158s60.5 81 104.5 107s93.333 39 148 39c56.667 0 106 -12 148 -36s74.667 -55.333 98 -94l40 35c-20 31.333 -44 58.166 -72 80.499s-59.833 39.5 -95.5 51.5s-75.167 18 -118.5 18c-50 0 -96.167 -8.83301 -138.5 -26.5
s-79.333 -42.5 -111 -74.5s-56.167 -70 -73.5 -114s-26 -92 -26 -144s8.66699 -100 26 -144s41.833 -82 73.5 -114s68.667 -56.833 111 -74.5s88.5 -26.5 138.5 -26.5c51.333 0 97.333 9.66699 138 29s75.334 45.666 104.001 78.999s50.334 71.5 65.001 114.5
s22 88.167 22 135.5h-311v-52z" />
    <glyph glyph-name="H" unicode="H" horiz-adv-x="688" 
d="M113 355h472v52h-472v-52zM548 700v-700h56v700h-56zM84 700v-700h55v700h-55z" />
    <glyph glyph-name="I" unicode="I" horiz-adv-x="219" 
d="M82 700v-700h55v700h-55z" />
    <glyph glyph-name="J" unicode="J" horiz-adv-x="223" 
d="M-91 -126l-29 -41.998c5.33301 -6.66699 13.833 -14 25.5 -22s25.667 -15 42 -21s33.166 -9 50.499 -9c23.333 0 43.833 3.16699 61.5 9.5s32.334 16.166 44.001 29.499s20.5 30 26.5 50s9 43.667 9 71v760h-53v-750c0 -42.667 -7.5 -73 -22.5 -91s-36.167 -27 -63.5 -27
c-19.333 0 -37 4.16699 -53 12.5s-28.667 18.166 -38 29.499z" />
    <glyph glyph-name="K" unicode="K" horiz-adv-x="521" 
d="M82 700v-700h55v700h-55zM427 700l-306 -329l321 -371h70l-323 372l308 328h-70z" />
    <glyph glyph-name="L" unicode="L" horiz-adv-x="442" 
d="M84 700v-700h344v52h-289v648h-55z" />
    <glyph glyph-name="M" unicode="M" horiz-adv-x="818" 
d="M163 554l246 -473l246 473l60 -554h55l-81 727l-280 -538l-280 538l-81 -727h55z" />
    <glyph glyph-name="N" unicode="N" horiz-adv-x="755" 
d="M616 700v-586l-532 613v-727h55v584l532 -611v727h-55z" />
    <glyph glyph-name="O" unicode="O" horiz-adv-x="784" 
d="M102 350c0 58.667 12.5 110.834 37.5 156.501s59.333 81.667 103 108s93.5 39.5 149.5 39.5s105.833 -13.167 149.5 -39.5s77.834 -62.333 102.501 -108s37 -97.834 37 -156.501c0 -58 -12.333 -110 -37 -156s-58.834 -82.167 -102.501 -108.5s-93.5 -39.5 -149.5 -39.5
s-105.833 13.167 -149.5 39.5s-78 62.5 -103 108.5s-37.5 98 -37.5 156zM44 350c0 -51.333 8.66699 -98.833 26 -142.5s41.666 -81.667 72.999 -114s68.166 -57.5 110.499 -75.5s88.5 -27 138.5 -27s96.167 9 138.5 27s79.166 43.167 110.499 75.5s55.666 70.333 72.999 114
s26 91.167 26 142.5s-8.66699 98.833 -26 142.5s-41.666 81.667 -72.999 114s-68.166 57.5 -110.499 75.5s-88.5 27 -138.5 27s-96.167 -9 -138.5 -27s-79.166 -43.167 -110.499 -75.5s-55.666 -70.333 -72.999 -114s-26 -91.167 -26 -142.5z" />
    <glyph glyph-name="P" unicode="P" horiz-adv-x="521" 
d="M84 700v-700h55v700h-55zM115 648h133c51.333 0 93 -13.167 125 -39.5s48 -64.833 48 -115.5c0 -50 -16 -88.333 -48 -115s-73.667 -40 -125 -40h-133v-52h133c44 0 83.167 8.16699 117.5 24.5s61.5 40.166 81.5 71.499s30 68.333 30 111c0 43.333 -10 80.333 -30 111
s-47.167 54.334 -81.5 71.001s-73.5 25 -117.5 25h-133v-52z" />
    <glyph glyph-name="Q" unicode="Q" horiz-adv-x="782" 
d="M102 350c0 58.667 12.5 110.834 37.5 156.501s59.333 81.667 103 108s93.5 39.5 149.5 39.5s105.833 -13.167 149.5 -39.5s77.834 -62.333 102.501 -108s37 -97.834 37 -156.501c0 -58 -12.333 -110 -37 -156s-58.834 -82.167 -102.501 -108.5s-93.5 -39.5 -149.5 -39.5
s-105.833 13.167 -149.5 39.5s-78 62.5 -103 108.5s-37.5 98 -37.5 156zM44 350c0 -51.333 8.66699 -98.833 26 -142.5s41.666 -81.667 72.999 -114s68.166 -57.5 110.499 -75.5s88.5 -27 138.5 -27s96.167 9 138.5 27s79.166 43.167 110.499 75.5s55.666 70.333 72.999 114
s26 91.167 26 142.5s-8.66699 98.833 -26 142.5s-41.666 81.667 -72.999 114s-68.166 57.5 -110.499 75.5s-88.5 27 -138.5 27s-96.167 -9 -138.5 -27s-79.166 -43.167 -110.499 -75.5s-55.666 -70.333 -72.999 -114s-26 -91.167 -26 -142.5zM387 300l308 -300h73l-308 300
h-73z" />
    <glyph glyph-name="R" unicode="R" horiz-adv-x="523" 
d="M203 334l232 -334h68l-239 334h-61zM84 700v-700h55v700h-55zM113 651l131.001 -0.00195312c35.333 0 66.666 -6 93.999 -18s48.833 -29.333 64.5 -52s23.5 -50.667 23.5 -84s-7.66699 -61.5 -23 -84.5s-36.833 -40.333 -64.5 -52s-59.167 -17.5 -94.5 -17.5h-131v-49
h131c45.333 0 85.833 7.83301 121.5 23.5s63.834 38.834 84.501 69.501s31 67.334 31 110.001c0 43.333 -10.333 80 -31 110s-48.834 53 -84.501 69s-76.167 24 -121.5 24h-131v-49z" />
    <glyph glyph-name="S" unicode="S" horiz-adv-x="524" 
d="M89 202l-45.0068 -28.001c11.333 -32.667 27.333 -63 48 -91s46.334 -50.333 77.001 -67s66.334 -25 107.001 -25c28.667 0 55.334 4.5 80.001 13.5s46.167 22 64.5 39s32.666 37.167 42.999 60.5s15.5 49.333 15.5 78c0 30.667 -5.33301 57.167 -16 79.5
s-24.5 41.5 -41.5 57.5s-35.833 29.333 -56.5 40s-40.667 19.667 -60 27c-37.333 13.333 -68.666 27.5 -93.999 42.5s-44.333 31.833 -57 50.5s-19 41 -19 67c0 31.333 11 57.5 33 78.5s53.333 31.5 94 31.5c30.667 0 56.334 -5.83301 77.001 -17.5
s37.834 -26.167 51.501 -43.5s24.167 -35 31.5 -53l48 27c-9.33301 22.667 -23 44.667 -41 66s-40.5 39 -67.5 53s-59.167 21 -96.5 21c-36 0 -68.333 -7.16699 -97 -21.5s-51 -34.333 -67 -60s-24 -55.167 -24 -88.5c0 -30 5.83301 -55.667 17.5 -77
s26.834 -39.5 45.501 -54.5s38.834 -27.667 60.501 -38s42.5 -19.166 62.5 -26.499c26.667 -10 52.167 -21.5 76.5 -34.5s44.166 -29.833 59.499 -50.5s23 -48 23 -82c0 -38.667 -12.833 -70.5 -38.5 -95.5s-61.167 -37.5 -106.5 -37.5c-33.333 0 -62 7.16699 -86 21.5
s-44.167 33.5 -60.5 57.5s-30.166 50.667 -41.499 80z" />
    <glyph glyph-name="T" unicode="T" horiz-adv-x="451" 
d="M14 648h184v-648h55v648h184v52h-423v-52z" />
    <glyph glyph-name="U" unicode="U" horiz-adv-x="606" 
d="M79 700v-474c0 -34.667 5 -66.5 15 -95.5s24.667 -53.833 44 -74.5s42.833 -36.834 70.5 -48.501s59.167 -17.5 94.5 -17.5s66.833 5.83301 94.5 17.5s51.167 27.834 70.5 48.501s34 45.5 44 74.5s15 60.833 15 95.5v474h-55v-474c0 -56 -14.667 -100.667 -44 -134
s-71 -50 -125 -50s-95.667 16.667 -125 50s-44 78 -44 134v474h-55z" />
    <glyph glyph-name="V" unicode="V" horiz-adv-x="636" 
d="M318 101l-247 599h-62l309 -727l309 727h-62z" />
    <glyph glyph-name="W" unicode="W" horiz-adv-x="974" 
d="M700 121l-213 606l-210 -606l-202 579h-61l259 -727l214 603l214 -603l259 727h-61z" />
    <glyph glyph-name="X" unicode="X" horiz-adv-x="533" 
d="M438 700l-168 -285l-165 285h-66l202 -333l-227 -367h66l189 318l184 -318h66l-222 367l207 333h-66z" />
    <glyph glyph-name="Y" unicode="Y" horiz-adv-x="539" 
d="M468 700l-201 -362l-196 362h-62l231 -413v-287h55v288l235 412h-62z" />
    <glyph glyph-name="Z" unicode="Z" horiz-adv-x="541" 
d="M37 648h392l-412 -648h490v52h-396l412 648h-486v-52z" />
    <glyph glyph-name="bracketleft" unicode="[" horiz-adv-x="284" 
d="M152 731h112v49h-164v-1000h164v49h-112v902z" />
    <glyph glyph-name="backslash" unicode="\" horiz-adv-x="483" 
d="M15 700l397 -700h56l-397 700h-56z" />
    <glyph glyph-name="bracketright" unicode="]" horiz-adv-x="284" 
d="M132 -171h-112v-49h164v1000h-164v-49h112v-902z" />
    <glyph glyph-name="asciicircum" unicode="^" horiz-adv-x="510" 
d="M255 650l136 -190h54l-178 250h-24l-178 -250h54z" />
    <glyph glyph-name="underscore" unicode="_" horiz-adv-x="500" 
d="M0 -123h500v37h-500v-37z" />
    <glyph glyph-name="grave" unicode="`" horiz-adv-x="366" 
d="M85 673l177 -153l29 20l-158 160z" />
    <glyph glyph-name="a" unicode="a" horiz-adv-x="463" 
d="M87 138c0 23.333 5.33203 42.334 15.999 57.001s25.5 25.667 44.5 33s41.5 11 67.5 11c28 0 54.833 -3.83301 80.5 -11.5s49.834 -19.5 72.501 -35.5v33c-6 6 -16 13.333 -30 22s-31.833 16.5 -53.5 23.5s-47.5 10.5 -77.5 10.5c-53.333 0 -95.5 -13 -126.5 -39
s-46.5 -61.333 -46.5 -106c0 -32.667 7.33301 -59.667 22 -81s34 -37.5 58 -48.5s49 -16.5 75 -16.5c26.667 0 53 5.66699 79 17s47.667 28.666 65 51.999s26 53 26 89l-12 44c0 -34 -6.66699 -62.667 -20 -86s-30.833 -41 -52.5 -53s-45.5 -18 -71.5 -18
c-21.333 0 -40.833 3.83301 -58.5 11.5s-31.667 19.167 -42 34.5s-15.5 34.333 -15.5 57zM88.999 376.001c8.66699 6.66699 19.502 13.668 32.502 21.001s28.5 13.666 46.5 18.999s38.333 8 61 8c22 0 40.667 -3 56 -9s27.5 -14 36.5 -24s15.5 -21.167 19.5 -33.5
s6 -25.166 6 -38.499v-319h52v326c0 30.667 -6.66699 56.667 -20 78s-32.333 37.666 -57 48.999s-54.334 17 -89.001 17c-40.667 0 -74.834 -6.16699 -102.501 -18.5s-50.167 -24.5 -67.5 -36.5z" />
    <glyph glyph-name="b" unicode="b" horiz-adv-x="558" 
d="M126 780h-52v-780h52v780zM519 230c0 50 -9.83301 92.832 -29.5 128.499s-46.334 63.167 -80.001 82.5s-71.167 29 -112.5 29c-38.667 0 -72.667 -10.5 -102 -31.5s-52.166 -49.5 -68.499 -85.5s-24.5 -77 -24.5 -123c0 -45.333 8.16699 -86.166 24.5 -122.499
s39.166 -65 68.499 -86s63.333 -31.5 102 -31.5c41.333 0 78.833 9.66699 112.5 29s60.334 47 80.001 83s29.5 78.667 29.5 128zM467 229.999c0 -40 -8 -74.3369 -24 -103.004s-37.333 -50.5 -64 -65.5s-56.334 -22.5 -89.001 -22.5c-28 0 -54.667 8.33301 -80 25
s-45.666 39.334 -60.999 68.001s-23 61.334 -23 98.001s7.66699 69.334 23 98.001s35.666 51.334 60.999 68.001s52 25 80 25c32.667 0 62.334 -7.5 89.001 -22.5s48 -36.833 64 -65.5s24 -63 24 -103z" />
    <glyph glyph-name="c" unicode="c" horiz-adv-x="482" 
d="M87 230c0 37.333 8 70.332 24 98.999s37.833 51.167 65.5 67.5s58.834 24.5 93.501 24.5c24.667 0 47.667 -3.66699 69 -11s39.833 -16.666 55.5 -27.999s26.834 -23.333 33.501 -36v65c-14 16 -35.5 29.833 -64.5 41.5s-60.167 17.5 -93.5 17.5
c-44.667 0 -84.667 -10.333 -120 -31s-63.5 -49 -84.5 -85s-31.5 -77.333 -31.5 -124c0 -46 10.5 -87.167 31.5 -123.5s49.167 -64.833 84.5 -85.5s75.333 -31 120 -31c33.333 0 64.5 5.66699 93.5 17s50.5 25.333 64.5 42v65c-6.66699 -12 -17.834 -23.833 -33.501 -35.5
s-34.167 -21.167 -55.5 -28.5s-44.333 -11 -69 -11c-34.667 0 -65.834 8.16699 -93.501 24.5s-49.5 38.833 -65.5 67.5s-24 61.667 -24 99z" />
    <glyph glyph-name="d" unicode="d" horiz-adv-x="558" 
d="M432 780v-780h52v780h-52zM39 230c0 -49.333 10 -91.999 30 -127.999s46.833 -63.667 80.5 -83s70.834 -29 111.501 -29c40 0 74.333 10.5 103 31.5s51.167 49.667 67.5 86s24.5 77.166 24.5 122.499c0 46 -8.16699 87 -24.5 123s-38.833 64.5 -67.5 85.5
s-63 31.5 -103 31.5c-40.667 0 -77.834 -9.66699 -111.501 -29s-60.5 -46.833 -80.5 -82.5s-30 -78.5 -30 -128.5zM92 230.001c0 40 7.83301 74.3369 23.5 103.004s37 50.5 64 65.5s56.5 22.5 88.5 22.5c28.667 0 55.5 -8.33301 80.5 -25s45.167 -39.334 60.5 -68.001
s23 -61.334 23 -98.001s-7.66699 -69.334 -23 -98.001s-35.5 -51.334 -60.5 -68.001s-51.833 -25 -80.5 -25c-32 0 -61.5 7.5 -88.5 22.5s-48.333 36.833 -64 65.5s-23.5 63 -23.5 103z" />
    <glyph glyph-name="e" unicode="e" horiz-adv-x="510" 
d="M252 -10c46 0 86.167 9.50195 120.5 28.502s64.5 48.5 90.5 88.5l-42 27c-20.667 -32.667 -44.167 -56.667 -70.5 -72s-57.166 -23 -92.499 -23c-33.333 0 -62.5 8 -87.5 24s-44.333 38.667 -58 68s-20.5 63.666 -20.5 102.999c0 38.667 7 72.167 21 100.5
s33.5 50.333 58.5 66s54.5 23.5 88.5 23.5c29.333 0 55.666 -7 78.999 -21s41.833 -33.333 55.5 -58s20.5 -52.667 20.5 -84c0 -5.33301 -0.833008 -10.833 -2.5 -16.5s-3.16699 -10.167 -4.5 -13.5l22 31h-358v-45h397c0.666992 3.33301 1.16699 7.33301 1.5 12
s0.5 9 0.5 13c0 44.667 -8.83301 84.167 -26.5 118.5s-42.334 61.166 -74.001 80.499s-68.5 29 -110.5 29c-43.333 0 -81.666 -10.167 -114.999 -30.5s-59.333 -48.5 -78 -84.5s-28 -77.333 -28 -124s9.16699 -88.167 27.5 -124.5s43.5 -64.833 75.5 -85.5
s68.667 -31 110 -31z" />
    <glyph glyph-name="f" unicode="f" horiz-adv-x="283" 
d="M44 460v-49h216v49h-216zM270 704l28.998 41.998c-4.66699 6.66699 -11.167 13.334 -19.5 20.001s-18 12.167 -29 16.5s-23.833 6.5 -38.5 6.5c-28 0 -51 -6.16699 -69 -18.5s-31.5 -29.666 -40.5 -51.999s-13.5 -49.166 -13.5 -80.499v-638h52v632
c0 20.667 2.33301 39 7 55s11.834 28.333 21.501 37s22.834 13 39.501 13c12 0 23.333 -2.83301 34 -8.5s19.667 -13.834 27 -24.501z" />
    <glyph glyph-name="g" unicode="g" horiz-adv-x="558" 
d="M50 -30c0 -39.333 8.99805 -74.1699 26.998 -104.503s43.167 -53.833 75.5 -70.5s69.5 -25 111.5 -25c38.667 0 74.667 9 108 27s60.333 44.833 81 80.5s31 79.834 31 132.501v450h-52v-450c0 -44 -8.16699 -80.167 -24.5 -108.5s-37.166 -49.166 -62.499 -62.499
s-52.333 -20 -81 -20c-32 0 -60.167 6.66699 -84.5 20s-43.166 31.333 -56.499 54s-20 48.334 -20 77.001h-53zM38.998 229.996c0 -49.333 10 -91.999 30 -127.999s46.833 -63.667 80.5 -83s70.834 -29 111.501 -29c40 0 74.333 10.5 103 31.5s51.167 49.667 67.5 86
s24.5 77.166 24.5 122.499c0 46 -8.16699 87 -24.5 123s-38.833 64.5 -67.5 85.5s-63 31.5 -103 31.5c-40.667 0 -77.834 -9.66699 -111.501 -29s-60.5 -46.833 -80.5 -82.5s-30 -78.5 -30 -128.5zM91.998 229.997c0 40 7.83105 74.334 23.498 103.001s37 50.5 64 65.5
s56.5 22.5 88.5 22.5c21.333 0 41.833 -4.83301 61.5 -14.5s37.334 -23.167 53.001 -40.5s27.834 -37.333 36.501 -60s13 -47.334 13 -74.001c0 -37.333 -7.66699 -70.5 -23 -99.5s-35.5 -51.833 -60.5 -68.5s-51.833 -25 -80.5 -25c-32 0 -61.5 7.5 -88.5 22.5
s-48.333 36.833 -64 65.5s-23.5 63 -23.5 103z" />
    <glyph glyph-name="h" unicode="h" 
d="M131 780h-52v-780h52v780zM374 296v-296h52v302c0 36 -5.66699 66.5 -17 91.5s-28 44 -50 57s-49 19.5 -81 19.5s-60.333 -8.33301 -85 -25s-44.167 -39.167 -58.5 -67.5s-21.5 -60.833 -21.5 -97.5h18c0 26 5.83301 49.667 17.5 71s27.667 38.333 48 51s43.5 19 69.5 19
c38 0 65.5 -11 82.5 -33s25.5 -52.667 25.5 -92z" />
    <glyph glyph-name="i" unicode="i" horiz-adv-x="232" 
d="M79 668c0 -10 3.66699 -18.667 11 -26s16 -11 26 -11c10.667 0 19.5 3.66699 26.5 11s10.5 16 10.5 26c0 10.667 -3.5 19.5 -10.5 26.5s-15.833 10.5 -26.5 10.5c-10 0 -18.667 -3.5 -26 -10.5s-11 -15.833 -11 -26.5zM90 460v-460h52v460h-52z" />
    <glyph glyph-name="j" unicode="j" horiz-adv-x="222" 
d="M67 668c0 -10 3.5 -18.5 10.5 -25.5s15.833 -10.5 26.5 -10.5c10 0 18.5 3.5 25.5 10.5s10.5 15.5 10.5 25.5c0 10.667 -3.5 19.334 -10.5 26.001s-15.5 10 -25.5 10c-10.667 0 -19.5 -3.33301 -26.5 -10s-10.5 -15.334 -10.5 -26.001zM-49 -134l-29 -43
c6 -8 13.167 -15.167 21.5 -21.5s18 -11.5 29 -15.5s23.167 -6 36.5 -6c28 0 51.167 6.5 69.5 19.5s31.833 31 40.5 54s13 48.833 13 77.5v529h-52v-523c0 -20 -2 -38 -6 -54s-11 -28.5 -21 -37.5s-23.667 -13.5 -41 -13.5c-14 0 -26 3.33301 -36 10s-18.333 14.667 -25 24z
" />
    <glyph glyph-name="k" unicode="k" horiz-adv-x="413" 
d="M74 780v-780h52v780h-52zM323 460l-216 -190l236 -270h66l-236 270l217 190h-67z" />
    <glyph glyph-name="l" unicode="l" horiz-adv-x="210" 
d="M79 780v-780h52v780h-52z" />
    <glyph glyph-name="m" unicode="m" horiz-adv-x="744" 
d="M665 302c0 34.667 -5.16992 64.6699 -15.5029 90.0029s-25.5 44.666 -45.5 57.999s-44.333 20 -73 20c-30.667 0 -58.667 -9.33301 -84 -28s-44.666 -44.667 -57.999 -78c-7.33301 32.667 -21.666 58.5 -42.999 77.5s-48.666 28.5 -81.999 28.5c-30 0 -56.667 -9 -80 -27
s-41 -43.333 -53 -76v93h-52v-460h52v280c0 27.333 5.33301 51.666 16 72.999s25.167 38 43.5 50s38.833 18 61.5 18c32 0 55.667 -10.833 71 -32.5s23 -52.5 23 -92.5v-296h52v280c0 27.333 5.33301 51.666 16 72.999s25.167 38 43.5 50s38.833 18 61.5 18
c32 0 55.667 -10.833 71 -32.5s23 -52.5 23 -92.5v-296h52v302z" />
    <glyph glyph-name="n" unicode="n" 
d="M374 296l0.00195312 -295.998h52v302c0 51.333 -12.667 92.166 -38 122.499s-62 45.5 -110 45.5c-34 0 -63.833 -9.33301 -89.5 -28s-44.834 -44.667 -57.501 -78v96h-52v-460h52v280c0 26.667 5.83301 50.667 17.5 72s27.667 38.166 48 50.499s43.5 18.5 69.5 18.5
c37.333 0 64.666 -11 81.999 -33s26 -52.667 26 -92z" />
    <glyph glyph-name="o" unicode="o" horiz-adv-x="550" 
d="M39 230c0 -46 10.333 -87.167 31 -123.5s48.834 -64.833 84.501 -85.5s75.834 -31 120.501 -31s84.834 10.333 120.501 31s63.834 49.167 84.501 85.5s31 77.5 31 123.5c0 46.667 -10.333 88 -31 124s-48.834 64.333 -84.501 85s-75.834 31 -120.501 31
s-84.834 -10.333 -120.501 -31s-63.834 -49 -84.501 -85s-31 -77.333 -31 -124zM92 230c0 37.333 8 70.333 24 99s37.833 51.167 65.5 67.5s58.834 24.5 93.501 24.5s65.834 -8.16699 93.501 -24.5s49.5 -39 65.5 -68s24 -61.833 24 -98.5c0 -37.333 -8 -70.333 -24 -99
s-37.833 -51.167 -65.5 -67.5s-58.834 -24.5 -93.501 -24.5s-65.834 8.16699 -93.501 24.5s-49.5 38.833 -65.5 67.5s-24 61.667 -24 99z" />
    <glyph glyph-name="p" unicode="p" horiz-adv-x="558" 
d="M126 -220v680h-52v-680h52zM519 230c0 50 -9.83301 92.832 -29.5 128.499s-46.334 63.167 -80.001 82.5s-71.167 29 -112.5 29c-38.667 0 -72.667 -10.5 -102 -31.5s-52.166 -49.5 -68.499 -85.5s-24.5 -77 -24.5 -123c0 -45.333 8.16699 -86.166 24.5 -122.499
s39.166 -65 68.499 -86s63.333 -31.5 102 -31.5c41.333 0 78.833 9.66699 112.5 29s60.334 47 80.001 83s29.5 78.667 29.5 128zM467 229.999c0 -40 -8 -74.3369 -24 -103.004s-37.333 -50.5 -64 -65.5s-56.334 -22.5 -89.001 -22.5c-28 0 -54.667 8.33301 -80 25
s-45.666 39.334 -60.999 68.001s-23 61.334 -23 98.001s7.66699 69.334 23 98.001s35.666 51.334 60.999 68.001s52 25 80 25c32.667 0 62.334 -7.5 89.001 -22.5s48 -36.833 64 -65.5s24 -63 24 -103z" />
    <glyph glyph-name="q" unicode="q" horiz-adv-x="558" 
d="M432 -220h52v680h-52v-680zM39 230c0 -49.333 10 -91.999 30 -127.999s46.833 -63.667 80.5 -83s70.834 -29 111.501 -29c40 0 74.333 10.5 103 31.5s51.167 49.667 67.5 86s24.5 77.166 24.5 122.499c0 46 -8.16699 87 -24.5 123s-38.833 64.5 -67.5 85.5
s-63 31.5 -103 31.5c-40.667 0 -77.834 -9.66699 -111.501 -29s-60.5 -46.833 -80.5 -82.5s-30 -78.5 -30 -128.5zM92 230.001c0 40 7.83301 74.3369 23.5 103.004s37 50.5 64 65.5s56.5 22.5 88.5 22.5c28.667 0 55.5 -8.33301 80.5 -25s45.167 -39.334 60.5 -68.001
s23 -61.334 23 -98.001s-7.66699 -69.334 -23 -98.001s-35.5 -51.334 -60.5 -68.001s-51.833 -25 -80.5 -25c-32 0 -61.5 7.5 -88.5 22.5s-48.333 36.833 -64 65.5s-23.5 63 -23.5 103z" />
    <glyph glyph-name="r" unicode="r" horiz-adv-x="322" 
d="M131 460h-52v-460h52v460zM284 399l28.999 43c-10.667 10 -22.5 17.167 -35.5 21.5s-26.833 6.5 -41.5 6.5c-24 0 -45.833 -8.33301 -65.5 -25s-35.167 -39.167 -46.5 -67.5s-17 -60.833 -17 -97.5h24c0 26 3 49.667 9 71s15.833 38.333 29.5 51s31.834 19 54.501 19
c12 0 22.5 -1.83301 31.5 -5.5s18.5 -9.16699 28.5 -16.5z" />
    <glyph glyph-name="s" unicode="s" horiz-adv-x="403" 
d="M78 131l-41.999 -24.002c6.66699 -19.333 17.167 -38 31.5 -56s33.333 -32.667 57 -44s51.5 -17 83.5 -17c44 0 79.833 12.5 107.5 37.5s41.5 57.5 41.5 97.5c0 26 -6.5 47.333 -19.5 64s-30 30.667 -51 42s-43.833 21.666 -68.5 30.999
c-18.667 6.66699 -36.334 13.667 -53.001 21s-30 16.833 -40 28.5s-15 26.5 -15 44.5c0 22 7.83301 38.667 23.5 50s34.834 17 57.501 17c30.667 0 55.667 -7.33301 75 -22s34.333 -32 45 -52l43 26c-8 17.333 -19.333 33 -34 47s-32.334 25.333 -53.001 34s-44 13 -70 13
c-24 0 -46.5 -4.16699 -67.5 -12.5s-38 -21.166 -51 -38.499s-19.5 -39 -19.5 -65c0 -27.333 6.5 -49.5 19.5 -66.5s29.5 -30.5 49.5 -40.5s40.667 -19 62 -27c20 -6.66699 38.667 -14.167 56 -22.5s31.333 -18.666 42 -30.999s16 -27.833 16 -46.5
c0 -25.333 -8.5 -45.166 -25.5 -59.499s-39.5 -21.5 -67.5 -21.5c-24 0 -44.833 4.33301 -62.5 13s-32.167 20 -43.5 34s-20.333 29.333 -27 46z" />
    <glyph glyph-name="t" unicode="t" horiz-adv-x="220" 
d="M9 460v-49h202v49h-202zM84 620v-620h52v620h-52z" />
    <glyph glyph-name="u" unicode="u" 
d="M131 168l-0.000976562 292h-52v-298c0 -52.667 12.667 -94.5 38 -125.5s62 -46.5 110 -46.5c34.667 0 64.667 9.33301 90 28s44.333 44.667 57 78v-96h52v460h-52v-280c0 -26 -5.83301 -49.667 -17.5 -71s-27.667 -38.333 -48 -51s-43.5 -19 -69.5 -19
c-37.333 0 -64.666 11.5 -81.999 34.5s-26 54.5 -26 94.5z" />
    <glyph glyph-name="v" unicode="v" horiz-adv-x="432" 
d="M4 460l212 -487l212 487h-59l-153 -375l-153 375h-59z" />
    <glyph glyph-name="w" unicode="w" horiz-adv-x="656" 
d="M9 460l179 -487l136 383l144 -383l179 487h-58l-124 -357l-142 384l-132 -383l-124 356h-58z" />
    <glyph glyph-name="x" unicode="x" horiz-adv-x="404" 
d="M330 460l-128 -182l-128 182h-60l159 -223l-169 -237h60l138 196l138 -196h60l-169 237l159 223h-60z" />
    <glyph glyph-name="y" unicode="y" horiz-adv-x="434" 
d="M430 460h-58l-163 -390l24 -2l-167 392h-62l186 -413l-118 -267h58z" />
    <glyph glyph-name="z" unicode="z" horiz-adv-x="448" 
d="M332 411l-315 -411h402v49h-307l315 411h-384v-49h289z" />
    <glyph glyph-name="braceleft" unicode="{" horiz-adv-x="299" 
d="M166 652c0 27.333 4.83301 47.834 14.5 61.501s25.5 20.5 47.5 20.5h29v46h-44c-18.667 0 -35.5 -4.83301 -50.5 -14.5s-26.833 -24.667 -35.5 -45s-13 -47.166 -13 -80.499v-210c0 -38 -4.83301 -66.167 -14.5 -84.5s-22.167 -30.166 -37.5 -35.499v-40
c15.333 -4.66699 27.833 -16.334 37.5 -35.001s14.5 -47 14.5 -85v-210c0 -32.667 4.33301 -59.334 13 -80.001s20.5 -35.834 35.5 -45.501s31.833 -14.5 50.5 -14.5h44v46h-29c-22 0 -37.833 7 -47.5 21s-14.5 34.333 -14.5 61v186c0 22 -1.33301 44 -4 66
s-7.5 41.667 -14.5 59s-16.667 31.333 -29 42s-28.166 16 -47.499 16v-14c19.333 0 35.166 5.33301 47.499 16s22 24.667 29 42s11.833 37 14.5 59s4 44 4 66v186z" />
    <glyph glyph-name="bar" unicode="|" horiz-adv-x="248" 
d="M100 785v-1000h48v1000h-48z" />
    <glyph glyph-name="braceright" unicode="}" horiz-adv-x="299" 
d="M138 -72c0 -26.667 -4.66699 -47.001 -14 -61.001s-25.333 -21 -48 -21h-29v-46h44c18.667 0 35.5 4.83301 50.5 14.5s26.833 24.834 35.5 45.501s13 47.334 13 80.001v210c0 38 5 66.333 15 85s22.333 30.334 37 35.001v40c-14.667 5.33301 -27 17.166 -37 35.499
s-15 46.5 -15 84.5v210c0 33.333 -4.33301 60.166 -13 80.499s-20.5 35.333 -35.5 45s-31.833 14.5 -50.5 14.5h-44v-46h29c22.667 0 38.667 -6.83301 48 -20.5s14 -34.167 14 -61.5v-186c0 -22 1.5 -44 4.5 -66s7.83301 -41.667 14.5 -59s16.167 -31.333 28.5 -42
s28.166 -16 47.499 -16v14c-19.333 0 -35.166 -5.33301 -47.499 -16s-21.833 -24.667 -28.5 -42s-11.5 -37 -14.5 -59s-4.5 -44 -4.5 -66v-186z" />
    <glyph glyph-name="asciitilde" unicode="~" horiz-adv-x="575" 
d="M120 177c-1.33301 4 -2.33301 7.83398 -3 11.501s-1 7.16699 -1 10.5c0 24 6.33301 43.333 19 58s30.667 22 54 22c12.667 0 24.5 -2.5 35.5 -7.5s21.5 -11.167 31.5 -18.5s19.667 -15.333 29 -24c18.667 -16 37 -29.5 55 -40.5s37.333 -16.5 58 -16.5
c17.333 0 33.333 3.5 48 10.5s27.334 17.5 38.001 31.5c8.66699 11.333 14.5 23.666 17.5 36.999s4.5 26.333 4.5 39c0 5.33301 -0.333008 10.333 -1 15s-1.66699 9 -3 13l-51 4c2 -4.66699 3.33301 -9.5 4 -14.5s1 -9.5 1 -13.5c0 -22 -5 -39.667 -15 -53s-25 -20 -45 -20
c-15.333 0 -29.833 4.5 -43.5 13.5s-27.5 19.833 -41.5 32.5c-12 10.667 -24.333 20.5 -37 29.5s-25.834 16.333 -39.501 22s-28.5 8.5 -44.5 8.5c-19.333 0 -37.333 -4 -54 -12s-30.667 -19.333 -42 -34c-8.66699 -11.333 -15 -23.5 -19 -36.5s-6 -26.167 -6 -39.5
c0 -8.66699 1 -16.667 3 -24z" />
    <glyph glyph-name="uni00A0" unicode="&#xa0;" horiz-adv-x="300" 
 />
    <glyph glyph-name="exclamdown" unicode="&#xa1;" horiz-adv-x="300" 
d="M190 -245l-13 500h-39l-13 -500h65zM195 431c0 10 -3.66699 18.667 -11 26s-16 11 -26 11s-18.833 -3.66699 -26.5 -11s-11.5 -16 -11.5 -26c0 -10.667 3.83301 -19.667 11.5 -27s16.5 -11 26.5 -11s18.667 3.66699 26 11s11 16.333 11 27z" />
    <glyph glyph-name="cent" unicode="&#xa2;" horiz-adv-x="580" 
d="M294 21l-2 -133h44l-2 133h-40zM136 230c0 36.667 8 69.5 24 98.5s37.833 51.667 65.5 68s58.834 24.5 93.501 24.5c37.333 0 70.333 -7.83301 99 -23.5s48.334 -32.834 59.001 -51.501v65c-14 16 -35.5 29.833 -64.5 41.5s-60.167 17.5 -93.5 17.5
c-44.667 0 -84.667 -10.333 -120 -31s-63.5 -49 -84.5 -85s-31.5 -77.333 -31.5 -124c0 -46 10.5 -87.167 31.5 -123.5s49.167 -64.833 84.5 -85.5s75.333 -31 120 -31c33.333 0 64.5 5.66699 93.5 17s50.5 25.333 64.5 42v65
c-10.667 -18.667 -30.334 -35.834 -59.001 -51.501s-61.667 -23.5 -99 -23.5c-34.667 0 -65.834 8.33301 -93.501 25s-49.5 39.334 -65.5 68.001s-24 61.334 -24 98.001zM292 578l2 -136h40l2 136h-44z" />
    <glyph glyph-name="sterling" unicode="&#xa3;" horiz-adv-x="580" 
d="M75 344v-49h340v49h-340zM462 487l47.002 17.001c-1.33301 20 -5.83301 41.833 -13.5 65.5s-19.167 46.167 -34.5 67.5s-34.833 38.833 -58.5 52.5s-52.167 20.5 -85.5 20.5c-38 0 -71.5 -7.83301 -100.5 -23.5s-51.667 -37.334 -68 -65.001s-24.5 -59.5 -24.5 -95.5
c0 -26.667 3.66699 -50 11 -70s16.5 -38.167 27.5 -54.5l32.5 -47c10.667 -15 19.667 -30.5 27 -46.5s11 -33.667 11 -53c0 -29.333 -6.83301 -57 -20.5 -83s-32.334 -52.667 -56.001 -80l-80.5 -92h433v52h-375v-22c14 8 29.5 19.5 46.5 34.5s33.667 33 50 54
s29.666 43.833 39.999 68.5s15.5 50.334 15.5 77.001c0 22 -3.5 41.5 -10.5 58.5s-15.833 32.833 -26.5 47.5l-31.5 44.5c-10.333 15 -19.166 31.5 -26.499 49.5s-11 39 -11 63c0 26 6.16699 48.667 18.5 68s28.833 34.333 49.5 45s43.667 16 69 16
c24.667 0 46.167 -5.16699 64.5 -15.5s33.166 -24 44.499 -41s20 -35.333 26 -55s9.33301 -38.834 10 -57.501z" />
    <glyph glyph-name="currency" unicode="&#xa4;" horiz-adv-x="572" 
d="M45 511l82 -81l33 33l-81 82zM79 55l81 82l-33 33l-82 -81zM449 430l81 81l-33 34l-82 -82zM415 137l82 -82l33 34l-81 81zM52 300c0 -46 10.5 -87.167 31.5 -123.5s49.167 -64.833 84.5 -85.5s74.666 -31 117.999 -31c44 0 83.5 10.333 118.5 31s63 49.167 84 85.5
s31.5 77.5 31.5 123.5c0 46.667 -10.5 88 -31.5 124s-49 64.333 -84 85s-74.5 31 -118.5 31c-43.333 0 -82.666 -10.333 -117.999 -31s-63.5 -49 -84.5 -85s-31.5 -77.333 -31.5 -124zM105 300c0 36.667 8 69.5 24 98.5s37.667 51.667 65 68s58 24.5 92 24.5
s64.667 -8.16699 92 -24.5s49 -39 65 -68s24 -61.833 24 -98.5s-8 -69.5 -24 -98.5s-37.667 -51.667 -65 -68s-58 -24.5 -92 -24.5s-64.667 8.16699 -92 24.5s-49 39 -65 68s-24 61.833 -24 98.5z" />
    <glyph glyph-name="yen" unicode="&#xa5;" horiz-adv-x="574" 
d="M39 282h482v49h-482v-49zM39 142h482v49h-482v-49zM480 700l-200 -362l-197 362h-62l231 -411v-289h56v290l234 410h-62z" />
    <glyph glyph-name="brokenbar" unicode="&#xa6;" horiz-adv-x="248" 
d="M100 695v-240h48v240h-48zM148 245h-48v-240h48v240z" />
    <glyph glyph-name="section" unicode="&#xa7;" horiz-adv-x="404" 
d="M329 594l41.002 25.999c-6 17.333 -17.333 32.666 -34 45.999s-36.334 24 -59.001 32s-46.334 12 -71.001 12s-48.167 -4.5 -70.5 -13.5s-40.666 -22.167 -54.999 -39.5s-21.5 -38.666 -21.5 -63.999c0 -19.333 4.33301 -35.833 13 -49.5s20.167 -25.334 34.5 -35.001
s29.666 -18.167 45.999 -25.5s32.5 -14 48.5 -20c18 -6.66699 36.167 -14.5 54.5 -23.5s33.666 -19.667 45.999 -32s18.5 -27.5 18.5 -45.5c0 -17.333 -4.83301 -33.333 -14.5 -48s-22.834 -26.667 -39.501 -36s-36 -15 -58 -17v-21c24.667 0 47.167 2.33301 67.5 7
s37.833 12 52.5 22s26 23 34 39s12 35.333 12 58s-6.66699 42 -20 58s-30.166 30 -50.499 42s-41.5 22.333 -63.5 31l-41.5 17c-15 6 -29.167 12.833 -42.5 20.5s-24.166 16.334 -32.499 26.001s-12.5 20.5 -12.5 32.5c0 16 4.66699 28.833 14 38.5s21.333 16.834 36 21.501
s30 7 46 7s32 -2.66699 48 -8s30.667 -12.833 44 -22.5s23.333 -21.5 30 -35.5zM73.002 146.999l-42.998 -24.0029c4.66699 -24.667 16 -47.167 34 -67.5s40.167 -36.333 66.5 -48s53.5 -17.5 81.5 -17.5c22.667 0 43.834 2.33301 63.501 7s37 12.334 52 23.001
s26.5 24 34.5 40s12 35.333 12 58c0 25.333 -6.83301 46.5 -20.5 63.5s-31 31.5 -52 43.5s-42.5 22.333 -64.5 31l-41 17c-14.667 6 -28.5 13 -41.5 21s-23.5 17.667 -31.5 29s-12 25.333 -12 42c0 15.333 4.16699 29.5 12.5 42.5s21.166 24.333 38.499 34
s38.666 17.167 63.999 22.5v16c-28.667 0 -53.5 -3 -74.5 -9s-38.333 -14.667 -52 -26s-23.834 -24.166 -30.501 -38.499s-10 -30.166 -10 -47.499c0 -24 7.33301 -44.667 22 -62s32.667 -31.833 54 -43.5s42.333 -22.167 63 -31.5c19.333 -7.33301 38.333 -15.5 57 -24.5
s34.167 -20 46.5 -33s18.5 -29.833 18.5 -50.5c0 -18.667 -5 -33.5 -15 -44.5s-23 -18.833 -39 -23.5s-33 -7 -51 -7c-22.667 0 -44 4.83301 -64 14.5s-37 22.667 -51 39s-23 34.5 -27 54.5z" />
    <glyph glyph-name="dieresis" unicode="&#xa8;" horiz-adv-x="451" 
d="M288 672c0 -10.667 3.83301 -19.667 11.5 -27s16.5 -11 26.5 -11s18.667 3.66699 26 11s11 16.333 11 27c0 10 -3.66699 18.667 -11 26s-16 11 -26 11s-18.833 -3.66699 -26.5 -11s-11.5 -16 -11.5 -26zM88 672c0 -10.667 3.83301 -19.667 11.5 -27s16.5 -11 26.5 -11
s18.667 3.66699 26 11s11 16.333 11 27c0 10 -3.66699 18.667 -11 26s-16 11 -26 11s-18.833 -3.66699 -26.5 -11s-11.5 -16 -11.5 -26z" />
    <glyph glyph-name="copyright" unicode="&#xa9;" horiz-adv-x="800" 
d="M223 350c0 36 7.33105 67.6689 21.998 95.002s34.834 48.666 60.501 63.999s54.834 23 87.501 23c28.667 0 54.334 -5 77.001 -15s42 -24 58 -42v44c-17.333 15.333 -36.5 27 -57.5 35s-46.833 12 -77.5 12c-38.667 0 -73.5 -9.33301 -104.5 -28
s-55.667 -44.167 -74 -76.5s-27.5 -69.5 -27.5 -111.5c0 -41.333 9.16699 -78.333 27.5 -111s43 -58.334 74 -77.001s65.833 -28 104.5 -28c30.667 0 56.5 4 77.5 12s40.167 19.667 57.5 35v44c-16 -17.333 -35.167 -31.166 -57.5 -41.499s-48.166 -15.5 -77.499 -15.5
c-32.667 0 -61.834 7.83301 -87.501 23.5s-45.834 37.167 -60.501 64.5s-22 58.666 -22 93.999zM76.998 350.002c0 47.333 8.16699 90.833 24.5 130.5s39.333 74.167 69 103.5s64 52 103 68s81.167 24 126.5 24s87.5 -8 126.5 -24s73.333 -38.667 103 -68
s52.667 -63.833 69 -103.5s24.5 -83.167 24.5 -130.5s-8.16699 -90.833 -24.5 -130.5s-39.333 -74.167 -69 -103.5s-64 -52 -103 -68s-81.167 -24 -126.5 -24s-87.5 8 -126.5 24s-73.333 38.667 -103 68s-52.667 63.833 -69 103.5s-24.5 83.167 -24.5 130.5zM39.998 350.002
c0 -52 9.16699 -100 27.5 -144s43.666 -82.167 75.999 -114.5s70.5 -57.333 114.5 -75s91.333 -26.5 142 -26.5c51.333 0 98.833 8.83301 142.5 26.5s81.667 42.667 114 75s57.666 70.5 75.999 114.5s27.5 92 27.5 144s-9.16699 100 -27.5 144s-43.666 82.167 -75.999 114.5
s-70.333 57.333 -114 75s-91.167 26.5 -142.5 26.5c-50.667 0 -98 -8.83301 -142 -26.5s-82.167 -42.667 -114.5 -75s-57.666 -70.5 -75.999 -114.5s-27.5 -92 -27.5 -144z" />
    <glyph glyph-name="ordfeminine" unicode="&#xaa;" horiz-adv-x="238" 
d="M49 530c0 18 6.83105 32.167 20.498 42.5s29.834 15.5 48.501 15.5c16 0 29.833 -2.16699 41.5 -6.5s21.834 -10.166 30.501 -17.499v17c-4 4 -11.833 9.5 -23.5 16.5s-28.167 10.5 -49.5 10.5c-24 0 -45.833 -7 -65.5 -21s-29.5 -33 -29.5 -57
c0 -24.667 8.16699 -43.334 24.5 -56.001s34.5 -19 54.5 -19c24.667 0 45 7.16699 61 21.5s24 32.5 24 54.5l-6 15c0 -21.333 -7.33301 -37.833 -22 -49.5s-31.667 -17.5 -51 -17.5c-18 0 -32.167 4.5 -42.5 13.5s-15.5 21.5 -15.5 37.5zM55.998 652
c6.66699 6.66699 16 13.001 28 19.001s26.333 9 43 9c16 0 28.833 -4.33301 38.5 -13s14.5 -20.667 14.5 -36v-171h26v171c0 22 -7 39.5 -21 52.5s-33.333 19.5 -58 19.5c-20 0 -37 -3.33301 -51 -10s-25 -13.334 -33 -20.001z" />
    <glyph glyph-name="guillemotleft" unicode="&#xab;" horiz-adv-x="500" 
d="M258 257l172 203l-33 30l-197 -235l197 -235l33 30zM98 257l172 203l-33 30l-197 -235l197 -235l33 30z" />
    <glyph glyph-name="logicalnot" unicode="&#xac;" horiz-adv-x="620" 
d="M65 326h441v-151h49v200h-490v-49z" />
    <glyph glyph-name="uni00AD" unicode="&#xad;" horiz-adv-x="210" 
d="M5 226h200v49h-200v-49z" />
    <glyph glyph-name="registered" unicode="&#xae;" horiz-adv-x="800" 
d="M355 350l140 -200h41l-143 200h-38zM284 570v-420h34v420h-34zM302 540h78c32.667 0 59.167 -7.66699 79.5 -23s30.5 -38.333 30.5 -69c0 -30 -10.167 -53 -30.5 -69s-46.833 -24 -79.5 -24h-78v-29h78c40.667 0 74.667 10.667 102 32s41 51.333 41 90
s-13.667 68.667 -41 90s-61.333 32 -102 32h-78v-30zM77 350c0 47.333 8.16699 90.833 24.5 130.5s39.333 74.167 69 103.5s64 52 103 68s81.167 24 126.5 24s87.5 -8 126.5 -24s73.333 -38.667 103 -68s52.667 -63.833 69 -103.5s24.5 -83.167 24.5 -130.5
s-8.16699 -90.833 -24.5 -130.5s-39.333 -74.167 -69 -103.5s-64 -52 -103 -68s-81.167 -24 -126.5 -24s-87.5 8 -126.5 24s-73.333 38.667 -103 68s-52.667 63.833 -69 103.5s-24.5 83.167 -24.5 130.5zM40 350c0 -52 9.16699 -100 27.5 -144s43.666 -82.167 75.999 -114.5
s70.5 -57.333 114.5 -75s91.333 -26.5 142 -26.5c51.333 0 98.833 8.83301 142.5 26.5s81.667 42.667 114 75s57.666 70.5 75.999 114.5s27.5 92 27.5 144s-9.16699 100 -27.5 144s-43.666 82.167 -75.999 114.5s-70.333 57.333 -114 75s-91.167 26.5 -142.5 26.5
c-50.667 0 -98 -8.83301 -142 -26.5s-82.167 -42.667 -114.5 -75s-57.666 -70.5 -75.999 -114.5s-27.5 -92 -27.5 -144z" />
    <glyph glyph-name="macron" unicode="&#xaf;" horiz-adv-x="510" 
d="M80 626h350v49h-350v-49z" />
    <glyph glyph-name="degree" unicode="&#xb0;" horiz-adv-x="278" 
d="M20 600c0 -34.667 11.333 -63.334 34 -86.001s51 -34 85 -34s62.333 11.333 85 34s34 51.334 34 86.001c0 35.333 -11.333 64.166 -34 86.499s-51 33.5 -85 33.5s-62.333 -11.167 -85 -33.5s-34 -51.166 -34 -86.499zM48 600c0 27.333 8.83301 49.666 26.5 66.999
s39.167 26 64.5 26s46.833 -8.66699 64.5 -26s26.5 -39.666 26.5 -66.999s-8.83301 -49.666 -26.5 -66.999s-39.167 -26 -64.5 -26s-46.833 8.66699 -64.5 26s-26.5 39.666 -26.5 66.999z" />
    <glyph glyph-name="plusminus" unicode="&#xb1;" horiz-adv-x="613" 
d="M65 0h483v52h-483v-52zM65 359h483v52h-483v-52zM279 620v-470h55v470h-55z" />
    <glyph glyph-name="uni00B2" unicode="&#xb2;" horiz-adv-x="340" 
d="M27 282l286 0.00195312v31h-217l153 158c16 16.667 29.333 34.5 40 53.5s16 39.833 16 62.5c0 18 -4 36.333 -12 55s-21 34.5 -39 47.5s-41.667 19.5 -71 19.5c-26.667 0 -50.167 -6.33301 -70.5 -19s-36 -30.334 -47 -53.001s-16.5 -49 -16.5 -79h33
c0 36 9.33301 65 28 87s43 33 73 33c21.333 0 38.333 -4.5 51 -13.5s22.167 -20.333 28.5 -34s9.5 -27.5 9.5 -41.5c0 -20 -4.66699 -37.833 -14 -53.5s-21 -30.834 -35 -45.501z" />
    <glyph glyph-name="uni00B3" unicode="&#xb3;" horiz-adv-x="310" 
d="M141 491c24.667 0 47.167 4.5 67.5 13.5s36.5 21.5 48.5 37.5s18 34 18 54c0 28.667 -9.83301 54.167 -29.5 76.5s-47.5 33.5 -83.5 33.5c-34.667 0 -62.834 -10.167 -84.501 -30.5s-32.5 -46.833 -32.5 -79.5h32c0 23.333 8 42.5 24 57.5s36.333 22.5 61 22.5
c26 0 45.833 -7.83301 59.5 -23.5s20.5 -34.5 20.5 -56.5c0 -16.667 -4.66699 -31.167 -14 -43.5s-21.666 -22 -36.999 -29s-32 -10.5 -50 -10.5v-22zM159 274c37.333 0 68.001 10.501 92.001 31.501s36 48.833 36 83.5c0 26.667 -7 48.5 -21 65.5s-32.167 29.667 -54.5 38
s-45.833 12.5 -70.5 12.5v-22c18 0 35.667 -3.16699 53 -9.5s31.666 -16.333 42.999 -30s17 -30.834 17 -51.501c0 -26 -8.66699 -47 -26 -63s-40.333 -24 -69 -24c-30 0 -53.833 8.16699 -71.5 24.5s-26.5 36.833 -26.5 61.5h-34c0 -21.333 5.33301 -41 16 -59
s26 -32.167 46 -42.5s43.333 -15.5 70 -15.5z" />
    <glyph glyph-name="acute" unicode="&#xb4;" horiz-adv-x="366" 
d="M281 673l-48 27l-158 -160l29 -20z" />
    <glyph glyph-name="mu" unicode="&#xb5;" 
d="M131 460l-52.002 -0.000976562v-780h52v354c10 -14 22.833 -24.833 38.5 -32.5s34.834 -11.5 57.501 -11.5c32.667 0 62 9 88 27s45.667 42.333 59 73v-90h52v460h-52v-280c0 -26 -5.83301 -49.667 -17.5 -71s-27.667 -38.333 -48 -51s-43.5 -19 -69.5 -19
c-37.333 0 -64.666 11.333 -81.999 34s-26 54.334 -26 95.001v292z" />
    <glyph glyph-name="paragraph" unicode="&#xb6;" horiz-adv-x="526" 
d="M288 270v-489.998h46v877h86v-877h46v920h-178c-41.333 0 -79.333 -8.33301 -114 -25s-62.334 -40.834 -83.001 -72.501s-31 -70.834 -31 -117.501c0 -46 10.333 -85 31 -117s48.334 -56.333 83.001 -73s72.667 -25 114 -25z" />
    <glyph glyph-name="periodcentered" unicode="&#xb7;" horiz-adv-x="277" 
d="M101 232c0 -10 3.83301 -18.667 11.5 -26s16.5 -11 26.5 -11s18.667 3.66699 26 11s11 16 11 26c0 10.667 -3.66699 19.667 -11 27s-16 11 -26 11s-18.833 -3.66699 -26.5 -11s-11.5 -16.333 -11.5 -27z" />
    <glyph glyph-name="cedilla" unicode="&#xb8;" horiz-adv-x="350" 
d="M188 36l-73.002 -136.001c10.667 7.33301 22.334 12.666 35.001 15.999s23.334 5 32.001 5c16 0 29.167 -3.83301 39.5 -11.5s15.5 -19.5 15.5 -35.5c0 -18.667 -6.5 -33 -19.5 -43s-29.5 -15 -49.5 -15c-14 0 -25.833 2.33301 -35.5 7s-19.834 11.667 -30.501 21
l-23 -26c14 -14 27.667 -23.833 41 -29.5s29.333 -8.5 48 -8.5s36 3.66699 52 11s29.167 18 39.5 32s15.5 31 15.5 51c0 16.667 -3.83301 30.334 -11.5 41.001s-17 18.834 -28 24.501s-22.167 8.5 -33.5 8.5c-7.33301 0 -13.166 -0.833008 -17.499 -2.5
s-9.5 -4.16699 -15.5 -7.5l60 98h-41z" />
    <glyph glyph-name="uni00B9" unicode="&#xb9;" horiz-adv-x="470" 
d="M148 633l97 26v-385h33v425l-130 -31v-35z" />
    <glyph glyph-name="ordmasculine" unicode="&#xba;" horiz-adv-x="278" 
d="M20 580c0 -34.667 11.333 -63.334 34 -86.001s51 -34 85 -34s62.333 11.333 85 34s34 51.334 34 86.001c0 35.333 -11.333 64.166 -34 86.499s-51 33.5 -85 33.5s-62.333 -11.167 -85 -33.5s-34 -51.166 -34 -86.499zM48 580c0 27.333 8.83301 49.666 26.5 66.999
s39.167 26 64.5 26s46.833 -8.66699 64.5 -26s26.5 -39.666 26.5 -66.999s-8.83301 -49.666 -26.5 -66.999s-39.167 -26 -64.5 -26s-46.833 8.66699 -64.5 26s-26.5 39.666 -26.5 66.999z" />
    <glyph glyph-name="guillemotright" unicode="&#xbb;" horiz-adv-x="500" 
d="M242 253l-172 -203l33 -30l197 235l-197 235l-33 -30zM402 253l-172 -203l33 -30l197 235l-197 235l-33 -30z" />
    <glyph glyph-name="onequarter" unicode="&#xbc;" horiz-adv-x="754" 
d="M639 700l-541 -700h44l541 700h-44zM26 633l97 26v-385h33v425l-130 -31v-35zM399 84h311v29h-79h-7h-197zM434 84l177 260v-242v-4v-98h33v420h-13l-232 -336h35z" />
    <glyph glyph-name="onehalf" unicode="&#xbd;" horiz-adv-x="819" 
d="M639 700l-541 -700h44l541 700h-44zM26 633l97 26v-385h33v425l-130 -31v-35zM494 2l286.997 -0.000976562v31h-218l153 158c16 16.667 29.5 34.334 40.5 53.001s16.5 39.334 16.5 62.001c0 18 -4.16699 36.5 -12.5 55.5s-21.5 35 -39.5 48s-41.333 19.5 -70 19.5
c-27.333 0 -51.166 -6.33301 -71.499 -19s-36 -30.334 -47 -53.001s-16.5 -49 -16.5 -79h33c0 36 9.33301 65 28 87s43.334 33 74.001 33c20.667 0 37.334 -4.5 50.001 -13.5s22.167 -20.333 28.5 -34s9.5 -27.5 9.5 -41.5c0 -20 -4.66699 -37.833 -14 -53.5
s-21 -31.167 -35 -46.5z" />
    <glyph glyph-name="threequarters" unicode="&#xbe;" horiz-adv-x="820" 
d="M706 700l-541 -700h44l541 700h-44zM146 491c24.667 0 47.167 4.5 67.5 13.5s36.5 21.5 48.5 37.5s18 34 18 54c0 28.667 -9.83301 54.167 -29.5 76.5s-47.5 33.5 -83.5 33.5c-34.667 0 -62.834 -10.167 -84.501 -30.5s-32.5 -46.833 -32.5 -79.5h32
c0 23.333 8 42.5 24 57.5s36.333 22.5 61 22.5c26 0 45.833 -7.83301 59.5 -23.5s20.5 -34.5 20.5 -56.5c0 -16.667 -4.66699 -31.167 -14 -43.5s-21.666 -22 -36.999 -29s-32 -10.5 -50 -10.5v-22zM164 274c37.333 0 68.001 10.501 92.001 31.501s36 48.833 36 83.5
c0 26.667 -7 48.5 -21 65.5s-32.167 29.667 -54.5 38s-45.833 12.5 -70.5 12.5v-22c18 0 35.667 -3.16699 53 -9.5s31.666 -16.333 42.999 -30s17 -30.834 17 -51.501c0 -26 -8.66699 -47 -26 -63s-40.333 -24 -69 -24c-30 0 -53.833 8.16699 -71.5 24.5
s-26.5 36.833 -26.5 61.5h-34c0 -21.333 5.33301 -41 16 -59s26 -32.167 46 -42.5s43.333 -15.5 70 -15.5zM466.001 84.001h311v29h-79h-7h-197zM501.001 84.001l177 260v-242v-4v-98h33v420h-13l-232 -336h35z" />
    <glyph glyph-name="questiondown" unicode="&#xbf;" horiz-adv-x="551" 
d="M121 192c0 28 8.66992 54.5 26.0029 79.5s41.5 45.167 72.5 60.5s67.167 23 108.5 23h15l-14 175h-39l-4 -139c-38.667 -1.33301 -74.667 -11 -108 -29s-60 -41.833 -80 -71.5s-30 -62.5 -30 -98.5c0 -28.667 5.16699 -55.334 15.5 -80.001s24.666 -46.167 42.999 -64.5
s40.333 -32.5 66 -42.5s54.167 -15 85.5 -15c37.333 0 68.833 4.83301 94.5 14.5s47.667 23.334 66 41.001s35.166 38.167 50.499 61.5l-43 27c-18 -28.667 -39.833 -51.667 -65.5 -69s-57.834 -26 -96.501 -26c-34 0 -63.167 6.33301 -87.5 19s-43 30.5 -56 53.5
s-19.5 49.833 -19.5 80.5zM348.003 676c0 10 -3.5 18.667 -10.5 26s-15.833 11 -26.5 11c-10 0 -18.667 -3.66699 -26 -11s-11 -16 -11 -26c0 -10.667 3.66699 -19.667 11 -27s16 -11 26 -11c10.667 0 19.5 3.66699 26.5 11s10.5 16.333 10.5 27z" />
    <glyph glyph-name="Agrave" unicode="&#xc0;" horiz-adv-x="636" 
d="M139 235h360l-18 52h-324zM318 600l138 -334l5 -13l104 -253h62l-309 727l-309 -727h62l105 257l6 12zM186 940l177 -153l29 20l-158 160z" />
    <glyph glyph-name="Aacute" unicode="&#xc1;" horiz-adv-x="636" 
d="M139 235h360l-18 52h-324zM318 600l138 -334l5 -13l104 -253h62l-309 727l-309 -727h62l105 257l6 12zM450 940l-48 27l-158 -160l29 -20z" />
    <glyph glyph-name="Acircumflex" unicode="&#xc2;" horiz-adv-x="636" 
d="M139 235h360l-18 52h-324zM318 600l138 -334l5 -13l104 -253h62l-309 727l-309 -727h62l105 257l6 12zM318 874l127 -111l33 27l-160 140l-160 -140l33 -27z" />
    <glyph glyph-name="Atilde" unicode="&#xc3;" horiz-adv-x="636" 
d="M139 235h360l-18 52h-324zM318 600l138 -334l5 -13l104 -253h62l-309 727l-309 -727h62l105 257l6 12zM169 806l34.998 -23c0 6.66699 1.5 14 4.5 22s8.33301 14.833 16 20.5s18.167 8.5 31.5 8.5c15.333 0 28.5 -3.83301 39.5 -11.5s22.833 -15.5 35.5 -23.5
s28 -12 46 -12c14 0 26.833 2.83301 38.5 8.5s21.834 13.5 30.501 23.5s15.667 21 21 33l-31 27c-9.33301 -16 -18.166 -28 -26.499 -36s-18.166 -12 -29.499 -12c-13.333 0 -24.5 2.33301 -33.5 7s-17.5 10.167 -25.5 16.5s-17 11.833 -27 16.5s-22.667 7 -38 7
c-14.667 0 -28.334 -3.16699 -41.001 -9.5s-23 -14.833 -31 -25.5s-13 -23 -15 -37z" />
    <glyph glyph-name="Adieresis" unicode="&#xc4;" horiz-adv-x="636" 
d="M139 235h360l-18 52h-324zM318 600l138 -334l5 -13l104 -253h62l-309 727l-309 -727h62l105 257l6 12zM381 832c0 -10 3.66699 -18.667 11 -26s16 -11 26 -11c10.667 0 19.5 3.66699 26.5 11s10.5 16 10.5 26c0 10.667 -3.5 19.667 -10.5 27s-15.833 11 -26.5 11
c-10 0 -18.667 -3.66699 -26 -11s-11 -16.333 -11 -27zM181 832c0 -10 3.66699 -18.667 11 -26s16 -11 26 -11c10.667 0 19.5 3.66699 26.5 11s10.5 16 10.5 26c0 10.667 -3.5 19.667 -10.5 27s-15.833 11 -26.5 11c-10 0 -18.667 -3.66699 -26 -11s-11 -16.333 -11 -27z
" />
    <glyph glyph-name="Aring" unicode="&#xc5;" horiz-adv-x="636" 
d="M139 235h360l-18 52h-324zM318 600l138 -334l5 -13l104 -253h62l-309 727l-309 -727h62l105 257l6 12zM216 802c0 -30 10.5 -54.167 31.5 -72.5s44.5 -27.5 70.5 -27.5s49.5 9.16699 70.5 27.5s31.5 42.5 31.5 72.5s-10.5 54.167 -31.5 72.5s-44.5 27.5 -70.5 27.5
s-49.5 -9.16699 -70.5 -27.5s-31.5 -42.5 -31.5 -72.5zM251 802c0 20.667 6.83301 37.167 20.5 49.5s29.167 18.5 46.5 18.5s32.833 -6.16699 46.5 -18.5s20.5 -28.833 20.5 -49.5s-6.83301 -37.167 -20.5 -49.5s-29.167 -18.5 -46.5 -18.5s-32.833 6.16699 -46.5 18.5
s-20.5 28.833 -20.5 49.5z" />
    <glyph glyph-name="AE" unicode="&#xc6;" horiz-adv-x="934" 
d="M213 238h296v52h-296v-52zM455 700l-450 -700h62l435 676zM521 0h339v52h-339v-52zM527 648h333v52h-405zM521 358h319v52h-319v-52zM490 700v-700h55v700h-55z" />
    <glyph glyph-name="Ccedilla" unicode="&#xc7;" horiz-adv-x="685" 
d="M103 350c0 60 12.6641 112.667 37.9971 158s59.333 80.833 102 106.5s90.334 38.5 143.001 38.5c32.667 0 62.667 -3.66699 90 -11s52.333 -18.166 75 -32.499s42.667 -31.5 60 -51.5v73c-29.333 26 -61.333 45.5 -96 58.5s-77.667 19.5 -129 19.5
c-48.667 0 -93.834 -8.83301 -135.501 -26.5s-77.834 -42.5 -108.501 -74.5s-54.667 -70 -72 -114s-26 -92 -26 -144s8.66699 -100 26 -144s41.333 -82 72 -114s66.834 -56.833 108.501 -74.5s86.834 -26.5 135.501 -26.5c51.333 0 94.333 6.5 129 19.5s66.667 32.5 96 58.5
v74c-17.333 -20 -37.166 -37.333 -59.499 -52s-47.166 -25.667 -74.499 -33s-57.666 -11 -90.999 -11c-52.667 0 -100.334 13 -143.001 39s-76.667 61.667 -102 107s-38 97.666 -38 156.999zM377.997 35l-74.0039 -136.001c10.667 7.33301 22.334 12.666 35.001 15.999
s23.334 5 32.001 5c16.667 0 30 -3.83301 40 -11.5s15 -19.5 15 -35.5c0 -18.667 -6.5 -33 -19.5 -43s-29.167 -15 -48.5 -15c-14.667 0 -26.667 2.33301 -36 7s-19.666 11.667 -30.999 21l-23 -26c14 -14 27.833 -23.833 41.5 -29.5s29.834 -8.5 48.501 -8.5
s36 3.66699 52 11s29 18 39 32s15 31 15 51c0 16.667 -3.66699 30.334 -11 41.001s-16.5 18.834 -27.5 24.501s-22.167 8.5 -33.5 8.5c-8 0 -14.167 -0.833008 -18.5 -2.5s-9.5 -4.16699 -15.5 -7.5l60 98h-40z" />
    <glyph glyph-name="Egrave" unicode="&#xc8;" horiz-adv-x="534" 
d="M113 0h347v52h-347v-52zM113 648h347v52h-347v-52zM113 358h327v52h-327v-52zM84 700v-700h55v700h-55zM132 922l177 -153l29 20l-158 160z" />
    <glyph glyph-name="Eacute" unicode="&#xc9;" horiz-adv-x="534" 
d="M113 0h347v52h-347v-52zM113 648h347v52h-347v-52zM113 358h327v52h-327v-52zM84 700v-700h55v700h-55zM412 922l-48 27l-158 -160l29 -20z" />
    <glyph glyph-name="Ecircumflex" unicode="&#xca;" horiz-adv-x="534" 
d="M113 0h347v52h-347v-52zM113 648h347v52h-347v-52zM113 358h327v52h-327v-52zM84 700v-700h55v700h-55zM278 880l127 -111l33 27l-160 140l-160 -140l33 -27z" />
    <glyph glyph-name="Edieresis" unicode="&#xcb;" horiz-adv-x="534" 
d="M113 0h347v52h-347v-52zM113 648h347v52h-347v-52zM113 358h327v52h-327v-52zM84 700v-700h55v700h-55zM341 827c0 -10.667 3.66699 -19.667 11 -27s16 -11 26 -11c10.667 0 19.5 3.66699 26.5 11s10.5 16.333 10.5 27c0 10 -3.5 18.667 -10.5 26s-15.833 11 -26.5 11
c-10 0 -18.667 -3.66699 -26 -11s-11 -16 -11 -26zM141 827c0 -10.667 3.66699 -19.667 11 -27s16 -11 26 -11c10.667 0 19.5 3.66699 26.5 11s10.5 16.333 10.5 27c0 10 -3.5 18.667 -10.5 26s-15.833 11 -26.5 11c-10 0 -18.667 -3.66699 -26 -11s-11 -16 -11 -26z" />
    <glyph glyph-name="Igrave" unicode="&#xcc;" horiz-adv-x="219" 
d="M82 700v-700h55v700h-55zM-31 922l177 -153l30 20l-158 160z" />
    <glyph glyph-name="Iacute" unicode="&#xcd;" horiz-adv-x="219" 
d="M82 700v-700h55v700h-55zM250 922l-48 27l-158 -160l28 -20z" />
    <glyph glyph-name="Icircumflex" unicode="&#xce;" horiz-adv-x="219" 
d="M82 700v-700h55v700h-55zM109 880l127 -111l33 27l-160 140l-160 -140l33 -27z" />
    <glyph glyph-name="Idieresis" unicode="&#xcf;" horiz-adv-x="219" 
d="M82 700v-700h55v700h-55zM160 815c0 -10.667 3.66699 -19.667 11 -27s16 -11 26 -11c10.667 0 19.667 3.66699 27 11s11 16.333 11 27c0 10 -3.66699 18.667 -11 26s-16.333 11 -27 11c-10 0 -18.667 -3.66699 -26 -11s-11 -16 -11 -26zM-16 815
c0 -10.667 3.66699 -19.667 11 -27s16 -11 26 -11c10.667 0 19.667 3.66699 27 11s11 16.333 11 27c0 10 -3.66699 18.667 -11 26s-16.333 11 -27 11c-10 0 -18.667 -3.66699 -26 -11s-11 -16 -11 -26z" />
    <glyph glyph-name="Eth" unicode="&#xd0;" horiz-adv-x="680" 
d="M5 324h300v49h-300v-49zM84 700v-700h55v700h-55zM274 0c68 0 127.833 14.6689 179.5 44.002s92 70.166 121 122.499s43.5 113.5 43.5 183.5s-14.5 131.167 -43.5 183.5s-69.333 93.166 -121 122.499s-111.5 44 -179.5 44h-160v-55h160c43.333 0 82.833 -7 118.5 -21
s66.167 -33.833 91.5 -59.5s44.833 -56.667 58.5 -93s20.5 -76.833 20.5 -121.5s-6.83301 -85.167 -20.5 -121.5s-33.167 -67.333 -58.5 -93s-55.833 -45.5 -91.5 -59.5s-75.167 -21 -118.5 -21h-160v-55h160z" />
    <glyph glyph-name="Ntilde" unicode="&#xd1;" horiz-adv-x="731" 
d="M600 700v-586l-532 613v-727h55v584l532 -611v727h-55zM211 778l34.998 -23c0 6.66699 1.5 14 4.5 22s8.33301 14.833 16 20.5s18.167 8.5 31.5 8.5c15.333 0 28.5 -3.83301 39.5 -11.5s22.833 -15.5 35.5 -23.5s28 -12 46 -12c14 0 26.833 2.83301 38.5 8.5
s21.834 13.5 30.501 23.5s15.667 21 21 33l-31 27c-9.33301 -16 -18.166 -28 -26.499 -36s-18.166 -12 -29.499 -12c-13.333 0 -24.5 2.33301 -33.5 7s-17.5 10.167 -25.5 16.5s-17 11.833 -27 16.5s-22.667 7 -38 7c-14.667 0 -28.334 -3.16699 -41.001 -9.5
s-23 -14.833 -31 -25.5s-13 -23 -15 -37z" />
    <glyph glyph-name="Ograve" unicode="&#xd2;" horiz-adv-x="784" 
d="M102 350c0 58.667 12.5 110.834 37.5 156.501s59.333 81.667 103 108s93.5 39.5 149.5 39.5s105.833 -13.167 149.5 -39.5s77.834 -62.333 102.501 -108s37 -97.834 37 -156.501c0 -58 -12.333 -110 -37 -156s-58.834 -82.167 -102.501 -108.5s-93.5 -39.5 -149.5 -39.5
s-105.833 13.167 -149.5 39.5s-78 62.5 -103 108.5s-37.5 98 -37.5 156zM44 350c0 -51.333 8.66699 -98.833 26 -142.5s41.666 -81.667 72.999 -114s68.166 -57.5 110.499 -75.5s88.5 -27 138.5 -27s96.167 9 138.5 27s79.166 43.167 110.499 75.5s55.666 70.333 72.999 114
s26 91.167 26 142.5s-8.66699 98.833 -26 142.5s-41.666 81.667 -72.999 114s-68.166 57.5 -110.499 75.5s-88.5 27 -138.5 27s-96.167 -9 -138.5 -27s-79.166 -43.167 -110.499 -75.5s-55.666 -70.333 -72.999 -114s-26 -91.167 -26 -142.5zM266 922l177 -153l29 20
l-158 160z" />
    <glyph glyph-name="Oacute" unicode="&#xd3;" horiz-adv-x="784" 
d="M102 350c0 58.667 12.5 110.834 37.5 156.501s59.333 81.667 103 108s93.5 39.5 149.5 39.5s105.833 -13.167 149.5 -39.5s77.834 -62.333 102.501 -108s37 -97.834 37 -156.501c0 -58 -12.333 -110 -37 -156s-58.834 -82.167 -102.501 -108.5s-93.5 -39.5 -149.5 -39.5
s-105.833 13.167 -149.5 39.5s-78 62.5 -103 108.5s-37.5 98 -37.5 156zM44 350c0 -51.333 8.66699 -98.833 26 -142.5s41.666 -81.667 72.999 -114s68.166 -57.5 110.499 -75.5s88.5 -27 138.5 -27s96.167 9 138.5 27s79.166 43.167 110.499 75.5s55.666 70.333 72.999 114
s26 91.167 26 142.5s-8.66699 98.833 -26 142.5s-41.666 81.667 -72.999 114s-68.166 57.5 -110.499 75.5s-88.5 27 -138.5 27s-96.167 -9 -138.5 -27s-79.166 -43.167 -110.499 -75.5s-55.666 -70.333 -72.999 -114s-26 -91.167 -26 -142.5zM518 922l-48 27l-158 -160
l29 -20z" />
    <glyph glyph-name="Ocircumflex" unicode="&#xd4;" horiz-adv-x="784" 
d="M102 350c0 58.667 12.5 110.834 37.5 156.501s59.333 81.667 103 108s93.5 39.5 149.5 39.5s105.833 -13.167 149.5 -39.5s77.834 -62.333 102.501 -108s37 -97.834 37 -156.501c0 -58 -12.333 -110 -37 -156s-58.834 -82.167 -102.501 -108.5s-93.5 -39.5 -149.5 -39.5
s-105.833 13.167 -149.5 39.5s-78 62.5 -103 108.5s-37.5 98 -37.5 156zM44 350c0 -51.333 8.66699 -98.833 26 -142.5s41.666 -81.667 72.999 -114s68.166 -57.5 110.499 -75.5s88.5 -27 138.5 -27s96.167 9 138.5 27s79.166 43.167 110.499 75.5s55.666 70.333 72.999 114
s26 91.167 26 142.5s-8.66699 98.833 -26 142.5s-41.666 81.667 -72.999 114s-68.166 57.5 -110.499 75.5s-88.5 27 -138.5 27s-96.167 -9 -138.5 -27s-79.166 -43.167 -110.499 -75.5s-55.666 -70.333 -72.999 -114s-26 -91.167 -26 -142.5zM392 880l127 -111l33 27
l-160 140l-160 -140l33 -27z" />
    <glyph glyph-name="Otilde" unicode="&#xd5;" horiz-adv-x="784" 
d="M102 350c0 58.667 12.5 110.834 37.5 156.501s59.333 81.667 103 108s93.5 39.5 149.5 39.5s105.833 -13.167 149.5 -39.5s77.834 -62.333 102.501 -108s37 -97.834 37 -156.501c0 -58 -12.333 -110 -37 -156s-58.834 -82.167 -102.501 -108.5s-93.5 -39.5 -149.5 -39.5
s-105.833 13.167 -149.5 39.5s-78 62.5 -103 108.5s-37.5 98 -37.5 156zM44 350c0 -51.333 8.66699 -98.833 26 -142.5s41.666 -81.667 72.999 -114s68.166 -57.5 110.499 -75.5s88.5 -27 138.5 -27s96.167 9 138.5 27s79.166 43.167 110.499 75.5s55.666 70.333 72.999 114
s26 91.167 26 142.5s-8.66699 98.833 -26 142.5s-41.666 81.667 -72.999 114s-68.166 57.5 -110.499 75.5s-88.5 27 -138.5 27s-96.167 -9 -138.5 -27s-79.166 -43.167 -110.499 -75.5s-55.666 -70.333 -72.999 -114s-26 -91.167 -26 -142.5zM243 800l35.001 -23
c0 6.66699 1.5 14 4.5 22s8.33301 14.833 16 20.5s18.167 8.5 31.5 8.5c15.333 0 28.5 -3.83301 39.5 -11.5s22.833 -15.5 35.5 -23.5s28 -12 46 -12c14 0 26.833 2.83301 38.5 8.5s21.834 13.5 30.501 23.5s15.667 21 21 33l-31 27c-8.66699 -16 -17.334 -28 -26.001 -36
s-18.667 -12 -30 -12c-13.333 0 -24.5 2.33301 -33.5 7s-17.5 10.167 -25.5 16.5s-17 11.833 -27 16.5s-22.667 7 -38 7c-14.667 0 -28.334 -3.16699 -41.001 -9.5s-23 -14.833 -31 -25.5s-13 -23 -15 -37z" />
    <glyph glyph-name="Odieresis" unicode="&#xd6;" horiz-adv-x="784" 
d="M102 350c0 58.667 12.5 110.834 37.5 156.501s59.333 81.667 103 108s93.5 39.5 149.5 39.5s105.833 -13.167 149.5 -39.5s77.834 -62.333 102.501 -108s37 -97.834 37 -156.501c0 -58 -12.333 -110 -37 -156s-58.834 -82.167 -102.501 -108.5s-93.5 -39.5 -149.5 -39.5
s-105.833 13.167 -149.5 39.5s-78 62.5 -103 108.5s-37.5 98 -37.5 156zM44 350c0 -51.333 8.66699 -98.833 26 -142.5s41.666 -81.667 72.999 -114s68.166 -57.5 110.499 -75.5s88.5 -27 138.5 -27s96.167 9 138.5 27s79.166 43.167 110.499 75.5s55.666 70.333 72.999 114
s26 91.167 26 142.5s-8.66699 98.833 -26 142.5s-41.666 81.667 -72.999 114s-68.166 57.5 -110.499 75.5s-88.5 27 -138.5 27s-96.167 -9 -138.5 -27s-79.166 -43.167 -110.499 -75.5s-55.666 -70.333 -72.999 -114s-26 -91.167 -26 -142.5zM458 819
c0 -10.667 3.83301 -19.667 11.5 -27s16.5 -11 26.5 -11c10.667 0 19.5 3.66699 26.5 11s10.5 16.333 10.5 27c0 10 -3.5 18.667 -10.5 26s-15.833 11 -26.5 11c-10 0 -18.833 -3.66699 -26.5 -11s-11.5 -16 -11.5 -26zM250 819c0 -10.667 3.83301 -19.667 11.5 -27
s16.5 -11 26.5 -11c10.667 0 19.5 3.66699 26.5 11s10.5 16.333 10.5 27c0 10 -3.5 18.667 -10.5 26s-15.833 11 -26.5 11c-10 0 -18.833 -3.66699 -26.5 -11s-11.5 -16 -11.5 -26z" />
    <glyph glyph-name="multiply" unicode="&#xd7;" horiz-adv-x="589" 
d="M108 32l186 190l187 -190l36 36l-190 187l191 187l-37 36l-187 -190l-187 190l-36 -36l190 -187l-190 -187z" />
    <glyph glyph-name="Oslash" unicode="&#xd8;" horiz-adv-x="790" 
d="M102 350c0 58.667 12.5 110.834 37.5 156.501s59.333 81.667 103 108s93.5 39.5 149.5 39.5s105.833 -13.167 149.5 -39.5s77.834 -62.333 102.501 -108s37 -97.834 37 -156.501c0 -58 -12.333 -110 -37 -156s-58.834 -82.167 -102.501 -108.5s-93.5 -39.5 -149.5 -39.5
s-105.833 13.167 -149.5 39.5s-78 62.5 -103 108.5s-37.5 98 -37.5 156zM44 350c0 -51.333 8.66699 -98.833 26 -142.5s41.666 -81.667 72.999 -114s68.166 -57.5 110.499 -75.5s88.5 -27 138.5 -27s96.167 9 138.5 27s79.166 43.167 110.499 75.5s55.666 70.333 72.999 114
s26 91.167 26 142.5s-8.66699 98.833 -26 142.5s-41.666 81.667 -72.999 114s-68.166 57.5 -110.499 75.5s-88.5 27 -138.5 27s-96.167 -9 -138.5 -27s-79.166 -43.167 -110.499 -75.5s-55.666 -70.333 -72.999 -114s-26 -91.167 -26 -142.5zM698 743l-648 -760l38 -26
l649 760z" />
    <glyph glyph-name="Ugrave" unicode="&#xd9;" horiz-adv-x="606" 
d="M79 700v-474c0 -34.667 5 -66.5 15 -95.5s24.667 -53.833 44 -74.5s42.833 -36.834 70.5 -48.501s59.167 -17.5 94.5 -17.5s66.833 5.83301 94.5 17.5s51.167 27.834 70.5 48.501s34 45.5 44 74.5s15 60.833 15 95.5v474h-55v-474c0 -56 -14.667 -100.667 -44 -134
s-71 -50 -125 -50s-95.667 16.667 -125 50s-44 78 -44 134v474h-55zM171 922l177 -153l29 20l-158 160z" />
    <glyph glyph-name="Uacute" unicode="&#xda;" horiz-adv-x="606" 
d="M79 700v-474c0 -34.667 5 -66.5 15 -95.5s24.667 -53.833 44 -74.5s42.833 -36.834 70.5 -48.501s59.167 -17.5 94.5 -17.5s66.833 5.83301 94.5 17.5s51.167 27.834 70.5 48.501s34 45.5 44 74.5s15 60.833 15 95.5v474h-55v-474c0 -56 -14.667 -100.667 -44 -134
s-71 -50 -125 -50s-95.667 16.667 -125 50s-44 78 -44 134v474h-55zM435 922l-48 27l-158 -160l29 -20z" />
    <glyph glyph-name="Ucircumflex" unicode="&#xdb;" horiz-adv-x="606" 
d="M79 700v-474c0 -34.667 5 -66.5 15 -95.5s24.667 -53.833 44 -74.5s42.833 -36.834 70.5 -48.501s59.167 -17.5 94.5 -17.5s66.833 5.83301 94.5 17.5s51.167 27.834 70.5 48.501s34 45.5 44 74.5s15 60.833 15 95.5v474h-55v-474c0 -56 -14.667 -100.667 -44 -134
s-71 -50 -125 -50s-95.667 16.667 -125 50s-44 78 -44 134v474h-55zM303 880l127 -111l33 27l-160 140l-160 -140l33 -27z" />
    <glyph glyph-name="Udieresis" unicode="&#xdc;" horiz-adv-x="606" 
d="M79 700v-474c0 -34.667 5 -66.5 15 -95.5s24.667 -53.833 44 -74.5s42.833 -36.834 70.5 -48.501s59.167 -17.5 94.5 -17.5s66.833 5.83301 94.5 17.5s51.167 27.834 70.5 48.501s34 45.5 44 74.5s15 60.833 15 95.5v474h-55v-474c0 -56 -14.667 -100.667 -44 -134
s-71 -50 -125 -50s-95.667 16.667 -125 50s-44 78 -44 134v474h-55zM362 807c0 -10.667 3.66699 -19.667 11 -27s16 -11 26 -11c10.667 0 19.5 3.66699 26.5 11s10.5 16.333 10.5 27c0 10 -3.5 18.667 -10.5 26s-15.833 11 -26.5 11c-10 0 -18.667 -3.66699 -26 -11
s-11 -16 -11 -26zM170 807c0 -10.667 3.66699 -19.667 11 -27s16 -11 26 -11c10.667 0 19.5 3.66699 26.5 11s10.5 16.333 10.5 27c0 10 -3.5 18.667 -10.5 26s-15.833 11 -26.5 11c-10 0 -18.667 -3.66699 -26 -11s-11 -16 -11 -26z" />
    <glyph glyph-name="Yacute" unicode="&#xdd;" horiz-adv-x="539" 
d="M410 922l-48 27l-158 -160l28 -20zM468 700l-201 -362l-196 362h-62l231 -413v-287h55v288l235 412h-62z" />
    <glyph glyph-name="Thorn" unicode="&#xde;" horiz-adv-x="538" 
d="M80 700v-700h55v700h-55zM110 508l148 0.00195312c34.667 0 65.834 -6 93.501 -18s49.5 -29.833 65.5 -53.5s24 -52.5 24 -86.5c0 -32.667 -8 -60.834 -24 -84.501s-37.833 -41.834 -65.5 -54.501s-58.834 -19 -93.501 -19h-148v-52h148c45.333 0 85.833 8.5 121.5 25.5
s64 41.333 85 73s31.5 68.834 31.5 111.501c0 43.333 -10.5 80.666 -31.5 111.999s-49.333 55.5 -85 72.5s-76.167 25.5 -121.5 25.5h-148v-52z" />
    <glyph glyph-name="germandbls" unicode="&#xdf;" horiz-adv-x="551" 
d="M325 -11c28 0 53.5029 5 76.5029 15s43 24.167 60 42.5s30.333 39.833 40 64.5s14.5 51 14.5 79s-4.33301 51.167 -13 69.5s-20 33.5 -34 45.5s-28.667 22.167 -44 30.5s-30 15.833 -44 22.5s-25.333 14.167 -34 22.5s-13 18.5 -13 30.5c0 14.667 4 28 12 40
s17.833 23.833 29.5 35.5s23.334 24.5 35.001 38.5s21.5 30.167 29.5 48.5s12 40.5 12 66.5c0 33.333 -7.5 61.5 -22.5 84.5s-35.667 40.333 -62 52s-55.833 17.5 -88.5 17.5c-40.667 0 -76.334 -8.66699 -107.001 -26s-54.5 -41 -71.5 -71s-25.5 -64 -25.5 -102v-596h53
l-1 586c0 34 6.16699 63 18.5 87s29.333 42.333 51 55s46.5 19 74.5 19c22.667 0 43.5 -4.16699 62.5 -12.5s34.5 -20.666 46.5 -36.999s18 -36.5 18 -60.5c0 -21.333 -4.16699 -40.333 -12.5 -57s-18.5 -31.834 -30.5 -45.501s-24 -26.667 -36 -39s-22 -25.333 -30 -39
s-12 -28.5 -12 -44.5c0 -17.333 4.5 -31.833 13.5 -43.5s20.5 -21.667 34.5 -30l44.5 -25.5c15.667 -8.66699 30.5 -18.334 44.5 -29.001s25.5 -24 34.5 -40s13.5 -36 13.5 -60c0 -27.333 -5.66699 -51.833 -17 -73.5s-27 -39 -47 -52s-43 -19.5 -69 -19.5
c-14.667 0 -29.834 2.16699 -45.501 6.5s-30.334 10.5 -44.001 18.5s-25.834 17 -36.501 27l-32 -38c11.333 -12.667 25.333 -23.667 42 -33s34.5 -16.666 53.5 -21.999s38.5 -8 58.5 -8z" />
    <glyph glyph-name="agrave" unicode="&#xe0;" horiz-adv-x="465" 
d="M87 135c0 23.333 5.99805 43.002 17.998 59.002s28.5 28.167 49.5 36.5s44.833 12.5 71.5 12.5c31.333 0 58.5 -4.16699 81.5 -12.5s43.833 -19.5 62.5 -33.5v32c-5.33301 6 -14.166 13.333 -26.499 22s-28.333 16.334 -48 23.001s-43.5 10 -71.5 10
c-34 0 -65.5 -5.83301 -94.5 -17.5s-52.167 -28.834 -69.5 -51.501s-26 -51.334 -26 -86.001c0 -30.667 6.83301 -56.334 20.5 -77.001s32.5 -36.167 56.5 -46.5s50.333 -15.5 79 -15.5c32.667 0 61.834 6.5 87.501 19.5s46 31 61 54s22.5 49.167 22.5 78.5l-12 30
c0 -28.667 -6.33301 -53 -19 -73s-30.167 -35.333 -52.5 -46s-47.5 -16 -75.5 -16c-22 0 -41.667 3.5 -59 10.5s-31 17.667 -41 32s-15 32.833 -15 55.5zM99.998 369.002c9.33301 8 20.834 16.332 34.501 24.999s29.5 15.834 47.5 21.501s38 8.5 60 8.5
c32 0 57.833 -8.5 77.5 -25.5s29.5 -41.167 29.5 -72.5v-326h52v326c0 30 -6.33301 55.667 -19 77s-30.834 37.833 -54.501 49.5s-52.167 17.5 -85.5 17.5c-39.333 0 -72.833 -6.66699 -100.5 -20s-50.167 -27 -67.5 -41zM91.999 691.001l177 -153l29 20l-158 160z" />
    <glyph glyph-name="aacute" unicode="&#xe1;" horiz-adv-x="465" 
d="M87 135c0 23.333 5.99805 43.002 17.998 59.002s28.5 28.167 49.5 36.5s44.833 12.5 71.5 12.5c31.333 0 58.5 -4.16699 81.5 -12.5s43.833 -19.5 62.5 -33.5v32c-5.33301 6 -14.166 13.333 -26.499 22s-28.333 16.334 -48 23.001s-43.5 10 -71.5 10
c-34 0 -65.5 -5.83301 -94.5 -17.5s-52.167 -28.834 -69.5 -51.501s-26 -51.334 -26 -86.001c0 -30.667 6.83301 -56.334 20.5 -77.001s32.5 -36.167 56.5 -46.5s50.333 -15.5 79 -15.5c32.667 0 61.834 6.5 87.501 19.5s46 31 61 54s22.5 49.167 22.5 78.5l-12 30
c0 -28.667 -6.33301 -53 -19 -73s-30.167 -35.333 -52.5 -46s-47.5 -16 -75.5 -16c-22 0 -41.667 3.5 -59 10.5s-31 17.667 -41 32s-15 32.833 -15 55.5zM99.998 369.002c9.33301 8 20.834 16.332 34.501 24.999s29.5 15.834 47.5 21.501s38 8.5 60 8.5
c32 0 57.833 -8.5 77.5 -25.5s29.5 -41.167 29.5 -72.5v-326h52v326c0 30 -6.33301 55.667 -19 77s-30.834 37.833 -54.501 49.5s-52.167 17.5 -85.5 17.5c-39.333 0 -72.833 -6.66699 -100.5 -20s-50.167 -27 -67.5 -41zM383.999 691.001l-48 27l-158 -160l29 -20z" />
    <glyph glyph-name="acircumflex" unicode="&#xe2;" horiz-adv-x="465" 
d="M87 135c0 23.333 5.99805 43.002 17.998 59.002s28.5 28.167 49.5 36.5s44.833 12.5 71.5 12.5c31.333 0 58.5 -4.16699 81.5 -12.5s43.833 -19.5 62.5 -33.5v32c-5.33301 6 -14.166 13.333 -26.499 22s-28.333 16.334 -48 23.001s-43.5 10 -71.5 10
c-34 0 -65.5 -5.83301 -94.5 -17.5s-52.167 -28.834 -69.5 -51.501s-26 -51.334 -26 -86.001c0 -30.667 6.83301 -56.334 20.5 -77.001s32.5 -36.167 56.5 -46.5s50.333 -15.5 79 -15.5c32.667 0 61.834 6.5 87.501 19.5s46 31 61 54s22.5 49.167 22.5 78.5l-12 30
c0 -28.667 -6.33301 -53 -19 -73s-30.167 -35.333 -52.5 -46s-47.5 -16 -75.5 -16c-22 0 -41.667 3.5 -59 10.5s-31 17.667 -41 32s-15 32.833 -15 55.5zM99.998 369.002c9.33301 8 20.834 16.332 34.501 24.999s29.5 15.834 47.5 21.501s38 8.5 60 8.5
c32 0 57.833 -8.5 77.5 -25.5s29.5 -41.167 29.5 -72.5v-326h52v326c0 30 -6.33301 55.667 -19 77s-30.834 37.833 -54.501 49.5s-52.167 17.5 -85.5 17.5c-39.333 0 -72.833 -6.66699 -100.5 -20s-50.167 -27 -67.5 -41zM241.999 645.001l127 -111l33 27l-160 140
l-160 -140l33 -27z" />
    <glyph glyph-name="atilde" unicode="&#xe3;" horiz-adv-x="465" 
d="M87 135c0 23.333 5.99805 43.002 17.998 59.002s28.5 28.167 49.5 36.5s44.833 12.5 71.5 12.5c31.333 0 58.5 -4.16699 81.5 -12.5s43.833 -19.5 62.5 -33.5v32c-5.33301 6 -14.166 13.333 -26.499 22s-28.333 16.334 -48 23.001s-43.5 10 -71.5 10
c-34 0 -65.5 -5.83301 -94.5 -17.5s-52.167 -28.834 -69.5 -51.501s-26 -51.334 -26 -86.001c0 -30.667 6.83301 -56.334 20.5 -77.001s32.5 -36.167 56.5 -46.5s50.333 -15.5 79 -15.5c32.667 0 61.834 6.5 87.501 19.5s46 31 61 54s22.5 49.167 22.5 78.5l-12 30
c0 -28.667 -6.33301 -53 -19 -73s-30.167 -35.333 -52.5 -46s-47.5 -16 -75.5 -16c-22 0 -41.667 3.5 -59 10.5s-31 17.667 -41 32s-15 32.833 -15 55.5zM99.998 369.002c9.33301 8 20.834 16.332 34.501 24.999s29.5 15.834 47.5 21.501s38 8.5 60 8.5
c32 0 57.833 -8.5 77.5 -25.5s29.5 -41.167 29.5 -72.5v-326h52v326c0 30 -6.33301 55.667 -19 77s-30.834 37.833 -54.501 49.5s-52.167 17.5 -85.5 17.5c-39.333 0 -72.833 -6.66699 -100.5 -20s-50.167 -27 -67.5 -41zM88.999 573.001l35.001 -23
c0 6.66699 1.5 14 4.5 22s8.33301 14.833 16 20.5s18.167 8.5 31.5 8.5c15.333 0 28.5 -3.83301 39.5 -11.5s22.833 -15.5 35.5 -23.5s28 -12 46 -12c14 0 26.833 2.83301 38.5 8.5s21.834 13.5 30.501 23.5s15.667 21 21 33l-31 27c-8.66699 -16 -17.334 -28 -26.001 -36
s-18.667 -12 -30 -12c-13.333 0 -24.5 2.33301 -33.5 7s-17.5 10.167 -25.5 16.5s-17 11.833 -27 16.5s-22.667 7 -38 7c-14.667 0 -28.334 -3.16699 -41.001 -9.5s-23 -14.833 -31 -25.5s-13 -23 -15 -37z" />
    <glyph glyph-name="adieresis" unicode="&#xe4;" horiz-adv-x="465" 
d="M87 135c0 23.333 5.99805 43.002 17.998 59.002s28.5 28.167 49.5 36.5s44.833 12.5 71.5 12.5c31.333 0 58.5 -4.16699 81.5 -12.5s43.833 -19.5 62.5 -33.5v32c-5.33301 6 -14.166 13.333 -26.499 22s-28.333 16.334 -48 23.001s-43.5 10 -71.5 10
c-34 0 -65.5 -5.83301 -94.5 -17.5s-52.167 -28.834 -69.5 -51.501s-26 -51.334 -26 -86.001c0 -30.667 6.83301 -56.334 20.5 -77.001s32.5 -36.167 56.5 -46.5s50.333 -15.5 79 -15.5c32.667 0 61.834 6.5 87.501 19.5s46 31 61 54s22.5 49.167 22.5 78.5l-12 30
c0 -28.667 -6.33301 -53 -19 -73s-30.167 -35.333 -52.5 -46s-47.5 -16 -75.5 -16c-22 0 -41.667 3.5 -59 10.5s-31 17.667 -41 32s-15 32.833 -15 55.5zM99.998 369.002c9.33301 8 20.834 16.332 34.501 24.999s29.5 15.834 47.5 21.501s38 8.5 60 8.5
c32 0 57.833 -8.5 77.5 -25.5s29.5 -41.167 29.5 -72.5v-326h52v326c0 30 -6.33301 55.667 -19 77s-30.834 37.833 -54.501 49.5s-52.167 17.5 -85.5 17.5c-39.333 0 -72.833 -6.66699 -100.5 -20s-50.167 -27 -67.5 -41zM292.999 575.001c0 -10 3.66699 -18.667 11 -26
s16 -11 26 -11c10.667 0 19.5 3.66699 26.5 11s10.5 16 10.5 26c0 10.667 -3.5 19.667 -10.5 27s-15.833 11 -26.5 11c-10 0 -18.667 -3.66699 -26 -11s-11 -16.333 -11 -27zM108.999 575.001c0 -10 3.66699 -18.667 11 -26s16 -11 26 -11c10.667 0 19.5 3.66699 26.5 11
s10.5 16 10.5 26c0 10.667 -3.5 19.667 -10.5 27s-15.833 11 -26.5 11c-10 0 -18.667 -3.66699 -26 -11s-11 -16.333 -11 -27z" />
    <glyph glyph-name="aring" unicode="&#xe5;" horiz-adv-x="465" 
d="M87 135c0 23.333 5.99805 43.002 17.998 59.002s28.5 28.167 49.5 36.5s44.833 12.5 71.5 12.5c31.333 0 58.5 -4.16699 81.5 -12.5s43.833 -19.5 62.5 -33.5v32c-5.33301 6 -14.166 13.333 -26.499 22s-28.333 16.334 -48 23.001s-43.5 10 -71.5 10
c-34 0 -65.5 -5.83301 -94.5 -17.5s-52.167 -28.834 -69.5 -51.501s-26 -51.334 -26 -86.001c0 -30.667 6.83301 -56.334 20.5 -77.001s32.5 -36.167 56.5 -46.5s50.333 -15.5 79 -15.5c32.667 0 61.834 6.5 87.501 19.5s46 31 61 54s22.5 49.167 22.5 78.5l-12 30
c0 -28.667 -6.33301 -53 -19 -73s-30.167 -35.333 -52.5 -46s-47.5 -16 -75.5 -16c-22 0 -41.667 3.5 -59 10.5s-31 17.667 -41 32s-15 32.833 -15 55.5zM99.998 369.002c9.33301 8 20.834 16.332 34.501 24.999s29.5 15.834 47.5 21.501s38 8.5 60 8.5
c32 0 57.833 -8.5 77.5 -25.5s29.5 -41.167 29.5 -72.5v-326h52v326c0 30 -6.33301 55.667 -19 77s-30.834 37.833 -54.501 49.5s-52.167 17.5 -85.5 17.5c-39.333 0 -72.833 -6.66699 -100.5 -20s-50.167 -27 -67.5 -41zM139.999 630.001c0 -30 10.5 -54.167 31.5 -72.5
s44.5 -27.5 70.5 -27.5s49.5 9.16699 70.5 27.5s31.5 42.5 31.5 72.5s-10.5 54.167 -31.5 72.5s-44.5 27.5 -70.5 27.5s-49.5 -9.16699 -70.5 -27.5s-31.5 -42.5 -31.5 -72.5zM174.999 630.001c0 20.667 6.83301 37.167 20.5 49.5s29.167 18.5 46.5 18.5
s32.833 -6.16699 46.5 -18.5s20.5 -28.833 20.5 -49.5s-6.83301 -37.167 -20.5 -49.5s-29.167 -18.5 -46.5 -18.5s-32.833 6.16699 -46.5 18.5s-20.5 28.833 -20.5 49.5z" />
    <glyph glyph-name="ae" unicode="&#xe6;" horiz-adv-x="825" 
d="M202 -10c49.333 0 89.833 13.165 121.5 39.498s50.5 62.166 56.5 107.499h-8c15.333 -49.333 38.666 -86.166 69.999 -110.499s71.666 -36.5 120.999 -36.5c46.667 0 88.667 10 126 30s68 49 92 87l-42 27c-19.333 -31.333 -43.666 -55 -72.999 -71
s-61.666 -24 -96.999 -24c-34.667 0 -64.5 7.66699 -89.5 23s-44.167 37.333 -57.5 66s-20 62.334 -20 101.001l-15 -12h399c1.33301 4 2.16602 7.83301 2.49902 11.5s0.5 8.16699 0.5 13.5c0 44 -9 83.167 -27 117.5s-42.5 61.333 -73.5 81s-66.167 29.5 -105.5 29.5
c-30.667 0 -59.667 -6 -87 -18s-51 -28.667 -71 -50s-35 -46.666 -45 -75.999h8c-1.33301 48 -14.333 84 -39 108s-59.667 36 -105 36c-30.667 0 -60.667 -5.16699 -90 -15.5s-56 -25.5 -80 -45.5l26 -40c14 12 28.833 22 44.5 30s32 14.167 49 18.5s33.5 6.5 49.5 6.5
c34.667 0 61 -10 79 -30s27 -48.667 27 -86v-77l28 1c-26 18.667 -50.833 32 -74.5 40s-49.167 12 -76.5 12c-38 0 -71.5 -6.5 -100.5 -19.5s-51.5 -31.167 -67.5 -54.5s-24 -50.666 -24 -81.999c0 -40.667 15.333 -73.834 46 -99.501s71.334 -38.5 122.001 -38.5z
M202 36.998c-36 0 -64.1689 8.5 -84.502 25.5s-30.5 40.833 -30.5 71.5c0 34 12.5 60.667 37.5 80s59.5 29 103.5 29c25.333 0 48.833 -3.16699 70.5 -9.5s40.834 -15.5 57.501 -27.5l-7 19l5 -84l2 53c-5.33301 -51.333 -20.666 -90.333 -45.999 -117s-61.333 -40 -108 -40
zM401.998 237.998c0 36 7.33203 68 21.999 96s35 50 61 66s55.667 24 89 24c31.333 0 58.833 -7 82.5 -21s42.334 -33.333 56.001 -58s20.5 -53 20.5 -85v-9.5c0 -2.33301 -0.666992 -4.5 -2 -6.5l17 18h-361z" />
    <glyph glyph-name="ccedilla" unicode="&#xe7;" horiz-adv-x="482" 
d="M87 230c0 37.333 8 70.332 24 98.999s37.833 51.167 65.5 67.5s58.834 24.5 93.501 24.5c24.667 0 47.667 -3.66699 69 -11s39.833 -16.666 55.5 -27.999s26.834 -23.333 33.501 -36v65c-14 16 -35.5 29.833 -64.5 41.5s-60.167 17.5 -93.5 17.5
c-44.667 0 -84.667 -10.333 -120 -31s-63.5 -49 -84.5 -85s-31.5 -77.333 -31.5 -124c0 -46 10.5 -87.167 31.5 -123.5s49.167 -64.833 84.5 -85.5s75.333 -31 120 -31c33.333 0 64.5 5.66699 93.5 17s50.5 25.333 64.5 42v65c-6.66699 -12 -17.834 -23.833 -33.501 -35.5
s-34.167 -21.167 -55.5 -28.5s-44.333 -11 -69 -11c-34.667 0 -65.834 8.16699 -93.501 24.5s-49.5 38.833 -65.5 67.5s-24 61.667 -24 99zM262 33.999l-74.0039 -136.001c10.667 8 22.334 13.5 35.001 16.5s23.334 4.5 32.001 4.5c16.667 0 30 -3.83301 40 -11.5
s15 -19.5 15 -35.5c0 -18 -6.5 -32 -19.5 -42s-29.167 -15 -48.5 -15c-14.667 0 -26.667 2.16699 -36 6.5s-19.666 11.5 -30.999 21.5l-23 -27c14 -14 27.833 -23.833 41.5 -29.5s29.834 -8.5 48.501 -8.5s36 3.66699 52 11s29 18 39 32s15 31 15 51
c0 16.667 -3.66699 30.334 -11 41.001s-16.5 18.834 -27.5 24.501s-22.167 8.5 -33.5 8.5c-8 0 -14.167 -0.833008 -18.5 -2.5s-9.5 -3.83398 -15.5 -6.50098l60 97h-40z" />
    <glyph glyph-name="egrave" unicode="&#xe8;" horiz-adv-x="510" 
d="M72 217h397c0.666992 4 1.16699 8.16699 1.5 12.5s0.5 8.5 0.5 12.5c0 46 -9.16699 86 -27.5 120s-43.5 60.5 -75.5 79.5s-68 28.5 -108 28.5c-36.667 0 -70 -7.5 -100 -22.5s-54.667 -36 -74 -63s-33 -58.167 -41 -93.5c-2 -10 -3.5 -19.833 -4.5 -29.5
s-1.5 -19.834 -1.5 -30.501c0 -46 9.33301 -87.333 28 -124s44.167 -65.334 76.5 -86.001s68.5 -31 108.5 -31c40.667 0 74 5.5 100 16.5s47.667 25.333 65 43s32.666 36.834 45.999 57.501l-42 27c-10 -16.667 -22.167 -32.167 -36.5 -46.5s-31.666 -26 -51.999 -35
s-45.166 -13.5 -74.499 -13.5c-32.667 0 -61.5 7.83301 -86.5 23.5s-44.5 38 -58.5 67s-21 62.833 -21 101.5l1 18c0 36 7.66699 67.167 23 93.5s35.666 46.5 60.999 60.5s53 21 83 21s56.5 -7 79.5 -21s41.167 -33.167 54.5 -57.5s20 -52.166 20 -83.499h-342v-45zM118 689
l177 -153l29 20l-158 160z" />
    <glyph glyph-name="eacute" unicode="&#xe9;" horiz-adv-x="510" 
d="M72 217h397c0.666992 4 1.16699 8.16699 1.5 12.5s0.5 8.5 0.5 12.5c0 46 -9.16699 86 -27.5 120s-43.5 60.5 -75.5 79.5s-68 28.5 -108 28.5c-36.667 0 -70 -7.5 -100 -22.5s-54.667 -36 -74 -63s-33 -58.167 -41 -93.5c-2 -10 -3.5 -19.833 -4.5 -29.5
s-1.5 -19.834 -1.5 -30.501c0 -46 9.33301 -87.333 28 -124s44.167 -65.334 76.5 -86.001s68.5 -31 108.5 -31c40.667 0 74 5.5 100 16.5s47.667 25.333 65 43s32.666 36.834 45.999 57.501l-42 27c-10 -16.667 -22.167 -32.167 -36.5 -46.5s-31.666 -26 -51.999 -35
s-45.166 -13.5 -74.499 -13.5c-32.667 0 -61.5 7.83301 -86.5 23.5s-44.5 38 -58.5 67s-21 62.833 -21 101.5l1 18c0 36 7.66699 67.167 23 93.5s35.666 46.5 60.999 60.5s53 21 83 21s56.5 -7 79.5 -21s41.167 -33.167 54.5 -57.5s20 -52.166 20 -83.499h-342v-45zM414 689
l-48 27l-158 -160l29 -20z" />
    <glyph glyph-name="ecircumflex" unicode="&#xea;" horiz-adv-x="510" 
d="M72 217h397c0.666992 4 1.16699 8.16699 1.5 12.5s0.5 8.5 0.5 12.5c0 46 -9.16699 86 -27.5 120s-43.5 60.5 -75.5 79.5s-68 28.5 -108 28.5c-36.667 0 -70 -7.5 -100 -22.5s-54.667 -36 -74 -63s-33 -58.167 -41 -93.5c-2 -10 -3.5 -19.833 -4.5 -29.5
s-1.5 -19.834 -1.5 -30.501c0 -46 9.33301 -87.333 28 -124s44.167 -65.334 76.5 -86.001s68.5 -31 108.5 -31c40.667 0 74 5.5 100 16.5s47.667 25.333 65 43s32.666 36.834 45.999 57.501l-42 27c-10 -16.667 -22.167 -32.167 -36.5 -46.5s-31.666 -26 -51.999 -35
s-45.166 -13.5 -74.499 -13.5c-32.667 0 -61.5 7.83301 -86.5 23.5s-44.5 38 -58.5 67s-21 62.833 -21 101.5l1 18c0 36 7.66699 67.167 23 93.5s35.666 46.5 60.999 60.5s53 21 83 21s56.5 -7 79.5 -21s41.167 -33.167 54.5 -57.5s20 -52.166 20 -83.499h-342v-45zM260 641
l127 -111l33 27l-160 140l-160 -140l33 -27z" />
    <glyph glyph-name="edieresis" unicode="&#xeb;" horiz-adv-x="510" 
d="M72 217h397c0.666992 4 1.16699 8.16699 1.5 12.5s0.5 8.5 0.5 12.5c0 46 -9.16699 86 -27.5 120s-43.5 60.5 -75.5 79.5s-68 28.5 -108 28.5c-36.667 0 -70 -7.5 -100 -22.5s-54.667 -36 -74 -63s-33 -58.167 -41 -93.5c-2 -10 -3.5 -19.833 -4.5 -29.5
s-1.5 -19.834 -1.5 -30.501c0 -46 9.33301 -87.333 28 -124s44.167 -65.334 76.5 -86.001s68.5 -31 108.5 -31c40.667 0 74 5.5 100 16.5s47.667 25.333 65 43s32.666 36.834 45.999 57.501l-42 27c-10 -16.667 -22.167 -32.167 -36.5 -46.5s-31.666 -26 -51.999 -35
s-45.166 -13.5 -74.499 -13.5c-32.667 0 -61.5 7.83301 -86.5 23.5s-44.5 38 -58.5 67s-21 62.833 -21 101.5l1 18c0 36 7.66699 67.167 23 93.5s35.666 46.5 60.999 60.5s53 21 83 21s56.5 -7 79.5 -21s41.167 -33.167 54.5 -57.5s20 -52.166 20 -83.499h-342v-45zM322 567
c0 -10 3.83301 -18.667 11.5 -26s16.5 -11 26.5 -11c10.667 0 19.5 3.66699 26.5 11s10.5 16 10.5 26c0 10.667 -3.5 19.667 -10.5 27s-15.833 11 -26.5 11c-10 0 -18.833 -3.66699 -26.5 -11s-11.5 -16.333 -11.5 -27zM122 567c0 -10 3.83301 -18.667 11.5 -26
s16.5 -11 26.5 -11c10.667 0 19.5 3.66699 26.5 11s10.5 16 10.5 26c0 10.667 -3.5 19.667 -10.5 27s-15.833 11 -26.5 11c-10 0 -18.833 -3.66699 -26.5 -11s-11.5 -16.333 -11.5 -27z" />
    <glyph glyph-name="igrave" unicode="&#xec;" horiz-adv-x="232" 
d="M90 460v-460h52v460h-52zM-42 695l177 -153l29 20l-158 160z" />
    <glyph glyph-name="iacute" unicode="&#xed;" horiz-adv-x="232" 
d="M90 460v-460h52v460h-52zM274 695l-48 27l-158 -160l29 -20z" />
    <glyph glyph-name="icircumflex" unicode="&#xee;" horiz-adv-x="232" 
d="M90 460v-460h52v460h-52zM116 647l127 -111l33 27l-160 140l-160 -140l33 -27z" />
    <glyph glyph-name="idieresis" unicode="&#xef;" horiz-adv-x="232" 
d="M90 460v-460h52v460h-52zM171 585c0 -10 3.66699 -18.667 11 -26s16 -11 26 -11c10.667 0 19.5 3.66699 26.5 11s10.5 16 10.5 26c0 10.667 -3.5 19.667 -10.5 27s-15.833 11 -26.5 11c-10 0 -18.667 -3.66699 -26 -11s-11 -16.333 -11 -27zM-13 585
c0 -10 3.66699 -18.667 11 -26s16 -11 26 -11c10.667 0 19.5 3.66699 26.5 11s10.5 16 10.5 26c0 10.667 -3.5 19.667 -10.5 27s-15.833 11 -26.5 11c-10 0 -18.667 -3.66699 -26 -11s-11 -16.333 -11 -27z" />
    <glyph glyph-name="eth" unicode="&#xf0;" horiz-adv-x="560" 
d="M280 -10c45.333 0 85.333 10 120 30s61.667 47.667 81 83s29 76.333 29 123c0 24 -3 48.167 -9 72.5s-16 50 -30 77s-32.333 56.833 -55 89.5s-50.667 69.5 -84 110.5l-117 139.5l-32 -36l81 -91l61 -74.5c18 -23 34.333 -45.833 49 -68.5s28.667 -46.667 42 -72l28 1
c-58 50 -120.333 75 -187 75c-39.333 0 -74.5 -9.83301 -105.5 -29.5s-55.667 -46.167 -74 -79.5s-27.5 -71.333 -27.5 -114c0 -46.667 9.66699 -87.667 29 -123s46.5 -63 81.5 -83s74.833 -30 119.5 -30zM280 40c-34.667 0 -65.332 8.00098 -91.999 24.001
s-47.5 38 -62.5 66s-22.5 60 -22.5 96c0 34 7.66699 64.667 23 92s36 49.166 62 65.499s55.333 24.5 88 24.5c34.667 0 65.667 -8 93 -24s48.833 -37.5 64.5 -64.5s23.5 -58.167 23.5 -93.5c0 -36 -7.5 -68 -22.5 -96s-35.833 -50 -62.5 -66s-57.334 -24 -92.001 -24z
M182.002 510.001l267 108l-13 32l-267 -108z" />
    <glyph glyph-name="ntilde" unicode="&#xf1;" 
d="M131 460h-52v-460h52v460zM374 296v-295.999h52v302c0 53.333 -12.833 94.666 -38.5 123.999s-62.167 44 -109.5 44c-32 0 -60.833 -8.33301 -86.5 -25s-46.167 -39.167 -61.5 -67.5s-23 -60.833 -23 -97.5h24c0 26 5.83301 49.667 17.5 71s27.667 38.333 48 51
s43.5 19 69.5 19c38 0 65.5 -11 82.5 -33s25.5 -52.667 25.5 -92zM104 561.001l34.998 -23c0 6.66699 1.5 14 4.5 22s8.33301 14.833 16 20.5s18.167 8.5 31.5 8.5c15.333 0 28.5 -3.83301 39.5 -11.5s22.833 -15.5 35.5 -23.5s28 -12 46 -12c14 0 26.833 2.83301 38.5 8.5
s21.834 13.5 30.501 23.5s15.667 21 21 33l-31 27c-9.33301 -16 -18.166 -28 -26.499 -36s-18.166 -12 -29.499 -12c-13.333 0 -24.5 2.33301 -33.5 7s-17.5 10.167 -25.5 16.5s-17 11.833 -27 16.5s-22.667 7 -38 7c-14.667 0 -28.334 -3.16699 -41.001 -9.5
s-23 -14.833 -31 -25.5s-13 -23 -15 -37z" />
    <glyph glyph-name="ograve" unicode="&#xf2;" horiz-adv-x="550" 
d="M39 230c0 -46 10.333 -87.167 31 -123.5s48.834 -64.833 84.501 -85.5s75.834 -31 120.501 -31s84.834 10.333 120.501 31s63.834 49.167 84.501 85.5s31 77.5 31 123.5c0 46.667 -10.333 88 -31 124s-48.834 64.333 -84.501 85s-75.834 31 -120.501 31
s-84.834 -10.333 -120.501 -31s-63.834 -49 -84.501 -85s-31 -77.333 -31 -124zM92 230c0 37.333 8 70.333 24 99s37.833 51.167 65.5 67.5s58.834 24.5 93.501 24.5s65.834 -8.16699 93.501 -24.5s49.5 -39 65.5 -68s24 -61.833 24 -98.5c0 -37.333 -8 -70.333 -24 -99
s-37.833 -51.167 -65.5 -67.5s-58.834 -24.5 -93.501 -24.5s-65.834 8.16699 -93.501 24.5s-49.5 38.833 -65.5 67.5s-24 61.667 -24 99zM125 695l177 -153l29 20l-158 160z" />
    <glyph glyph-name="oacute" unicode="&#xf3;" horiz-adv-x="550" 
d="M39 230c0 -46 10.333 -87.167 31 -123.5s48.834 -64.833 84.501 -85.5s75.834 -31 120.501 -31s84.834 10.333 120.501 31s63.834 49.167 84.501 85.5s31 77.5 31 123.5c0 46.667 -10.333 88 -31 124s-48.834 64.333 -84.501 85s-75.834 31 -120.501 31
s-84.834 -10.333 -120.501 -31s-63.834 -49 -84.501 -85s-31 -77.333 -31 -124zM92 230c0 37.333 8 70.333 24 99s37.833 51.167 65.5 67.5s58.834 24.5 93.501 24.5s65.834 -8.16699 93.501 -24.5s49.5 -39 65.5 -68s24 -61.833 24 -98.5c0 -37.333 -8 -70.333 -24 -99
s-37.833 -51.167 -65.5 -67.5s-58.834 -24.5 -93.501 -24.5s-65.834 8.16699 -93.501 24.5s-49.5 38.833 -65.5 67.5s-24 61.667 -24 99zM425 695l-48 27l-158 -160l29 -20z" />
    <glyph glyph-name="ocircumflex" unicode="&#xf4;" horiz-adv-x="550" 
d="M39 230c0 -46 10.333 -87.167 31 -123.5s48.834 -64.833 84.501 -85.5s75.834 -31 120.501 -31s84.834 10.333 120.501 31s63.834 49.167 84.501 85.5s31 77.5 31 123.5c0 46.667 -10.333 88 -31 124s-48.834 64.333 -84.501 85s-75.834 31 -120.501 31
s-84.834 -10.333 -120.501 -31s-63.834 -49 -84.501 -85s-31 -77.333 -31 -124zM92 230c0 37.333 8 70.333 24 99s37.833 51.167 65.5 67.5s58.834 24.5 93.501 24.5s65.834 -8.16699 93.501 -24.5s49.5 -39 65.5 -68s24 -61.833 24 -98.5c0 -37.333 -8 -70.333 -24 -99
s-37.833 -51.167 -65.5 -67.5s-58.834 -24.5 -93.501 -24.5s-65.834 8.16699 -93.501 24.5s-49.5 38.833 -65.5 67.5s-24 61.667 -24 99zM275 661l127 -111l33 27l-160 140l-160 -140l33 -27z" />
    <glyph glyph-name="otilde" unicode="&#xf5;" horiz-adv-x="550" 
d="M39 230c0 -46 10.5 -87.167 31.5 -123.5s49.167 -64.833 84.5 -85.5s75.333 -31 120 -31s84.834 10.333 120.501 31s63.834 49.167 84.501 85.5s31 77.5 31 123.5c0 46.667 -10.333 88 -31 124s-48.834 64.333 -84.501 85s-75.834 31 -120.501 31
s-84.667 -10.333 -120 -31s-63.5 -49 -84.5 -85s-31.5 -77.333 -31.5 -124zM92 230c0 37.333 8 70.333 24 99s37.833 51.167 65.5 67.5s58.834 24.5 93.501 24.5s65.834 -8.16699 93.501 -24.5s49.5 -38.833 65.5 -67.5s24 -61.667 24 -99s-8 -70.333 -24 -99
s-37.833 -51.167 -65.5 -67.5s-58.834 -24.5 -93.501 -24.5s-65.834 8.16699 -93.501 24.5s-49.5 38.833 -65.5 67.5s-24 61.667 -24 99zM126 561l34.998 -23c0 6.66699 1.5 14 4.5 22s8.33301 14.833 16 20.5s18.167 8.5 31.5 8.5c15.333 0 28.5 -3.83301 39.5 -11.5
s22.833 -15.5 35.5 -23.5s28 -12 46 -12c14 0 26.833 2.83301 38.5 8.5s21.834 13.5 30.501 23.5s15.667 21 21 33l-31 27c-9.33301 -16 -18.166 -28 -26.499 -36s-18.166 -12 -29.499 -12c-13.333 0 -24.5 2.33301 -33.5 7s-17.5 10.167 -25.5 16.5s-17 11.833 -27 16.5
s-22.667 7 -38 7c-14.667 0 -28.334 -3.16699 -41.001 -9.5s-23 -14.833 -31 -25.5s-13 -23 -15 -37z" />
    <glyph glyph-name="odieresis" unicode="&#xf6;" horiz-adv-x="550" 
d="M39 230c0 -46 10.333 -87.167 31 -123.5s48.834 -64.833 84.501 -85.5s75.834 -31 120.501 -31s84.834 10.333 120.501 31s63.834 49.167 84.501 85.5s31 77.5 31 123.5c0 46.667 -10.333 88 -31 124s-48.834 64.333 -84.501 85s-75.834 31 -120.501 31
s-84.834 -10.333 -120.501 -31s-63.834 -49 -84.501 -85s-31 -77.333 -31 -124zM92 230c0 37.333 8 70.333 24 99s37.833 51.167 65.5 67.5s58.834 24.5 93.501 24.5s65.834 -8.16699 93.501 -24.5s49.5 -39 65.5 -68s24 -61.833 24 -98.5c0 -37.333 -8 -70.333 -24 -99
s-37.833 -51.167 -65.5 -67.5s-58.834 -24.5 -93.501 -24.5s-65.834 8.16699 -93.501 24.5s-49.5 38.833 -65.5 67.5s-24 61.667 -24 99zM338 593c0 -10 3.66699 -18.667 11 -26s16 -11 26 -11c10.667 0 19.5 3.66699 26.5 11s10.5 16 10.5 26
c0 10.667 -3.5 19.667 -10.5 27s-15.833 11 -26.5 11c-10 0 -18.667 -3.66699 -26 -11s-11 -16.333 -11 -27zM138 593c0 -10 3.66699 -18.667 11 -26s16 -11 26 -11c10.667 0 19.5 3.66699 26.5 11s10.5 16 10.5 26c0 10.667 -3.5 19.667 -10.5 27s-15.833 11 -26.5 11
c-10 0 -18.667 -3.66699 -26 -11s-11 -16.333 -11 -27z" />
    <glyph glyph-name="divide" unicode="&#xf7;" horiz-adv-x="623" 
d="M273 450c0 -10 3.66699 -18.667 11 -26s16 -11 26 -11c10.667 0 19.5 3.66699 26.5 11s10.5 16 10.5 26c0 10.667 -3.5 19.667 -10.5 27s-15.833 11 -26.5 11c-10 0 -18.667 -3.66699 -26 -11s-11 -16.333 -11 -27zM273 54c0 -10 3.66699 -18.667 11 -26s16 -11 26 -11
c10.667 0 19.5 3.66699 26.5 11s10.5 16 10.5 26c0 10.667 -3.5 19.667 -10.5 27s-15.833 11 -26.5 11c-10 0 -18.667 -3.66699 -26 -11s-11 -16.333 -11 -27zM60 229h500v52h-500v-52z" />
    <glyph glyph-name="oslash" unicode="&#xf8;" horiz-adv-x="546" 
d="M39 230c0 -46 10.333 -87.167 31 -123.5s48.834 -64.833 84.501 -85.5s75.834 -31 120.501 -31s84.834 10.333 120.501 31s63.834 49.167 84.501 85.5s31 77.5 31 123.5c0 46.667 -10.333 88 -31 124s-48.834 64.333 -84.501 85s-75.834 31 -120.501 31
s-84.834 -10.333 -120.501 -31s-63.834 -49 -84.501 -85s-31 -77.333 -31 -124zM92 230c0 37.333 8 70.333 24 99s37.833 51.167 65.5 67.5s58.834 24.5 93.501 24.5s65.834 -8.16699 93.501 -24.5s49.5 -39 65.5 -68s24 -61.833 24 -98.5c0 -37.333 -8 -70.333 -24 -99
s-37.833 -51.167 -65.5 -67.5s-58.834 -24.5 -93.501 -24.5s-65.834 8.16699 -93.501 24.5s-49.5 38.833 -65.5 67.5s-24 61.667 -24 99zM447 497l-390 -524l31 -14l390 524z" />
    <glyph glyph-name="ugrave" unicode="&#xf9;" 
d="M374 0h52v460h-52v-460zM131 168l-0.000976562 291.999h-52v-298c0 -55.333 12.833 -97.833 38.5 -127.5s62.167 -44.5 109.5 -44.5c32 0 60.833 8.33301 86.5 25s46.167 39.167 61.5 67.5s23 60.833 23 97.5h-24c0 -26 -5.83301 -49.667 -17.5 -71
s-27.667 -38.333 -48 -51s-43.5 -19 -69.5 -19c-37.333 0 -64.666 11.333 -81.999 34s-26 54.334 -26 95.001zM117.999 698.999l177 -153l30 20l-158 160z" />
    <glyph glyph-name="uacute" unicode="&#xfa;" 
d="M374 0h52v460h-52v-460zM131 168l-0.000976562 291.999h-52v-298c0 -55.333 12.833 -97.833 38.5 -127.5s62.167 -44.5 109.5 -44.5c32 0 60.833 8.33301 86.5 25s46.167 39.167 61.5 67.5s23 60.833 23 97.5h-24c0 -26 -5.83301 -49.667 -17.5 -71
s-27.667 -38.333 -48 -51s-43.5 -19 -69.5 -19c-37.333 0 -64.666 11.333 -81.999 34s-26 54.334 -26 95.001zM385.999 698.999l-47 27l-158 -160l28 -20z" />
    <glyph glyph-name="ucircumflex" unicode="&#xfb;" 
d="M374 0h52v460h-52v-460zM131 168l-0.000976562 291.999h-52v-298c0 -55.333 12.833 -97.833 38.5 -127.5s62.167 -44.5 109.5 -44.5c32 0 60.833 8.33301 86.5 25s46.167 39.167 61.5 67.5s23 60.833 23 97.5h-24c0 -26 -5.83301 -49.667 -17.5 -71
s-27.667 -38.333 -48 -51s-43.5 -19 -69.5 -19c-37.333 0 -64.666 11.333 -81.999 34s-26 54.334 -26 95.001zM251.999 656.999l127 -111l33 27l-160 140l-160 -140l33 -27z" />
    <glyph glyph-name="udieresis" unicode="&#xfc;" 
d="M374 0h52v460h-52v-460zM131 168l-0.000976562 291.999h-52v-298c0 -55.333 12.833 -97.833 38.5 -127.5s62.167 -44.5 109.5 -44.5c32 0 60.833 8.33301 86.5 25s46.167 39.167 61.5 67.5s23 60.833 23 97.5h-24c0 -26 -5.83301 -49.667 -17.5 -71
s-27.667 -38.333 -48 -51s-43.5 -19 -69.5 -19c-37.333 0 -64.666 11.333 -81.999 34s-26 54.334 -26 95.001zM306.999 586.999c0 -10 3.83301 -18.667 11.5 -26s16.167 -11 25.5 -11c10.667 0 19.667 3.66699 27 11s11 16 11 26c0 10.667 -3.66699 19.667 -11 27
s-16.333 11 -27 11c-9.33301 0 -17.833 -3.66699 -25.5 -11s-11.5 -16.333 -11.5 -27zM122.999 586.999c0 -10 3.83301 -18.667 11.5 -26s16.167 -11 25.5 -11c10.667 0 19.667 3.66699 27 11s11 16 11 26c0 10.667 -3.66699 19.667 -11 27s-16.333 11 -27 11
c-9.33301 0 -17.833 -3.66699 -25.5 -11s-11.5 -16.333 -11.5 -27z" />
    <glyph glyph-name="yacute" unicode="&#xfd;" horiz-adv-x="434" 
d="M430 460h-58l-163 -390l24 -2l-167 392h-62l186 -413l-118 -267h58zM357 695l-48 27l-158 -160l29 -20z" />
    <glyph glyph-name="thorn" unicode="&#xfe;" horiz-adv-x="558" 
d="M126 -220v1000h-52v-1000h52zM519 230c0 50 -9.83301 92.832 -29.5 128.499s-46.334 63.167 -80.001 82.5s-71.167 29 -112.5 29c-38.667 0 -72.667 -10.5 -102 -31.5s-52.166 -49.5 -68.499 -85.5s-24.5 -77 -24.5 -123c0 -45.333 8.16699 -86.166 24.5 -122.499
s39.166 -65 68.499 -86s63.333 -31.5 102 -31.5c41.333 0 78.833 9.66699 112.5 29s60.334 47 80.001 83s29.5 78.667 29.5 128zM467 229.999c0 -40 -8 -74.3369 -24 -103.004s-37.333 -50.5 -64 -65.5s-56.334 -22.5 -89.001 -22.5c-28 0 -54.667 8.33301 -80 25
s-45.666 39.334 -60.999 68.001s-23 61.334 -23 98.001s7.66699 69.334 23 98.001s35.666 51.334 60.999 68.001s52 25 80 25c32.667 0 62.334 -7.5 89.001 -22.5s48 -36.833 64 -65.5s24 -63 24 -103z" />
    <glyph glyph-name="ydieresis" unicode="&#xff;" horiz-adv-x="434" 
d="M430 460h-58l-163 -390l24 -2l-167 392h-62l186 -413l-118 -267h58zM272 575c0 -10 3.66699 -18.667 11 -26s16 -11 26 -11c10.667 0 19.667 3.66699 27 11s11 16 11 26c0 10.667 -3.66699 19.667 -11 27s-16.333 11 -27 11c-10 0 -18.667 -3.66699 -26 -11
s-11 -16.333 -11 -27zM88 575c0 -10 3.66699 -18.667 11 -26s16 -11 26 -11c10.667 0 19.667 3.66699 27 11s11 16 11 26c0 10.667 -3.66699 19.667 -11 27s-16.333 11 -27 11c-10 0 -18.667 -3.66699 -26 -11s-11 -16.333 -11 -27z" />
    <glyph glyph-name="Amacron" unicode="&#x100;" horiz-adv-x="636" 
d="M139 235h360l-18 52h-324zM318 600l138 -334l5 -13l104 -253h62l-309 727l-309 -727h62l105 257l6 12zM143 795h350v49h-350v-49z" />
    <glyph glyph-name="amacron" unicode="&#x101;" horiz-adv-x="465" 
d="M87 135c0 23.333 5.99805 43.002 17.998 59.002s28.5 28.167 49.5 36.5s44.833 12.5 71.5 12.5c31.333 0 58.5 -4.16699 81.5 -12.5s43.833 -19.5 62.5 -33.5v32c-5.33301 6 -14.166 13.333 -26.499 22s-28.333 16.334 -48 23.001s-43.5 10 -71.5 10
c-34 0 -65.5 -5.83301 -94.5 -17.5s-52.167 -28.834 -69.5 -51.501s-26 -51.334 -26 -86.001c0 -30.667 6.83301 -56.334 20.5 -77.001s32.5 -36.167 56.5 -46.5s50.333 -15.5 79 -15.5c32.667 0 61.834 6.5 87.501 19.5s46 31 61 54s22.5 49.167 22.5 78.5l-12 30
c0 -28.667 -6.33301 -53 -19 -73s-30.167 -35.333 -52.5 -46s-47.5 -16 -75.5 -16c-22 0 -41.667 3.5 -59 10.5s-31 17.667 -41 32s-15 32.833 -15 55.5zM99.998 369.002c9.33301 8 20.834 16.332 34.501 24.999s29.5 15.834 47.5 21.501s38 8.5 60 8.5
c32 0 57.833 -8.5 77.5 -25.5s29.5 -41.167 29.5 -72.5v-326h52v326c0 30 -6.33301 55.667 -19 77s-30.834 37.833 -54.501 49.5s-52.167 17.5 -85.5 17.5c-39.333 0 -72.833 -6.66699 -100.5 -20s-50.167 -27 -67.5 -41zM66.999 550.001h350v49h-350v-49z" />
    <glyph glyph-name="Abreve" unicode="&#x102;" horiz-adv-x="636" 
d="M139 235h360l-18 52h-324zM318 600l138 -334l5 -13l104 -253h62l-309 727l-309 -727h62l105 257l6 12zM160 931c0 -22.667 5.83203 -44.834 17.499 -66.501s29.334 -39.334 53.001 -53.001s52.834 -20.5 87.501 -20.5c35.333 0 64.666 6.83301 87.999 20.5
s40.833 31.334 52.5 53.001s17.5 43.834 17.5 66.501h-47c0 -14 -3.66699 -28.5 -11 -43.5s-19.333 -27.667 -36 -38s-38 -15.5 -64 -15.5s-47.333 5.16699 -64 15.5s-28.667 23 -36 38s-11 29.5 -11 43.5h-47z" />
    <glyph glyph-name="abreve" unicode="&#x103;" horiz-adv-x="465" 
d="M87 135c0 23.333 5.99805 43.002 17.998 59.002s28.5 28.167 49.5 36.5s44.833 12.5 71.5 12.5c31.333 0 58.5 -4.16699 81.5 -12.5s43.833 -19.5 62.5 -33.5v32c-5.33301 6 -14.166 13.333 -26.499 22s-28.333 16.334 -48 23.001s-43.5 10 -71.5 10
c-34 0 -65.5 -5.83301 -94.5 -17.5s-52.167 -28.834 -69.5 -51.501s-26 -51.334 -26 -86.001c0 -30.667 6.83301 -56.334 20.5 -77.001s32.5 -36.167 56.5 -46.5s50.333 -15.5 79 -15.5c32.667 0 61.834 6.5 87.501 19.5s46 31 61 54s22.5 49.167 22.5 78.5l-12 30
c0 -28.667 -6.33301 -53 -19 -73s-30.167 -35.333 -52.5 -46s-47.5 -16 -75.5 -16c-22 0 -41.667 3.5 -59 10.5s-31 17.667 -41 32s-15 32.833 -15 55.5zM99.998 369.002c9.33301 8 20.834 16.332 34.501 24.999s29.5 15.834 47.5 21.501s38 8.5 60 8.5
c32 0 57.833 -8.5 77.5 -25.5s29.5 -41.167 29.5 -72.5v-326h52v326c0 30 -6.33301 55.667 -19 77s-30.834 37.833 -54.501 49.5s-52.167 17.5 -85.5 17.5c-39.333 0 -72.833 -6.66699 -100.5 -20s-50.167 -27 -67.5 -41zM79.999 674.001
c0 -22.667 5.83203 -44.834 17.499 -66.501s29.334 -39.334 53.001 -53.001s52.834 -20.5 87.501 -20.5c35.333 0 64.666 6.83301 87.999 20.5s40.833 31.334 52.5 53.001s17.5 43.834 17.5 66.501h-47c0 -14 -3.66699 -28.5 -11 -43.5s-19.333 -27.667 -36 -38
s-38 -15.5 -64 -15.5s-47.333 5.16699 -64 15.5s-28.667 23 -36 38s-11 29.5 -11 43.5h-47z" />
    <glyph glyph-name="Aogonek" unicode="&#x104;" horiz-adv-x="636" 
d="M140 235h359l-18 52h-323zM318 600l138 -334l5 -13l104 -253h62l-309 727l-309 -727h62l105 257l6 12zM644 -147c-7.33301 -7.33301 -16.3291 -13.6641 -26.9961 -18.9971s-24 -8 -40 -8c-18.667 0 -34.334 4.66699 -47.001 14s-19 24 -19 44
c0 15.333 5.66699 30.166 17 44.499s25.833 27.666 43.5 39.999s36.167 22.833 55.5 31.5l-27 19c-23.333 -12 -45.833 -25.333 -67.5 -40s-39.334 -30.834 -53.001 -48.501s-20.5 -37.167 -20.5 -58.5c0 -18 4.33301 -34 13 -48s21.5 -24.833 38.5 -32.5
s38.167 -11.5 63.5 -11.5c21.333 0 40.166 4.16699 56.499 12.5s28.166 17.5 35.499 27.5z" />
    <glyph glyph-name="aogonek" unicode="&#x105;" horiz-adv-x="465" 
d="M87 135c0 23.333 5.99902 42.999 17.999 58.999s28.5 28.167 49.5 36.5s44.833 12.5 71.5 12.5c31.333 0 58.5 -4.16699 81.5 -12.5s43.833 -19.5 62.5 -33.5v32c-5.33301 6 -14.166 13.333 -26.499 22s-28.333 16.334 -48 23.001s-43.5 10 -71.5 10
c-36 0 -68.333 -5.83301 -97 -17.5s-51.334 -28.667 -68.001 -51s-25 -49.833 -25 -82.5s7.33301 -59.5 22 -80.5s33.834 -36.667 57.501 -47s49.167 -15.5 76.5 -15.5c32.667 0 61.834 6.5 87.501 19.5s46 31 61 54s22.5 49.167 22.5 78.5l-12 30
c0 -28.667 -6.33301 -53 -19 -73s-30.167 -35.333 -52.5 -46s-47.5 -16 -75.5 -16c-20 0 -38.833 3.5 -56.5 10.5s-31.834 17.667 -42.501 32s-16 32.833 -16 55.5zM99.999 368.999c9.33301 8 20.834 16.332 34.501 24.999s29.5 15.834 47.5 21.501s38 8.5 60 8.5
c32 0 57.833 -8.5 77.5 -25.5s29.5 -41.167 29.5 -72.5v-326h52v326c0 30 -6.33301 55.667 -19 77s-30.834 37.833 -54.501 49.5s-52.167 17.5 -85.5 17.5c-39.333 0 -72.833 -6.66699 -100.5 -20s-50.167 -27 -67.5 -41zM418 -147.002
c-7.33301 -7.33301 -16.3291 -13.6641 -26.9961 -18.9971s-24 -8 -40 -8c-18.667 0 -34.334 4.66699 -47.001 14s-19 24 -19 44c0 15.333 5.66699 30.166 17 44.499s25.833 27.666 43.5 39.999s36.167 22.833 55.5 31.5l-27 19c-23.333 -12 -45.833 -25.333 -67.5 -40
s-39.334 -30.834 -53.001 -48.501s-20.5 -37.167 -20.5 -58.5c0 -18 4.33301 -34 13 -48s21.5 -24.833 38.5 -32.5s38.167 -11.5 63.5 -11.5c21.333 0 40.166 4.16699 56.499 12.5s28.166 17.5 35.499 27.5z" />
    <glyph glyph-name="Cacute" unicode="&#x106;" horiz-adv-x="685" 
d="M103 350c0 60 12.6641 112.667 37.9971 158s59.333 80.833 102 106.5s90.334 38.5 143.001 38.5c32.667 0 62.667 -3.66699 90 -11s52.333 -18.166 75 -32.499s42.667 -31.5 60 -51.5v73c-29.333 26 -61.333 45.5 -96 58.5s-77.667 19.5 -129 19.5
c-48.667 0 -93.834 -8.83301 -135.501 -26.5s-77.834 -42.5 -108.501 -74.5s-54.667 -70 -72 -114s-26 -92 -26 -144s8.66699 -100 26 -144s41.333 -82 72 -114s66.834 -56.833 108.501 -74.5s86.834 -26.5 135.501 -26.5c51.333 0 94.333 6.5 129 19.5s66.667 32.5 96 58.5
v74c-17.333 -20 -37.166 -37.333 -59.499 -52s-47.166 -25.667 -74.499 -33s-57.666 -11 -90.999 -11c-52.667 0 -100.334 13 -143.001 39s-76.667 61.667 -102 107s-38 97.666 -38 156.999zM517.997 922l-48 27l-158 -160l29 -20z" />
    <glyph glyph-name="cacute" unicode="&#x107;" horiz-adv-x="482" 
d="M87 230c0 37.333 8 70.332 24 98.999s37.833 51.167 65.5 67.5s58.834 24.5 93.501 24.5c24.667 0 47.667 -3.66699 69 -11s39.833 -16.666 55.5 -27.999s26.834 -23.333 33.501 -36v65c-14 16 -35.5 29.833 -64.5 41.5s-60.167 17.5 -93.5 17.5
c-44.667 0 -84.667 -10.333 -120 -31s-63.5 -49 -84.5 -85s-31.5 -77.333 -31.5 -124c0 -46 10.5 -87.167 31.5 -123.5s49.167 -64.833 84.5 -85.5s75.333 -31 120 -31c33.333 0 64.5 5.66699 93.5 17s50.5 25.333 64.5 42v65c-6.66699 -12 -17.834 -23.833 -33.501 -35.5
s-34.167 -21.167 -55.5 -28.5s-44.333 -11 -69 -11c-34.667 0 -65.834 8.16699 -93.501 24.5s-49.5 38.833 -65.5 67.5s-24 61.667 -24 99zM406 686.999l-48 27l-158 -160l29 -20z" />
    <glyph glyph-name="Ccircumflex" unicode="&#x108;" horiz-adv-x="685" 
d="M103 350c0 60 12.6641 112.667 37.9971 158s59.333 80.833 102 106.5s90.334 38.5 143.001 38.5c32.667 0 62.667 -3.66699 90 -11s52.333 -18.166 75 -32.499s42.667 -31.5 60 -51.5v73c-29.333 26 -61.333 45.5 -96 58.5s-77.667 19.5 -129 19.5
c-48.667 0 -93.834 -8.83301 -135.501 -26.5s-77.834 -42.5 -108.501 -74.5s-54.667 -70 -72 -114s-26 -92 -26 -144s8.66699 -100 26 -144s41.333 -82 72 -114s66.834 -56.833 108.501 -74.5s86.834 -26.5 135.501 -26.5c51.333 0 94.333 6.5 129 19.5s66.667 32.5 96 58.5
v74c-17.333 -20 -37.166 -37.333 -59.499 -52s-47.166 -25.667 -74.499 -33s-57.666 -11 -90.999 -11c-52.667 0 -100.334 13 -143.001 39s-76.667 61.667 -102 107s-38 97.666 -38 156.999zM385.997 880l127 -111l33 27l-160 140l-160 -140l33 -27z" />
    <glyph glyph-name="ccircumflex" unicode="&#x109;" horiz-adv-x="482" 
d="M87 230c0 37.333 8 70.332 24 98.999s37.833 51.167 65.5 67.5s58.834 24.5 93.501 24.5c24.667 0 47.667 -3.66699 69 -11s39.833 -16.666 55.5 -27.999s26.834 -23.333 33.501 -36v65c-14 16 -35.5 29.833 -64.5 41.5s-60.167 17.5 -93.5 17.5
c-44.667 0 -84.667 -10.333 -120 -31s-63.5 -49 -84.5 -85s-31.5 -77.333 -31.5 -124c0 -46 10.5 -87.167 31.5 -123.5s49.167 -64.833 84.5 -85.5s75.333 -31 120 -31c33.333 0 64.5 5.66699 93.5 17s50.5 25.333 64.5 42v65c-6.66699 -12 -17.834 -23.833 -33.501 -35.5
s-34.167 -21.167 -55.5 -28.5s-44.333 -11 -69 -11c-34.667 0 -65.834 8.16699 -93.501 24.5s-49.5 38.833 -65.5 67.5s-24 61.667 -24 99zM270 640.999l127 -111l33 27l-160 140l-160 -140l33 -27z" />
    <glyph glyph-name="Cdotaccent" unicode="&#x10a;" horiz-adv-x="685" 
d="M103 350c0 60 12.6641 112.667 37.9971 158s59.333 80.833 102 106.5s90.334 38.5 143.001 38.5c32.667 0 62.667 -3.66699 90 -11s52.333 -18.166 75 -32.499s42.667 -31.5 60 -51.5v73c-29.333 26 -61.333 45.5 -96 58.5s-77.667 19.5 -129 19.5
c-48.667 0 -93.834 -8.83301 -135.501 -26.5s-77.834 -42.5 -108.501 -74.5s-54.667 -70 -72 -114s-26 -92 -26 -144s8.66699 -100 26 -144s41.333 -82 72 -114s66.834 -56.833 108.501 -74.5s86.834 -26.5 135.501 -26.5c51.333 0 94.333 6.5 129 19.5s66.667 32.5 96 58.5
v74c-17.333 -20 -37.166 -37.333 -59.499 -52s-47.166 -25.667 -74.499 -33s-57.666 -11 -90.999 -11c-52.667 0 -100.334 13 -143.001 39s-76.667 61.667 -102 107s-38 97.666 -38 156.999zM348.997 811c0 -10.667 3.66699 -19.667 11 -27s16 -11 26 -11
c10.667 0 19.5 3.66699 26.5 11s10.5 16.333 10.5 27c0 10 -3.5 18.667 -10.5 26s-15.833 11 -26.5 11c-10 0 -18.667 -3.66699 -26 -11s-11 -16 -11 -26z" />
    <glyph glyph-name="cdotaccent" unicode="&#x10b;" horiz-adv-x="482" 
d="M87 230c0 37.333 8 70.332 24 98.999s37.833 51.167 65.5 67.5s58.834 24.5 93.501 24.5c24.667 0 47.667 -3.66699 69 -11s39.833 -16.666 55.5 -27.999s26.834 -23.333 33.501 -36v65c-14 16 -35.5 29.833 -64.5 41.5s-60.167 17.5 -93.5 17.5
c-44.667 0 -84.667 -10.333 -120 -31s-63.5 -49 -84.5 -85s-31.5 -77.333 -31.5 -124c0 -46 10.5 -87.167 31.5 -123.5s49.167 -64.833 84.5 -85.5s75.333 -31 120 -31c33.333 0 64.5 5.66699 93.5 17s50.5 25.333 64.5 42v65c-6.66699 -12 -17.834 -23.833 -33.501 -35.5
s-34.167 -21.167 -55.5 -28.5s-44.333 -11 -69 -11c-34.667 0 -65.834 8.16699 -93.501 24.5s-49.5 38.833 -65.5 67.5s-24 61.667 -24 99zM233 570.999c0 -10 3.66699 -18.667 11 -26s16 -11 26 -11c10.667 0 19.5 3.66699 26.5 11s10.5 16 10.5 26
c0 10.667 -3.5 19.667 -10.5 27s-15.833 11 -26.5 11c-10 0 -18.667 -3.66699 -26 -11s-11 -16.333 -11 -27z" />
    <glyph glyph-name="Ccaron" unicode="&#x10c;" horiz-adv-x="685" 
d="M103 350c0 60 12.6641 112.667 37.9971 158s59.333 80.833 102 106.5s90.334 38.5 143.001 38.5c32.667 0 62.667 -3.66699 90 -11s52.333 -18.166 75 -32.499s42.667 -31.5 60 -51.5v73c-29.333 26 -61.333 45.5 -96 58.5s-77.667 19.5 -129 19.5
c-48.667 0 -93.834 -8.83301 -135.501 -26.5s-77.834 -42.5 -108.501 -74.5s-54.667 -70 -72 -114s-26 -92 -26 -144s8.66699 -100 26 -144s41.333 -82 72 -114s66.834 -56.833 108.501 -74.5s86.834 -26.5 135.501 -26.5c51.333 0 94.333 6.5 129 19.5s66.667 32.5 96 58.5
v74c-17.333 -20 -37.166 -37.333 -59.499 -52s-47.166 -25.667 -74.499 -33s-57.666 -11 -90.999 -11c-52.667 0 -100.334 13 -143.001 39s-76.667 61.667 -102 107s-38 97.666 -38 156.999zM385.997 829l-127 111l-33 -27l160 -140l160 140l-33 27z" />
    <glyph glyph-name="ccaron" unicode="&#x10d;" horiz-adv-x="482" 
d="M87 230c0 37.333 8 70.332 24 98.999s37.833 51.167 65.5 67.5s58.834 24.5 93.501 24.5c24.667 0 47.667 -3.66699 69 -11s39.833 -16.666 55.5 -27.999s26.834 -23.333 33.501 -36v65c-14 16 -35.5 29.833 -64.5 41.5s-60.167 17.5 -93.5 17.5
c-44.667 0 -84.667 -10.333 -120 -31s-63.5 -49 -84.5 -85s-31.5 -77.333 -31.5 -124c0 -46 10.5 -87.167 31.5 -123.5s49.167 -64.833 84.5 -85.5s75.333 -31 120 -31c33.333 0 64.5 5.66699 93.5 17s50.5 25.333 64.5 42v65c-6.66699 -12 -17.834 -23.833 -33.501 -35.5
s-34.167 -21.167 -55.5 -28.5s-44.333 -11 -69 -11c-34.667 0 -65.834 8.16699 -93.501 24.5s-49.5 38.833 -65.5 67.5s-24 61.667 -24 99zM270 593.999l-127 111l-33 -27l160 -140l160 140l-33 27z" />
    <glyph glyph-name="Dcaron" unicode="&#x10e;" horiz-adv-x="662" 
d="M84 700v-700h55v700h-55zM274 0c68 0 127.833 14.6689 179.5 44.002s92 70.166 121 122.499s43.5 113.5 43.5 183.5s-14.5 131.167 -43.5 183.5s-69.333 93.166 -121 122.499s-111.5 44 -179.5 44h-160v-55h160c43.333 0 82.833 -7 118.5 -21s66.167 -33.833 91.5 -59.5
s44.833 -56.667 58.5 -93s20.5 -76.833 20.5 -121.5s-6.83301 -85.167 -20.5 -121.5s-33.167 -67.333 -58.5 -93s-55.833 -45.5 -91.5 -59.5s-75.167 -21 -118.5 -21h-160v-55h160zM325 837.002l-127 111l-33 -27l160 -140l160 140l-33 27z" />
    <glyph glyph-name="dcaron" unicode="&#x10f;" horiz-adv-x="570" 
d="M432 780v-780h52v780h-52zM39 230c0 -49.333 10 -91.999 30 -127.999s46.833 -63.667 80.5 -83s70.834 -29 111.501 -29c40 0 74.333 10.5 103 31.5s51.167 49.667 67.5 86s24.5 77.166 24.5 122.499c0 46 -8.16699 87 -24.5 123s-38.833 64.5 -67.5 85.5
s-63 31.5 -103 31.5c-40.667 0 -77.834 -9.66699 -111.501 -29s-60.5 -46.833 -80.5 -82.5s-30 -78.5 -30 -128.5zM92 230.001c0 40 7.83301 74.3369 23.5 103.004s37 50.5 64 65.5s56.5 22.5 88.5 22.5c28.667 0 55.5 -8.33301 80.5 -25s45.167 -39.334 60.5 -68.001
s23 -61.334 23 -98.001s-7.66699 -69.334 -23 -98.001s-35.5 -51.334 -60.5 -68.001s-51.833 -25 -80.5 -25c-32 0 -61.5 7.5 -88.5 22.5s-48.333 36.833 -64 65.5s-23.5 63 -23.5 103zM633 774.005l-95 -257l37 -13l110 250z" />
    <glyph glyph-name="Dcroat" unicode="&#x110;" horiz-adv-x="680" 
d="M5 324h300v49h-300v-49zM84 700v-700h55v700h-55zM274 0c68 0 127.833 14.6689 179.5 44.002s92 70.166 121 122.499s43.5 113.5 43.5 183.5s-14.5 131.167 -43.5 183.5s-69.333 93.166 -121 122.499s-111.5 44 -179.5 44h-160v-55h160c43.333 0 82.833 -7 118.5 -21
s66.167 -33.833 91.5 -59.5s44.833 -56.667 58.5 -93s20.5 -76.833 20.5 -121.5s-6.83301 -85.167 -20.5 -121.5s-33.167 -67.333 -58.5 -93s-55.833 -45.5 -91.5 -59.5s-75.167 -21 -118.5 -21h-160v-55h160z" />
    <glyph glyph-name="dcroat" unicode="&#x111;" horiz-adv-x="558" 
d="M295 616h300v49h-300v-49zM432 780v-780h52v780h-52zM39 230c0 -49.333 10 -91.999 30 -127.999s46.833 -63.667 80.5 -83s70.834 -29 111.501 -29c38.667 0 72.5 10.167 101.5 30.5s51.833 48.666 68.5 84.999s25 77.833 25 124.5c0 47.333 -8.33301 89 -25 125
s-39.5 64.167 -68.5 84.5s-62.833 30.5 -101.5 30.5c-40.667 0 -77.834 -9.66699 -111.501 -29s-60.5 -46.833 -80.5 -82.5s-30 -78.5 -30 -128.5zM92 230.001c0 40 7.83301 74.333 23.5 103s37 50.5 64 65.5s56.5 22.5 88.5 22.5c22 0 42.833 -5 62.5 -15
s37.167 -23.667 52.5 -41s27.333 -37.5 36 -60.5s13 -47.833 13 -74.5s-4.33301 -51.5 -13 -74.5s-20.667 -43.167 -36 -60.5s-32.833 -31 -52.5 -41s-40.5 -15 -62.5 -15c-32 0 -61.5 7.5 -88.5 22.5s-48.333 36.833 -64 65.5s-23.5 63 -23.5 103z" />
    <glyph glyph-name="Emacron" unicode="&#x112;" horiz-adv-x="534" 
d="M113 0h347v52h-347v-52zM113 648h347v52h-347v-52zM113 358h327v52h-327v-52zM84 700v-700h55v700h-55zM105 796h350v49h-350v-49z" />
    <glyph glyph-name="emacron" unicode="&#x113;" horiz-adv-x="510" 
d="M72 217h397c0.666992 4 1.16699 8.16699 1.5 12.5s0.5 8.5 0.5 12.5c0 46 -9.16699 86 -27.5 120s-43.5 60.5 -75.5 79.5s-68 28.5 -108 28.5c-36.667 0 -70 -7.5 -100 -22.5s-54.667 -36 -74 -63s-33 -58.167 -41 -93.5c-2 -10 -3.5 -19.833 -4.5 -29.5
s-1.5 -19.834 -1.5 -30.501c0 -46 9.33301 -87.333 28 -124s44.167 -65.334 76.5 -86.001s68.5 -31 108.5 -31c40.667 0 74 5.5 100 16.5s47.667 25.333 65 43s32.666 36.834 45.999 57.501l-42 27c-10 -16.667 -22.167 -32.167 -36.5 -46.5s-31.666 -26 -51.999 -35
s-45.166 -13.5 -74.499 -13.5c-32.667 0 -61.5 7.83301 -86.5 23.5s-44.5 38 -58.5 67s-21 62.833 -21 101.5l1 18c0 36 7.66699 67.167 23 93.5s35.666 46.5 60.999 60.5s53 21 83 21s56.5 -7 79.5 -21s41.167 -33.167 54.5 -57.5s20 -52.166 20 -83.499h-342v-45zM85 530
h350v49h-350v-49z" />
    <glyph glyph-name="Ebreve" unicode="&#x114;" horiz-adv-x="534" 
d="M113 0h347v52h-347v-52zM113 648h347v52h-347v-52zM113 358h327v52h-327v-52zM84 700v-700h55v700h-55zM118 909c0 -22.667 5.83203 -44.834 17.499 -66.501s29.334 -39.334 53.001 -53.001s52.834 -20.5 87.501 -20.5c35.333 0 64.666 6.83301 87.999 20.5
s40.833 31.334 52.5 53.001s17.5 43.834 17.5 66.501h-47c0 -14 -3.66699 -28.333 -11 -43s-19.333 -27.334 -36 -38.001s-38 -16 -64 -16s-47.333 5.33301 -64 16s-28.667 23.334 -36 38.001s-11 29 -11 43h-47z" />
    <glyph glyph-name="ebreve" unicode="&#x115;" horiz-adv-x="510" 
d="M72 217h397c0.666992 4 1.16699 8.16699 1.5 12.5s0.5 8.5 0.5 12.5c0 46 -9.16699 86 -27.5 120s-43.5 60.5 -75.5 79.5s-68 28.5 -108 28.5c-36.667 0 -70 -7.5 -100 -22.5s-54.667 -36 -74 -63s-33 -58.167 -41 -93.5c-2 -10 -3.5 -19.833 -4.5 -29.5
s-1.5 -19.834 -1.5 -30.501c0 -46 9.33301 -87.333 28 -124s44.167 -65.334 76.5 -86.001s68.5 -31 108.5 -31c40.667 0 74 5.5 100 16.5s47.667 25.333 65 43s32.666 36.834 45.999 57.501l-42 27c-10 -16.667 -22.167 -32.167 -36.5 -46.5s-31.666 -26 -51.999 -35
s-45.166 -13.5 -74.499 -13.5c-32.667 0 -61.5 7.83301 -86.5 23.5s-44.5 38 -58.5 67s-21 62.833 -21 101.5l1 18c0 36 7.66699 67.167 23 93.5s35.666 46.5 60.999 60.5s53 21 83 21s56.5 -7 79.5 -21s41.167 -33.167 54.5 -57.5s20 -52.166 20 -83.499h-342v-45zM102 670
c0 -22.667 5.83203 -44.834 17.499 -66.501s29.334 -39.334 53.001 -53.001s52.834 -20.5 87.501 -20.5c35.333 0 64.666 6.83301 87.999 20.5s40.833 31.334 52.5 53.001s17.5 43.834 17.5 66.501h-47c0 -14 -3.83301 -28.5 -11.5 -43.5s-19.667 -27.667 -36 -38
s-37.5 -15.5 -63.5 -15.5c-26.667 0 -48.167 5.16699 -64.5 15.5s-28.333 23 -36 38s-11.5 29.5 -11.5 43.5h-46z" />
    <glyph glyph-name="Edotaccent" unicode="&#x116;" horiz-adv-x="534" 
d="M113 0h347v52h-347v-52zM113 648h347v52h-347v-52zM113 358h327v52h-327v-52zM84 700v-700h55v700h-55zM235 807c0 -10.667 3.66699 -19.667 11 -27s16 -11 26 -11c10.667 0 19.5 3.66699 26.5 11s10.5 16.333 10.5 27c0 10 -3.5 18.667 -10.5 26s-15.833 11 -26.5 11
c-10 0 -18.667 -3.66699 -26 -11s-11 -16 -11 -26z" />
    <glyph glyph-name="edotaccent" unicode="&#x117;" horiz-adv-x="510" 
d="M72 217h397c0.666992 4 1.16699 8.16699 1.5 12.5s0.5 8.5 0.5 12.5c0 46 -9.16699 86 -27.5 120s-43.5 60.5 -75.5 79.5s-68 28.5 -108 28.5c-36.667 0 -70 -7.5 -100 -22.5s-54.667 -36 -74 -63s-33 -58.167 -41 -93.5c-2 -10 -3.5 -19.833 -4.5 -29.5
s-1.5 -19.834 -1.5 -30.501c0 -46 9.33301 -87.333 28 -124s44.167 -65.334 76.5 -86.001s68.5 -31 108.5 -31c40.667 0 74 5.5 100 16.5s47.667 25.333 65 43s32.666 36.834 45.999 57.501l-42 27c-10 -16.667 -22.167 -32.167 -36.5 -46.5s-31.666 -26 -51.999 -35
s-45.166 -13.5 -74.499 -13.5c-32.667 0 -61.5 7.83301 -86.5 23.5s-44.5 38 -58.5 67s-21 62.833 -21 101.5l1 18c0 36 7.66699 67.167 23 93.5s35.666 46.5 60.999 60.5s53 21 83 21s56.5 -7 79.5 -21s41.167 -33.167 54.5 -57.5s20 -52.166 20 -83.499h-342v-45zM222 567
c0 -10 3.83301 -18.667 11.5 -26s16.5 -11 26.5 -11c10.667 0 19.5 3.66699 26.5 11s10.5 16 10.5 26c0 10.667 -3.5 19.667 -10.5 27s-15.833 11 -26.5 11c-10 0 -18.833 -3.66699 -26.5 -11s-11.5 -16.333 -11.5 -27z" />
    <glyph glyph-name="Eogonek" unicode="&#x118;" horiz-adv-x="534" 
d="M113 0h347v52h-347v-52zM113 648h347v52h-347v-52zM113 358h327v52h-327v-52zM84 700v-700h55v700h-55zM405 -147c-7.33301 -7.33301 -16.3291 -13.6641 -26.9961 -18.9971s-24 -8 -40 -8c-18.667 0 -34.334 4.66699 -47.001 14s-19 24 -19 44
c0 15.333 5.66699 30.166 17 44.499s25.833 27.666 43.5 39.999s36.167 22.833 55.5 31.5l-27 19c-23.333 -12 -45.833 -25.333 -67.5 -40s-39.334 -30.834 -53.001 -48.501s-20.5 -37.167 -20.5 -58.5c0 -18 4.33301 -34 13 -48s21.5 -24.833 38.5 -32.5
s38.167 -11.5 63.5 -11.5c21.333 0 40.166 4.16699 56.499 12.5s28.166 17.5 35.499 27.5z" />
    <glyph glyph-name="eogonek" unicode="&#x119;" horiz-adv-x="510" 
d="M72 217h397c0.666992 4 1.16699 8.16699 1.5 12.5s0.5 8.5 0.5 12.5c0 46 -9.16699 86 -27.5 120s-43.5 60.5 -75.5 79.5s-68 28.5 -108 28.5c-36.667 0 -70 -7.5 -100 -22.5s-54.667 -36 -74 -63s-33 -58.167 -41 -93.5c-2 -10 -3.5 -19.833 -4.5 -29.5
s-1.5 -19.834 -1.5 -30.501c0 -46 9.33301 -87.333 28 -124s44.167 -65.334 76.5 -86.001s68.5 -31 108.5 -31c40.667 0 74 5.5 100 16.5s47.667 25.333 65 43s32.666 36.834 45.999 57.501l-42 27c-10 -16.667 -22.167 -32.167 -36.5 -46.5s-31.666 -26 -51.999 -35
s-45.166 -13.5 -74.499 -13.5c-32.667 0 -61.5 7.83301 -86.5 23.5s-44.5 38 -58.5 67s-21 62.833 -21 101.5l1 18c0 36 7.66699 67.167 23 93.5s35.666 46.5 60.999 60.5s53 21 83 21s56.5 -7 79.5 -21s41.167 -33.167 54.5 -57.5s20 -52.166 20 -83.499h-342v-45z
M295 -147c-7.33301 -8 -16.3311 -14.499 -26.998 -19.499s-24 -7.5 -40 -7.5c-18.667 0 -34.334 4.66699 -47.001 14s-19 24 -19 44c0 16 5.66699 30.667 17 44s25.833 25.666 43.5 36.999s36.167 21.333 55.5 30l-28 19c-23.333 -12 -45.666 -25 -66.999 -39
s-38.833 -29.333 -52.5 -46s-20.5 -35.667 -20.5 -57c0 -18 4.33301 -34 13 -48s21.5 -24.833 38.5 -32.5s38.167 -11.5 63.5 -11.5c21.333 0 40.166 4.16699 56.499 12.5s28.166 17.5 35.499 27.5z" />
    <glyph glyph-name="Ecaron" unicode="&#x11a;" horiz-adv-x="534" 
d="M113 0h347v52h-347v-52zM113 648h347v52h-347v-52zM113 358h327v52h-327v-52zM84 700v-700h55v700h-55zM272 825l-127 111l-33 -27l160 -140l160 140l-33 27z" />
    <glyph glyph-name="ecaron" unicode="&#x11b;" horiz-adv-x="510" 
d="M72 217h397c0.666992 4 1.16699 8.16699 1.5 12.5s0.5 8.5 0.5 12.5c0 46 -9.16699 86 -27.5 120s-43.5 60.5 -75.5 79.5s-68 28.5 -108 28.5c-36.667 0 -70 -7.5 -100 -22.5s-54.667 -36 -74 -63s-33 -58.167 -41 -93.5c-2 -10 -3.5 -19.833 -4.5 -29.5
s-1.5 -19.834 -1.5 -30.501c0 -46 9.33301 -87.333 28 -124s44.167 -65.334 76.5 -86.001s68.5 -31 108.5 -31c40.667 0 74 5.5 100 16.5s47.667 25.333 65 43s32.666 36.834 45.999 57.501l-42 27c-10 -16.667 -22.167 -32.167 -36.5 -46.5s-31.666 -26 -51.999 -35
s-45.166 -13.5 -74.499 -13.5c-32.667 0 -61.5 7.83301 -86.5 23.5s-44.5 38 -58.5 67s-21 62.833 -21 101.5l1 18c0 36 7.66699 67.167 23 93.5s35.666 46.5 60.999 60.5s53 21 83 21s56.5 -7 79.5 -21s41.167 -33.167 54.5 -57.5s20 -52.166 20 -83.499h-342v-45zM260 586
l-127 111l-33 -27l160 -140l160 140l-33 27z" />
    <glyph glyph-name="Gcircumflex" unicode="&#x11c;" horiz-adv-x="771" 
d="M411 297l250.998 0.000976562c-3.33301 -34 -12 -66 -26 -96s-32.5 -56.667 -55.5 -80s-50.167 -41.666 -81.5 -54.999s-66.666 -20 -105.999 -20c-55.333 0 -104.833 13 -148.5 39s-78.334 61.833 -104.001 107.5s-38.5 98.167 -38.5 157.5
c0 60 12.833 112.667 38.5 158s60.5 81 104.5 107s93.333 39 148 39c56.667 0 106 -12 148 -36s74.667 -55.333 98 -94l40 35c-20 31.333 -44 58.166 -72 80.499s-59.833 39.5 -95.5 51.5s-75.167 18 -118.5 18c-50 0 -96.167 -8.83301 -138.5 -26.5
s-79.333 -42.5 -111 -74.5s-56.167 -70 -73.5 -114s-26 -92 -26 -144s8.66699 -100 26 -144s41.833 -82 73.5 -114s68.667 -56.833 111 -74.5s88.5 -26.5 138.5 -26.5c51.333 0 97.333 9.66699 138 29s75.334 45.666 104.001 78.999s50.334 71.5 65.001 114.5
s22 88.167 22 135.5h-311v-52zM392.998 880.001l127 -111l33 27l-160 140l-160 -140l33 -27z" />
    <glyph glyph-name="gcircumflex" unicode="&#x11d;" horiz-adv-x="558" 
d="M50 -30c0 -39.333 8.99805 -74.1699 26.998 -104.503s43.167 -53.833 75.5 -70.5s69.5 -25 111.5 -25c38.667 0 74.667 9 108 27s60.333 44.833 81 80.5s31 79.834 31 132.501v450h-52v-450c0 -44 -8.16699 -80.167 -24.5 -108.5s-37.166 -49.166 -62.499 -62.499
s-52.333 -20 -81 -20c-32 0 -60.167 6.66699 -84.5 20s-43.166 31.333 -56.499 54s-20 48.334 -20 77.001h-53zM38.998 229.996c0 -49.333 10 -91.999 30 -127.999s46.833 -63.667 80.5 -83s70.834 -29 111.501 -29c40 0 74.333 10.5 103 31.5s51.167 49.667 67.5 86
s24.5 77.166 24.5 122.499c0 46 -8.16699 87 -24.5 123s-38.833 64.5 -67.5 85.5s-63 31.5 -103 31.5c-40.667 0 -77.834 -9.66699 -111.501 -29s-60.5 -46.833 -80.5 -82.5s-30 -78.5 -30 -128.5zM91.998 229.997c0 40 7.83105 74.334 23.498 103.001s37 50.5 64 65.5
s56.5 22.5 88.5 22.5c21.333 0 41.833 -4.83301 61.5 -14.5s37.334 -23.167 53.001 -40.5s27.834 -37.333 36.501 -60s13 -47.334 13 -74.001c0 -37.333 -7.66699 -70.5 -23 -99.5s-35.5 -51.833 -60.5 -68.5s-51.833 -25 -80.5 -25c-32 0 -61.5 7.5 -88.5 22.5
s-48.333 36.833 -64 65.5s-23.5 63 -23.5 103zM260.996 640.998l127 -111l33 27l-160 140l-160 -140l33 -27z" />
    <glyph glyph-name="Gbreve" unicode="&#x11e;" horiz-adv-x="771" 
d="M411 297l250.998 0.000976562c-3.33301 -34 -12 -66 -26 -96s-32.5 -56.667 -55.5 -80s-50.167 -41.666 -81.5 -54.999s-66.666 -20 -105.999 -20c-55.333 0 -104.833 13 -148.5 39s-78.334 61.833 -104.001 107.5s-38.5 98.167 -38.5 157.5
c0 60 12.833 112.667 38.5 158s60.5 81 104.5 107s93.333 39 148 39c56.667 0 106 -12 148 -36s74.667 -55.333 98 -94l40 35c-20 31.333 -44 58.166 -72 80.499s-59.833 39.5 -95.5 51.5s-75.167 18 -118.5 18c-50 0 -96.333 -8.83301 -139 -26.5s-79.667 -42.5 -111 -74.5
s-55.666 -70 -72.999 -114s-26 -92 -26 -144s8.66699 -100 26 -144s41.666 -82 72.999 -114s68.333 -56.833 111 -74.5s89 -26.5 139 -26.5c51.333 0 97.333 9.66699 138 29s75.334 45.666 104.001 78.999s50.334 71.333 65.001 114s22 88 22 136h-311v-52zM234.998 909.001
c0 -22.667 5.83203 -44.834 17.499 -66.501s29.334 -39.334 53.001 -53.001s52.834 -20.5 87.501 -20.5c35.333 0 64.666 6.83301 87.999 20.5s40.833 31.334 52.5 53.001s17.5 43.834 17.5 66.501h-47c0 -14 -3.66699 -28.333 -11 -43s-19.333 -27.334 -36 -38.001
s-38 -16 -64 -16s-47.333 5.33301 -64 16s-28.667 23.334 -36 38.001s-11 29 -11 43h-47z" />
    <glyph glyph-name="gbreve" unicode="&#x11f;" horiz-adv-x="558" 
d="M50 -30c0 -39.333 8.99805 -74.1699 26.998 -104.503s43.167 -53.833 75.5 -70.5s69.5 -25 111.5 -25c38.667 0 74.667 9 108 27s60.333 44.833 81 80.5s31 79.834 31 132.501v450h-52v-450c0 -44 -8.16699 -80.167 -24.5 -108.5s-37.166 -49.166 -62.499 -62.499
s-52.333 -20 -81 -20c-32 0 -60.167 6.66699 -84.5 20s-43.166 31.333 -56.499 54s-20 48.334 -20 77.001h-53zM38.998 229.996c0 -49.333 10 -91.999 30 -127.999s46.833 -63.667 80.5 -83s70.834 -29 111.501 -29c40 0 74.333 10.5 103 31.5s51.167 49.667 67.5 86
s24.5 77.166 24.5 122.499c0 46 -8.16699 87 -24.5 123s-38.833 64.5 -67.5 85.5s-63 31.5 -103 31.5c-40.667 0 -77.834 -9.66699 -111.501 -29s-60.5 -46.833 -80.5 -82.5s-30 -78.5 -30 -128.5zM91.998 229.997c0 40 7.83105 74.334 23.498 103.001s37 50.5 64 65.5
s56.5 22.5 88.5 22.5c21.333 0 41.833 -4.83301 61.5 -14.5s37.334 -23.167 53.001 -40.5s27.834 -37.333 36.501 -60s13 -47.334 13 -74.001c0 -37.333 -7.66699 -70.5 -23 -99.5s-35.5 -51.833 -60.5 -68.5s-51.833 -25 -80.5 -25c-32 0 -61.5 7.5 -88.5 22.5
s-48.333 36.833 -64 65.5s-23.5 63 -23.5 103zM102.996 669.998c0 -22.667 5.83203 -44.834 17.499 -66.501s29.334 -39.334 53.001 -53.001s52.834 -20.5 87.501 -20.5c35.333 0 64.666 6.83301 87.999 20.5s40.833 31.334 52.5 53.001s17.5 43.834 17.5 66.501h-47
c0 -14 -3.66699 -28.5 -11 -43.5s-19.333 -27.667 -36 -38s-38 -15.5 -64 -15.5s-47.333 5.16699 -64 15.5s-28.667 23 -36 38s-11 29.5 -11 43.5h-47z" />
    <glyph glyph-name="Gdotaccent" unicode="&#x120;" horiz-adv-x="771" 
d="M411 297l250.998 0.000976562c-3.33301 -34 -12 -66 -26 -96s-32.5 -56.667 -55.5 -80s-50.167 -41.666 -81.5 -54.999s-66.666 -20 -105.999 -20c-55.333 0 -104.833 13 -148.5 39s-78.334 61.833 -104.001 107.5s-38.5 98.167 -38.5 157.5
c0 60 12.833 112.667 38.5 158s60.5 81 104.5 107s93.333 39 148 39c56.667 0 106 -12 148 -36s74.667 -55.333 98 -94l40 35c-20 31.333 -44 58.166 -72 80.499s-59.833 39.5 -95.5 51.5s-75.167 18 -118.5 18c-50 0 -96.167 -8.83301 -138.5 -26.5
s-79.333 -42.5 -111 -74.5s-56.167 -70 -73.5 -114s-26 -92 -26 -144s8.66699 -100 26 -144s41.833 -82 73.5 -114s68.667 -56.833 111 -74.5s88.5 -26.5 138.5 -26.5c51.333 0 97.333 9.66699 138 29s75.334 45.666 104.001 78.999s50.334 71.5 65.001 114.5
s22 88.167 22 135.5h-311v-52zM355.998 807.001c0 -10.667 3.66699 -19.667 11 -27s16 -11 26 -11c10.667 0 19.5 3.66699 26.5 11s10.5 16.333 10.5 27c0 10 -3.5 18.667 -10.5 26s-15.833 11 -26.5 11c-10 0 -18.667 -3.66699 -26 -11s-11 -16 -11 -26z" />
    <glyph glyph-name="gdotaccent" unicode="&#x121;" horiz-adv-x="558" 
d="M50 -30c0 -39.333 8.99805 -74.1699 26.998 -104.503s43.167 -53.833 75.5 -70.5s69.5 -25 111.5 -25c38.667 0 74.667 9 108 27s60.333 44.833 81 80.5s31 79.834 31 132.501v450h-52v-450c0 -44 -8.16699 -80.167 -24.5 -108.5s-37.166 -49.166 -62.499 -62.499
s-52.333 -20 -81 -20c-32 0 -60.167 6.66699 -84.5 20s-43.166 31.333 -56.499 54s-20 48.334 -20 77.001h-53zM38.998 229.996c0 -49.333 10 -91.999 30 -127.999s46.833 -63.667 80.5 -83s70.834 -29 111.501 -29c40 0 74.333 10.5 103 31.5s51.167 49.667 67.5 86
s24.5 77.166 24.5 122.499c0 46 -8.16699 87 -24.5 123s-38.833 64.5 -67.5 85.5s-63 31.5 -103 31.5c-40.667 0 -77.834 -9.66699 -111.501 -29s-60.5 -46.833 -80.5 -82.5s-30 -78.5 -30 -128.5zM91.998 229.997c0 40 7.83105 74.334 23.498 103.001s37 50.5 64 65.5
s56.5 22.5 88.5 22.5c21.333 0 41.833 -4.83301 61.5 -14.5s37.334 -23.167 53.001 -40.5s27.834 -37.333 36.501 -60s13 -47.334 13 -74.001c0 -37.333 -7.66699 -70.5 -23 -99.5s-35.5 -51.833 -60.5 -68.5s-51.833 -25 -80.5 -25c-32 0 -61.5 7.5 -88.5 22.5
s-48.333 36.833 -64 65.5s-23.5 63 -23.5 103zM235.996 590.998c0 -10 3.66699 -18.667 11 -26s16 -11 26 -11c10.667 0 19.5 3.66699 26.5 11s10.5 16 10.5 26c0 10.667 -3.5 19.667 -10.5 27s-15.833 11 -26.5 11c-10 0 -18.667 -3.66699 -26 -11s-11 -16.333 -11 -27z
" />
    <glyph glyph-name="uni0122" unicode="&#x122;" horiz-adv-x="771" 
d="M411 297l250.998 0.000976562c-3.33301 -34 -12 -66 -26 -96s-32.5 -56.667 -55.5 -80s-50.167 -41.666 -81.5 -54.999s-66.666 -20 -105.999 -20c-55.333 0 -104.833 13 -148.5 39s-78.334 61.833 -104.001 107.5s-38.5 98.167 -38.5 157.5
c0 60 12.833 112.667 38.5 158s60.5 81 104.5 107s93.333 39 148 39c56.667 0 106 -12 148 -36s74.667 -55.333 98 -94l40 35c-20 31.333 -44 58.166 -72 80.499s-59.833 39.5 -95.5 51.5s-75.167 18 -118.5 18c-50 0 -96.167 -8.83301 -138.5 -26.5
s-79.333 -42.5 -111 -74.5s-56.167 -70 -73.5 -114s-26 -92 -26 -144s8.66699 -100 26 -144s41.833 -82 73.5 -114s68.667 -56.833 111 -74.5s88.5 -26.5 138.5 -26.5c51.333 0 97.333 9.66699 138 29s75.334 45.666 104.001 78.999s50.334 71.5 65.001 114.5
s22 88.167 22 135.5h-311v-52zM413.998 -68.999l-95 -257l38 -13l110 250z" />
    <glyph glyph-name="uni0123" unicode="&#x123;" horiz-adv-x="570" 
d="M50 -30c0 -39.333 8.99805 -74.1699 26.998 -104.503s43.167 -53.833 75.5 -70.5s69.5 -25 111.5 -25c38.667 0 74.667 9 108 27s60.333 44.833 81 80.5s31 79.834 31 132.501v450h-52v-450c0 -44 -8.16699 -80.167 -24.5 -108.5s-37.166 -49.166 -62.499 -62.499
s-52.333 -20 -81 -20c-32 0 -60.167 6.66699 -84.5 20s-43.166 31.333 -56.499 54s-20 48.334 -20 77.001h-53zM38.998 229.996c0 -49.333 10 -91.999 30 -127.999s46.833 -63.667 80.5 -83s70.834 -29 111.501 -29c40 0 74.333 10.5 103 31.5s51.167 49.667 67.5 86
s24.5 77.166 24.5 122.499c0 46 -8.16699 87 -24.5 123s-38.833 64.5 -67.5 85.5s-63 31.5 -103 31.5c-40.667 0 -77.834 -9.66699 -111.501 -29s-60.5 -46.833 -80.5 -82.5s-30 -78.5 -30 -128.5zM91.998 229.997c0 40 7.83105 74.334 23.498 103.001s37 50.5 64 65.5
s56.5 22.5 88.5 22.5c21.333 0 41.833 -4.83301 61.5 -14.5s37.334 -23.167 53.001 -40.5s27.834 -37.333 36.501 -60s13 -47.334 13 -74.001c0 -37.333 -7.66699 -70.5 -23 -99.5s-35.5 -51.833 -60.5 -68.5s-51.833 -25 -80.5 -25c-32 0 -61.5 7.5 -88.5 22.5
s-48.333 36.833 -64 65.5s-23.5 63 -23.5 103zM271.996 553.998l134 239l-35 19l-147 -230z" />
    <glyph glyph-name="Hcircumflex" unicode="&#x124;" horiz-adv-x="688" 
d="M113 355h472v52h-472v-52zM548 700v-700h56v700h-56zM84 700v-700h55v700h-55zM344 880l127 -111l33 27l-160 140l-160 -140l33 -27z" />
    <glyph glyph-name="hcircumflex" unicode="&#x125;" 
d="M131 780h-52v-780h52v780zM374 296v-296h52v302c0 36 -5.66699 66.5 -17 91.5s-28 44 -50 57s-49 19.5 -81 19.5s-60.833 -8.33301 -86.5 -25s-46.167 -39.167 -61.5 -67.5s-23 -60.833 -23 -97.5h24c0 26 5.83301 49.667 17.5 71s27.667 38.333 48 51s43.5 19 69.5 19
c38 0 65.5 -11 82.5 -33s25.5 -52.667 25.5 -92zM112 951l127 -111l33 27l-160 140l-160 -140l33 -27z" />
    <glyph glyph-name="Hbar" unicode="&#x126;" horiz-adv-x="688" 
d="M113 355h472v52h-472v-52zM548 700v-700h56v700h-56zM84 700v-700h55v700h-55zM5 566h678v49h-678v-49z" />
    <glyph glyph-name="hbar" unicode="&#x127;" horiz-adv-x="525" 
d="M131 780h-52v-780h52v780zM374 296v-296h52v302c0 36 -5.66699 66.5 -17 91.5s-28 44 -50 57s-49 19.5 -81 19.5s-60.333 -8.33301 -85 -25s-44.167 -39.167 -58.5 -67.5s-21.5 -60.833 -21.5 -97.5h18c0 26 5.83301 49.667 17.5 71s27.667 38.333 48 51s43.5 19 69.5 19
c38 0 65.5 -11 82.5 -33s25.5 -52.667 25.5 -92zM5 651h312v49h-312v-49z" />
    <glyph glyph-name="Itilde" unicode="&#x128;" horiz-adv-x="219" 
d="M82 700v-700h55v700h-55zM-35 817l35.001 -23c0 6.66699 1.5 14 4.5 22s8.33301 14.833 16 20.5s18.167 8.5 31.5 8.5c15.333 0 28.5 -3.83301 39.5 -11.5s22.833 -15.5 35.5 -23.5s28 -12 46 -12c14 0 26.833 2.83301 38.5 8.5s21.834 13.5 30.501 23.5s15.667 21 21 33
l-31 27c-8.66699 -16 -17.334 -28 -26.001 -36s-18.667 -12 -30 -12c-13.333 0 -24.5 2.33301 -33.5 7s-17.5 10.167 -25.5 16.5s-17 11.833 -27 16.5s-22.667 7 -38 7c-14.667 0 -28.334 -3.16699 -41.001 -9.5s-23 -14.833 -31 -25.5s-13 -23 -15 -37z" />
    <glyph glyph-name="itilde" unicode="&#x129;" horiz-adv-x="232" 
d="M90 460v-460h52v460h-52zM-28 577l35.001 -23c0 6.66699 1.5 14 4.5 22s8.33301 14.833 16 20.5s18.167 8.5 31.5 8.5c15.333 0 28.5 -3.83301 39.5 -11.5s22.833 -15.5 35.5 -23.5s28 -12 46 -12c14 0 26.833 2.83301 38.5 8.5s21.834 13.5 30.501 23.5s15.667 21 21 33
l-31 27c-8.66699 -16 -17.334 -28 -26.001 -36s-18.667 -12 -30 -12c-13.333 0 -24.5 2.33301 -33.5 7s-17.5 10.167 -25.5 16.5s-17 11.833 -27 16.5s-22.667 7 -38 7c-14.667 0 -28.334 -3.16699 -41.001 -9.5s-23 -14.833 -31 -25.5s-13 -23 -15 -37z" />
    <glyph glyph-name="Imacron" unicode="&#x12a;" horiz-adv-x="219" 
d="M82 700v-700h55v700h-55zM-52 796h350v49h-350v-49z" />
    <glyph glyph-name="imacron" unicode="&#x12b;" horiz-adv-x="232" 
d="M90 460v-460h52v460h-52zM-45 556h350v49h-350v-49z" />
    <glyph glyph-name="Ibreve" unicode="&#x12c;" horiz-adv-x="219" 
d="M82 700v-700h55v700h-55zM-49 910c0 -22.667 5.83203 -44.834 17.499 -66.501s29.334 -39.334 53.001 -53.001s52.834 -20.5 87.501 -20.5c35.333 0 64.666 6.83301 87.999 20.5s40.833 31.334 52.5 53.001s17.5 43.834 17.5 66.501h-47c0 -14 -3.66699 -28.5 -11 -43.5
s-19.333 -27.667 -36 -38s-38 -15.5 -64 -15.5s-47.333 5.16699 -64 15.5s-28.667 23 -36 38s-11 29.5 -11 43.5h-47z" />
    <glyph glyph-name="ibreve" unicode="&#x12d;" horiz-adv-x="232" 
d="M90 460v-460h52v460h-52zM-42 670c0 -22.667 5.83203 -44.834 17.499 -66.501s29.334 -39.334 53.001 -53.001s52.834 -20.5 87.501 -20.5c35.333 0 64.666 6.83301 87.999 20.5s40.833 31.334 52.5 53.001s17.5 43.834 17.5 66.501h-47c0 -14 -3.66699 -28.5 -11 -43.5
s-19.333 -27.667 -36 -38s-38 -15.5 -64 -15.5s-47.333 5.16699 -64 15.5s-28.667 23 -36 38s-11 29.5 -11 43.5h-47z" />
    <glyph glyph-name="Iogonek" unicode="&#x12e;" horiz-adv-x="219" 
d="M82 700v-700h55v700h-55zM154 -147c-7.33301 -7.33301 -16.3291 -13.6641 -26.9961 -18.9971s-24 -8 -40 -8c-18.667 0 -34.334 4.66699 -47.001 14s-19 24 -19 44c0 15.333 5.66699 30.166 17 44.499s25.833 27.666 43.5 39.999s36.167 22.833 55.5 31.5l-27 19
c-23.333 -12 -45.833 -25.333 -67.5 -40s-39.334 -30.834 -53.001 -48.501s-20.5 -37.167 -20.5 -58.5c0 -18 4.33301 -34 13 -48s21.5 -24.833 38.5 -32.5s38.167 -11.5 63.5 -11.5c21.333 0 40.166 4.16699 56.499 12.5s28.166 17.5 35.499 27.5z" />
    <glyph glyph-name="iogonek" unicode="&#x12f;" horiz-adv-x="232" 
d="M79 668c0 -10 3.66699 -18.667 11 -26s16 -11 26 -11c10.667 0 19.5 3.66699 26.5 11s10.5 16 10.5 26c0 10.667 -3.5 19.5 -10.5 26.5s-15.833 10.5 -26.5 10.5c-10 0 -18.667 -3.5 -26 -10.5s-11 -15.833 -11 -26.5zM90 460v-460h52v460h-52zM159 -147
c-7.33301 -7.33301 -16.3291 -13.6641 -26.9961 -18.9971s-24 -8 -40 -8c-18.667 0 -34.334 4.66699 -47.001 14s-19 24 -19 44c0 15.333 5.66699 30.166 17 44.499s25.833 27.666 43.5 39.999s36.167 22.833 55.5 31.5l-27 19c-23.333 -12 -45.833 -25.333 -67.5 -40
s-39.334 -30.834 -53.001 -48.501s-20.5 -37.167 -20.5 -58.5c0 -18 4.33301 -34 13 -48s21.5 -24.833 38.5 -32.5s38.167 -11.5 63.5 -11.5c21.333 0 40.166 4.16699 56.499 12.5s28.166 17.5 35.499 27.5z" />
    <glyph glyph-name="Idotaccent" unicode="&#x130;" horiz-adv-x="219" 
d="M82 700v-700h55v700h-55zM72 809c0 -10 3.66699 -18.667 11 -26s16 -11 26 -11c10.667 0 19.667 3.66699 27 11s11 16 11 26c0 10.667 -3.66699 19.667 -11 27s-16.333 11 -27 11c-10 0 -18.667 -3.66699 -26 -11s-11 -16.333 -11 -27z" />
    <glyph glyph-name="dotlessi" unicode="&#x131;" horiz-adv-x="232" 
d="M90 460v-460h52v460h-52z" />
    <glyph glyph-name="IJ" unicode="&#x132;" horiz-adv-x="490" 
d="M159 -126l-29 -41.998c5.33301 -6.66699 13.833 -14 25.5 -22s25.667 -15 42 -21s33.166 -9 50.499 -9c23.333 0 43.833 3.16699 61.5 9.5s32.334 16.166 44.001 29.499s20.5 30 26.5 50s9 43.667 9 71v760h-53v-750c0 -42.667 -7.5 -73 -22.5 -91s-36.167 -27 -63.5 -27
c-19.333 0 -37 4.16699 -53 12.5s-28.667 18.166 -38 29.499zM82 700.002v-700h55v700h-55z" />
    <glyph glyph-name="ij" unicode="&#x133;" horiz-adv-x="510" 
d="M329 668c0 -10 3.66699 -18.667 11 -26s16 -11 26 -11c10.667 0 19.5 3.66699 26.5 11s10.5 16 10.5 26c0 10.667 -3.5 19.5 -10.5 26.5s-15.833 10.5 -26.5 10.5c-10 0 -18.667 -3.5 -26 -10.5s-11 -15.833 -11 -26.5zM211 -134l-29 -43
c5.33301 -6.66699 12 -13.167 20 -19.5s17.667 -11.833 29 -16.5s24 -7 38 -7c28 0 51 6.16699 69 18.5s31.5 29.833 40.5 52.5s13.5 49.334 13.5 80.001v529h-52v-523c0 -20.667 -2.16699 -38.834 -6.5 -54.501s-11.5 -28 -21.5 -37s-23.333 -13.5 -40 -13.5
c-12 0 -23.167 2.83301 -33.5 8.5s-19.5 14.167 -27.5 25.5zM79 668c0 -10 3.66699 -18.667 11 -26s16 -11 26 -11c10.667 0 19.5 3.66699 26.5 11s10.5 16 10.5 26c0 10.667 -3.5 19.5 -10.5 26.5s-15.833 10.5 -26.5 10.5c-10 0 -18.667 -3.5 -26 -10.5
s-11 -15.833 -11 -26.5zM90 460v-460h52v460h-52z" />
    <glyph glyph-name="Jcircumflex" unicode="&#x134;" horiz-adv-x="223" 
d="M-91 -126l-29 -41.998c5.33301 -6.66699 13.833 -14 25.5 -22s25.667 -15 42 -21s33.166 -9 50.499 -9c23.333 0 43.833 3.16699 61.5 9.5s32.334 16.166 44.001 29.499s20.5 30 26.5 50s9 43.667 9 71v760h-53v-750c0 -42.667 -7.5 -73 -22.5 -91s-36.167 -27 -63.5 -27
c-19.333 0 -37 4.16699 -53 12.5s-28.667 18.166 -38 29.499zM113 880.002l127 -111l33 27l-160 140l-160 -140l32 -27z" />
    <glyph glyph-name="jcircumflex" unicode="&#x135;" horiz-adv-x="222" 
d="M-49 -134l-29 -43c5.33301 -6.66699 12 -13.167 20 -19.5s17.667 -11.833 29 -16.5s24 -7 38 -7c28 0 51.167 6.16699 69.5 18.5s31.833 29.833 40.5 52.5s13 49.334 13 80.001v529h-52v-523c0 -20.667 -2.16699 -38.834 -6.5 -54.501s-11.5 -28 -21.5 -37
s-23.333 -13.5 -40 -13.5c-12 0 -23.167 2.83301 -33.5 8.5s-19.5 14.167 -27.5 25.5zM106 641l127 -111l33 27l-160 140l-160 -140l33 -27z" />
    <glyph glyph-name="uni0136" unicode="&#x136;" horiz-adv-x="521" 
d="M82 700v-700h55v700h-55zM427 700l-306 -329l321 -371h70l-323 372l308 328h-70zM318 -60l-95 -257l37 -13l110 250z" />
    <glyph glyph-name="uni0137" unicode="&#x137;" horiz-adv-x="413" 
d="M74 780v-780h52v780h-52zM323 460l-216 -190l236 -270h66l-236 270l217 190h-67zM263 -60l-95 -257l37 -13l110 250z" />
    <glyph glyph-name="kgreenlandic" unicode="&#x138;" horiz-adv-x="413" 
d="M74 460v-460h52v460h-52zM323 460l-216 -190l236 -270h66l-236 270l217 190h-67z" />
    <glyph glyph-name="Lacute" unicode="&#x139;" horiz-adv-x="442" 
d="M84 700v-700h344v52h-289v648h-55zM404 922l-48 27l-158 -160l29 -20z" />
    <glyph glyph-name="lacute" unicode="&#x13a;" horiz-adv-x="210" 
d="M79 780v-780h52v780h-52zM253 993l-48 27l-158 -160l29 -20z" />
    <glyph glyph-name="uni013B" unicode="&#x13b;" horiz-adv-x="442" 
d="M84 700v-700h344v52h-289v648h-55zM261 -60l-95 -257l38 -13l110 250z" />
    <glyph glyph-name="uni013C" unicode="&#x13c;" horiz-adv-x="210" 
d="M79 780v-780h52v780h-52zM118 -60l-95 -257l38 -13l110 250z" />
    <glyph glyph-name="Lcaron" unicode="&#x13d;" horiz-adv-x="442" 
d="M84 700v-700h344v52h-289v648h-55zM335 709l-95 -256l37 -14l110 250z" />
    <glyph glyph-name="lcaron" unicode="&#x13e;" horiz-adv-x="230" 
d="M79 780v-780h52v780h-52zM304 774l-95 -257l37 -13l110 250z" />
    <glyph glyph-name="Ldot" unicode="&#x13f;" horiz-adv-x="442" 
d="M84 700v-700h344v52h-289v648h-55zM261 415c0 -10.667 3.66699 -19.667 11 -27s16 -11 26 -11c10.667 0 19.5 3.66699 26.5 11s10.5 16.333 10.5 27c0 10 -3.5 18.667 -10.5 26s-15.833 11 -26.5 11c-10 0 -18.667 -3.66699 -26 -11s-11 -16 -11 -26z" />
    <glyph glyph-name="ldot" unicode="&#x140;" horiz-adv-x="370" 
d="M79 780v-780h52v780h-52zM221 407c0 -10 3.83301 -18.667 11.5 -26s16.5 -11 26.5 -11s18.667 3.66699 26 11s11 16 11 26c0 10.667 -3.66699 19.667 -11 27s-16 11 -26 11s-18.833 -3.66699 -26.5 -11s-11.5 -16.333 -11.5 -27z" />
    <glyph glyph-name="Lslash" unicode="&#x141;" horiz-adv-x="420" 
d="M-1 359l270 170l-14 36l-270 -170zM80 700v-700h330v52h-275v648h-55z" />
    <glyph glyph-name="lslash" unicode="&#x142;" horiz-adv-x="202" 
d="M0 359l222 150l-15 36l-222 -150zM75 780v-780h52v780h-52z" />
    <glyph glyph-name="Nacute" unicode="&#x143;" horiz-adv-x="731" 
d="M600 700v-586l-532 613v-727h55v584l532 -611v727h-55zM526 908l-48 27l-158 -160l29 -20z" />
    <glyph glyph-name="nacute" unicode="&#x144;" 
d="M131 460h-52v-460h52v460zM374 296v-295.999h52v302c0 53.333 -12.833 94.666 -38.5 123.999s-62.167 44 -109.5 44c-32 0 -60.333 -8.33301 -85 -25s-44.167 -39.167 -58.5 -67.5s-21.5 -60.833 -21.5 -97.5h18c0 26 5.83301 49.667 17.5 71s27.667 38.333 48 51
s43.5 19 69.5 19c38 0 65.5 -11 82.5 -33s25.5 -52.667 25.5 -92zM394 687.001l-47 27l-158 -160l28 -20z" />
    <glyph glyph-name="uni0145" unicode="&#x145;" horiz-adv-x="731" 
d="M376 -39l-95 -257l38 -13l110 250zM600 700v-586l-532 613v-727h55v584l532 -611v727h-55z" />
    <glyph glyph-name="uni0146" unicode="&#x146;" 
d="M131 460h-52v-460h52v460zM374 296v-295.999h52v302c0 53.333 -12.833 94.666 -38.5 123.999s-62.167 44 -109.5 44c-32 0 -60.833 -8.33301 -86.5 -25s-46.167 -39.167 -61.5 -67.5s-23 -60.833 -23 -97.5h24c0 26 5.83301 49.667 17.5 71s27.667 38.333 48 51
s43.5 19 69.5 19c38 0 65.5 -11 82.5 -33s25.5 -52.667 25.5 -92zM261 -51.999l-94 -257l37 -13l110 250z" />
    <glyph glyph-name="Ncaron" unicode="&#x147;" horiz-adv-x="731" 
d="M376 839l-127 111l-33 -27l160 -140l160 140l-33 27zM600 700v-586l-532 613v-727h55v584l532 -611v727h-55z" />
    <glyph glyph-name="ncaron" unicode="&#x148;" 
d="M131 460h-52v-460h52v460zM374 296v-295.999h52v302c0 53.333 -12.833 94.666 -38.5 123.999s-62.167 44 -109.5 44c-32 0 -60.833 -8.33301 -86.5 -25s-46.167 -39.167 -61.5 -67.5s-23 -60.833 -23 -97.5h24c0 26 5.83301 49.667 17.5 71s27.667 38.333 48 51
s43.5 19 69.5 19c38 0 65.5 -11 82.5 -33s25.5 -52.667 25.5 -92zM252 586.001l-126 111l-34 -27l160 -140l160 140l-33 27z" />
    <glyph glyph-name="napostrophe" unicode="&#x149;" horiz-adv-x="627" 
d="M233 460h-52v-460h52v460zM476 296v-295.999h52v302c0 53.333 -12.833 94.666 -38.5 123.999s-62.167 44 -109.5 44c-31.333 0 -60 -8.33301 -86 -25s-46.667 -39.167 -62 -67.5s-23 -60.833 -23 -97.5h24c0 26 5.83301 49.667 17.5 71s27.667 38.333 48 51
s43.5 19 69.5 19c38 0 65.5 -11 82.5 -33s25.5 -52.667 25.5 -92zM147 700.001l-73 -230h37l98 230h-62z" />
    <glyph glyph-name="Eng" unicode="&#x14a;" horiz-adv-x="755" 
d="M548 -220c28 0 51.167 6.5 69.5 19.5s31.833 31 40.5 54s13 48.833 13 77.5v769h-55v-586l-532 613v-727h55v584l480 -555v-92c0 -20 -2 -38 -6 -54s-11 -28.5 -21 -37.5s-23.667 -13.5 -41 -13.5c-14 0 -26 3.33301 -36 10s-18.333 14.667 -25 24l-29 -43
c9.33301 -12 21 -22.167 35 -30.5s31.333 -12.5 52 -12.5z" />
    <glyph glyph-name="eng" unicode="&#x14b;" 
d="M303 -220c40 0 70.501 12.834 91.501 38.501s31.5 63.167 31.5 112.5v371c0 54 -12.833 95.5 -38.5 124.5s-62.167 43.5 -109.5 43.5c-32.667 0 -62.167 -9.5 -88.5 -28.5s-45.833 -44.833 -58.5 -77.5v96h-52v-460h52v280c0 26.667 6 50.667 18 72
s28.167 38.166 48.5 50.499s43.166 18.5 68.499 18.5c36 0 63 -10.5 81 -31.5s27 -52.167 27 -93.5v-359c0 -34 -5.83301 -60 -17.5 -78s-28.5 -27 -50.5 -27c-24.667 0 -45 11.333 -61 34l-29 -43c10.667 -13.333 23.5 -23.833 38.5 -31.5s31.167 -11.5 48.5 -11.5z" />
    <glyph glyph-name="Omacron" unicode="&#x14c;" horiz-adv-x="784" 
d="M102 350c0 58.667 12.5 110.834 37.5 156.501s59.333 81.667 103 108s93.5 39.5 149.5 39.5s105.833 -13.167 149.5 -39.5s77.834 -62.333 102.501 -108s37 -97.834 37 -156.501c0 -58 -12.333 -110 -37 -156s-58.834 -82.167 -102.501 -108.5s-93.5 -39.5 -149.5 -39.5
s-105.833 13.167 -149.5 39.5s-78 62.5 -103 108.5s-37.5 98 -37.5 156zM44 350c0 -51.333 8.66699 -98.833 26 -142.5s41.666 -81.667 72.999 -114s68.166 -57.5 110.499 -75.5s88.5 -27 138.5 -27s96.167 9 138.5 27s79.166 43.167 110.499 75.5s55.666 70.333 72.999 114
s26 91.167 26 142.5s-8.66699 98.833 -26 142.5s-41.666 81.667 -72.999 114s-68.166 57.5 -110.499 75.5s-88.5 27 -138.5 27s-96.167 -9 -138.5 -27s-79.166 -43.167 -110.499 -75.5s-55.666 -70.333 -72.999 -114s-26 -91.167 -26 -142.5zM217 777h350v49h-350v-49z" />
    <glyph glyph-name="omacron" unicode="&#x14d;" horiz-adv-x="550" 
d="M39 230c0 -46 10.333 -87.167 31 -123.5s48.834 -64.833 84.501 -85.5s75.834 -31 120.501 -31s84.834 10.333 120.501 31s63.834 49.167 84.501 85.5s31 77.5 31 123.5c0 46.667 -10.333 88 -31 124s-48.834 64.333 -84.501 85s-75.834 31 -120.501 31
s-84.834 -10.333 -120.501 -31s-63.834 -49 -84.501 -85s-31 -77.333 -31 -124zM92 230c0 37.333 8 70.333 24 99s37.833 51.167 65.5 67.5s58.834 24.5 93.501 24.5s65.834 -8.16699 93.501 -24.5s49.5 -39 65.5 -68s24 -61.833 24 -98.5c0 -37.333 -8 -70.333 -24 -99
s-37.833 -51.167 -65.5 -67.5s-58.834 -24.5 -93.501 -24.5s-65.834 8.16699 -93.501 24.5s-49.5 38.833 -65.5 67.5s-24 61.667 -24 99zM100 538h350v49h-350v-49z" />
    <glyph glyph-name="Obreve" unicode="&#x14e;" horiz-adv-x="784" 
d="M102 350c0 58.667 12.5 110.834 37.5 156.501s59.333 81.667 103 108s93.5 39.5 149.5 39.5s105.833 -13.167 149.5 -39.5s77.834 -62.333 102.501 -108s37 -97.834 37 -156.501c0 -58 -12.333 -110 -37 -156s-58.834 -82.167 -102.501 -108.5s-93.5 -39.5 -149.5 -39.5
s-105.833 13.167 -149.5 39.5s-78 62.5 -103 108.5s-37.5 98 -37.5 156zM44 350c0 -51.333 8.66699 -98.833 26 -142.5s41.666 -81.667 72.999 -114s68.166 -57.5 110.499 -75.5s88.5 -27 138.5 -27s96.167 9 138.5 27s79.166 43.167 110.499 75.5s55.666 70.333 72.999 114
s26 91.167 26 142.5s-8.66699 98.833 -26 142.5s-41.666 81.667 -72.999 114s-68.166 57.5 -110.499 75.5s-88.5 27 -138.5 27s-96.167 -9 -138.5 -27s-79.166 -43.167 -110.499 -75.5s-55.666 -70.333 -72.999 -114s-26 -91.167 -26 -142.5zM234 909
c0 -22.667 5.83203 -44.834 17.499 -66.501s29.334 -39.334 53.001 -53.001s52.834 -20.5 87.501 -20.5c35.333 0 64.666 6.83301 87.999 20.5s40.833 31.334 52.5 53.001s17.5 43.834 17.5 66.501h-47c0 -14 -3.83301 -28.333 -11.5 -43s-19.667 -27.334 -36 -38.001
s-37.5 -16 -63.5 -16c-26.667 0 -48.167 5.33301 -64.5 16s-28.333 23.334 -36 38.001s-11.5 29 -11.5 43h-46z" />
    <glyph glyph-name="obreve" unicode="&#x14f;" horiz-adv-x="550" 
d="M39 230c0 -46 10.333 -87.167 31 -123.5s48.834 -64.833 84.501 -85.5s75.834 -31 120.501 -31s84.834 10.333 120.501 31s63.834 49.167 84.501 85.5s31 77.5 31 123.5c0 46.667 -10.333 88 -31 124s-48.834 64.333 -84.501 85s-75.834 31 -120.501 31
s-84.834 -10.333 -120.501 -31s-63.834 -49 -84.501 -85s-31 -77.333 -31 -124zM92 230c0 37.333 8 70.333 24 99s37.833 51.167 65.5 67.5s58.834 24.5 93.501 24.5s65.834 -8.16699 93.501 -24.5s49.5 -39 65.5 -68s24 -61.833 24 -98.5c0 -37.333 -8 -70.333 -24 -99
s-37.833 -51.167 -65.5 -67.5s-58.834 -24.5 -93.501 -24.5s-65.834 8.16699 -93.501 24.5s-49.5 38.833 -65.5 67.5s-24 61.667 -24 99zM117 670c0 -22.667 5.83203 -44.834 17.499 -66.501s29.334 -39.334 53.001 -53.001s52.834 -20.5 87.501 -20.5
c35.333 0 64.666 6.83301 87.999 20.5s40.833 31.334 52.5 53.001s17.5 43.834 17.5 66.501h-47c0 -14 -3.66699 -28.5 -11 -43.5s-19.333 -27.667 -36 -38s-38 -15.5 -64 -15.5s-47.333 5.16699 -64 15.5s-28.667 23 -36 38s-11 29.5 -11 43.5h-47z" />
    <glyph glyph-name="Ohungarumlaut" unicode="&#x150;" horiz-adv-x="784" 
d="M324 769l124 197l-54 14l-104 -199zM462 769l125 197l-54 14l-104 -199zM102 350c0 58.667 12.5 110.834 37.5 156.501s59.333 81.667 103 108s93.5 39.5 149.5 39.5s105.833 -13.167 149.5 -39.5s77.834 -62.333 102.501 -108s37 -97.834 37 -156.501
c0 -58 -12.333 -110 -37 -156s-58.834 -82.167 -102.501 -108.5s-93.5 -39.5 -149.5 -39.5s-105.833 13.167 -149.5 39.5s-78 62.5 -103 108.5s-37.5 98 -37.5 156zM44 350c0 -51.333 8.66699 -98.833 26 -142.5s41.666 -81.667 72.999 -114s68.166 -57.5 110.499 -75.5
s88.5 -27 138.5 -27s96.167 9 138.5 27s79.166 43.167 110.499 75.5s55.666 70.333 72.999 114s26 91.167 26 142.5s-8.66699 98.833 -26 142.5s-41.666 81.667 -72.999 114s-68.166 57.5 -110.499 75.5s-88.5 27 -138.5 27s-96.167 -9 -138.5 -27
s-79.166 -43.167 -110.499 -75.5s-55.666 -70.333 -72.999 -114s-26 -91.167 -26 -142.5z" />
    <glyph glyph-name="ohungarumlaut" unicode="&#x151;" horiz-adv-x="550" 
d="M207 530l124 197l-54 14l-104 -199zM345 530l125 197l-54 14l-104 -199zM39 230c0 -46 10.333 -87.167 31 -123.5s48.834 -64.833 84.501 -85.5s75.834 -31 120.501 -31s84.834 10.333 120.501 31s63.834 49.167 84.501 85.5s31 77.5 31 123.5
c0 46.667 -10.333 88 -31 124s-48.834 64.333 -84.501 85s-75.834 31 -120.501 31s-84.834 -10.333 -120.501 -31s-63.834 -49 -84.501 -85s-31 -77.333 -31 -124zM92 230c0 37.333 8 70.333 24 99s37.833 51.167 65.5 67.5s58.834 24.5 93.501 24.5
s65.834 -8.16699 93.501 -24.5s49.5 -39 65.5 -68s24 -61.833 24 -98.5c0 -37.333 -8 -70.333 -24 -99s-37.833 -51.167 -65.5 -67.5s-58.834 -24.5 -93.501 -24.5s-65.834 8.16699 -93.501 24.5s-49.5 38.833 -65.5 67.5s-24 61.667 -24 99z" />
    <glyph glyph-name="OE" unicode="&#x152;" horiz-adv-x="971" 
d="M544 358h333v52h-333v-52zM515 680v-660h55v660h-55zM898 52l-343.998 0.00195312h-24h-140c-42.667 0 -82 7.16699 -118 21.5s-67.167 34.666 -93.5 60.999s-46.833 57.833 -61.5 94.5s-22 77 -22 121s7.16699 84.333 21.5 121s34.666 68.167 60.999 94.5
s57.666 46.666 93.999 60.999s75.833 21.5 118.5 21.5h143h17h347v52h-507c-50.667 0 -97.5 -8.33301 -140.5 -25s-80 -40.5 -111 -71.5s-55.167 -68 -72.5 -111s-26 -90.5 -26 -142.5s8.66699 -99.5 26 -142.5s41.666 -80 72.999 -111s68.333 -54.833 111 -71.5
s89.334 -25 140.001 -25h508v52z" />
    <glyph glyph-name="oe" unicode="&#x153;" horiz-adv-x="910" 
d="M816 250l0.00292969 -20.0029l54 -13c0.666992 4 1 8.16699 1 12.5v12.5c0 46 -9.83301 86 -29.5 120s-45.334 60.5 -77.001 79.5s-65.834 28.5 -102.501 28.5c-38 0 -72.5 -8 -103.5 -24s-56.333 -38.333 -76 -67s-32.834 -62 -39.501 -100
c-1.33301 -8 -2.33301 -16 -3 -24s-1 -16.333 -1 -25c0 -44.667 9.16699 -85.167 27.5 -121.5s43.833 -65.166 76.5 -86.499s70.334 -32 113.001 -32c33.333 0 62.666 4.83301 87.999 14.5s47.666 23.334 66.999 41.001s36.666 38.167 51.999 61.5l-42 27
c-16.667 -28 -38.667 -50.833 -66 -68.5s-60.333 -26.5 -99 -26.5c-34 0 -64 7.66699 -90 23s-46.167 37.5 -60.5 66.5s-21.5 63.167 -21.5 102.5l1 18c0 32.667 7.33301 62.167 22 88.5s34.834 47.333 60.501 63s55.167 23.5 88.5 23.5c34 0 62.833 -8 86.5 -24
s41.834 -37.167 54.501 -63.5s19 -55.166 19 -86.499zM471.003 216.997h399l-12 45h-387v-45zM39.0029 229.997c0 -49.333 10 -92 30 -128s46.667 -63.667 80 -83s70 -29 110 -29c39.333 0 74.333 9.66699 105 29s54.834 47 72.501 83s26.5 78.667 26.5 128
c0 50 -8.83301 92.833 -26.5 128.5s-41.834 63.167 -72.501 82.5s-65.667 29 -105 29c-40 0 -76.667 -9.66699 -110 -29s-60 -46.833 -80 -82.5s-30 -78.5 -30 -128.5zM92.0029 229.997c0 40 7.83301 74.333 23.5 103s36.667 50.5 63 65.5s55.5 22.5 87.5 22.5
c27.333 0 53.333 -7.66699 78 -23s44.5 -37.333 59.5 -66s22.5 -62.667 22.5 -102s-7.5 -73.333 -22.5 -102s-34.833 -50.667 -59.5 -66s-50.667 -23 -78 -23c-32 0 -61.167 7.5 -87.5 22.5s-47.333 36.833 -63 65.5s-23.5 63 -23.5 103z" />
    <glyph glyph-name="Racute" unicode="&#x154;" horiz-adv-x="523" 
d="M203 334l232 -334h68l-239 334h-61zM84 700v-700h55v700h-55zM113 651l131.001 -0.00195312c35.333 0 66.666 -6 93.999 -18s48.833 -29.333 64.5 -52s23.5 -50.667 23.5 -84s-7.66699 -61.5 -23 -84.5s-36.833 -40.333 -64.5 -52s-59.167 -17.5 -94.5 -17.5h-131v-49
h131c45.333 0 85.833 7.83301 121.5 23.5s63.834 38.834 84.501 69.501s31 67.334 31 110.001c0 43.333 -10.333 80 -31 110s-48.834 53 -84.501 69s-76.167 24 -121.5 24h-131v-49zM388.001 921.998l-48 27l-158 -160l29 -20z" />
    <glyph glyph-name="racute" unicode="&#x155;" horiz-adv-x="322" 
d="M131 460h-52v-460h52v460zM284 399l28.999 43c-10.667 10 -22.5 17.167 -35.5 21.5s-26.833 6.5 -41.5 6.5c-24 0 -45.833 -8.33301 -65.5 -25s-35.167 -39.167 -46.5 -67.5s-17 -60.833 -17 -97.5h24c0 26 3 49.667 9 71s15.833 38.333 29.5 51s31.834 19 54.501 19
c12 0 22.5 -1.83301 31.5 -5.5s18.5 -9.16699 28.5 -16.5zM327.999 683l-48 27l-158 -160l28 -20z" />
    <glyph glyph-name="uni0156" unicode="&#x156;" horiz-adv-x="523" 
d="M203 334l232 -334h68l-239 334h-61zM84 700v-700h55v700h-55zM113 651l131.001 -0.00195312c35.333 0 66.666 -6 93.999 -18s48.833 -29.333 64.5 -52s23.5 -50.667 23.5 -84s-7.66699 -61.5 -23 -84.5s-36.833 -40.333 -64.5 -52s-59.167 -17.5 -94.5 -17.5h-131v-49
h131c45.333 0 85.833 7.83301 121.5 23.5s63.834 38.834 84.501 69.501s31 67.334 31 110.001c0 43.333 -10.333 80 -31 110s-48.834 53 -84.501 69s-76.167 24 -121.5 24h-131v-49zM295.001 -60.002l-95 -257l37 -13l110 250z" />
    <glyph glyph-name="uni0157" unicode="&#x157;" horiz-adv-x="322" 
d="M131 460h-52v-460h52v460zM284 399l28.999 43c-10.667 10 -22.5 17.167 -35.5 21.5s-26.833 6.5 -41.5 6.5c-24 0 -45.833 -8.33301 -65.5 -25s-35.167 -39.167 -46.5 -67.5s-17 -60.833 -17 -97.5h24c0 26 3 49.667 9 71s15.833 38.333 29.5 51s31.834 19 54.501 19
c12 0 22.5 -1.83301 31.5 -5.5s18.5 -9.16699 28.5 -16.5zM109.999 -60l-95 -257l38 -13l110 250z" />
    <glyph glyph-name="Rcaron" unicode="&#x158;" horiz-adv-x="523" 
d="M203 334l232 -334h68l-239 334h-61zM84 700v-700h55v700h-55zM113 651l131.001 -0.00195312c35.333 0 66.666 -6 93.999 -18s48.833 -29.333 64.5 -52s23.5 -50.667 23.5 -84s-7.66699 -61.5 -23 -84.5s-36.833 -40.333 -64.5 -52s-59.167 -17.5 -94.5 -17.5h-131v-49
h131c45.333 0 85.833 7.83301 121.5 23.5s63.834 38.834 84.501 69.501s31 67.334 31 110.001c0 43.333 -10.333 80 -31 110s-48.834 53 -84.501 69s-76.167 24 -121.5 24h-131v-49zM244.001 824.998l-127 111l-33 -27l160 -140l160 140l-33 27z" />
    <glyph glyph-name="rcaron" unicode="&#x159;" horiz-adv-x="322" 
d="M131 460h-52v-460h52v460zM284 399l28.999 43c-10.667 10 -22.5 17.167 -35.5 21.5s-26.833 6.5 -41.5 6.5c-24 0 -45.833 -8.33301 -65.5 -25s-35.167 -39.167 -46.5 -67.5s-17 -60.833 -17 -97.5h24c0 26 3 49.667 9 71s15.833 38.333 29.5 51s31.834 19 54.501 19
c12 0 22.5 -1.83301 31.5 -5.5s18.5 -9.16699 28.5 -16.5zM195.999 586l-127 111l-33 -27l160 -140l160 140l-34 27z" />
    <glyph glyph-name="Sacute" unicode="&#x15a;" horiz-adv-x="524" 
d="M87 214l-46.999 -27c12.667 -36 29.834 -68.833 51.501 -98.5s48 -53.334 79 -71.001s66.167 -26.5 105.5 -26.5c46.667 0 84.834 8.33301 114.501 25s51.834 39.667 66.501 69s22 62.333 22 99c0 30 -5.33301 56 -16 78s-24.667 40.833 -42 56.5
s-36.333 28.834 -57 39.501s-40.334 19.667 -59.001 27c-28 10.667 -55 22.667 -81 36s-47.333 29.333 -64 48s-25 41.334 -25 68.001c0 24 5.66699 44.833 17 62.5s27.166 31.5 47.499 41.5s43.5 15 69.5 15c29.333 0 54.166 -6.33301 74.499 -19
s37.166 -28.834 50.499 -48.501s24.333 -39.834 33 -60.501l45 28c-8 24 -20.833 47.833 -38.5 71.5s-40.167 43.167 -67.5 58.5s-60 23 -98 23c-35.333 0 -67.5 -6.83301 -96.5 -20.5s-52 -33.167 -69 -58.5s-25.5 -55 -25.5 -89c0 -28.667 5.83301 -53.667 17.5 -75
s26.667 -39.666 45 -54.999s38 -28.333 59 -39s40.5 -19.334 58.5 -26.001c26.667 -9.33301 52.5 -20.833 77.5 -34.5s45.833 -31 62.5 -52s25 -47.5 25 -79.5c0 -27.333 -5 -51.333 -15 -72s-25.5 -36.667 -46.5 -48s-48.167 -17 -81.5 -17
c-25.333 0 -47.833 4.5 -67.5 13.5s-37.167 21.5 -52.5 37.5s-28.833 34.333 -40.5 55s-22.167 42.334 -31.5 65.001zM438.001 922l-48 27l-158 -160l29 -20z" />
    <glyph glyph-name="sacute" unicode="&#x15b;" horiz-adv-x="403" 
d="M75 155l-44.001 -23.9971c4.66699 -24.667 14.5 -47.834 29.5 -69.501s34.667 -39 59 -52s51.833 -19.5 82.5 -19.5c45.333 0 82.5 11.167 111.5 33.5s43.5 56.166 43.5 101.499c0 23.333 -6.16699 43.166 -18.5 59.499s-28.166 30.333 -47.499 42s-40 21.5 -62 29.5
c-19.333 6.66699 -38 13.834 -56 21.501s-32.833 17.167 -44.5 28.5s-17.5 26 -17.5 44c0 24 8.83301 41.667 26.5 53s38.834 17 63.501 17c17.333 0 33 -3.33301 47 -10s26.5 -15.167 37.5 -25.5s19.5 -22.166 25.5 -35.499l43 26c-6 17.333 -16.333 33 -31 47
s-32.334 25.333 -53.001 34s-43.667 13 -69 13c-24.667 0 -47.667 -4.5 -69 -13.5s-38.833 -22.167 -52.5 -39.5s-20.5 -38.333 -20.5 -63c0 -26.667 6.33301 -48.334 19 -65.001s29 -29.834 49 -39.501s41 -18.834 63 -27.501c20 -6.66699 38.5 -14.167 55.5 -22.5
s30.833 -18.666 41.5 -30.999s16 -27.833 16 -46.5c0 -26.667 -8.83301 -47 -26.5 -61s-41.5 -21 -71.5 -21c-24 0 -45 5.5 -63 16.5s-32.667 25.333 -44 43s-19 36.5 -23 56.5zM370.999 683.003l-49 27l-158 -160l30 -20z" />
    <glyph glyph-name="Scircumflex" unicode="&#x15c;" horiz-adv-x="524" 
d="M87 214l-46.999 -27c12.667 -36 29.834 -68.833 51.501 -98.5s48 -53.334 79 -71.001s66.167 -26.5 105.5 -26.5c46.667 0 84.834 8.33301 114.501 25s51.834 39.667 66.501 69s22 62.333 22 99c0 30 -5.33301 56 -16 78s-24.667 40.833 -42 56.5
s-36.333 28.834 -57 39.501s-40.334 19.667 -59.001 27c-28 10.667 -55 22.667 -81 36s-47.333 29.333 -64 48s-25 41.334 -25 68.001c0 24 5.66699 44.833 17 62.5s27.166 31.5 47.499 41.5s43.5 15 69.5 15c29.333 0 54.166 -6.33301 74.499 -19
s37.166 -28.834 50.499 -48.501s24.333 -39.834 33 -60.501l45 28c-8 24 -20.833 47.833 -38.5 71.5s-40.167 43.167 -67.5 58.5s-60 23 -98 23c-35.333 0 -67.5 -6.83301 -96.5 -20.5s-52 -33.167 -69 -58.5s-25.5 -55 -25.5 -89c0 -28.667 5.83301 -53.667 17.5 -75
s26.667 -39.666 45 -54.999s38 -28.333 59 -39s40.5 -19.334 58.5 -26.001c26.667 -9.33301 52.5 -20.833 77.5 -34.5s45.833 -31 62.5 -52s25 -47.5 25 -79.5c0 -27.333 -5 -51.333 -15 -72s-25.5 -36.667 -46.5 -48s-48.167 -17 -81.5 -17
c-25.333 0 -47.833 4.5 -67.5 13.5s-37.167 21.5 -52.5 37.5s-28.833 34.333 -40.5 55s-22.167 42.334 -31.5 65.001zM268.001 880l127 -111l33 27l-160 140l-160 -140l33 -27z" />
    <glyph glyph-name="scircumflex" unicode="&#x15d;" horiz-adv-x="403" 
d="M75 155l-44.001 -23.9971c4.66699 -24.667 14.5 -47.834 29.5 -69.501s34.667 -39 59 -52s51.833 -19.5 82.5 -19.5c45.333 0 82.5 11.167 111.5 33.5s43.5 56.166 43.5 101.499c0 23.333 -6.16699 43.166 -18.5 59.499s-28.166 30.333 -47.499 42s-40 21.5 -62 29.5
c-19.333 6.66699 -38 13.834 -56 21.501s-32.833 17.167 -44.5 28.5s-17.5 26 -17.5 44c0 24 8.83301 41.667 26.5 53s38.834 17 63.501 17c17.333 0 33 -3.33301 47 -10s26.5 -15.167 37.5 -25.5s19.5 -22.166 25.5 -35.499l43 26c-6 17.333 -16.333 33 -31 47
s-32.334 25.333 -53.001 34s-43.667 13 -69 13c-24.667 0 -47.667 -4.5 -69 -13.5s-38.833 -22.167 -52.5 -39.5s-20.5 -38.333 -20.5 -63c0 -26.667 6.33301 -48.334 19 -65.001s29 -29.834 49 -39.501s41 -18.834 63 -27.501c20 -6.66699 38.5 -14.167 55.5 -22.5
s30.833 -18.666 41.5 -30.999s16 -27.833 16 -46.5c0 -26.667 -8.83301 -47 -26.5 -61s-41.5 -21 -71.5 -21c-24 0 -45 5.5 -63 16.5s-32.667 25.333 -44 43s-19 36.5 -23 56.5zM200.999 641.003l127 -111l33 27l-160 140l-160 -140l32 -27z" />
    <glyph glyph-name="Scedilla" unicode="&#x15e;" horiz-adv-x="524" 
d="M87 214l-46.9961 -26.998c12.667 -36 29.834 -68.833 51.501 -98.5s48 -53.334 79 -71.001s66.167 -26.5 105.5 -26.5c44.667 0 82 8.33301 112 25s52.667 39.667 68 69s23 62.333 23 99c0 30 -5.33301 56 -16 78s-24.667 40.833 -42 56.5s-36.333 28.834 -57 39.501
s-40.334 19.667 -59.001 27c-28 10.667 -55 22.667 -81 36s-47.333 29.333 -64 48s-25 41.334 -25 68.001c0 24 5.16699 44.833 15.5 62.5s25.166 31.5 44.499 41.5s42 15 68 15c29.333 0 54.666 -6.33301 75.999 -19s39.166 -28.834 53.499 -48.501
s25.833 -39.834 34.5 -60.501l45 28c-9.33301 26 -22.833 50.667 -40.5 74s-39.834 42.333 -66.501 57s-59 22 -97 22c-37.333 0 -70.333 -7.16699 -99 -21.5s-51.167 -34.333 -67.5 -60s-24.5 -55.5 -24.5 -89.5c0 -30 5.83301 -55.667 17.5 -77s26.667 -39.333 45 -54
s38 -26.834 59 -36.501s40.5 -17.834 58.5 -24.501c26.667 -9.33301 52.5 -20.833 77.5 -34.5s45.833 -31 62.5 -52s25 -47.5 25 -79.5c0 -27.333 -5 -51.333 -15 -72s-25.5 -36.667 -46.5 -48s-48.167 -17 -81.5 -17c-25.333 0 -47.833 4.5 -67.5 13.5
s-37.167 21.5 -52.5 37.5s-28.833 34.333 -40.5 55s-22.167 42.334 -31.5 65.001zM280.004 35.002l-74.0039 -136.001c10.667 7.33301 22.334 12.666 35.001 15.999s23.334 5 32.001 5c16.667 0 30 -3.83301 40 -11.5s15 -19.5 15 -35.5c0 -18.667 -6.5 -33 -19.5 -43
s-29.167 -15 -48.5 -15c-14.667 0 -26.667 2.33301 -36 7s-19.666 11.667 -30.999 21l-23 -26c14 -14 27.833 -23.833 41.5 -29.5s29.834 -8.5 48.501 -8.5s36 3.66699 52 11s29 18 39 32s15 31 15 51c0 16.667 -3.66699 30.334 -11 41.001s-16.5 18.834 -27.5 24.501
s-22.167 8.5 -33.5 8.5c-8 0 -14.167 -0.833008 -18.5 -2.5s-9.5 -4.16699 -15.5 -7.5l60 98h-40z" />
    <glyph glyph-name="scedilla" unicode="&#x15f;" horiz-adv-x="403" 
d="M73 157l-42.0029 -24.998c8.66699 -24.667 21 -47.834 37 -69.501s35.667 -39 59 -52s50.333 -19.5 81 -19.5c42.667 0 78.167 11 106.5 33s42.5 55.667 42.5 101c0 25.333 -6.16699 46.5 -18.5 63.5s-28.166 31 -47.499 42s-40 20.5 -62 28.5
c-19.333 6.66699 -38.166 13.5 -56.499 20.5s-33.333 16.167 -45 27.5s-17.5 27 -17.5 47c0 23.333 9 40.5 27 51.5s39.333 16.5 64 16.5c26 0 48.5 -7.33301 67.5 -22s33.167 -31.334 42.5 -50.001l43 26c-12 25.333 -31 47.333 -57 66s-58 28 -96 28
c-24.667 0 -47.667 -4.33301 -69 -13s-38.833 -21.667 -52.5 -39s-20.5 -39.333 -20.5 -66c0 -28.667 6.33301 -51.167 19 -67.5s29 -29.166 49 -38.499s41 -18 63 -26c20 -6.66699 38.5 -14.334 55.5 -23.001s30.833 -19 41.5 -31s16 -27.333 16 -46
c0 -26 -9 -45.833 -27 -59.5s-40.667 -20.5 -68 -20.5c-21.333 0 -40.666 5.33301 -57.999 16s-32.5 25 -45.5 43s-23.5 37.333 -31.5 58zM210.997 35.002l-72.001 -136.001c10.667 7.33301 22.167 12.666 34.5 15.999s22.833 5 31.5 5c16 0 29.167 -3.83301 39.5 -11.5
s15.5 -19.5 15.5 -35.5c0 -18.667 -6.5 -33 -19.5 -43s-29.5 -15 -49.5 -15c-14 0 -25.667 2.33301 -35 7s-19.666 11.667 -30.999 21l-22 -26c14 -14 27.5 -23.833 40.5 -29.5s28.833 -8.5 47.5 -8.5s36.167 3.66699 52.5 11s29.666 18 39.999 32s15.5 31 15.5 51
c0 16.667 -3.83301 30.334 -11.5 41.001s-17.167 18.834 -28.5 24.501s-22.666 8.5 -33.999 8.5c-7.33301 0 -13 -0.833008 -17 -2.5s-9.33301 -4.16699 -16 -7.5l61 98h-42z" />
    <glyph glyph-name="Scaron" unicode="&#x160;" horiz-adv-x="524" 
d="M87 214l-46.999 -27c12.667 -36 29.834 -68.833 51.501 -98.5s48 -53.334 79 -71.001s66.167 -26.5 105.5 -26.5c46.667 0 84.834 8.33301 114.501 25s51.834 39.667 66.501 69s22 62.333 22 99c0 30 -5.33301 56 -16 78s-24.667 40.833 -42 56.5
s-36.333 28.834 -57 39.501s-40.334 19.667 -59.001 27c-28 10.667 -55 22.667 -81 36s-47.333 29.333 -64 48s-25 41.334 -25 68.001c0 24 5.66699 44.833 17 62.5s27.166 31.5 47.499 41.5s43.5 15 69.5 15c29.333 0 54.166 -6.33301 74.499 -19
s37.166 -28.834 50.499 -48.501s24.333 -39.834 33 -60.501l45 28c-8 24 -20.833 47.833 -38.5 71.5s-40.167 43.167 -67.5 58.5s-60 23 -98 23c-35.333 0 -67.5 -6.83301 -96.5 -20.5s-52 -33.167 -69 -58.5s-25.5 -55 -25.5 -89c0 -28.667 5.83301 -53.667 17.5 -75
s26.667 -39.666 45 -54.999s38 -28.333 59 -39s40.5 -19.334 58.5 -26.001c26.667 -9.33301 52.5 -20.833 77.5 -34.5s45.833 -31 62.5 -52s25 -47.5 25 -79.5c0 -27.333 -5 -51.333 -15 -72s-25.5 -36.667 -46.5 -48s-48.167 -17 -81.5 -17
c-25.333 0 -47.833 4.5 -67.5 13.5s-37.167 21.5 -52.5 37.5s-28.833 34.333 -40.5 55s-22.167 42.334 -31.5 65.001zM268.001 829l-127 111l-33 -27l160 -140l160 140l-33 27z" />
    <glyph glyph-name="scaron" unicode="&#x161;" horiz-adv-x="403" 
d="M75 155l-44.001 -23.9971c4.66699 -24.667 14.5 -47.834 29.5 -69.501s34.667 -39 59 -52s51.833 -19.5 82.5 -19.5c45.333 0 82.5 11.167 111.5 33.5s43.5 56.166 43.5 101.499c0 23.333 -6.16699 43.166 -18.5 59.499s-28.166 30.333 -47.499 42s-40 21.5 -62 29.5
c-19.333 6.66699 -38 13.834 -56 21.501s-32.833 17.167 -44.5 28.5s-17.5 26 -17.5 44c0 24 8.83301 41.667 26.5 53s38.834 17 63.501 17c17.333 0 33 -3.33301 47 -10s26.5 -15.167 37.5 -25.5s19.5 -22.166 25.5 -35.499l43 26c-6 17.333 -16.333 33 -31 47
s-32.334 25.333 -53.001 34s-43.667 13 -69 13c-24.667 0 -47.667 -4.5 -69 -13.5s-38.833 -22.167 -52.5 -39.5s-20.5 -38.333 -20.5 -63c0 -26.667 6.33301 -48.334 19 -65.001s29 -29.834 49 -39.501s41 -18.834 63 -27.501c20 -6.66699 38.5 -14.167 55.5 -22.5
s30.833 -18.666 41.5 -30.999s16 -27.833 16 -46.5c0 -26.667 -8.83301 -47 -26.5 -61s-41.5 -21 -71.5 -21c-24 0 -45 5.5 -63 16.5s-32.667 25.333 -44 43s-19 36.5 -23 56.5zM200.999 586.003l-127 111l-33 -27l160 -140l160 140l-34 27z" />
    <glyph glyph-name="uni0162" unicode="&#x162;" horiz-adv-x="451" 
d="M205 5l-73.002 -136.001c10.667 7.33301 22.334 12.666 35.001 15.999s23.334 5 32.001 5c16 0 29.167 -3.83301 39.5 -11.5s15.5 -19.5 15.5 -35.5c0 -18.667 -6.5 -33 -19.5 -43s-29.5 -15 -49.5 -15c-14 0 -25.833 2.33301 -35.5 7s-19.834 11.667 -30.501 21l-23 -26
c14 -14 27.667 -23.833 41 -29.5s29.333 -8.5 48 -8.5s36 3.66699 52 11s29.167 18 39.5 32s15.5 31 15.5 51c0 16.667 -3.83301 30.334 -11.5 41.001s-17 18.834 -28 24.501s-22.167 8.5 -33.5 8.5c-7.33301 0 -13.166 -0.833008 -17.499 -2.5s-9.5 -4.16699 -15.5 -7.5
l60 98h-41zM13.998 647.999h184v-648h55v648h184v52h-423v-52z" />
    <glyph glyph-name="uni0163" unicode="&#x163;" horiz-adv-x="220" 
d="M90 8l-73.002 -136.001c10.667 7.33301 22.334 12.666 35.001 15.999s23.334 5 32.001 5c16 0 29.167 -3.83301 39.5 -11.5s15.5 -19.5 15.5 -35.5c0 -18.667 -6.5 -33 -19.5 -43s-29.5 -15 -49.5 -15c-14 0 -25.833 2.33301 -35.5 7s-19.834 11.667 -30.501 21l-23 -26
c14 -14 27.667 -23.833 41 -29.5s29.333 -8.5 48 -8.5s36 3.66699 52 11s29.167 18 39.5 32s15.5 31 15.5 51c0 16.667 -3.83301 30.334 -11.5 41.001s-17 18.834 -28 24.501s-22.167 8.5 -33.5 8.5c-7.33301 0 -13.166 -0.833008 -17.499 -2.5s-9.5 -4.16699 -15.5 -7.5
l60 98h-41zM8.99805 459.999v-49h202v49h-202zM83.998 619.999v-620h52v620h-52z" />
    <glyph glyph-name="Tcaron" unicode="&#x164;" horiz-adv-x="451" 
d="M14 648h184v-648h55v648h184v52h-423v-52zM226 825l-127 111l-33 -27l160 -140l160 140l-33 27z" />
    <glyph glyph-name="tcaron" unicode="&#x165;" horiz-adv-x="322" 
d="M9 460v-49h202v49h-202zM84 620v-620h52v620h-52zM287 796l-95 -257l37 -13l110 250z" />
    <glyph glyph-name="Tbar" unicode="&#x166;" horiz-adv-x="451" 
d="M66.875 406h315.003v49h-315.003v-49zM14 648h184v-648h55v648h184v52h-423v-52z" />
    <glyph glyph-name="tbar" unicode="&#x167;" horiz-adv-x="220" 
d="M18 259h200v49h-200v-49zM9 460v-49h202v49h-202zM84 620v-620h52v620h-52z" />
    <glyph glyph-name="Utilde" unicode="&#x168;" horiz-adv-x="606" 
d="M79 700v-474c0 -34.667 5 -66.5 15 -95.5s24.667 -53.833 44 -74.5s42.833 -36.834 70.5 -48.501s59.167 -17.5 94.5 -17.5s66.833 5.83301 94.5 17.5s51.167 27.834 70.5 48.501s34 45.5 44 74.5s15 60.833 15 95.5v474h-55v-474c0 -56 -14.667 -100.667 -44 -134
s-71 -50 -125 -50s-95.667 16.667 -125 50s-44 78 -44 134v474h-55zM154 792l34.998 -23c0 6.66699 1.5 14 4.5 22s8.33301 14.833 16 20.5s18.167 8.5 31.5 8.5c15.333 0 28.5 -3.83301 39.5 -11.5s22.833 -15.5 35.5 -23.5s28 -12 46 -12c14 0 26.833 2.83301 38.5 8.5
s21.834 13.5 30.501 23.5s15.667 21 21 33l-31 27c-9.33301 -16 -18.166 -28 -26.499 -36s-18.166 -12 -29.499 -12c-13.333 0 -24.5 2.33301 -33.5 7s-17.5 10.167 -25.5 16.5s-17 11.833 -27 16.5s-22.667 7 -38 7c-14.667 0 -28.334 -3.16699 -41.001 -9.5
s-23 -14.833 -31 -25.5s-13 -23 -15 -37z" />
    <glyph glyph-name="utilde" unicode="&#x169;" 
d="M374 0h52v460h-52v-460zM131 168l-0.000976562 291.999h-52v-298c0 -55.333 12.833 -97.833 38.5 -127.5s62.167 -44.5 109.5 -44.5c32 0 60.333 8.33301 85 25s44.167 39.167 58.5 67.5s21.5 60.833 21.5 97.5h-18c0 -26 -5.83301 -49.667 -17.5 -71
s-27.667 -38.333 -48 -51s-43.5 -19 -69.5 -19c-37.333 0 -64.666 11.333 -81.999 34s-26 54.334 -26 95.001zM103.999 552.999l34.9951 -23c0 6.66699 1.33301 14 4 22s7.83398 14.833 15.501 20.5s18.5 8.5 32.5 8.5c14.667 0 27.667 -3.83301 39 -11.5l35.5 -23.5
c12.333 -8 27.833 -12 46.5 -12c14 0 26.833 2.83301 38.5 8.5s21.834 13.5 30.501 23.5s15.667 21 21 33l-31 27c-9.33301 -16 -18.166 -28 -26.499 -36s-18.166 -12 -29.499 -12c-14 0 -25.5 2.33301 -34.5 7s-17.5 10.167 -25.5 16.5s-16.833 11.833 -26.5 16.5
s-22.167 7 -37.5 7s-29.166 -3.16699 -41.499 -9.5s-22.5 -14.833 -30.5 -25.5s-13 -23 -15 -37z" />
    <glyph glyph-name="Umacron" unicode="&#x16a;" horiz-adv-x="606" 
d="M79 700v-474c0 -34.667 5 -66.5 15 -95.5s24.667 -53.833 44 -74.5s42.833 -36.834 70.5 -48.501s59.167 -17.5 94.5 -17.5s66.833 5.83301 94.5 17.5s51.167 27.834 70.5 48.501s34 45.5 44 74.5s15 60.833 15 95.5v474h-55v-474c0 -56 -14.667 -100.667 -44 -134
s-71 -50 -125 -50s-95.667 16.667 -125 50s-44 78 -44 134v474h-55zM128 769h350v49h-350v-49z" />
    <glyph glyph-name="umacron" unicode="&#x16b;" 
d="M374 0h52v460h-52v-460zM131 168l-0.000976562 291.999h-52v-298c0 -55.333 12.833 -97.833 38.5 -127.5s62.167 -44.5 109.5 -44.5c32 0 60.333 8.33301 85 25s44.167 39.167 58.5 67.5s21.5 60.833 21.5 97.5h-18c0 -26 -5.83301 -49.667 -17.5 -71
s-27.667 -38.333 -48 -51s-43.5 -19 -69.5 -19c-37.333 0 -64.666 11.333 -81.999 34s-26 54.334 -26 95.001zM77.999 529.999h350v49h-350v-49z" />
    <glyph glyph-name="Ubreve" unicode="&#x16c;" horiz-adv-x="606" 
d="M79 700v-474c0 -34.667 5 -66.5 15 -95.5s24.667 -53.833 44 -74.5s42.833 -36.834 70.5 -48.501s59.167 -17.5 94.5 -17.5s66.833 5.83301 94.5 17.5s51.167 27.834 70.5 48.501s34 45.5 44 74.5s15 60.833 15 95.5v474h-55v-474c0 -56 -14.667 -100.667 -44 -134
s-71 -50 -125 -50s-95.667 16.667 -125 50s-44 78 -44 134v474h-55zM145 909c0 -22.667 5.83203 -44.834 17.499 -66.501s29.334 -39.334 53.001 -53.001s52.834 -20.5 87.501 -20.5c35.333 0 64.666 6.83301 87.999 20.5s40.833 31.334 52.5 53.001
s17.5 43.834 17.5 66.501h-47c0 -14 -3.66699 -28.333 -11 -43s-19.333 -27.334 -36 -38.001s-38 -16 -64 -16s-47.333 5.33301 -64 16s-28.667 23.334 -36 38.001s-11 29 -11 43h-47z" />
    <glyph glyph-name="ubreve" unicode="&#x16d;" 
d="M374 0h52v460h-52v-460zM131 168l-0.000976562 291.999h-52v-298c0 -55.333 12.833 -97.833 38.5 -127.5s62.167 -44.5 109.5 -44.5c32 0 60.333 8.33301 85 25s44.167 39.167 58.5 67.5s21.5 60.833 21.5 97.5h-18c0 -26 -5.83301 -49.667 -17.5 -71
s-27.667 -38.333 -48 -51s-43.5 -19 -69.5 -19c-37.333 0 -64.666 11.333 -81.999 34s-26 54.334 -26 95.001zM94.999 669.999c0 -22.667 5.83398 -44.834 17.501 -66.501s29.167 -39.334 52.5 -53.001s52.666 -20.5 87.999 -20.5c34.667 0 63.667 6.83301 87 20.5
s41 31.334 53 53.001s18 43.834 18 66.501h-47c0 -14 -3.83301 -28.5 -11.5 -43.5s-19.667 -27.667 -36 -38s-37.5 -15.5 -63.5 -15.5s-47.333 5.16699 -64 15.5s-28.667 23 -36 38s-11 29.5 -11 43.5h-47z" />
    <glyph glyph-name="Uring" unicode="&#x16e;" horiz-adv-x="606" 
d="M79 700v-474c0 -34.667 5 -66.5 15 -95.5s24.667 -53.833 44 -74.5s42.833 -36.834 70.5 -48.501s59.167 -17.5 94.5 -17.5s66.833 5.83301 94.5 17.5s51.167 27.834 70.5 48.501s34 45.5 44 74.5s15 60.833 15 95.5v474h-55v-474c0 -56 -14.667 -100.667 -44 -134
s-71 -50 -125 -50s-95.667 16.667 -125 50s-44 78 -44 134v474h-55zM201 869c0 -30 10.5 -54.167 31.5 -72.5s44.5 -27.5 70.5 -27.5s49.5 9.16699 70.5 27.5s31.5 42.5 31.5 72.5s-10.5 54.167 -31.5 72.5s-44.5 27.5 -70.5 27.5s-49.5 -9.16699 -70.5 -27.5
s-31.5 -42.5 -31.5 -72.5zM236 869c0 20.667 6.83301 37.167 20.5 49.5s29.167 18.5 46.5 18.5s32.833 -6.16699 46.5 -18.5s20.5 -28.833 20.5 -49.5s-6.83301 -37.167 -20.5 -49.5s-29.167 -18.5 -46.5 -18.5s-32.833 6.16699 -46.5 18.5s-20.5 28.833 -20.5 49.5z" />
    <glyph glyph-name="uring" unicode="&#x16f;" 
d="M374 0h52v460h-52v-460zM131 168l-0.000976562 291.999h-52v-298c0 -55.333 12.833 -97.833 38.5 -127.5s62.167 -44.5 109.5 -44.5c32 0 60.333 8.33301 85 25s44.167 39.167 58.5 67.5s21.5 60.833 21.5 97.5h-18c0 -26 -5.83301 -49.667 -17.5 -71
s-27.667 -38.333 -48 -51s-43.5 -19 -69.5 -19c-37.333 0 -64.666 11.333 -81.999 34s-26 54.334 -26 95.001zM150.999 629.999c0 -30 10.5 -54.167 31.5 -72.5s44.5 -27.5 70.5 -27.5s49.5 9.16699 70.5 27.5s31.5 42.5 31.5 72.5s-10.5 54.167 -31.5 72.5
s-44.5 27.5 -70.5 27.5s-49.5 -9.16699 -70.5 -27.5s-31.5 -42.5 -31.5 -72.5zM185.999 629.999c0 20.667 6.83301 37.167 20.5 49.5s29.167 18.5 46.5 18.5c16.667 0 32 -6.16699 46 -18.5s21 -28.833 21 -49.5s-7 -37.167 -21 -49.5s-29.333 -18.5 -46 -18.5
c-17.333 0 -32.833 6.16699 -46.5 18.5s-20.5 28.833 -20.5 49.5z" />
    <glyph glyph-name="Uhungarumlaut" unicode="&#x170;" horiz-adv-x="606" 
d="M235 769l124 197l-54 14l-104 -199zM373 769l125 197l-54 14l-104 -199zM79 700v-474c0 -34.667 5 -66.5 15 -95.5s24.667 -53.833 44 -74.5s42.833 -36.834 70.5 -48.501s59.167 -17.5 94.5 -17.5s66.833 5.83301 94.5 17.5s51.167 27.834 70.5 48.501s34 45.5 44 74.5
s15 60.833 15 95.5v474h-55v-474c0 -56 -14.667 -100.667 -44 -134s-71 -50 -125 -50s-95.667 16.667 -125 50s-44 78 -44 134v474h-55z" />
    <glyph glyph-name="uhungarumlaut" unicode="&#x171;" 
d="M185 530l124 197l-54 14l-104 -199zM323 530l125 197l-54 14l-104 -199zM131 168l-0.000976562 292h-52v-298c0 -52.667 12.667 -94.5 38 -125.5s62 -46.5 110 -46.5c34.667 0 64.667 9.33301 90 28s44.333 44.667 57 78v-96h52v460h-52v-280
c0 -26 -5.83301 -49.667 -17.5 -71s-27.667 -38.333 -48 -51s-43.5 -19 -69.5 -19c-37.333 0 -64.666 11.5 -81.999 34.5s-26 54.5 -26 94.5z" />
    <glyph glyph-name="Uogonek" unicode="&#x172;" horiz-adv-x="606" 
d="M349 -153c-6.66699 -7.33301 -15.3311 -13.6641 -25.998 -18.9971s-24 -8 -40 -8c-18.667 0 -34.334 4.66699 -47.001 14s-19 24 -19 44c0 15.333 5.66699 30.166 17 44.499s25.833 27.666 43.5 39.999s36.167 22.833 55.5 31.5l-28 19
c-23.333 -12 -45.666 -25.333 -66.999 -40s-38.833 -30.834 -52.5 -48.501s-20.5 -37.167 -20.5 -58.5c0 -18 4.33301 -34 13 -48s21.5 -24.833 38.5 -32.5s38.167 -11.5 63.5 -11.5c21.333 0 40.166 4.16699 56.499 12.5s28.166 17.5 35.499 27.5zM79.0029 700.002v-474
c0 -34.667 5 -66.5 15 -95.5s24.667 -53.833 44 -74.5s42.833 -36.834 70.5 -48.501s59.167 -17.5 94.5 -17.5s66.833 5.83301 94.5 17.5s51.167 27.834 70.5 48.501s34 45.5 44 74.5s15 60.833 15 95.5v474h-55v-474c0 -56 -14.667 -100.667 -44 -134s-71 -50 -125 -50
s-95.667 16.667 -125 50s-44 78 -44 134v474h-55z" />
    <glyph glyph-name="uogonek" unicode="&#x173;" 
d="M271 -149c-6.66699 -7.33301 -15.3311 -13.6641 -25.998 -18.9971s-24 -8 -40 -8c-18.667 0 -34.334 4.66699 -47.001 14s-19 24 -19 44c0 15.333 5.66699 30.166 17 44.499s25.833 27.666 43.5 39.999s36.167 22.833 55.5 31.5l-28 19
c-23.333 -12 -45.666 -25.333 -66.999 -40s-38.833 -30.834 -52.5 -48.501s-20.5 -37.167 -20.5 -58.5c0 -18 4.33301 -34 13 -48s21.5 -24.833 38.5 -32.5s38.167 -11.5 63.5 -11.5c21.333 0 40.166 4.16699 56.499 12.5s28.166 17.5 35.499 27.5zM131.003 168.002
l-0.000976562 292h-52v-298c0 -52.667 12.667 -94.5 38 -125.5s62 -46.5 110 -46.5c34.667 0 64.667 9.33301 90 28s44.333 44.667 57 78v-96h52v460h-52v-280c0 -26 -5.83301 -49.667 -17.5 -71s-27.667 -38.333 -48 -51s-43.5 -19 -69.5 -19
c-37.333 0 -64.666 11.5 -81.999 34.5s-26 54.5 -26 94.5z" />
    <glyph glyph-name="Wcircumflex" unicode="&#x174;" horiz-adv-x="974" 
d="M698 115l-211 612l-211 -612l-201 585h-61l259 -727l214 603l214 -603l259 727h-61zM487 898l127 -111l33 27l-160 140l-160 -140l33 -27z" />
    <glyph glyph-name="wcircumflex" unicode="&#x175;" horiz-adv-x="656" 
d="M9 460l179 -487l136 383l144 -383l179 487h-58l-124 -357l-142 384l-132 -383l-124 356h-58zM323 658l127 -111l33 27l-160 140l-160 -140l33 -27z" />
    <glyph glyph-name="Ycircumflex" unicode="&#x176;" horiz-adv-x="539" 
d="M468 700l-201 -362l-196 362h-62l231 -413v-287h55v288l235 412h-62zM270 880l127 -111l33 27l-160 140l-160 -140l33 -27z" />
    <glyph glyph-name="ycircumflex" unicode="&#x177;" horiz-adv-x="434" 
d="M430 460h-58l-163 -390l24 -2l-167 392h-62l186 -413l-118 -267h58zM217 641l127 -111l33 27l-160 140l-160 -140l33 -27z" />
    <glyph glyph-name="Ydieresis" unicode="&#x178;" horiz-adv-x="539" 
d="M136 807c0 -10.667 3.83301 -19.667 11.5 -27s16.5 -11 26.5 -11s18.833 3.66699 26.5 11s11.5 16.333 11.5 27c0 10 -3.83301 18.667 -11.5 26s-16.5 11 -26.5 11s-18.833 -3.66699 -26.5 -11s-11.5 -16 -11.5 -26zM328 807c0 -10.667 3.83301 -19.667 11.5 -27
s16.5 -11 26.5 -11s18.833 3.66699 26.5 11s11.5 16.333 11.5 27c0 10 -3.83301 18.667 -11.5 26s-16.5 11 -26.5 11s-18.833 -3.66699 -26.5 -11s-11.5 -16 -11.5 -26zM468 700l-201 -362l-196 362h-62l231 -413v-287h55v288l235 412h-62z" />
    <glyph glyph-name="Zacute" unicode="&#x179;" horiz-adv-x="541" 
d="M37 648h392l-412 -648h490v52h-396l412 648h-486v-52zM434 922l-48 27l-158 -160l29 -20z" />
    <glyph glyph-name="zacute" unicode="&#x17a;" horiz-adv-x="448" 
d="M332 411l-315 -411h402v49h-307l315 411h-384v-49h289zM389 695l-48 27l-158 -160l29 -20z" />
    <glyph glyph-name="Zdotaccent" unicode="&#x17b;" horiz-adv-x="541" 
d="M37 648h392l-412 -648h490v52h-396l412 648h-486v-52zM243 807c0 -10.667 3.66699 -19.667 11 -27s16 -11 26 -11c10.667 0 19.5 3.66699 26.5 11s10.5 16.333 10.5 27c0 10 -3.5 18.667 -10.5 26s-15.833 11 -26.5 11c-10 0 -18.667 -3.66699 -26 -11s-11 -16 -11 -26z
" />
    <glyph glyph-name="zdotaccent" unicode="&#x17c;" horiz-adv-x="448" 
d="M332 411l-315 -411h402v49h-307l315 411h-384v-49h289zM198 597c0 -10 3.66699 -18.667 11 -26s16 -11 26 -11c10.667 0 19.5 3.66699 26.5 11s10.5 16 10.5 26c0 10.667 -3.5 19.667 -10.5 27s-15.833 11 -26.5 11c-10 0 -18.667 -3.66699 -26 -11s-11 -16.333 -11 -27z
" />
    <glyph glyph-name="Zcaron" unicode="&#x17d;" horiz-adv-x="541" 
d="M37 648h392l-412 -648h490v52h-396l412 648h-486v-52zM280 825l-127 111l-33 -27l160 -140l160 140l-33 27z" />
    <glyph glyph-name="zcaron" unicode="&#x17e;" horiz-adv-x="448" 
d="M235 586l-127 111l-33 -27l160 -140l160 140l-33 27zM332 411l-315 -411h402v49h-307l315 411h-384v-49h289z" />
    <glyph glyph-name="florin" unicode="&#x192;" horiz-adv-x="600" 
d="M191 -200c22.667 -0.666992 42.6709 5.16797 60.0039 17.501s31.166 30 41.499 53s16.5 50.167 18.5 81.5l25 459h80l4 49h-81l10 172c2 33.333 9.16699 59.166 21.5 77.499s28.166 27.5 47.499 27.5c9.33301 0 18.166 -2.33301 26.499 -7s18.5 -13.334 30.5 -26.001
l28 40c-15.333 16 -29.833 27.333 -43.5 34s-28.167 10 -43.5 10c-34 0.666992 -61.833 -12.666 -83.5 -39.999s-33.834 -64.666 -36.501 -111.999l-9 -176h-73l-4 -49h74l-26 -455c-2 -32.667 -9 -58.334 -21 -77.001s-28 -28 -48 -28c-8.66699 0 -17.167 2.33301 -25.5 7
s-18.833 13.334 -31.5 26.001l-28 -40c16.667 -15.333 31.667 -26.333 45 -33s27.333 -10.334 42 -11.001z" />
    <glyph glyph-name="uni0212" unicode="&#x212;" horiz-adv-x="523" 
d="M203 334l232 -334h68l-239 334h-61zM84 700v-700h55v700h-55zM113 651l131 -0.00195312c35.333 0 66.666 -6 93.999 -18s48.833 -29.333 64.5 -52s23.5 -50.667 23.5 -84s-7.66699 -61.5 -23 -84.5s-36.666 -40.333 -63.999 -52s-59 -17.5 -95 -17.5h-131v-49h131
c45.333 0 85.833 7.83301 121.5 23.5s63.834 38.834 84.501 69.501s31 67.334 31 110.001c0 43.333 -10.333 80 -31 110s-48.834 53 -84.501 69s-76.167 24 -121.5 24h-131v-49zM110 768.998c0 23.333 5.83203 45.666 17.499 66.999s29.334 38.833 53.001 52.5
s52.834 20.5 87.501 20.5c35.333 0 64.666 -6.83301 87.999 -20.5s40.833 -31.167 52.5 -52.5s17.5 -43.666 17.5 -66.999h-46c0 14 -3.83301 28.5 -11.5 43.5s-19.667 27.667 -36 38s-37.833 15.5 -64.5 15.5c-26 0 -47.167 -5.16699 -63.5 -15.5s-28.333 -23 -36 -38
s-11.5 -29.5 -11.5 -43.5h-47z" />
    <glyph glyph-name="uni0213" unicode="&#x213;" horiz-adv-x="322" 
d="M131 460h-52v-460h52v460zM284 399l28.999 43c-10.667 10 -22.5 17.167 -35.5 21.5s-26.833 6.5 -41.5 6.5c-24 0 -45.833 -8.33301 -65.5 -25s-35.167 -39.167 -46.5 -67.5s-17 -60.833 -17 -97.5h24c0 26 3 49.667 9 71s15.833 38.333 29.5 51s31.834 19 54.501 19
c12 0 22.5 -1.83301 31.5 -5.5s18.5 -9.16699 28.5 -16.5zM37.999 538c0 23.333 5.83203 45.666 17.499 66.999s29.334 38.833 53.001 52.5s52.834 20.5 87.501 20.5c35.333 0 64.666 -6.83301 87.999 -20.5s40.833 -31.167 52.5 -52.5s17.5 -43.666 17.5 -66.999h-46
c0 14 -3.83301 28.5 -11.5 43.5s-19.667 27.667 -36 38s-37.833 15.5 -64.5 15.5c-26 0 -47.167 -5.16699 -63.5 -15.5s-28.333 -23 -36 -38s-11.5 -29.5 -11.5 -43.5h-47z" />
    <glyph glyph-name="uni0218" unicode="&#x218;" horiz-adv-x="524" 
d="M87 214l-46.999 -27c12.667 -36 29.834 -68.833 51.501 -98.5s48 -53.334 79 -71.001s66.167 -26.5 105.5 -26.5c46.667 0 84.834 8.33301 114.501 25s51.834 39.667 66.501 69s22 62.333 22 99c0 30 -5.33301 56 -16 78s-24.667 40.833 -42 56.5
s-36.333 28.834 -57 39.501s-40.334 19.667 -59.001 27c-28 10.667 -55 22.667 -81 36s-47.333 29.333 -64 48s-25 41.334 -25 68.001c0 24 5.66699 44.833 17 62.5s27.166 31.5 47.499 41.5s43.5 15 69.5 15c29.333 0 54.166 -6.33301 74.499 -19
s37.166 -28.834 50.499 -48.501s24.333 -39.834 33 -60.501l45 28c-8 24 -20.833 47.833 -38.5 71.5s-40.167 43.167 -67.5 58.5s-60 23 -98 23c-35.333 0 -67.5 -6.83301 -96.5 -20.5s-52 -33.167 -69 -58.5s-25.5 -55 -25.5 -89c0 -28.667 5.83301 -53.667 17.5 -75
s26.667 -39.666 45 -54.999s38 -28.333 59 -39s40.5 -19.334 58.5 -26.001c26.667 -9.33301 52.5 -20.833 77.5 -34.5s45.833 -31 62.5 -52s25 -47.5 25 -79.5c0 -27.333 -5 -51.333 -15 -72s-25.5 -36.667 -46.5 -48s-48.167 -17 -81.5 -17
c-25.333 0 -47.833 4.5 -67.5 13.5s-37.167 21.5 -52.5 37.5s-28.833 34.333 -40.5 55s-22.167 42.334 -31.5 65.001zM297.001 -69l-95 -257l38 -13l110 250z" />
    <glyph glyph-name="uni0219" unicode="&#x219;" horiz-adv-x="403" 
d="M75 155l-44.001 -23.9971c4.66699 -24.667 14.5 -47.834 29.5 -69.501s34.667 -39 59 -52s51.833 -19.5 82.5 -19.5c45.333 0 82.5 11.167 111.5 33.5s43.5 56.166 43.5 101.499c0 23.333 -6.16699 43.166 -18.5 59.499s-28.166 30.333 -47.499 42s-40 21.5 -62 29.5
c-19.333 6.66699 -38 13.834 -56 21.501s-32.833 17.167 -44.5 28.5s-17.5 26 -17.5 44c0 24 8.83301 41.667 26.5 53s38.834 17 63.501 17c17.333 0 33 -3.33301 47 -10s26.5 -15.167 37.5 -25.5s19.5 -22.166 25.5 -35.499l43 26c-6 17.333 -16.333 33 -31 47
s-32.334 25.333 -53.001 34s-43.667 13 -69 13c-24.667 0 -47.667 -4.5 -69 -13.5s-38.833 -22.167 -52.5 -39.5s-20.5 -38.333 -20.5 -63c0 -26.667 6.33301 -48.334 19 -65.001s29 -29.834 49 -39.501s41 -18.834 63 -27.501c20 -6.66699 38.5 -14.167 55.5 -22.5
s30.833 -18.666 41.5 -30.999s16 -27.833 16 -46.5c0 -26.667 -8.83301 -47 -26.5 -61s-41.5 -21 -71.5 -21c-24 0 -45 5.5 -63 16.5s-32.667 25.333 -44 43s-19 36.5 -23 56.5zM222.999 -69.9971l-94 -257l37 -13l110 250z" />
    <glyph glyph-name="uni021A" unicode="&#x21a;" horiz-adv-x="451" 
d="M14 648h184v-648h55v648h184v52h-423v-52zM247 -60l-94 -257l37 -13l110 250z" />
    <glyph glyph-name="uni021B" unicode="&#x21b;" horiz-adv-x="220" 
d="M9 460v-49h202v49h-202zM84 620v-620h52v620h-52zM131 -60l-95 -257l38 -13l110 250z" />
    <glyph glyph-name="uni0237" unicode="&#x237;" horiz-adv-x="222" 
d="M-49 -134l-29 -43c5.33301 -6.66699 12 -13.167 20 -19.5s17.667 -11.833 29 -16.5s24 -7 38 -7c28 0 51.167 6.16699 69.5 18.5s31.833 29.833 40.5 52.5s13 49.334 13 80.001v529h-52v-523c0 -20.667 -2.16699 -38.834 -6.5 -54.501s-11.5 -28 -21.5 -37
s-23.333 -13.5 -40 -13.5c-12 0 -23.167 2.83301 -33.5 8.5s-19.5 14.167 -27.5 25.5z" />
    <glyph glyph-name="circumflex" unicode="&#x2c6;" horiz-adv-x="480" 
d="M240 674l127 -111l33 27l-160 140l-160 -140l33 -27z" />
    <glyph glyph-name="caron" unicode="&#x2c7;" horiz-adv-x="480" 
d="M240 626l-127 111l-33 -27l160 -140l160 140l-33 27z" />
    <glyph glyph-name="breve" unicode="&#x2d8;" horiz-adv-x="546" 
d="M115 850c0 -22.667 5.83203 -44.834 17.499 -66.501s29.334 -39.334 53.001 -53.001s52.834 -20.5 87.501 -20.5c35.333 0 64.666 6.83301 87.999 20.5s40.833 31.334 52.5 53.001s17.5 43.834 17.5 66.501h-47c0 -14 -3.66699 -28.5 -11 -43.5s-19.333 -27.667 -36 -38
s-38 -15.5 -64 -15.5s-47.333 5.16699 -64 15.5s-28.667 23 -36 38s-11 29.5 -11 43.5h-47z" />
    <glyph glyph-name="dotaccent" unicode="&#x2d9;" horiz-adv-x="277" 
d="M101 774c0 -10 3.83301 -18.667 11.5 -26s16.5 -11 26.5 -11s18.667 3.66699 26 11s11 16 11 26c0 10.667 -3.66699 19.667 -11 27s-16 11 -26 11s-18.833 -3.66699 -26.5 -11s-11.5 -16.333 -11.5 -27z" />
    <glyph glyph-name="ring" unicode="&#x2da;" horiz-adv-x="278" 
d="M37 785c0 -30 10.5 -54.167 31.5 -72.5s44.5 -27.5 70.5 -27.5s49.5 9.16699 70.5 27.5s31.5 42.5 31.5 72.5s-10.5 54.167 -31.5 72.5s-44.5 27.5 -70.5 27.5s-49.5 -9.16699 -70.5 -27.5s-31.5 -42.5 -31.5 -72.5zM72 785c0 20.667 6.83301 37.167 20.5 49.5
s29.167 18.5 46.5 18.5s32.833 -6.16699 46.5 -18.5s20.5 -28.833 20.5 -49.5s-6.83301 -37.167 -20.5 -49.5s-29.167 -18.5 -46.5 -18.5s-32.833 6.16699 -46.5 18.5s-20.5 28.833 -20.5 49.5z" />
    <glyph glyph-name="ogonek" unicode="&#x2db;" horiz-adv-x="256" 
d="M200 -147c-6.66699 -7.33301 -15.3311 -13.6641 -25.998 -18.9971s-24 -8 -40 -8c-18.667 0 -34.334 4.66699 -47.001 14s-19 24 -19 44c0 15.333 5.66699 30.166 17 44.499s25.833 27.666 43.5 39.999s36.167 22.833 55.5 31.5l-28 19
c-23.333 -12 -45.666 -25.333 -66.999 -40s-38.833 -30.834 -52.5 -48.501s-20.5 -37.167 -20.5 -58.5c0 -18 4.33301 -34 13 -48s21.5 -24.833 38.5 -32.5s38.167 -11.5 63.5 -11.5c21.333 0 40.166 4.16699 56.499 12.5s28.166 17.5 35.499 27.5z" />
    <glyph glyph-name="tilde" unicode="&#x2dc;" horiz-adv-x="530" 
d="M117 635l35.001 -23c0 6.66699 1.5 14 4.5 22s8.33301 14.833 16 20.5s18.167 8.5 31.5 8.5c15.333 0 28.5 -3.83301 39.5 -11.5s22.833 -15.5 35.5 -23.5s28 -12 46 -12c14 0 26.833 2.83301 38.5 8.5s21.834 13.5 30.501 23.5s15.667 21 21 33l-31 27
c-8.66699 -16 -17.334 -28 -26.001 -36s-18.667 -12 -30 -12c-13.333 0 -24.5 2.33301 -33.5 7s-17.5 10.167 -25.5 16.5s-17 11.833 -27 16.5s-22.667 7 -38 7c-14.667 0 -28.334 -3.16699 -41.001 -9.5s-23 -14.833 -31 -25.5s-13 -23 -15 -37z" />
    <glyph glyph-name="hungarumlaut" unicode="&#x2dd;" horiz-adv-x="0" 
d="M34 518l124 197l-54 14l-104 -199zM172 518l125 197l-54 14l-104 -199z" />
    <glyph glyph-name="gravecomb" unicode="&#x300;" horiz-adv-x="0" 
d="M177 541l29 20l-158 160l-48 -27z" />
    <glyph glyph-name="acutecomb" unicode="&#x301;" horiz-adv-x="0" 
d="M44 541l177 153l-48 27l-158 -160z" />
    <glyph glyph-name="uni0302" unicode="&#x302;" horiz-adv-x="0" 
d="M27 561l139 121h-22l138 -121l27 33l-154 134l-155 -134z" />
    <glyph glyph-name="tildecomb" unicode="&#x303;" horiz-adv-x="0" 
d="M35 612c0 7.33301 1.83203 14.832 5.49902 22.499s9.33398 14.334 17.001 20.001s17.5 8.5 29.5 8.5c16 0 29.5 -3.83301 40.5 -11.5l35 -23.5c12.333 -8 27.5 -12 45.5 -12c14.667 0 27.834 2.83301 39.501 8.5s21.667 13.5 30 23.5s15.166 21 20.499 33l-31 27
c-8.66699 -16 -17.167 -28 -25.5 -36s-18.5 -12 -30.5 -12c-12.667 0 -23.667 2.33301 -33 7s-17.833 10.167 -25.5 16.5s-16.667 11.833 -27 16.5s-23.166 7 -38.499 7c-14.667 0 -28.334 -3.16699 -41.001 -9.5s-23 -14.833 -31 -25.5s-13 -23 -15 -37z" />
    <glyph glyph-name="uni0304" unicode="&#x304;" horiz-adv-x="0" 
d="M0 626h350v49h-350v-49z" />
    <glyph glyph-name="uni0306" unicode="&#x306;" horiz-adv-x="0" 
d="M158 558c30.667 0 57.832 5.66699 81.499 17s42.334 27 56.001 47s20.5 42.667 20.5 68h-47c0 -16.667 -4.83301 -31.667 -14.5 -45s-22.834 -24 -39.501 -32s-35.667 -12 -57 -12s-40.333 4 -57 12s-29.834 18.667 -39.501 32s-14.5 28.333 -14.5 45h-47
c0 -25.333 6.83301 -48 20.5 -68s32.334 -35.667 56.001 -47s50.834 -17 81.501 -17z" />
    <glyph glyph-name="uni0307" unicode="&#x307;" horiz-adv-x="0" 
d="M38 604c10 0 18.667 3.66699 26 11s11 16 11 26c0 10.667 -3.66699 19.5 -11 26.5s-16 10.5 -26 10.5s-18.833 -3.5 -26.5 -10.5s-11.5 -15.833 -11.5 -26.5c-0 -10 3.83301 -18.667 11.5 -26s16.5 -11 26.5 -11z" />
    <glyph glyph-name="uni0308" unicode="&#x308;" horiz-adv-x="0" 
d="M37 610c11.333 0 20.5 3.5 27.5 10.5s10.5 16.167 10.5 27.5s-3.5 20.333 -10.5 27s-16.167 10 -27.5 10c-10.667 0 -19.5 -3.33301 -26.5 -10s-10.5 -15.667 -10.5 -27s3.5 -20.5 10.5 -27.5s15.833 -10.5 26.5 -10.5zM237 610c11.333 0 20.5 3.5 27.5 10.5
s10.5 16.167 10.5 27.5s-3.5 20.333 -10.5 27s-16.167 10 -27.5 10c-10.667 0 -19.5 -3.33301 -26.5 -10s-10.5 -15.667 -10.5 -27s3.5 -20.5 10.5 -27.5s15.833 -10.5 26.5 -10.5z" />
    <glyph glyph-name="uni030A" unicode="&#x30a;" horiz-adv-x="0" 
d="M108 524c20 0 38.167 4.83203 54.5 14.499s29.5 22.5 39.5 38.5s15 33.667 15 53c0 20 -5 37.833 -15 53.5s-23.167 28.334 -39.5 38.001s-34.5 14.5 -54.5 14.5c-29.333 0 -54.666 -10.333 -75.999 -31s-32 -45.667 -32 -75s10.667 -54.333 32 -75
s46.666 -31 75.999 -31zM108 558.999c-19.333 0 -35.833 7 -49.5 21s-20.5 30.667 -20.5 50c0 20 6.83301 36.833 20.5 50.5s30.167 20.5 49.5 20.5s35.833 -6.83301 49.5 -20.5s20.5 -30.5 20.5 -50.5c0 -19.333 -6.83301 -36 -20.5 -50s-30.167 -21 -49.5 -21z" />
    <glyph glyph-name="uni030B" unicode="&#x30b;" horiz-adv-x="0" 
d="M34 518l124 197l-54 14l-104 -199zM172 518l125 197l-54 14l-104 -199z" />
    <glyph glyph-name="uni030C" unicode="&#x30c;" horiz-adv-x="0" 
d="M155 561l154 135l-27 32l-138 -121h22l-139 121l-27 -32z" />
    <glyph glyph-name="uni0312" unicode="&#x312;" horiz-adv-x="0" 
d="M52 508l95 256l-37 14l-110 -250z" />
    <glyph glyph-name="uni0326" unicode="&#x326;" horiz-adv-x="0" 
d="M26 -216l101 177l-37 21l-90 -184z" />
    <glyph glyph-name="uni0327" unicode="&#x327;" horiz-adv-x="0" 
d="M89 -220c31.333 0 57.167 9 77.5 27s30.5 40.333 30.5 67c0 20.667 -7 38.667 -21 54s-31.667 23 -53 23c-12.667 0 -23.5 -2 -32.5 -6s-16.5 -10.333 -22.5 -19l19 1l63 109h-41l-70 -127c8.66699 4 19 7 31 9s23 3 33 3c18 0 31.667 -4 41 -12s14 -19.667 14 -35
c0 -17.333 -6.16699 -31.333 -18.5 -42s-29.166 -16 -50.499 -16c-14 0 -26.333 2 -37 6s-22.334 10.667 -35.001 20l-17 -30c14 -11.333 27.833 -19.5 41.5 -24.5s29.5 -7.5 47.5 -7.5z" />
    <glyph glyph-name="uni0328" unicode="&#x328;" horiz-adv-x="0" 
d="M115 -220c21.333 0 40.1689 4.16895 56.502 12.502s28.166 17.5 35.499 27.5l-23 33c-6.66699 -7.33301 -15.334 -13.666 -26.001 -18.999s-24 -8 -40 -8c-18.667 0 -34.334 4.66699 -47.001 14s-19 24 -19 44c0 15.333 5.66699 30.166 17 44.499
s25.833 27.666 43.5 39.999s36.167 22.833 55.5 31.5l-28 19c-23.333 -12 -45.666 -25.333 -66.999 -40s-38.833 -30.834 -52.5 -48.501s-20.5 -37.167 -20.5 -58.5c-0 -18 4.33301 -34 13 -48s21.5 -24.833 38.5 -32.5s38.167 -11.5 63.5 -11.5z" />
    <glyph glyph-name="uni0394" unicode="&#x394;" horiz-adv-x="600" 
d="M25 0l274 770l274 -770h-548zM104 49h392l-197 577z" />
    <glyph glyph-name="uni03A9" unicode="&#x3a9;" horiz-adv-x="600" 
d="M66 0l0.00390625 44.0029h119c-22.667 22.667 -42.834 49.167 -60.501 79.5s-31.334 62 -41.001 95s-14.5 65.167 -14.5 96.5c0 46.667 10.167 88.334 30.5 125.001s47.833 65.667 82.5 87s74 32 118 32s83.333 -10.667 118 -32s62 -50.333 82 -87
s30 -78.334 30 -125.001c0 -31.333 -4.83301 -63.5 -14.5 -96.5s-23.334 -64.667 -41.001 -95s-37.834 -56.833 -60.501 -79.5h119v-44h-194v48c25.333 16 48 38.333 68 67s35.833 60.167 47.5 94.5s17.5 68.166 17.5 101.499c0 38.667 -7 72.167 -21 100.5
s-33.833 50.166 -59.5 65.499s-56.167 23 -91.5 23s-66 -7.66699 -92 -23s-46.167 -37.166 -60.5 -65.499s-21.5 -61.833 -21.5 -100.5c0 -32.667 6 -66.334 18 -101.001s28.167 -66.334 48.5 -95.001s42.833 -51 67.5 -67v-48h-194z" />
    <glyph glyph-name="uni03BC" unicode="&#x3bc;" 
d="M131 460l-52.002 -0.000976562v-780h52v354c10 -14 22.833 -24.833 38.5 -32.5s34.834 -11.5 57.501 -11.5c32.667 0 62 9 88 27s45.667 42.333 59 73v-90h52v460h-52v-280c0 -26 -5.83301 -49.667 -17.5 -71s-27.667 -38.333 -48 -51s-43.5 -19 -69.5 -19
c-37.333 0 -64.666 11.333 -81.999 34s-26 54.334 -26 95.001v292z" />
    <glyph glyph-name="pi" unicode="&#x3c0;" horiz-adv-x="512" 
d="M90 438v-438h52v438h-52zM30 460v-49h442v49h-442zM340 438l0.00195312 -316.999c0 -36 3.83301 -63.333 11.5 -82s19.167 -31.334 34.5 -38.001s35 -10 59 -10v52c-12.667 0 -22.834 2.16699 -30.501 6.5s-13.334 12.833 -17.001 25.5s-5.5 32 -5.5 58v305h-52z" />
    <glyph glyph-name="uni0400" unicode="&#x400;" horiz-adv-x="550" 
d="M113 0h347v52h-347v-52zM113 648h347v52h-347v-52zM113 358h327v52h-327v-52zM84 700v-700h55v700h-55zM110 933l177 -153l29 20l-158 160z" />
    <glyph glyph-name="uni0401" unicode="&#x401;" horiz-adv-x="550" 
d="M113 0h347v52h-347v-52zM113 648h347v52h-347v-52zM113 358h327v52h-327v-52zM84 700v-700h55v700h-55zM333 837c0 -10.667 3.83301 -19.667 11.5 -27s16.5 -11 26.5 -11s18.667 3.66699 26 11s11 16.333 11 27c0 10 -3.66699 18.667 -11 26s-16 11 -26 11
s-18.833 -3.66699 -26.5 -11s-11.5 -16 -11.5 -26zM133 837c0 -10.667 3.83301 -19.667 11.5 -27s16.5 -11 26.5 -11s18.667 3.66699 26 11s11 16.333 11 27c0 10 -3.66699 18.667 -11 26s-16 11 -26 11s-18.833 -3.66699 -26.5 -11s-11.5 -16 -11.5 -26z" />
    <glyph glyph-name="uni0403" unicode="&#x403;" horiz-adv-x="435" 
d="M80 700v-700h55v648h290v52h-345zM414 933l-48 27l-158 -160l29 -20z" />
    <glyph glyph-name="uni040C" unicode="&#x40c;" horiz-adv-x="565" 
d="M82 700v-700h55v700h-55zM427 700l-306 -329l321 -371h70l-323 372l308 328h-70zM474 933l-48 27l-158 -160l29 -20z" />
    <glyph glyph-name="uni040D" unicode="&#x40d;" horiz-adv-x="755" 
d="M668 650l3 85l-584 -685l-3 -85zM139 700h-55v-735l55 75v660zM671 735l-55 -74v-661h55v735zM229 908l177 -153l29 20l-158 160z" />
    <glyph glyph-name="uni040E" unicode="&#x40e;" horiz-adv-x="531" 
d="M531 700h-61l-216 -468l34 -2l-221 470h-67l237 -486l-96 -214h61zM109 909c0 -22.667 5.83203 -44.834 17.499 -66.501s29.334 -39.334 53.001 -53.001s52.834 -20.5 87.501 -20.5c35.333 0 64.666 6.83301 87.999 20.5s40.833 31.334 52.5 53.001
s17.5 43.834 17.5 66.501h-47c0 -14 -3.66699 -28.333 -11 -43s-19.333 -27.334 -36 -38.001s-38 -16 -64 -16s-47.333 5.33301 -64 16s-28.667 23.334 -36 38.001s-11 29 -11 43h-47z" />
    <glyph glyph-name="uni0410" unicode="&#x410;" horiz-adv-x="660" 
d="M140 235h359l-18 52h-323zM318 600l138 -334l5 -13l104 -253h62l-309 727l-309 -727h62l105 257l6 12z" />
    <glyph glyph-name="uni0411" unicode="&#x411;" horiz-adv-x="532" 
d="M111 368h143c35.333 0 66.833 -6.16699 94.5 -18.5s49.334 -30.333 65.001 -54s23.5 -52.167 23.5 -85.5s-7.83301 -61.833 -23.5 -85.5s-37.334 -41.667 -65.001 -54s-59.167 -18.5 -94.5 -18.5h-143v-52h143c45.333 0 85.833 8.5 121.5 25.5s64 41.333 85 73
s31.5 68.834 31.5 111.501c0 43.333 -10.5 80.666 -31.5 111.999s-49.333 55.5 -85 72.5s-76.167 25.5 -121.5 25.5h-143v-52zM80 700v-700h55v648h304v52h-359z" />
    <glyph glyph-name="uni0412" unicode="&#x412;" horiz-adv-x="558" 
d="M127 376l113.001 0.00195312c39.333 0 74 5.83301 104 17.5s53.5 29 70.5 52s25.5 51.5 25.5 85.5c0 37.333 -8.33301 68.5 -25 93.5s-40.167 43.833 -70.5 56.5s-66.5 19 -108.5 19h-152v-700h162c45.333 0 85.5 7.33301 120.5 22s62.5 37 82.5 67s30 68 30 114
c0 32 -6.5 59.833 -19.5 83.5s-30.333 43.167 -52 58.5s-46.167 26.833 -73.5 34.5s-55.333 11.5 -84 11.5h-123v-32h119c24 0 46.5 -3.33301 67.5 -10s39.833 -16.5 56.5 -29.5s29.667 -29 39 -48s14 -40.833 14 -65.5c0 -34.667 -7.33301 -63.5 -22 -86.5
s-35.334 -40.5 -62.001 -52.5s-57.667 -18 -93 -18h-107v602h97c45.333 0 81.5 -10.833 108.5 -32.5s40.5 -51.834 40.5 -90.501c0 -27.333 -6.66699 -49.833 -20 -67.5s-31.333 -30.834 -54 -39.501s-47.667 -13 -75 -13h-109v-32z" />
    <glyph glyph-name="uni0413" unicode="&#x413;" horiz-adv-x="435" 
d="M80 700v-700h55v648h290v52h-345z" />
    <glyph glyph-name="uni0414" unicode="&#x414;" horiz-adv-x="795" 
d="M395 607l226 -585h59l-285 713l-285 -713h59zM701 0v-110h49v162h-710v-162h49v110h612z" />
    <glyph glyph-name="uni0415" unicode="&#x415;" horiz-adv-x="550" 
d="M113 0h347v52h-347v-52zM113 648h347v52h-347v-52zM113 358h327v52h-327v-52zM84 700v-700h55v700h-55z" />
    <glyph glyph-name="uni0416" unicode="&#x416;" horiz-adv-x="793" 
d="M89 700h-69l297 -329l-312 -371h69l310 370zM374 700v-700h55v700h-55zM704 700l-285 -330l300 -370h69l-308 371l293 329h-69z" />
    <glyph glyph-name="uni0417" unicode="&#x417;" horiz-adv-x="606" 
d="M283 351c38.667 0 73.832 4.33203 105.499 12.999s58.834 20.834 81.501 36.501s40.167 34 52.5 55s18.5 43.833 18.5 68.5c0 33.333 -9 64 -27 92s-43.667 50.667 -77 68s-73.333 26 -120 26c-44.667 0 -84.167 -7.83301 -118.5 -23.5s-61 -37.167 -80 -64.5
s-28.5 -59.333 -28.5 -96h53c0 26 7.33301 49 22 69s35.167 35.833 61.5 47.5s56.833 17.5 91.5 17.5c35.333 0 65.5 -6 90.5 -18s44 -28.5 57 -49.5s19.5 -44.5 19.5 -70.5s-8.33301 -49.167 -25 -69.5s-40.167 -36.333 -70.5 -48s-65.833 -17.5 -106.5 -17.5v-36z
M312.998 -10.001c52 0 96.501 8.00195 133.501 24.002s65.333 38.667 85 68s29.5 63.666 29.5 102.999c0 46.667 -12.333 83.667 -37 111s-58 47.166 -100 59.499s-89 18.5 -141 18.5v-36c40.667 0 77.834 -5 111.501 -15s60.5 -25.667 80.5 -47s30 -49.666 30 -84.999
c0 -44.667 -16.167 -80.667 -48.5 -108s-80.166 -41 -143.499 -41c-42.667 0 -78.334 6.16699 -107.001 18.5s-50.5 29.333 -65.5 51s-23.167 46.167 -24.5 73.5h-56c0 -27.333 5.5 -52.833 16.5 -76.5s27.167 -44.334 48.5 -62.001s47.666 -31.5 78.999 -41.5
s67.666 -15 108.999 -15z" />
    <glyph glyph-name="uni0418" unicode="&#x418;" horiz-adv-x="755" 
d="M668 650l3 85l-584 -685l-3 -85zM139 700h-55v-735l55 75v660zM671 735l-55 -74v-661h55v735z" />
    <glyph glyph-name="uni0419" unicode="&#x419;" horiz-adv-x="755" 
d="M668 650l3 85l-584 -685l-3 -85zM139 700h-55v-735l55 75v660zM671 735l-55 -74v-661h55v735zM240 903c0 -22.667 5.83203 -44.834 17.499 -66.501s29.334 -39.334 53.001 -53.001s52.834 -20.5 87.501 -20.5c35.333 0 64.666 6.83301 87.999 20.5
s40.833 31.334 52.5 53.001s17.5 43.834 17.5 66.501h-46c0 -14 -3.83301 -28.5 -11.5 -43.5s-19.667 -27.667 -36 -38s-37.833 -15.5 -64.5 -15.5c-26 0 -47.167 5.16699 -63.5 15.5s-28.333 23 -36 38s-11.5 29.5 -11.5 43.5h-47z" />
    <glyph glyph-name="uni041A" unicode="&#x41a;" horiz-adv-x="565" 
d="M82 700v-700h55v700h-55zM427 700l-306 -329l321 -371h70l-323 372l308 328h-70z" />
    <glyph glyph-name="uni041B" unicode="&#x41b;" horiz-adv-x="640" 
d="M560 700l-457.001 -0.00195312v-448c0 -26.667 -2 -52.167 -6 -76.5s-10 -46.166 -18 -65.499s-17.667 -34.5 -29 -45.5s-24.666 -16.5 -39.999 -16.5v-48c31.333 0 57.833 11 79.5 33s38 51.333 49 88s16.5 76.334 16.5 119.001v408h350v-648h55v700z" />
    <glyph glyph-name="uni041C" unicode="&#x41c;" horiz-adv-x="810" 
d="M163 554l246 -473l246 473l60 -554h55l-81 727l-280 -538l-280 538l-81 -727h55z" />
    <glyph glyph-name="uni041D" unicode="&#x41d;" horiz-adv-x="715" 
d="M113 355h472v52h-472v-52zM548 700v-700h56v700h-56zM84 700v-700h55v700h-55z" />
    <glyph glyph-name="uni041E" unicode="&#x41e;" horiz-adv-x="790" 
d="M102 350c0 58.667 12.5 110.834 37.5 156.501s59.333 81.667 103 108s93.5 39.5 149.5 39.5s105.833 -13.167 149.5 -39.5s77.834 -62.333 102.501 -108s37 -97.834 37 -156.501c0 -58 -12.333 -110 -37 -156s-58.834 -82.167 -102.501 -108.5s-93.5 -39.5 -149.5 -39.5
s-105.833 13.167 -149.5 39.5s-78 62.5 -103 108.5s-37.5 98 -37.5 156zM44 350c0 -51.333 8.66699 -98.833 26 -142.5s41.666 -81.667 72.999 -114s68.166 -57.5 110.499 -75.5s88.5 -27 138.5 -27s96.167 9 138.5 27s79.166 43.167 110.499 75.5s55.666 70.333 72.999 114
s26 91.167 26 142.5s-8.66699 98.833 -26 142.5s-41.666 81.667 -72.999 114s-68.166 57.5 -110.499 75.5s-88.5 27 -138.5 27s-96.167 -9 -138.5 -27s-79.166 -43.167 -110.499 -75.5s-55.666 -70.333 -72.999 -114s-26 -91.167 -26 -142.5z" />
    <glyph glyph-name="uni041F" unicode="&#x41f;" horiz-adv-x="685" 
d="M550 648v-648h55v700h-525v-700h55v648h415z" />
    <glyph glyph-name="uni0420" unicode="&#x420;" horiz-adv-x="548" 
d="M84 700v-700h55v700h-55zM115 648h133c51.333 0 93 -13.167 125 -39.5s48 -64.833 48 -115.5c0 -50 -16 -88.333 -48 -115s-73.667 -40 -125 -40h-133v-52h133c44 0 83.167 8.16699 117.5 24.5s61.5 40.166 81.5 71.499s30 68.333 30 111c0 43.333 -10 80.333 -30 111
s-47.167 54.334 -81.5 71.001s-73.5 25 -117.5 25h-133v-52z" />
    <glyph glyph-name="uni0421" unicode="&#x421;" horiz-adv-x="685" 
d="M103 350c0 60 12.6641 112.667 37.9971 158s59.333 80.833 102 106.5s90.334 38.5 143.001 38.5c32.667 0 62.667 -3.66699 90 -11s52.333 -18.166 75 -32.499s42.667 -31.5 60 -51.5v73c-29.333 26 -61.333 45.5 -96 58.5s-77.667 19.5 -129 19.5
c-48.667 0 -93.834 -8.83301 -135.501 -26.5s-77.834 -42.5 -108.501 -74.5s-54.667 -70 -72 -114s-26 -92 -26 -144s8.66699 -100 26 -144s41.333 -82 72 -114s66.834 -56.833 108.501 -74.5s86.834 -26.5 135.501 -26.5c51.333 0 94.333 6.5 129 19.5s66.667 32.5 96 58.5
v74c-17.333 -20 -37.166 -37.333 -59.499 -52s-47.166 -25.667 -74.499 -33s-57.666 -11 -90.999 -11c-52.667 0 -100.334 13 -143.001 39s-76.667 61.667 -102 107s-38 97.666 -38 156.999z" />
    <glyph glyph-name="uni0422" unicode="&#x422;" horiz-adv-x="465" 
d="M14 648h184v-648h55v648h184v52h-423v-52z" />
    <glyph glyph-name="uni0423" unicode="&#x423;" horiz-adv-x="531" 
d="M531 700h-61l-216 -468l34 -2l-221 470h-67l237 -486l-96 -214h61z" />
    <glyph glyph-name="uni0424" unicode="&#x424;" horiz-adv-x="762" 
d="M353 700v-700h55v700h-55zM667 350c0 -46 -11.5 -85.167 -34.5 -117.5s-54.333 -56.666 -94 -72.999s-85.167 -24.5 -136.5 -24.5h-42c-51.333 0 -97 8.16699 -137 24.5s-71.333 40.666 -94 72.999s-34 71.5 -34 117.5c0 46.667 11.333 85.834 34 117.501
s54 55.834 94 72.501s85.667 25 137 25h42c51.333 0 96.833 -8.33301 136.5 -25s71 -40.834 94 -72.501s34.5 -70.834 34.5 -117.501zM722 350c0 56.667 -13.833 105 -41.5 145s-65.667 70.833 -114 92.5s-103.166 32.5 -164.499 32.5h-42
c-61.333 0 -116.166 -10.833 -164.499 -32.5s-86.333 -52.5 -114 -92.5s-41.5 -88.333 -41.5 -145c0 -56 13.833 -104.167 41.5 -144.5s65.667 -71.333 114 -93s103.166 -32.5 164.499 -32.5h42c61.333 0 116.166 10.833 164.499 32.5s86.333 52.667 114 93
s41.5 88.5 41.5 144.5z" />
    <glyph glyph-name="uni0425" unicode="&#x425;" horiz-adv-x="555" 
d="M438 700l-168 -285l-165 285h-66l202 -333l-227 -367h66l189 318l184 -318h66l-222 367l207 333h-66z" />
    <glyph glyph-name="uni0426" unicode="&#x426;" horiz-adv-x="730" 
d="M135 52v648h-55v-700h561v-110h49v162h-85v648h-55v-648h-415z" />
    </font>
</defs>
</svg>
